<svg id="Filled_Expand" height="512" viewBox="0 0 64 64" width="512" xmlns="http://www.w3.org/2000/svg" data-name="Filled Expand"><g fill="#ffe65a"><path d="m47 32c0 2.209-2.5 4-2.5 4s-2.5-1.791-2.5-4 2.5-4 2.5-4 2.5 1.791 2.5 4z"/><path d="m42.863 41.137c1.562 1.562 1.06 4.6 1.06 4.6s-3.034.5-4.6-1.061-1.061-4.6-1.061-4.6 3.038-.501 4.601 1.061z"/><path d="m34.863 29.863c1.562-1.562 1.06-4.6 1.06-4.6s-3.034-.5-4.6 1.061-1.061 4.6-1.061 4.6 3.038.501 4.601-1.061z"/></g><path d="m1 62v-12c5.17 0 5.17-2 10.34-2s5.17 2 10.34 2 5.16-2 10.32-2 5.16 2 10.32 2 5.17-2 10.34-2 5.17 2 10.34 2v12z" fill="#fab191"/><path d="m52.66 51c-5.17 0-5.17 2-10.34 2s-5.16-2-10.32-2-5.16 2-10.32 2-5.17-2-10.34-2c-3.913 0-4.867 1.144-7.34 1.7v9.3h59v-9c-5.17 0-5.17-2-10.34-2z" fill="#f0a07d"/><path d="m25.708 14.874h27a3 3 0 0 1 3 3 3 3 0 0 1 -3 3h-27a0 0 0 0 1 0 0v-6a0 0 0 0 1 0 0z" fill="#ffd2ba" transform="matrix(.966 .259 -.259 .966 6.013 -9.927)"/><path d="m28.416 12.494h27a3 3 0 0 1 3 3 3 3 0 0 1 -3 3h-27a0 0 0 0 1 0 0v-6a0 0 0 0 1 0 0z" fill="#fac3a0" transform="matrix(.966 .259 -.259 .966 5.489 -10.709)"/><path d="m57.712 18.852-22.747-6.1-17.252 10.558-10.57-2.832 4.141-15.455 6.05 1.621 14.882-4.059a8 8 0 0 1 5.467.458l22.057 10.214a2.986 2.986 0 0 1 1.63 3.483 2.987 2.987 0 0 1 -3.658 2.112z" fill="#ffd2ba"/><path d="m61.286 16.961a2.976 2.976 0 0 0 -1.546-1.7l-22.057-10.218a8 8 0 0 0 -5.467-.459l-14.882 4.06-6.55-1.755.5-1.866 6.05 1.621 14.882-4.059a8 8 0 0 1 5.467.458l22.057 10.214a2.986 2.986 0 0 1 1.63 3.483c-.021.078-.058.146-.084.221z" fill="#ffe0cd"/><path d="m45.86 16.148-4-1.072-8.38 2.245a13.782 13.782 0 0 0 -2.633 1.017l5.215 1.4 7.422-1.989a4.449 4.449 0 0 0 2.376-1.601z" fill="#fac3a0"/><path d="m8.075 21.052 8.67 2.715a13.071 13.071 0 0 0 12.351-2.5 12.306 12.306 0 0 1 4.773-2.5l9.231-2.467a3 3 0 0 0 2.121-3.674 2.994 2.994 0 0 0 -3.672-2.126l-13.831 3.706" fill="#ffd2ba"/><path d="m9.21 23.503-6.682-2.092 5.201-19.411 6.757 1.811z" fill="#ff8296"/><path d="m46.144 15.752-1.544-.413a3 3 0 0 0 -3.051-4.839l-13.11 3.512a.75.75 0 0 1 -.385-1.45l13.1-3.509a4.49 4.49 0 0 1 4.988 6.7z" fill="#fac3a0"/><path d="m4.438 22.009 4.772 1.494 4.759-17.761-4.825-1.293z" fill="#fa6378"/><path d="m45.5 29s.126.091.315.251a8.174 8.174 0 0 0 -1.315-1.251s-2.5 1.791-2.5 4c0 1.722 1.515 3.186 2.185 3.749a4.445 4.445 0 0 1 -1.185-2.749c0-2.209 2.5-4 2.5-4z" fill="#fff56e"/><path d="m39.266 41.077a6.752 6.752 0 0 1 4.034.623 3.138 3.138 0 0 0 -.438-.562c-1.562-1.562-4.6-1.06-4.6-1.06s-.5 3.034 1.061 4.6a3.138 3.138 0 0 0 .562.438 6.753 6.753 0 0 1 -.619-4.039z" fill="#fff56e"/><path d="m32.327 27.327a5.115 5.115 0 0 1 3.673-1.134 7.529 7.529 0 0 0 -.074-.927s-3.034-.5-4.6 1.061-1.061 4.6-1.061 4.6a7.529 7.529 0 0 0 .927.074 5.115 5.115 0 0 1 1.135-3.674z" fill="#fff56e"/><path d="m44.937 36.61c.115-.083 2.813-2.045 2.813-4.61s-2.7-4.527-2.813-4.61a.754.754 0 0 0 -.874 0c-.115.083-2.813 2.045-2.813 4.61s2.7 4.527 2.813 4.61a.751.751 0 0 0 .874 0zm-.437-1.58a4.639 4.639 0 0 1 -1.75-3.03 4.639 4.639 0 0 1 1.75-3.03 4.639 4.639 0 0 1 1.75 3.03 4.639 4.639 0 0 1 -1.75 3.03z"/><path d="m44.045 46.473a.75.75 0 0 0 .618-.618c.024-.139.543-3.435-1.27-5.248-1.813-1.814-5.109-1.294-5.248-1.27a.75.75 0 0 0 -.618.618c-.024.139-.544 3.435 1.27 5.248 1.813 1.813 5.109 1.297 5.248 1.27zm-5.092-5.71a4.635 4.635 0 0 1 3.38.9 4.631 4.631 0 0 1 .905 3.38 4.64 4.64 0 0 1 -3.38-.9 4.64 4.64 0 0 1 -.905-3.38z"/><path d="m36.045 24.527c-.138-.024-3.434-.544-5.248 1.27s-1.293 5.11-1.27 5.248a.75.75 0 0 0 .618.618c.139.023 3.435.543 5.248-1.27s1.294-5.109 1.27-5.248a.75.75 0 0 0 -.618-.618zm-1.712 4.805a4.645 4.645 0 0 1 -3.38.9 4.636 4.636 0 0 1 .905-3.38 4.636 4.636 0 0 1 3.379-.9 4.636 4.636 0 0 1 -.9 3.379z"/><path d="m63 49.25a11.606 11.606 0 0 1 -4.9-.95 13.055 13.055 0 0 0 -5.441-1.05 13.049 13.049 0 0 0 -5.44 1.05 11.611 11.611 0 0 1 -4.9.95 11.582 11.582 0 0 1 -4.889-.949 12.989 12.989 0 0 0 -5.43-1.051 12.989 12.989 0 0 0 -5.431 1.05 11.582 11.582 0 0 1 -4.889.949 11.611 11.611 0 0 1 -4.9-.95 13.049 13.049 0 0 0 -5.44-1.05 13.055 13.055 0 0 0 -5.44 1.051 11.606 11.606 0 0 1 -4.9.95.75.75 0 0 0 -.75.75v12a.75.75 0 0 0 .75.75h62a.75.75 0 0 0 .75-.75v-12a.75.75 0 0 0 -.75-.75zm-.75 12h-60.5v-10.514a12.83 12.83 0 0 0 4.69-1.036 11.615 11.615 0 0 1 4.9-.95 11.624 11.624 0 0 1 4.9.949 13.036 13.036 0 0 0 5.44 1.051 12.993 12.993 0 0 0 5.431-1.05 11.582 11.582 0 0 1 4.889-.95 11.582 11.582 0 0 1 4.889.949 12.993 12.993 0 0 0 5.431 1.051 13.036 13.036 0 0 0 5.441-1.05 11.624 11.624 0 0 1 4.9-.949 11.615 11.615 0 0 1 4.9.95 12.83 12.83 0 0 0 4.69 1.036z"/><circle cx="32" cy="53" r="1"/><circle cx="42.333" cy="57" r="1"/><circle cx="52.667" cy="53" r="1"/><circle cx="21.667" cy="57" r="1"/><circle cx="11.333" cy="53" r="1"/><path d="m2.3 22.128 6.682 2.091a.751.751 0 0 0 .949-.521l.315-1.179 6.271 1.964q.282.087.565.164a13.748 13.748 0 0 0 12.5-2.807 11.64 11.64 0 0 1 3.681-2.083l18.077 4.836a3.733 3.733 0 0 0 4.473-2.356 3.728 3.728 0 0 0 2.778-2.552 3.725 3.725 0 0 0 1.465-7.108l-22.056-10.214a8.767 8.767 0 0 0 -5.98-.5l-14.687 4.005-2.445-.655.323-1.208a.751.751 0 0 0 -.53-.919l-6.757-1.81a.75.75 0 0 0 -.919.53l-5.205 19.411a.751.751 0 0 0 .5.911zm49.413 1.026-15.671-4.2 2.885-.785 15.116 4.044c.037.01.074.009.111.018a2.243 2.243 0 0 1 -2.437.923zm2.708-2.381-12.621-3.384 1.519-.413a3.7 3.7 0 0 0 1.476-.81l12.286 3.292a2.241 2.241 0 0 1 -2.656 1.315zm-37.281-13.404a.741.741 0 0 0 .391 0l14.883-4.06a7.273 7.273 0 0 1 4.954.416l22.057 10.212a2.237 2.237 0 0 1 -1.519 4.191l-12.171-3.261a3.71 3.71 0 0 0 -4.366-5.093l-13.846 3.708a.75.75 0 0 0 .389 1.449l13.827-3.7a2.25 2.25 0 0 1 1.161 4.342l-9.412 2.527a13.147 13.147 0 0 0 -4.967 2.676 12.239 12.239 0 0 1 -11.551 2.275l-6.331-1.982 3.861-14.407zm-8.88-4.45 5.308 1.422-4.88 18.213-5.249-1.643z"/></svg>