<svg id="icons" enable-background="new 0 0 64 64" height="64" viewBox="0 0 64 64" width="64" xmlns="http://www.w3.org/2000/svg"><g><g><path d="m29 30.485h34v3h-1-32-1z" fill="#656d78"/></g><g><path d="m62 33.485-4 29.01h-24l-4-29.01z" fill="#545c66"/></g><g><path d="m24 43.495-2 19h-18l-2-19z" fill="#da4453"/></g><g><path d="m1 40.495h24v3h-1-22-1z" fill="#ed5565"/></g><g><path d="m23 19.505-2 18h-16l-2-18z" fill="#965353"/></g></g><g><g><path d="m25.004 44.496h-24.003c-.553 0-1-.447-1-1v-3c0-.553.447-1 1-1h24.003c.553 0 1 .447 1 1v3c0 .553-.447 1-1 1zm-23.003-2h22.003v-1h-22.003z"/></g><g><path d="m22.003 63.5h-18c-.512 0-.94-.387-.994-.896l-2.002-19.003c-.03-.281.062-.563.251-.773s.46-.331.743-.331h22.004c.283 0 .554.12.743.331s.281.492.251.773l-2.002 19.004c-.054.508-.482.895-.994.895zm-17.1-2h16.199l1.791-17.004h-19.781z"/></g><g><path d="m21.002 38.508h-15.998c-.51 0-.938-.383-.994-.89l-2.002-18.002c-.031-.282.06-.565.249-.777s.461-.333.745-.333h20.002c.284 0 .556.121.745.333s.28.495.249.777l-2.002 18.002c-.057.507-.484.89-.994.89zm-15.104-2h14.209l1.779-16.002h-17.767z"/></g><g><path d="m62.999 34.486h-34.001c-.553 0-1-.447-1-1v-3c0-.553.447-1 1-1h34.001c.553 0 1 .447 1 1v3c0 .553-.447 1-1 1zm-33.001-2h32.001v-1h-32.001z"/></g><g><path d="m57.996 63.5h-23.994c-.499 0-.922-.368-.99-.863l-4.004-29.014c-.04-.286.047-.576.236-.794s.465-.343.754-.343h32.002c.289 0 .564.125.754.343s.276.508.236.794l-4.004 29.014c-.068.495-.491.863-.99.863zm-23.123-2h22.252l3.728-27.014h-29.707z"/></g><g><path d="m19.039 23.502c-.553 0-1.005-.447-1.005-1s.442-1 .994-1h.011c.552 0 1 .447 1 1s-.448 1-1 1z"/></g><g><path d="m22.038 26.5c-.553 0-1.005-.447-1.005-1s.442-1 .994-1h.011c.552 0 1 .447 1 1s-.448 1-1 1z"/></g><g><path d="m13.039 23.502c-.553 0-1.005-.447-1.005-1s.442-1 .994-1h.011c.552 0 1 .447 1 1s-.448 1-1 1z"/></g><g><path d="m16.038 26.5c-.553 0-1.005-.447-1.005-1s.442-1 .994-1h.011c.552 0 1 .447 1 1s-.448 1-1 1z"/></g><g><path d="m19.037 29.498c-.553 0-1.005-.447-1.005-1s.442-1 .994-1h.011c.552 0 1 .447 1 1s-.448 1-1 1z"/></g><g><path d="m7.039 23.502c-.553 0-1.005-.447-1.005-1s.442-1 .994-1h.011c.552 0 1 .447 1 1s-.448 1-1 1z"/></g><g><path d="m10.038 26.5c-.553 0-1.005-.447-1.005-1s.442-1 .994-1h.011c.552 0 1 .447 1 1s-.448 1-1 1z"/></g><g><path d="m13.037 29.498c-.553 0-1.005-.447-1.005-1s.442-1 .994-1h.011c.552 0 1 .447 1 1s-.448 1-1 1z"/></g><g><path d="m16.036 32.496c-.553 0-1.005-.447-1.005-1s.442-1 .994-1h.011c.552 0 1 .447 1 1s-.448 1-1 1z"/></g><g><path d="m19.035 35.494c-.553 0-1.005-.447-1.005-1s.442-1 .994-1h.011c.552 0 1 .447 1 1s-.448 1-1 1z"/></g><g><path d="m4.038 26.5c-.553 0-1.005-.447-1.005-1s.442-1 .994-1h.011c.552 0 1 .447 1 1s-.448 1-1 1z"/></g><g><path d="m7.037 29.498c-.553 0-1.005-.447-1.005-1s.442-1 .994-1h.011c.552 0 1 .447 1 1s-.448 1-1 1z"/></g><g><path d="m10.036 32.496c-.553 0-1.005-.447-1.005-1s.442-1 .994-1h.011c.552 0 1 .447 1 1s-.448 1-1 1z"/></g><g><path d="m13.035 35.494c-.553 0-1.005-.447-1.005-1s.442-1 .994-1h.011c.552 0 1 .447 1 1s-.448 1-1 1z"/></g><g><path d="m7.035 35.494c-.553 0-1.005-.447-1.005-1s.442-1 .994-1h.011c.552 0 1 .447 1 1s-.448 1-1 1z"/></g><g><path d="m13 20.418c-.553 0-1-.447-1-1v-11.918c0-.553.447-1 1-1s1 .447 1 1v11.918c0 .553-.447 1-1 1z"/></g><g><path d="m13 8.5c-.553 0-1-.447-1-1 0-3.859 3.141-7 7-7 .553 0 1 .447 1 1s-.447 1-1 1c-2.757 0-5 2.243-5 5 0 .553-.447 1-1 1z"/></g><g><path d="m13.009 15.504c-.553 0-1-.447-1-1 0-3.859-3.141-7-7-7-.553 0-1-.447-1-1s.447-1 1-1c4.963 0 9 4.037 9 9 0 .553-.447 1-1 1z"/></g><g><path d="m46 10.5h-19.999c-.553 0-1-.447-1-1s.447-1 1-1h19.999c.553 0 1 .447 1 1s-.447 1-1 1z"/></g><g><path d="m46 27.5c-.553 0-1-.447-1-1v-17c0-.553.447-1 1-1s1 .447 1 1v17c0 .553-.447 1-1 1z"/></g><g><path d="m46 27.5c-.256 0-.512-.098-.707-.293-.391-.391-.391-1.023 0-1.414l3-3c.391-.391 1.023-.391 1.414 0s.391 1.023 0 1.414l-3 3c-.195.195-.451.293-.707.293z"/></g><g><path d="m46 27.5c-.256 0-.512-.098-.707-.293l-3-3c-.391-.391-.391-1.023 0-1.414s1.023-.391 1.414 0l3 3c.391.391.391 1.023 0 1.414-.195.195-.451.293-.707.293z"/></g><g><path d="m13.009 16.5c-.553 0-1-.447-1-1 0-2.752 2.239-4.99 4.991-4.99.553 0 1 .447 1 1s-.447 1-1 1c-1.649 0-2.991 1.342-2.991 2.99 0 .553-.447 1-1 1z"/></g></g></svg>