<svg version="1.1" id="Capa_1" xmlns="http://www.w3.org/2000/svg" xmlns:xlink="http://www.w3.org/1999/xlink" x="0px" y="0px" viewBox="0 0 512 512" style="enable-background:new 0 0 512 512;" xml:space="preserve">
<g>
	<g>
		<circle style="fill:#FFC344;" cx="169.5" cy="200.5" r="59.5"/>
		<path style="fill:#FEB237;" d="M174.154,141.198C183.388,151.682,189,165.432,189,180.5c0,32.861-26.639,59.5-59.5,59.5&#10;&#9;&#9;&#9;c-1.568,0-3.116-0.079-4.654-0.198C135.75,252.18,151.707,260,169.5,260c32.861,0,59.5-26.639,59.5-59.5&#10;&#9;&#9;&#9;C229,169.207,204.837,143.575,174.154,141.198z"/>
		<g>
			<path style="fill:#FED2A4;" d="M55.884,279.789v-34.591c0-110.344,89.771-200.116,200.116-200.116&#10;&#9;&#9;&#9;&#9;s200.116,89.772,200.116,200.116v34.591h29.285v-34.591c0-61.275-23.862-118.883-67.19-162.211&#10;&#9;&#9;&#9;&#9;C374.883,39.659,317.275,15.797,256,15.797S137.117,39.659,93.789,82.987c-43.328,43.328-67.19,100.936-67.19,162.211v34.591&#10;&#9;&#9;&#9;&#9;H55.884z"/>
		</g>
		<g>
			<path style="fill:#8BC727;" d="M167.916,279.789C166.192,245.429,137.788,218.1,103,218.1s-63.192,27.329-64.916,61.689H167.916z&#10;&#9;&#9;&#9;&#9;"/>
		</g>
		<path style="fill:#81B823;" d="M48.292,248c-5.95,9.255-9.623,20.114-10.209,31.789h129.833&#10;&#9;&#9;&#9;c-0.586-11.675-4.258-22.534-10.209-31.789H48.292z"/>
		<g>
			<path style="fill:#97756E;" d="M340.978,160.123c3.703-0.86,7.497-1.312,11.363-1.312c3.865,0,7.66,0.452,11.363,1.312&#10;&#9;&#9;&#9;&#9;l5.833-41.324c0.425-3.01-1.912-5.699-4.951-5.699h-24.489c-3.039,0-5.376,2.689-4.951,5.699L340.978,160.123z"/>
			<path style="fill:#82635E;" d="M364.586,113.1h-5.68l-3.563,25.243c-0.703,4.978-4.963,8.68-9.991,8.68h-6.222l1.849,13.1&#10;&#9;&#9;&#9;&#9;c3.703-0.86,7.497-1.312,11.363-1.312c3.865,0,7.66,0.452,11.363,1.312l5.833-41.324&#10;&#9;&#9;&#9;&#9;C369.961,115.789,367.625,113.1,364.586,113.1z"/>
			<g>
				<g>
					<g>
						<path style="fill:#FE9738;" d="M424.78,264.621c0,5.15-0.259,10.212-0.745,15.168h65.212&#10;&#9;&#9;&#9;&#9;&#9;&#9;&#9;c0.494-4.949,0.752-10.013,0.752-15.168c0-56.387-30.615-102.098-68.38-102.098c-11.372,0-22.094,4.15-31.529,11.484&#10;&#9;&#9;&#9;&#9;&#9;&#9;&#9;C410.881,192.695,424.78,226.322,424.78,264.621z"/>
					</g>
					<path style="fill:#FE860A;" d="M443.197,167.716c9.813,17.674,15.712,40.366,15.712,65.116c0,1.835-0.033,3.658-0.097,5.469&#10;&#9;&#9;&#9;&#9;&#9;&#9;c-0.192,5.403-4.595,9.698-10.001,9.698h-24.925c0.583,5.418,0.894,10.967,0.894,16.621c0,5.15-0.259,10.212-0.745,15.168&#10;&#9;&#9;&#9;&#9;&#9;&#9;h65.212c0.494-4.949,0.752-10.013,0.752-15.168C490,219.493,470.389,181.207,443.197,167.716z"/>
					<g>
						<path style="fill:#FE9738;" d="M280.647,279.789c-0.486-4.956-0.745-10.018-0.745-15.168c0-38.3,13.9-71.927,34.69-90.614&#10;&#9;&#9;&#9;&#9;&#9;&#9;&#9;c-9.435-7.334-20.157-11.484-31.529-11.484c-37.766,0-68.38,45.711-68.38,102.098c0,5.154,0.258,10.218,0.752,15.168H280.647z&#10;&#9;&#9;&#9;&#9;&#9;&#9;&#9;"/>
					</g>
				</g>
				<g>
					<path style="fill:#FE7701;" d="M424.872,279.789c0.483-4.955,0.739-10.018,0.739-15.167c0-58.99-32.804-106.811-73.27-106.811&#10;&#9;&#9;&#9;&#9;&#9;&#9;c-40.466,0-73.27,47.821-73.27,106.811c0,5.15,0.255,10.212,0.739,15.167H424.872z"/>
				</g>
				<path style="fill:#F46700;" d="M363.741,159.1C376.293,178.271,384,204.24,384,232.833c0,1.833-0.032,3.655-0.096,5.465&#10;&#9;&#9;&#9;&#9;&#9;c-0.19,5.404-4.593,9.702-10.001,9.702h-93.948c-0.581,5.417-0.885,10.967-0.885,16.622c0,5.15,0.255,10.212,0.739,15.167&#10;&#9;&#9;&#9;&#9;&#9;h145.062c0.483-4.955,0.739-10.018,0.739-15.167C425.611,211.285,398.793,167.083,363.741,159.1z"/>
			</g>
		</g>
		<g>
			<path style="fill:#FB2B3A;" d="M286.452,279.789c0.077-1.462,0.127-2.932,0.127-4.418c0-38.088-25.73-68.964-57.47-68.964&#10;&#9;&#9;&#9;&#9;c-9.689,0-18.811,2.889-26.819,7.971c-8.008-5.081-17.131-7.971-26.819-7.971c-31.74,0-57.47,30.876-57.47,68.964&#10;&#9;&#9;&#9;&#9;c0,1.485,0.049,2.956,0.127,4.418H286.452z"/>
			<path style="fill:#E41F2D;" d="M235.756,206.881l6.144,29.05c1.315,6.218-3.428,12.069-9.784,12.069H122.715&#10;&#9;&#9;&#9;&#9;c-3.028,8.392-4.715,17.644-4.715,27.371c0,1.485,0.049,2.956,0.127,4.418h168.326c0.077-1.462,0.127-2.932,0.127-4.418&#10;&#9;&#9;&#9;&#9;C286.579,239.983,264.363,210.837,235.756,206.881z"/>
			<g>
				<path style="fill:#8BC727;" d="M266.568,164.094c-0.503-1.718-1.857-3.073-3.576-3.576&#10;&#9;&#9;&#9;&#9;&#9;c-14.505-4.242-30.814-0.652-42.253,10.788c-12.153,12.153-15.447,29.801-9.903,44.944c15.143,5.544,32.791,2.25,44.944-9.903&#10;&#9;&#9;&#9;&#9;&#9;C267.22,194.908,270.811,178.599,266.568,164.094z"/>
				<path style="fill:#81B823;" d="M266.568,164.094c-0.503-1.718-1.857-3.073-3.576-3.576c-3.592-1.051-7.296-1.618-11.008-1.707&#10;&#9;&#9;&#9;&#9;&#9;c0.121,11.089-4.034,22.215-12.496,30.677c-8.607,8.607-19.969,12.748-31.246,12.475c0.051,4.844,0.907,9.681,2.593,14.286&#10;&#9;&#9;&#9;&#9;&#9;c15.143,5.544,32.791,2.25,44.944-9.903C267.22,194.908,270.811,178.599,266.568,164.094z"/>
			</g>
		</g>
		<path style="fill:#F6A96C;" d="M24.377,329.003v92.2c0,41.421,33.579,75,75,75h313.246c41.421,0,75-33.579,75-75v-92.2H24.377z"/>
		<path style="fill:#EA9B58;" d="M439,329.003v60.917c0,32.077-26.003,58.08-58.08,58.08H29.326&#10;&#9;&#9;&#9;c10.788,28.183,38.074,48.203,70.051,48.203h313.246c41.421,0,75-33.579,75-75v-92.2H439z"/>
		<path style="fill:#FED2A4;" d="M494.5,330.002h-477c-5.523,0-10-4.477-10-10v-31.213c0-5.523,4.477-10,10-10h477&#10;&#9;&#9;&#9;c5.523,0,10,4.477,10,10v31.213C504.5,325.525,500.023,330.002,494.5,330.002z"/>
		<path style="fill:#FFBD86;" d="M494.5,278.789H454v15.424c0,5.523-4.477,10-10,10H7.5v15.789c0,5.523,4.477,10,10,10h477&#10;&#9;&#9;&#9;c5.523,0,10-4.477,10-10v-31.213C504.5,283.266,500.023,278.789,494.5,278.789z"/>
	</g>
	<g>
		<path style="fill:none;stroke:#000000;stroke-width:15;stroke-linecap:round;stroke-linejoin:round;stroke-miterlimit:10;" d="&#10;&#9;&#9;&#9;M220.74,171.307c0.127-0.127,0.263-0.24,0.391-0.365C210.869,153.057,191.599,141,169.5,141c-32.861,0-59.5,26.639-59.5,59.5&#10;&#9;&#9;&#9;c0,6.407,1.025,12.573,2.899,18.356"/>
		<path style="fill:none;stroke:#000000;stroke-width:15;stroke-linecap:round;stroke-linejoin:round;stroke-miterlimit:10;" d="&#10;&#9;&#9;&#9;M134.934,226.49c-9.433-5.333-20.324-8.39-31.934-8.39c-34.448,0-62.62,26.803-64.842,60.689"/>
		<path style="fill:none;stroke:#000000;stroke-width:15;stroke-linecap:round;stroke-linejoin:round;stroke-miterlimit:10;" d="&#10;&#9;&#9;&#9;M363.845,159.125l5.692-40.326c0.425-3.01-1.912-5.699-4.951-5.699h-24.489c-3.039,0-5.376,2.689-4.951,5.699l5.692,40.326"/>
		<path style="fill:none;stroke:#000000;stroke-width:15;stroke-linecap:round;stroke-linejoin:round;stroke-miterlimit:10;" d="&#10;&#9;&#9;&#9;M489.335,278.789c0.431-4.632,0.665-9.359,0.665-14.168c0-56.387-30.615-102.098-68.38-102.098&#10;&#9;&#9;&#9;c-11.143,0-21.659,3.993-30.954,11.053"/>
		<path style="fill:none;stroke:#000000;stroke-width:15;stroke-linecap:round;stroke-linejoin:round;stroke-miterlimit:10;" d="&#10;&#9;&#9;&#9;M314.017,173.576c-9.295-7.06-19.811-11.053-30.954-11.053c-5.567,0-10.978,1.001-16.159,2.875"/>
		<path style="fill:none;stroke:#000000;stroke-width:15;stroke-linecap:round;stroke-linejoin:round;stroke-miterlimit:10;" d="&#10;&#9;&#9;&#9;M424.958,278.789c0.422-4.637,0.653-9.362,0.653-14.168c0-58.99-32.804-106.811-73.27-106.811&#10;&#9;&#9;&#9;c-18.791,0-35.923,10.322-48.891,27.277"/>
		<path style="fill:none;stroke:#000000;stroke-width:15;stroke-linecap:round;stroke-linejoin:round;stroke-miterlimit:10;" d="&#10;&#9;&#9;&#9;M287.09,216.057c-3.08,8.779-5.366,18.248-6.686,28.225"/>
		<path style="fill:none;stroke:#000000;stroke-width:15;stroke-linecap:round;stroke-linejoin:round;stroke-miterlimit:10;" d="&#10;&#9;&#9;&#9;M202.29,214.378c-8.008-5.081-17.131-7.971-26.819-7.971c-31.74,0-57.47,30.876-57.47,68.964c0,1.148,0.036,2.285,0.085,3.418&#10;&#9;&#9;&#9;h168.41c0.049-1.133,0.085-2.27,0.085-3.418c0-29.226-15.158-54.188-36.548-64.229"/>
		<path style="fill:none;stroke:#000000;stroke-width:15;stroke-linecap:round;stroke-linejoin:round;stroke-miterlimit:10;" d="&#10;&#9;&#9;&#9;M266.568,164.094c-0.503-1.718-1.857-3.073-3.576-3.576c-14.505-4.242-30.814-0.652-42.253,10.788&#10;&#9;&#9;&#9;c-12.153,12.153-15.447,29.801-9.903,44.944c15.143,5.544,32.791,2.25,44.944-9.903&#10;&#9;&#9;&#9;C267.22,194.908,270.811,178.599,266.568,164.094z"/>
		
			<line style="fill:none;stroke:#000000;stroke-width:15;stroke-linecap:round;stroke-linejoin:round;stroke-miterlimit:10;" x1="234.171" y1="192.916" x2="202.29" y2="224.798"/>
		<path style="fill:none;stroke:#000000;stroke-width:15;stroke-linecap:round;stroke-linejoin:round;stroke-miterlimit:10;" d="&#10;&#9;&#9;&#9;M24.377,396v25.203c0,41.421,33.579,75,75,75h313.246c41.421,0,75-33.579,75-75v-91.2H24.377V361"/>
		<g>
			<g>
				<g>
					
						<line style="fill:none;stroke:#000000;stroke-width:15;stroke-linecap:round;stroke-linejoin:round;stroke-miterlimit:10;" x1="99.668" y1="368.412" x2="118.467" y2="368.412"/>
					
						<line style="fill:none;stroke:#000000;stroke-width:15;stroke-linecap:round;stroke-linejoin:round;stroke-miterlimit:10;" x1="170.908" y1="368.412" x2="189.707" y2="368.412"/>
					
						<line style="fill:none;stroke:#000000;stroke-width:15;stroke-linecap:round;stroke-linejoin:round;stroke-miterlimit:10;" x1="242.148" y1="368.412" x2="260.947" y2="368.412"/>
					
						<line style="fill:none;stroke:#000000;stroke-width:15;stroke-linecap:round;stroke-linejoin:round;stroke-miterlimit:10;" x1="313.388" y1="368.412" x2="332.187" y2="368.412"/>
					
						<line style="fill:none;stroke:#000000;stroke-width:15;stroke-linecap:round;stroke-linejoin:round;stroke-miterlimit:10;" x1="384.628" y1="368.412" x2="403.427" y2="368.412"/>
				</g>
				<g>
					
						<line style="fill:none;stroke:#000000;stroke-width:15;stroke-linecap:round;stroke-linejoin:round;stroke-miterlimit:10;" x1="99.668" y1="447.56" x2="118.467" y2="447.56"/>
					
						<line style="fill:none;stroke:#000000;stroke-width:15;stroke-linecap:round;stroke-linejoin:round;stroke-miterlimit:10;" x1="170.908" y1="447.56" x2="189.707" y2="447.56"/>
					
						<line style="fill:none;stroke:#000000;stroke-width:15;stroke-linecap:round;stroke-linejoin:round;stroke-miterlimit:10;" x1="242.148" y1="447.56" x2="260.947" y2="447.56"/>
					
						<line style="fill:none;stroke:#000000;stroke-width:15;stroke-linecap:round;stroke-linejoin:round;stroke-miterlimit:10;" x1="313.388" y1="447.56" x2="332.187" y2="447.56"/>
					
						<line style="fill:none;stroke:#000000;stroke-width:15;stroke-linecap:round;stroke-linejoin:round;stroke-miterlimit:10;" x1="384.628" y1="447.56" x2="403.427" y2="447.56"/>
				</g>
			</g>
			<g>
				
					<line style="fill:none;stroke:#000000;stroke-width:15;stroke-linecap:round;stroke-linejoin:round;stroke-miterlimit:10;" x1="68.5" y1="407.986" x2="87.299" y2="407.986"/>
				
					<line style="fill:none;stroke:#000000;stroke-width:15;stroke-linecap:round;stroke-linejoin:round;stroke-miterlimit:10;" x1="139.74" y1="407.986" x2="158.54" y2="407.986"/>
				
					<line style="fill:none;stroke:#000000;stroke-width:15;stroke-linecap:round;stroke-linejoin:round;stroke-miterlimit:10;" x1="210.98" y1="407.986" x2="229.78" y2="407.986"/>
				
					<line style="fill:none;stroke:#000000;stroke-width:15;stroke-linecap:round;stroke-linejoin:round;stroke-miterlimit:10;" x1="282.22" y1="407.986" x2="301.02" y2="407.986"/>
				
					<line style="fill:none;stroke:#000000;stroke-width:15;stroke-linecap:round;stroke-linejoin:round;stroke-miterlimit:10;" x1="353.46" y1="407.986" x2="372.26" y2="407.986"/>
				
					<line style="fill:none;stroke:#000000;stroke-width:15;stroke-linecap:round;stroke-linejoin:round;stroke-miterlimit:10;" x1="424.701" y1="407.986" x2="443.5" y2="407.986"/>
			</g>
		</g>
		<path style="fill:none;stroke:#000000;stroke-width:15;stroke-linecap:round;stroke-linejoin:round;stroke-miterlimit:10;" d="&#10;&#9;&#9;&#9;M494.5,330.002h-477c-5.523,0-10-4.477-10-10v-31.213c0-5.523,4.477-10,10-10h477c5.523,0,10,4.477,10,10v31.213&#10;&#9;&#9;&#9;C504.5,325.525,500.023,330.002,494.5,330.002z"/>
		<path style="fill:none;stroke:#000000;stroke-width:15;stroke-linecap:round;stroke-linejoin:round;stroke-miterlimit:10;" d="&#10;&#9;&#9;&#9;M484.452,224.284c-4.794-53.381-27.881-102.936-66.24-141.296C374.883,39.659,317.275,15.797,256,15.797&#10;&#9;&#9;&#9;c-32.645,0-64.248,6.776-93.206,19.657"/>
		<path style="fill:none;stroke:#000000;stroke-width:15;stroke-linecap:round;stroke-linejoin:round;stroke-miterlimit:10;" d="&#10;&#9;&#9;&#9;M56.02,238.18C59.732,131.074,148.006,45.082,256,45.082c82.302,0,153.148,49.946,183.847,121.115"/>
		<path style="fill:none;stroke:#000000;stroke-width:15;stroke-linecap:round;stroke-linejoin:round;stroke-miterlimit:10;" d="&#10;&#9;&#9;&#9;M132.003,52.122c-13.645,8.802-26.458,19.111-38.214,30.866c-43.328,43.328-67.19,100.936-67.19,162.211v33.591"/>
	</g>
</g>
<g>
</g>
<g>
</g>
<g>
</g>
<g>
</g>
<g>
</g>
<g>
</g>
<g>
</g>
<g>
</g>
<g>
</g>
<g>
</g>
<g>
</g>
<g>
</g>
<g>
</g>
<g>
</g>
<g>
</g>
</svg>