<svg id="icons" height="512" viewBox="0 0 340 340" width="512" xmlns="http://www.w3.org/2000/svg"><path d="m300.972 18.829s30.365-1.168 28.878 32.952a8.22 8.22 0 0 1 -8.229 7.821h-77.621s11.248-42.15 56.972-40.773z" fill="#424256"/><path d="m285.843 91.964 41.4 219.759a7.973 7.973 0 0 1 -7.835 9.449h-75.282c5.049-61.837 27.191-142.437 41.717-229.208z" fill="#424256"/><path d="m23.809 313.219 30.652-221.255h231.382l-30.387 219.336a11.438 11.438 0 0 1 -11.33 9.868h-213.39a6.993 6.993 0 0 1 -6.927-7.949z" fill="#6db1f2"/><path d="m9.459 295.4 37.23-168.3c75.228-3.729 148.818-3.482 227.719 0l-33.415 167.608a10.98 10.98 0 0 1 -10.721 8.608h-214.454a6.513 6.513 0 0 1 -6.359-7.916z" fill="#fff"/><path d="m281.5 127.806c-78.9-3.481-159.581-4.438-234.809-.709l-6.735 30.446c43.219 5.817 143.582 24.344 212.542 79.464z" fill="#eff"/><path d="m278.071 127.097 7.772-35.133h-231.382z" fill="#6db1f2"/><path d="m46.689 127.1s-40.869-17.57-22.85-72.233c0 0 9.814-32.107 45.538-36.038h231.595c-35.724 3.931-45.538 36.038-45.538 36.038-18.019 54.663 18.974 72.23 18.974 72.23z" fill="#c1d7ff"/><path d="m172.15 266.149s16.235-18.3 50.919-11.277c0 0-14.661 31.547-50.919 11.277z" fill="#92b27b"/><path d="m160.807 282.722a3.5 3.5 0 0 1 -2.246-6.186c25.551-21.345 25.895-65.89 25.895-66.338a3.5 3.5 0 0 1 3.5-3.5 3.5 3.5 0 0 1 3.5 3.5c0 1.959-.323 48.247-28.408 71.708a3.482 3.482 0 0 1 -2.241.816z" fill="#92b27b"/><g fill="#ffc05d"><path d="m182.674 160.9c-3.359-3.071-7.06-2.8-11.285-.958-4.248 1.783-7 4.269-7.105 8.819a13.1 13.1 0 0 0 2.58 7.721l13.428 18.618 10.366-4.431-4.186-22.569a13.1 13.1 0 0 0 -3.798-7.2z"/><path d="m213.043 231.938c-.1 4.55-2.857 7.036-7.105 8.82-4.225 1.838-7.926 2.113-11.285-.959a13.092 13.092 0 0 1 -3.8-7.2l-4.186-22.578 10.366-4.431 13.427 18.627a13.09 13.09 0 0 1 2.583 7.721z"/><path d="m220.7 176.563c1.139-4.407-.838-7.548-4.443-10.418-3.567-2.917-7.055-4.186-11.121-2.141a13.09 13.09 0 0 0 -5.611 5.9l-10.154 20.596 8.773 7.079 17.98-14.281a13.089 13.089 0 0 0 4.576-6.735z"/><path d="m172.187 236.691c-4.067 2.044-7.554.775-11.121-2.142-3.6-2.87-5.582-6.01-4.444-10.417a13.091 13.091 0 0 1 4.58-6.73l17.981-14.281 8.773 7.079-10.156 20.592a13.09 13.09 0 0 1 -5.613 5.899z"/><path d="m225.251 216.275c4.388-1.209 6.126-4.488 6.818-9.044.751-4.545.113-8.2-3.685-10.709a13.094 13.094 0 0 0 -7.91-1.925l-22.916 1.454-1.766 11.134 21.341 8.473a13.09 13.09 0 0 0 8.118.617z"/><path d="m148.943 204.172c-3.8-2.507-4.436-6.163-3.685-10.709.692-4.555 2.43-7.835 6.818-9.044a13.1 13.1 0 0 1 8.117.618l21.342 8.473-1.766 11.133-22.916 1.457a13.093 13.093 0 0 1 -7.91-1.928z"/><circle cx="188.663" cy="200.347" r="17.402"/></g><circle cx="188.663" cy="200.347" fill="#fff" r="12.575"/><path d="m20.38 306.816h.783l-.448 3.236a12.99 12.99 0 0 0 .938 7.155 12.64 12.64 0 0 0 11.528 7.465h293.082a5.7 5.7 0 0 0 5.626-6.625l-.757-4.612-41.432-219.924a6.191 6.191 0 0 0 -2.133-3.621 6.194 6.194 0 0 0 -3.954-1.427h-28.842a68.109 68.109 0 0 1 1.929-25.363h60.854a15.994 15.994 0 0 0 11.328-4.485 15.067 15.067 0 0 0 4.478-11.381c-1.282-31.631-30.178-31.931-32.385-31.907h-231.598l-.379.02c-37.583 4.136-48.398 38.153-48.483 38.424-9.765 29.625-2.6 48.836 5.138 59.735a53.7 53.7 0 0 0 17.036 15.469l-35.742 161.572a13.333 13.333 0 0 0 3.221 11.953 13.808 13.808 0 0 0 10.212 4.316zm223.748 10.856h-210.947a5.624 5.624 0 0 1 -5.57-6.394l.618-4.462h202.043a14.373 14.373 0 0 0 14.125-11.3l23.167-97.115-15.575 112.42a7.969 7.969 0 0 1 -7.861 6.851zm42.242-204.008 37.883 201.067a2.483 2.483 0 0 1 -2.439 2.941h-65.062a14.768 14.768 0 0 0 2.171-5.886zm-4.545-18.2-3.834 27.677a46.119 46.119 0 0 1 -15.135-13.676 45.63 45.63 0 0 1 -6.658-14zm19.418-73.14c2.192-.037 24.111.278 25.122 25.2a8.123 8.123 0 0 1 -2.288 6 8.327 8.327 0 0 1 -6.058 2.582h-59.3c.023-.072.042-.141.065-.213.088-.302 9.5-29.876 42.459-33.57zm-274.059 33.576c.379-1.22 9.63-29.859 42.388-33.568h208.858c-19.89 11.207-26.257 31.234-26.32 31.442-9.764 29.62-2.657 48.828 5.024 59.726a53.763 53.763 0 0 0 9.277 10.1h-218.948c-5.012-2.452-36.058-19.831-20.279-67.7zm-13.4 236.162 35.716-161.462h227.043l-38.967 163.352a7.434 7.434 0 0 1 -7.3 5.864h-210.265a6.38 6.38 0 0 1 -6.229-7.757z" fill="#424256"/><path d="m147.016 207.094a16.186 16.186 0 0 0 8.9 2.533q.578 0 1.161-.037l9.058-.574-7.108 5.645a16.437 16.437 0 0 0 -5.791 8.595c-2.043 7.905 3.748 12.516 5.616 14 1.376 1.125 4.8 3.929 9.4 3.929a12.157 12.157 0 0 0 5.512-1.37 16.375 16.375 0 0 0 7.035-7.215c-3 13.49-9.294 31.78-22.385 44.067a3.5 3.5 0 0 0 4.791 5.1 67.861 67.861 0 0 0 9.6-11.325c7.765 3.983 15.142 6 22.051 6a33.4 33.4 0 0 0 10.348-1.61c14.486-4.688 20.783-17.933 21.044-18.5a3.5 3.5 0 0 0 -2.479-4.9c-19.937-4.039-34.12-.132-42.977 4.336a120.444 120.444 0 0 0 6.862-21.494 16.2 16.2 0 0 0 4.642 8.1 11.733 11.733 0 0 0 8.135 3.25 17.167 17.167 0 0 0 6.866-1.647c2.243-.941 9.069-3.807 9.25-11.97a16.443 16.443 0 0 0 -3.24-9.845l-4.311-5.979 6.851 2.72a17.43 17.43 0 0 0 6.407 1.256 14.814 14.814 0 0 0 3.931-.518c7.871-2.167 8.984-9.486 9.342-11.847.4-2.4 1.6-9.7-5.21-14.2a16.45 16.45 0 0 0 -10.06-2.5l-9.058.575 7.107-5.645a16.443 16.443 0 0 0 5.792-8.6c2.043-7.9-3.748-12.516-5.616-14-1.883-1.54-7.614-6.226-14.909-2.559a16.433 16.433 0 0 0 -7.177 7.477l-4.587 9.3-1.89-10.195a16.445 16.445 0 0 0 -4.878-9.146c-6.025-5.509-12.813-2.556-15-1.6-2.243.941-9.07 3.806-9.25 11.969a16.443 16.443 0 0 0 3.24 9.845l4.311 5.98-6.851-2.72a16.435 16.435 0 0 0 -10.338-.739c-7.872 2.168-8.984 9.487-9.342 11.847-.403 2.409-1.611 9.717 5.205 14.211zm70.336 50.352a29.526 29.526 0 0 1 -14.383 10.76c-7.24 2.319-15.493 1.373-24.585-2.8 5.769-4.166 18.533-10.775 38.968-7.96zm-42.693-28.2a9.557 9.557 0 0 1 -4.044 4.32c-2 1-3.922 1.065-7.369-1.752-3.448-2.746-3.794-4.64-3.235-6.805a9.556 9.556 0 0 1 3.368-4.865l12.565-9.979a16.044 16.044 0 0 0 5.815 4.686zm34.885 2.616c-.05 2.236-.9 3.964-5 5.688-4.04 1.76-5.875 1.177-7.526-.332a9.556 9.556 0 0 1 -2.719-5.255l-2.926-15.784a15.542 15.542 0 0 0 6.865-2.935l9.388 13.021a9.569 9.569 0 0 1 1.918 5.595zm11.156-33.772a9.564 9.564 0 0 1 5.761 1.353c1.866 1.232 2.878 2.869 2.152 7.263-.662 4.358-2.131 5.6-4.287 6.194a9.56 9.56 0 0 1 -5.9-.5l-14.919-5.923a16.112 16.112 0 0 0 1.171-7.375zm-18.027-26.639a9.561 9.561 0 0 1 4.043-4.32c2-1 3.924-1.066 7.37 1.752 3.448 2.746 3.794 4.639 3.235 6.8a9.563 9.563 0 0 1 -3.368 4.865l-12.573 9.986a16.013 16.013 0 0 0 -5.813-4.683zm-5.66 25.329a9.076 9.076 0 1 1 -8.357-5.507 9.085 9.085 0 0 1 8.352 5.507zm-29.225-27.946c.05-2.236.9-3.964 5-5.688 4.042-1.759 5.876-1.177 7.526.332a9.559 9.559 0 0 1 2.719 5.256l2.926 15.783a15.526 15.526 0 0 0 -6.866 2.936l-9.393-13.023a9.55 9.55 0 0 1 -1.917-5.596zm-19.065 25.155c.662-4.358 2.132-5.6 4.287-6.195a9.557 9.557 0 0 1 5.9.5l14.919 5.923a16.1 16.1 0 0 0 -1.171 7.375l-16.026 1.008a9.536 9.536 0 0 1 -5.761-1.353c-1.871-1.227-2.879-2.865-2.153-7.258z" fill="#424256"/><path d="m61.743 273.2h77.513a3.5 3.5 0 1 0 0-7h-53.729l6.4-28.949h36.788a3.5 3.5 0 0 0 0-7h-35.235l5.842-26.408h27.124a3.5 3.5 0 0 0 0-7h-25.576l5.425-24.524h32.961a3.5 3.5 0 0 0 0-7h-60.491a15.372 15.372 0 0 0 -15.1 12.125l-17.022 76.95a15.464 15.464 0 0 0 15.1 18.805zm8.757-94.245a8.413 8.413 0 0 1 8.265-6.637h20.36l-5.425 24.524h-27.157zm-5.5 24.887h27.152l-5.842 26.408h-27.157zm-11.522 52.064 4.122-18.656h27.162l-6.4 28.949h-16.619a8.464 8.464 0 0 1 -8.265-10.293z" fill="#424256"/></svg>