<svg id="icons" height="64" viewBox="0 0 64 64" width="64" xmlns="http://www.w3.org/2000/svg"><g><path d="m35.00053 20.0048v1h-6v-1a2.032 2.032 0 0 1 .27-1.01 2.00825 2.00825 0 0 1 1.73-.99h2a2.00825 2.00825 0 0 1 1.73.99 2.032 2.032 0 0 1 .27 1.01z" fill="#844747"/><path d="m40.75053 38.0048a29.29547 29.29547 0 0 1 0 7.6 9.05065 9.05065 0 0 0 -4.17 3.3l-2.58-19.04a11.55479 11.55479 0 0 0 3.8-1.36 30.77391 30.77391 0 0 1 1.51 3.5 29.79663 29.79663 0 0 1 1.44 6z" fill="#773e3e"/><path d="m35.00053 21.0048a21.56026 21.56026 0 0 1 1.76 2.9 4.00685 4.00685 0 0 1 -2.76 1.1 1.99309 1.99309 0 0 1 -2-2v-2z" fill="#545c66"/><path d="m26.19053 28.5048a11.69521 11.69521 0 0 0 7.81 1.36l2.58 19.04a8.99227 8.99227 0 0 0 -.55 9.27h-.01a30.75907 30.75907 0 0 1 -4.02 4.83 29.439 29.439 0 0 1 -8.75-25 28.65456 28.65456 0 0 1 1.44-6 29.01485 29.01485 0 0 1 1.5-3.5z" fill="#844747"/><path d="m38.00053 27.0048-.19 1.5h-.01a11.55479 11.55479 0 0 1 -3.8 1.36 11.69521 11.69521 0 0 1 -7.81-1.36l-.19-1.5a15.6684 15.6684 0 0 1 1.24-3.1 4.00685 4.00685 0 0 0 2.76 1.1 1.99944 1.99944 0 0 0 2-2 1.99309 1.99309 0 0 0 2 2 4.00685 4.00685 0 0 0 2.76-1.1 15.6684 15.6684 0 0 1 1.24 3.1z" fill="#965353"/><path d="m32.00053 21.0048v2a1.99944 1.99944 0 0 1 -2 2 4.00685 4.00685 0 0 1 -2.76-1.1 21.56026 21.56026 0 0 1 1.76-2.9z" fill="#656d78"/><path d="m44.00053 45.0048a8.95789 8.95789 0 1 1 -3.25.6 8.99432 8.99432 0 0 1 3.25-.6z" fill="#ed5565"/></g><g><g><g><path d="m31.99805 63.99512a.99735.99735 0 0 1 -.69825-.28418 30.38144 30.38144 0 0 1 -5.99609-35.666 1.00058 1.00058 0 1 1 1.7832.90821 28.38751 28.38751 0 0 0 5.60938 33.32615 1 1 0 0 1 -.69824 1.71582z"/><path d="m31.99805 63.99512a1 1 0 0 1 -.69825-1.71582 29.3359 29.3359 0 0 0 3.89161-4.6709 1.00025 1.00025 0 1 1 1.66211 1.11328 31.35121 31.35121 0 0 1 -4.15723 4.98926.99734.99734 0 0 1 -.69824.28418z"/><path d="m40.75293 46.59961a.97812.97812 0 0 1 -.12988-.00879.99848.99848 0 0 1 -.86231-1.12012 28.238 28.238 0 0 0 -2.85058-16.51855 1.00058 1.00058 0 0 1 1.7832-.9082 30.23648 30.23648 0 0 1 3.0498 17.68457.99974.99974 0 0 1 -.99023.87109z"/></g><path d="m31.99707 31.03027a12.71639 12.71639 0 0 1 -6.29785-1.66113 1.00027 1.00027 0 0 1 .99023-1.73828 10.75777 10.75777 0 0 0 10.61621-.001.99991.99991 0 0 1 .99219 1.73633 12.70974 12.70974 0 0 1 -6.30078 1.66408z"/><path d="m26.19434 29.499a.99971.99971 0 0 1 -.99024-.87011l-.19531-1.49414a.99968.99968 0 1 1 1.98242-.25977l.19531 1.49414a1.002 1.002 0 0 1 -.99218 1.12988z"/><path d="m26.001 28.00488a1.00027 1.00027 0 0 1 -.9668-1.25879 21.06477 21.06477 0 0 1 3.168-6.34375.99991.99991 0 0 1 1.59668 1.20411 19.35632 19.35632 0 0 0 -2.833 5.65722.99987.99987 0 0 1 -.96488.74121z"/><path d="m37.80566 29.499a1.002 1.002 0 0 1 -.99218-1.12988l.19531-1.49414a.99968.99968 0 1 1 1.98242.25977l-.19531 1.49414a.99971.99971 0 0 1 -.99024.87011z"/><path d="m37.999 28.00488a.99987.99987 0 0 1 -.96484-.74121 19.25153 19.25153 0 0 0 -2.832-5.65625.99981.99981 0 1 1 1.5957-1.20508 21.06477 21.06477 0 0 1 3.168 6.34375 1.00027 1.00027 0 0 1 -.9668 1.25879z"/><path d="m35 22.00488h-6a1 1 0 0 1 0-2h6a1 1 0 0 1 0 2z"/><path d="m29 21.00488a.99942.99942 0 0 1 -1-1 3.00328 3.00328 0 0 1 3-3 1 1 0 0 1 0 2 1.00068 1.00068 0 0 0 -1 1 .99942.99942 0 0 1 -1 1z"/><path d="m35 21.00488a.99942.99942 0 0 1 -1-1 1.00068 1.00068 0 0 0 -1-1 1 1 0 0 1 0-2 3.00328 3.00328 0 0 1 3 3 .99942.99942 0 0 1 -1 1z"/><path d="m29 22.00488a.99942.99942 0 0 1 -1-1v-1a1 1 0 0 1 2 0v1a.99942.99942 0 0 1 -1 1z"/><path d="m35 22.00488a.99942.99942 0 0 1 -1-1v-1a1 1 0 0 1 2 0v1a.99942.99942 0 0 1 -1 1z"/><path d="m33 19.00488h-2a1 1 0 0 1 0-2h2a1 1 0 0 1 0 2z"/><path d="m34.72363 20.00488a.99983.99983 0 0 1 -.84668-1.53125l11.27539-18a1.00038 1.00038 0 0 1 1.69532 1.0625l-11.27539 18a1.0006 1.0006 0 0 1 -.84864.46875z"/><path d="m29.27637 20.00488a1.0006 1.0006 0 0 1 -.84864-.46875l-11.27539-18a1.00038 1.00038 0 0 1 1.69532-1.0625l11.27539 18a.99983.99983 0 0 1 -.84668 1.53125z"/><path d="m30 26.00293a1 1 0 0 1 0-2 .9986.9986 0 0 0 .998-.998 1 1 0 0 1 2 0 3.0012 3.0012 0 0 1 -2.998 2.998z"/><path d="m30 26.00488a4.974 4.974 0 0 1 -3.46-1.38965 1.0001 1.0001 0 1 1 1.38476-1.44335 2.98286 2.98286 0 0 0 2.0752.833 1 1 0 0 1 0 2z"/><path d="m33.99805 26.00293a3.0012 3.0012 0 0 1 -2.99805-2.99805 1 1 0 0 1 2 0 .9986.9986 0 0 0 .998.998 1 1 0 0 1 0 2z"/><path d="m33.99805 26.00488a1 1 0 0 1 0-2 2.991 2.991 0 0 0 2.07715-.833.99943.99943 0 1 1 1.3828 1.44335 4.97567 4.97567 0 0 1 -3.45995 1.38965z"/><path d="m31.99805 24.00488a.99942.99942 0 0 1 -1-1v-2a1 1 0 0 1 2 0v2a.99942.99942 0 0 1 -1 1z"/><path d="m36.57813 49.90234a1.00076 1.00076 0 0 1 -.99024-.86621l-2.5791-19.041a1.0002 1.0002 0 0 1 1.98242-.26758l2.5791 19.041a1.00014 1.00014 0 0 1 -.85742 1.125 1.0521 1.0521 0 0 1 -.13476.00879z"/><path d="m38 28.00488a1 1 0 0 1 -.707-1.707l2-2a.99989.99989 0 1 1 1.414 1.41403l-2 2a.99672.99672 0 0 1 -.707.29297z"/><path d="m43 26.00488h-3a1 1 0 0 1 0-2h3a1 1 0 0 1 0 2z"/><path d="m42.999 26.00488a.99991.99991 0 0 1 -.78027-1.625l4-5a1.00049 1.00049 0 0 1 1.5625 1.25l-4 5a1.0018 1.0018 0 0 1 -.78223.375z"/><path d="m39.30957 33.00488a1 1 0 0 1 -.59766-1.80273l2.69141-2a1.00021 1.00021 0 0 1 1.19336 1.60547l-2.69141 2a.99954.99954 0 0 1 -.5957.19726z"/><path d="m47 36.00488a.99672.99672 0 0 1 -.707-.293l-5-5a.99989.99989 0 0 1 1.414-1.41403l5 5a1 1 0 0 1 -.707 1.707z"/><path d="m54.001 38.00488a1.02893 1.02893 0 0 1 -.27539-.03808l-7-2a1.00029 1.00029 0 0 1 .54882-1.92383l7 2a1.00012 1.00012 0 0 1 -.27343 1.96191z"/><path d="m43.999 41.00488a.99782.99782 0 0 1 -.52343-.14843l-3.251-2a1.00009 1.00009 0 0 1 1.04883-1.70313l3.251 2a1 1 0 0 1 -.52539 1.85156z"/><path d="m44 45.99512a.99943.99943 0 0 1 -1-1v-4.99024a1 1 0 0 1 2 0v4.99024a.99943.99943 0 0 1 -1 1z"/><path d="m26 28.00488a.99672.99672 0 0 1 -.707-.293l-2-2a.99989.99989 0 0 1 1.414-1.41403l2 2a1 1 0 0 1 -.707 1.707z"/><path d="m24 26.00488h-3a1 1 0 0 1 0-2h3a1 1 0 0 1 0 2z"/><path d="m21.001 26.00488a.9988.9988 0 0 1 -.78223-.375l-4-5a1.00049 1.00049 0 1 1 1.5625-1.25l4 5a.99991.99991 0 0 1 -.78027 1.625z"/><path d="m24.69043 33.00488a.99954.99954 0 0 1 -.5957-.19726l-2.69141-2a1.00021 1.00021 0 0 1 1.19336-1.60547l2.69141 2a1 1 0 0 1 -.59766 1.80273z"/><path d="m17 36.00488a1 1 0 0 1 -.707-1.707l5-5a.99989.99989 0 0 1 1.414 1.41403l-5 5a.99672.99672 0 0 1 -.707.29297z"/><path d="m9.999 38.00488a1.00012 1.00012 0 0 1 -.27341-1.96188l7-2a1.00029 1.00029 0 0 1 .54882 1.92383l-7 2a1.02893 1.02893 0 0 1 -.27541.03805z"/><path d="m20.001 41.00488a1 1 0 0 1 -.52539-1.85156l3.251-2a1.00009 1.00009 0 0 1 1.04883 1.70313l-3.251 2a.99782.99782 0 0 1 -.52344.14843z"/><path d="m20 51.00488a.99942.99942 0 0 1 -1-1v-10a1 1 0 0 1 2 0v10a.99942.99942 0 0 1 -1 1z"/><path d="m16 61.00488a.9902.9902 0 0 1 -.37109-.07129 1.00029 1.00029 0 0 1 -.55762-1.2998l4-10a1.00011 1.00011 0 1 1 1.85742.74219l-4 10a.9996.9996 0 0 1 -.92871.6289z"/></g><path d="m44 63.99512a10 10 0 1 1 10-10 10.01177 10.01177 0 0 1 -10 10zm0-18a8 8 0 1 0 8 8 8.00916 8.00916 0 0 0 -8-8z"/><path d="m40.46484 58.53516a1 1 0 0 1 -.707-1.707l7.07032-7.07032a.99989.99989 0 1 1 1.41406 1.41407l-7.07031 7.07031a.9968.9968 0 0 1 -.70707.29294z"/><path d="m47.53516 58.53516a.99676.99676 0 0 1 -.707-.293l-7.07032-7.07031a.9999.9999 0 1 1 1.41407-1.41407l7.07031 7.07032a1 1 0 0 1 -.707 1.707z"/></g></svg>