<svg id="svg8" height="512" viewBox="0 0 16.933333 16.933333" width="512" xmlns="http://www.w3.org/2000/svg" xmlns:svg="http://www.w3.org/2000/svg"><g id="layer2"><path id="path5592" d="m12.170833 2.38125h.529167c.879475 0 1.5875.70802 1.5875 1.5875v11.64167c0 .29315-.23601.52916-.52917.52916h-10.583327c-.29316 0-.52917-.23601-.52917-.52916v-11.64167c0-.87948.708025-1.5875 1.5875-1.5875h.529167z" fill="#ffc6a0"/><path id="path5594" d="m4.924764 2.38125c-.100045.10214-.162264.24195-.162264.39687v1.41749c0 .3141.25279.56689.56689.56689h6.803719c.314101 0 .566891-.25279.566891-.56689v-1.41749c0-.15492-.06222-.29473-.162264-.39687h-.366903z" fill="#ffaf7a"/><path id="path5598" d="m4.7625 2.38125c-.879475 0-1.5875.70802-1.5875 1.5875v11.64167c0 .29315.236007.52916.529166.52916h-.529166c-.29316 0-.529167-.23601-.529167-.52916v-11.64167c0-.87948.708025-1.5875 1.5875-1.5875z" fill="#f8f8f8"/><path id="path5601" d="m4.233333 3.43958c-.293158 0-.529166.23601-.529166.52917.000231 3.51432-.0014 6.44676-.00053 8.99583l1.58803 1.85209h7.9375v-10.84792c0-.29316-.236009-.52917-.529167-.52917z" fill="#e4eff8"/><path id="path5603" d="m4.7625 3.43958v.75603c0 .3141.25279.56689.56689.56689h6.803719c.314101 0 .566891-.25279.566891-.56689v-.75603z" fill="#c4dcf0"/><path id="path5605" d="m8.46667.79375c-.5845 0-1.05834.47383-1.05834 1.05833h-2.11666c-.29316 0-.52917.23601-.52917.52917v1.32292c0 .29316.23601.52916.52917.52916h6.35c.29316 0 .52916-.236.52916-.52916v-1.32292c0-.29316-.236-.52917-.52916-.52917h-2.11667c0-.5845-.47383-1.05833-1.05833-1.05833z" fill="#b4d305"/><path id="path5607" d="m10.847917 1.85208c.293159 0 .529166.23601.529166.52917v1.32292c0 .29315-.236007.52916-.529166.52916h.79375c.293159 0 .529166-.23601.529166-.52916v-1.32292c0-.29316-.236007-.52917-.529166-.52917z" fill="#94ac04"/><path id="path5609" d="m9.791406 11.90625v1.85156c-.03229.38249.559631.38249.527344 0v-1.85156z" fill="#c4dcf0" font-variant-ligatures="normal" font-variant-position="normal" font-variant-caps="normal" font-variant-numeric="normal" font-variant-alternates="normal" font-feature-settings="normal" text-indent="0" text-align="start" text-decoration-line="none" text-decoration-style="solid" text-decoration-color="#000000" text-transform="none" text-orientation="mixed" white-space="normal" shape-padding="0" isolation="auto" mix-blend-mode="normal" solid-color="#000000" solid-opacity="1" vector-effect="none"/><path id="path5611" d="m11.200937 9.85352c-.316955.085-.61188.25205-.851563.49218-.478965.47987-.667125 1.18165-.492188 1.83789.025018.09081.096429.161483.1875.18555.655554.17674 1.356573-.01 1.835938-.49023.47895-.47987.66517-1.17969.490235-1.83594-.02407-.091071-.09473-.1624811-.185547-.1875-.327776-.0884-.66742-.0869-.984375-.002z" fill="#c4dcf0" font-variant-ligatures="normal" font-variant-position="normal" font-variant-caps="normal" font-variant-numeric="normal" font-variant-alternates="normal" font-feature-settings="normal" text-indent="0" text-align="start" text-decoration-line="none" text-decoration-style="solid" text-decoration-color="#000000" text-transform="none" text-orientation="mixed" white-space="normal" shape-padding="0" isolation="auto" mix-blend-mode="normal" solid-color="#000000" solid-opacity="1" vector-effect="none"/><path id="path5613" d="m3.704167 12.96458h1.5875v1.85209z" fill="#ffc6a0"/><path id="path5616" d="m4.233333 3.43958c-.293158 0-.529166.23601-.529166.52917.000231 3.51432-.0014 6.44676-.00053 8.99583l1.58803 1.85209h.529166l-1.588016-1.85209c-.000874-2.54907.00074-5.48151.000529-8.99583 0-.29316.236008-.52917.529166-.52917z" fill="#f8f8f8"/><path id="path5618" d="m11.90625 3.43958c.293158 0 .529167.23601.529167.52917v10.84792h.79375v-10.84792c0-.29316-.236009-.52917-.529167-.52917z" fill="#c4dcf0"/><path id="path5622" d="m12.170833 2.38125c.879475 0 1.5875.70802 1.5875 1.5875v11.64167c0 .29315-.236007.52916-.529166.52916h.529166c.29316 0 .529167-.23601.529167-.52916v-11.64167c0-.87948-.708025-1.5875-1.5875-1.5875z" fill="#ffaf7a"/><path id="path5627" d="m5.291667 1.85208c-.29316 0-.529167.23601-.529167.52917v1.32292c0 .29315.236007.52916.529167.52916h.529166c-.29316 0-.529166-.23601-.529166-.52916v-1.32292c0-.29316.236006-.52917.529166-.52917z" fill="#f8f8f8"/><path id="path5632" d="m8.466667.79375c-.09192 0-.179553.0157-.264584.0377.455682.11803.79375.52803.79375 1.02061 0 .26459.264584.26459.529167.26459v-.26459c0-.5845-.473833-1.05833-1.058333-1.05833z" fill="#94ac04"/><path id="path5657" d="m8.466667.79375c.09192 0 .179552.0157.264583.0377-.455682.11803-.79375.52803-.79375 1.02061 0 .26459-.264583.26459-.529167.26459v-.26459c0-.5845.473833-1.05833 1.058334-1.05833z" fill="#f8f8f8"/><path id="path5659" d="m7.272474 14.68422c.519898-.900483 1.4807049-1.455202 2.520495-1.4552 1.03979-.000002 2.000597.554717 2.520495 1.4552" fill="#ffc6a0"/><path id="path5664" d="m9.793201 13.22917c-1.0398908-.000103-2.0008286.55463-2.520777 1.4552h.665076c.4625753-.798618 1.2765173-1.330507 2.193665-1.4335-.112138-.01379-.2249836-.02103-.337964-.0217z" fill="#f8f8f8"/><path id="path5668" d="m9.793201 13.22917c-.1584612.000705-.3166002.01435-.47284.0408.863211.138617 1.618381.657938 2.056722 1.41438h.936377c-.519856-.90041-1.480553-1.455117-2.520259-1.4552z" fill="#ffaf7a"/><path id="path5670" d="m10.27159 10.53329c.412902-.41368 1.014687-.5753 1.579146-.42313.150792.56568-.01063 1.16795-.423175 1.58128-.412902.41369-1.014687.57531-1.579146.42313-.150793-.56567.01062-1.16795.423175-1.58128z" fill="#b4d305"/><path id="path5672" d="m11.424109 10.05365c-.133718.0002-.26615.0183-.394808.0506.0093.002.01867.003.0279.006.150792.56568-.01069 1.16796-.42323 1.58129-.212622.21303-.475671.358-.757576.42892.556347.13958 1.145195-.022 1.551326-.42892.412545-.41333.574022-1.01561.42323-1.58129-.141115-.038-.284601-.0566-.426847-.0563z" fill="#94ac04"/><path id="path5676" d="m11.424109 10.05365c-.426738.00066-.842708.1693-1.152385.47956-.412555.41333-.574023 1.01563-.42323 1.5813.22905.0617.463653.0695.689881.032-.05374-.009-.10745-.0177-.160714-.032-.150793-.56567.01067-1.16797.42323-1.5813.245588-.24605.558237-.40055.889868-.45527-.08892-.0146-.177804-.0244-.26665-.0243z" fill="#f8f8f8"/><path id="path5678" d="m9.314442 10.53329c-.412901-.41368-1.014686-.5753-1.579145-.42313-.150793.56568.01063 1.16795.423175 1.58128.412901.41369 1.014686.57531 1.579145.42313.150792-.56567-.01063-1.16795-.423175-1.58128z" fill="#b4d305"/><path id="path5684" d="m8.162292 10.05365c-.133612-.0002-.268205.0177-.401009.0512.281315.0711.543797.21577.756026.4284.412545.41333.574022 1.01563.423231 1.5813-.0085.002-.01728.003-.02584.005.265983.0672.548375.0688.822689-.005.150792-.56567-.01017-1.16797-.422713-1.5813-.309676-.31026-.725647-.47891-1.152385-.47956z" fill="#94ac04"/><path id="path5688" d="m8.162292 10.05365c-.142246-.00022-.285732.0183-.426847.0563-.150793.56568.01068 1.16797.42323 1.5813.373939.37465.902251.53995 1.418001.45527-.33123-.0549-.643514-.20948-.888834-.45527-.412545-.41333-.574023-1.01562-.42323-1.5813.05293-.0143.106275-.0232.15968-.032-.0865-.0143-.173725-.0242-.262-.0243z" fill="#f8f8f8"/><path id="path9364" d="m8.4664029.52916699c-.6248299.00024-1.16211.43030998-1.2970301 1.05884991h-1.8783598c-.34816 0-.63632.22271-.74462.52917h-.3116c-1.0302 0-1.8536.83009-1.85355 1.8515699l.00051 11.6426992c.00002.44033.35909.79271.79424.79271h10.581348c.43512 0 .7942-.35238.79422-.79271l.000529-11.6426992c.000032-1.0214799-.823368-1.8515699-1.853578-1.8515699h-.31159c-.10831-.30646-.39646-.52917-.74463-.52917h-1.8783492c-.1349197-.62853993-.6727198-1.05860991-1.2975399-1.05884991zm0 .52968991c.43634.0002805.7931901.35138.7931901.79271-.0005556.14694.1186799.26618.2656099.26562h2.1170891c.14385 0 .26354.11239.26354.26355v1.32447c0 .1428901-.11238.2635499-.26354.2635499h-6.351279c-.1511501 0-.2635401-.1206598-.2635401-.2635499v-1.32447c0-.15116.1197001-.26355.2635401-.26355h2.1171c.1469199.0005609.26617-.11868.2655998-.26562 0-.44133.3563401-.79243.7926901-.79271zm0 .52865c-.1461799.0002804-.26406.11865-.26406.26458 0 .14592.1178801.2643.26406.26458.1461701-.0002805.2645701-.11866.2645701-.26458 0-.14593-.1184-.2643-.2645701-.26458zm-3.9680699 1.05885v.5296799h-.26612c-.44341 0-.79268.35755-.79268.79272.00023 3.5142301-.0008996 6.4470892 0 8.9963492-.00026.0629.0219.12352.0625.17156l1.5874299 1.85157c.0501.0592.1239801.0938.20153.0941h7.9371691c.13602 0 .2656-.10799.2656-.26614v-10.8474392c0-.43517-.34772-.79272-.79527-.79272h-.26353v-.5296799h.26353c.7316 0 1.32445.5849199 1.32442 1.3223999l-.000529 11.6426992c-.00001.14288-.11394.26355-.26509.26355h-10.58132c-.15116 0-.26509-.12067-.26509-.26355l-.00052-11.6426992c-.00003-.73748.59282-1.3223999 1.32442-1.3223999zm-.00042 1.05885c.00001.4413499.35755.7927099.7926999.7927099h6.3512891c.43512 0 .792669-.35136.792669-.7927099h.26354c.14495 0 .26612.11239.26612.2635499v10.5838492h-.42218c-.52307-.90602-1.458849-1.4935-2.490699-1.57872v-.55105c.571.0665 1.15032-.13038 1.56315-.54397.47893-.47986.66531-1.17981.49038-1.83607-.0241-.091099-.0952-.1625591-.18602-.1875793-.32776-.0884-.66694-.0865-.983881-.00201-.316939.085-.611919.2518193-.851589.4919593-.1142698.11448-.2112597.24215-.2914399.37827-.0802-.13603-.17674-.26386-.29093-.37827-.2396699-.24014-.5341299-.4069891-.8510701-.4919593-.1584798-.0425-.3228297-.0641-.4883298-.0641-.16549.0000598-.3321902.021399-.4960699.0656-.0908.025001-.16144.0965-.1855102.1875793-.1749298.65626.010901 1.35621.4898702 1.83607.4117099.41251.9848897.60939 1.5543598.54449v.55105c-1.0299901.0866-1.95963.67355-2.4819099 1.5782h-1.48615v-1.5875c.0008467-.14713-.1184801-.2667-.2656101-.26614h-1.3223391c-.0007488-2.49517.00022-5.3197693 0-8.7302093 0-.1511601.11962-.2635501.263535-.263295zm6.956389 1.6639799-.52915.5291601c-.26031.2486599.12301.6341199.37309.3751699l.078-.0785v.0904c0 .57714-.27324 1.10932-.87484 1.5115401-.6015991.40221-1.541639.6697199-2.8281292.6697199-.3528499 0-.3528499.52969 0 .52969 1.3592302 0 2.4014102-.2779501 3.1226692-.7601601.72126-.4822198 1.10945-1.1709399 1.10945-1.9507898v-.0899l.078.078c.25007.25895.63339-.12651.37308-.3751699l-.52915-.5291601c-.0502-.0505-.11851-.078-.189649-.078-.069.00101-.13481.0291-.183441.078zm-6.692319.1870699c-.35285 0-.35285.5291601 0 .5291601h1.05828c.3528499 0 .3528499-.5291601 0-.5291601zm0 1.0583302c-.35285 0-.35285.5291698 0 .5291698h1.8520001c.3528499 0 .3528499-.5291698 0-.5291698zm0 1.0583299c-.35285 0-.35285.5291701 0 .5291701h1.8520001c.3528499 0 .3528499-.5291701 0-.5291701zm0 1.0583402c-.35285 0-.35285.5291597 0 .5291597h1.8520001c.3528499 0 .3528499-.5291597 0-.5291597zm4.3644 1.989539c.27936.2799.4516099.69464.3870399 1.17047-.46468.0686-.88846-.10716-1.16835-.38757-.27936-.27991-.4506798-.69875-.38756-1.17048.0579-.009.1155401-.0137.1720799-.01499.3957601-.009.7518802.15721.9967902.40257zm.94409 1.17098c-.0587-.49072.10816-.89108.387559-1.17098.24491-.24538.58161-.40659.99007-.40205.0584.000661.11808.005.17931.0124.0602.49073-.10867.89264-.38807 1.17254-.27989.28044-.69796.45358-1.168869.38809zm-5.79217 1.33688h.74876v.87333zm5.2459699.27905v.22841c-.022101.38022.5636501.38436.5291501 0v-.22841c.738189.0732 1.411709.4535 1.855619 1.0449h-4.2341891c.44298-.5905 1.1128902-.97057 1.84942-1.0449z" fill="#333" font-variant-ligatures="normal" font-variant-position="normal" font-variant-caps="normal" font-variant-numeric="normal" font-variant-alternates="normal" font-feature-settings="normal" text-indent="0" text-align="start" text-decoration-line="none" text-decoration-style="solid" text-decoration-color="#000000" text-transform="none" text-orientation="mixed" white-space="normal" shape-padding="0" isolation="auto" mix-blend-mode="normal" solid-color="#000000" solid-opacity="1" vector-effect="none"/></g></svg>