<svg id="Layer_1-2" viewBox="0 0 64 64" xmlns="http://www.w3.org/2000/svg"><g id="Fertilizer"><path d="m21 20c-3.85986328 0-7-3.140625-7-7 0-3.08300781 1.96923828-5.76464844 4.90039062-6.671875l.41308594-.12792969.18945312-.38867188c.83447266-1.70800781 2.59960938-2.81152344 4.49707031-2.81152344.49707031 0 .98388672.07128906 1.44775391.2109375l.52490234.15917969.41601562-.35742188c1.51025391-1.29785156 3.50292969-2.01269531 5.61132812-2.01269531s4.10107422.71484375 5.61132812 2.01269531l.41601562.35742188.52490234-.15917969c.46386719-.13964844.95068359-.2109375 1.44775391-.2109375 1.89746094 0 3.66259766 1.10351562 4.49707031 2.81152344l.18945312.38867188.41308594.12792969c2.93115234.90722656 4.90039062 3.58886719 4.90039062 6.671875 0 3.859375-3.14013672 7-7 7h-22z" fill="#d39689"/><path d="m10 58c-2.61669922-10.46777344-2.56054688-21.51757812.16308594-31.95800781l1.83691406-7.04199219h40l1.83691406 7.04199219c2.72363281 10.44042969 2.77978516 21.49023438.16308594 31.95800781z" fill="#ffd98d"/><rect fill="#ffc871" height="5" rx="2" width="44" x="10" y="14"/><rect fill="#ffc871" height="5" rx="2" width="50" x="7" y="58"/><circle cx="32" cy="39" fill="#ffc871" r="14"/><path d="m32 53c-4.61328125 0-8.87207031-2.26171875-11.4765625-6h5.81982422c1.05273438 0 2.08349609-.42675781 2.828125-1.171875.75390625-.75390625 1.75830078-1.16894531 2.828125-1.16894531 1.0703125 0 2.07470703.41503906 2.82910156 1.16894531.74462891.74511719 1.77539062 1.171875 2.828125 1.171875h5.81982422c-2.60449219 3.73828125-6.86328125 6-11.4765625 6z" fill="#d39689"/><path d="m24 33h3c2.75957512 0 5 2.24042488 5 5v3h-3c-2.75957512 0-5-2.24042488-5-5z" fill="#76d6a6"/><path d="m37 32h3v3c0 2.75957512-2.24042488 5-5 5h-3v-3c0-2.75957512 2.24042488-5 5-5z" fill="#63c19a" transform="matrix(-1 0 0 -1 72 72)"/><g fill="#0b0b0c"><path d="m14.01660156 11.95898438c.53027344.15820312 1.0859375-.14550781 1.2421875-.67578125.60107422-2.03515625 2.25097656-3.60644531 4.30517578-4.10058594.3203125-.07714844.58203125-.30761719.70019531-.61523438.58789062-1.53515625 2.08935547-2.56738281 3.73583984-2.56738281.54980469 0 1.08056641.10742188 1.57714844.3203125.375.15917969.81103516.07617188 1.10058594-.21289062 1.33789062-1.33886719 3.27832031-2.10742188 5.32226562-2.10742188s3.984375.76855469 5.32226562 2.10742188c.28857422.28808594.72412109.37109375 1.10058594.21289062.49658203-.21289062 1.02734375-.3203125 1.57714844-.3203125 1.64648438 0 3.14794922 1.03222656 3.73583984 2.56738281.11816406.30761719.37988281.53808594.70019531.61523438 2.05419922.49414062 3.70410156 2.06542969 4.30517578 4.10058594.12841797.43554688.52685547.71679688.95849609.71679688.09375 0 .18945312-.01269531.28369141-.04101562.52978516-.15625.83251953-.71289062.67578125-1.2421875-.75439453-2.5546875-2.74707031-4.5625-5.26367188-5.34375-.99511719-2.03710938-3.1015625-3.37304688-5.39550781-3.37304688-.59570312 0-1.17773438.08496094-1.73730469.25390625-1.67480469-1.43945312-3.92089844-2.25390625-6.26269531-2.25390625s-4.58789062.81445312-6.26269531 2.25390625c-.55957031-.16894531-1.14160156-.25390625-1.73730469-.25390625-2.29394531 0-4.40039062 1.3359375-5.39550781 3.37304688-2.51660156.78125-4.50927734 2.7890625-5.26367188 5.34375-.15673828.52929688.14599609 1.0859375.67578125 1.2421875z"/><circle cx="24" cy="9" r="1"/><circle cx="40" cy="9" r="1"/><circle cx="32" cy="6" r="1"/><path d="m55.25396729 57.0256958c2.35760498-10.26635742 2.21118164-21.03723145-.44927979-31.23565674l-1.58013916-6.05761719c1.04400635-.46990967 1.77545166-1.51519775 1.77545166-2.73242188v-1c0-1.65429688-1.34570312-3-3-3h-40c-1.65429688 0-3 1.34570312-3 3v1c0 1.21722412.73150635 2.26245117 1.77545166 2.73236084l-1.58013916 6.05767822c-2.66046143 10.19842529-2.80688477 20.96929932-.44927979 31.23565674-1.53381348.13134766-2.74603271 1.40698242-2.74603271 2.9743042v1c0 1.65429688 1.34570312 3 3 3h46c1.65429688 0 3-1.34570312 3-3v-1c0-1.56732178-1.21221924-2.84295654-2.74603271-2.9743042zm-44.25396729-41.0256958c0-.55175781.44873047-1 1-1h40c.55126953 0 1 .44824219 1 1v1c0 .55175781-.44873047 1-1 1h-40c-.55126953 0-1-.44824219-1-1zm.13085938 10.29394531 1.64160156-6.29394531h38.45507812l1.64160156 6.29394531c2.61572266 10.02734375 2.73242188 20.62695312.34521484 30.70605469h-42.42871093c-2.38720703-10.07910156-2.27050781-20.67871094.34521484-30.70605469zm44.86914062 34.70605469c0 .55175781-.44873047 1-1 1h-46c-.55126953 0-1-.44824219-1-1v-1c0-.55175781.44873047-1 1-1h46c.55126953 0 1 .44824219 1 1z"/><path d="m32 54c8.27099609 0 15-6.72851562 15-15s-6.72900391-15-15-15-15 6.72851562-15 15 6.72900391 15 15 15zm0-2c-3.67541504 0-6.99237061-1.53973389-9.35906982-4h3.70233154c1.33496094 0 2.59082031-.52050781 3.53515625-1.46484375 1.16992188-1.16796875 3.07324219-1.16796875 4.24316406 0 .94433594.94433594 2.20019531 1.46484375 3.53515625 1.46484375h3.70233154c-2.36669922 2.46026611-5.68365479 4-9.35906982 4zm3.70703125-15.70703125c-.390625-.390625-1.0234375-.390625-1.4140625 0l-1.29296875 1.29296875v-.5859375c0-2.20605469 1.79443359-4 4-4h2v2c0 2.20605469-1.79443359 4-4 4h-.5859375l1.29296875-1.29296875c.390625-.390625.390625-1.0234375 0-1.4140625zm-4.70703125 2.29296875-1.29296875-1.29296875c-.390625-.390625-1.0234375-.390625-1.4140625 0s-.390625 1.0234375 0 1.4140625l1.29296875 1.29296875h-.5859375c-2.20556641 0-4-1.79394531-4-4v-2h2c2.20556641 0 4 1.79394531 4 4zm1-12.5859375c7.16845703 0 13 5.83203125 13 13 0 2.57794189-.7635498 4.97680664-2.06304932 7h-5.2802124c-.78955078 0-1.5625-.3203125-2.12109375-.87890625-.71954346-.71917725-1.60626221-1.16882324-2.53564453-1.3572998v-2.76379395h2c3.30859375 0 6-2.69140625 6-6v-3c0-.55273438-.44775391-1-1-1h-3c-2.31610107 0-4.32580566 1.32116699-5.32550049 3.24743652-1.10064697-1.36834717-2.78570557-2.24743652-4.67449951-2.24743652h-3c-.55224609 0-1 .44726562-1 1v3c0 3.30859375 2.69140625 6 6 6h2v1.76361084c-.92956543.18841553-1.81628418.63812256-2.53564453 1.35748291-.55859375.55859375-1.33154297.87890625-2.12109375.87890625h-5.2802124c-1.29949951-2.02319336-2.06304932-4.42205811-2.06304932-7 0-7.16796875 5.83154297-13 13-13z"/></g></g></svg>