<svg id="Capa_1" enable-background="new 0 0 512 512" height="512" viewBox="0 0 512 512" width="512" xmlns="http://www.w3.org/2000/svg"><g><g><g clip-rule="evenodd" fill-rule="evenodd"><path d="m347 338.5h142.5c0-74.8-61.2-136-136-136h-142.5c74.8 0 136 61.199 136 136z" fill="#717f99"/><path d="m347 338.5h142.5v136h-142.5z" fill="#717f99"/><path d="m60.001 474.5h444.499v30h-444.499z" fill="#e8ab4c"/><path d="m173.494 474.5h75c0-14.579-11.928-26.507-26.507-26.507h-21.985c-14.579 0-26.508 11.928-26.508 26.507z" fill="#e8ab4c"/><path d="m210.995 380.395c-32.997 0-60-26.997-60-59.994v-19.999c33 0 60 26.999 60 59.994zm0 29.555c32.997 0 60-26.997 60-59.994v-19.999c-33 0-60 26.993-60 59.994zm-135.995 64.55h98.494c0-14.579 11.928-26.507 26.507-26.507h21.985c14.579 0 26.507 11.928 26.507 26.507h98.507v-136c0-74.8-61.2-136-136-136s-136 61.2-136 136z" fill="#b6e6fa"/><path d="m150.994 320.4c0 32.997 27.003 59.994 60 59.994v-19.999c0-32.995-27-59.994-60-59.994zm60.001 89.55v-19.999c0-33.002 27-59.994 60-59.994v19.999c0 32.997-27.003 59.994-60 59.994z" fill="#b6efbb"/><circle cx="90" cy="90" fill="#feef8f" r="45"/><path d="m45 90c0 29.571 27.99 50.856 56.25 43.582-19.409-4.995-33.75-22.614-33.75-43.582s14.341-38.587 33.75-43.582c-28.259-7.274-56.25 14.011-56.25 43.582z" fill="#f7bd83"/><path d="m75 474.5h22.5v-136c0-71.012 55.161-129.759 124.75-135.527-78.887-6.537-147.25 56.182-147.25 135.527z" fill="#8bb3d8"/><path d="m60.001 474.5h22.5v30h-22.5z" fill="#e1763a"/><path d="m210.995 409.95c32.997 0 60-26.997 60-59.994v-19.999c-7.946 0-15.542 1.569-22.5 4.406v15.593c0 25.051-15.566 46.64-37.5 55.587zm-60.001-89.55v-19.999c7.946 0 15.542 1.569 22.5 4.407v15.592c0 25.051 15.566 46.64 37.5 55.587v4.407c-32.996.001-60-26.997-60-59.994z" fill="#71e4bf"/><path d="m173.494 474.5h22.5c0-14.493 11.788-26.364 26.25-26.504-.086-.001-.172-.003-.257-.003h-21.985c-14.579 0-26.508 11.928-26.508 26.507z" fill="#e1763a"/><path d="m347 338.5h142.5c0-74.8-61.2-136-136-136h-142.5c74.8 0 136 61.199 136 136z" fill="#b6e6fa"/><path d="m347 338.5h142.5v136h-142.5z" fill="#b6e6fa"/></g><g><path d="m278.5 262.499h-15v-15h15zm-30-15h-15v-15h15z" fill="#fff"/></g><g><path d="m97.5 180h-15v-22.5h15zm31.005-8.308-11.25-19.486 12.99-7.5 11.25 19.486zm-77.01 0-12.99-7.5 11.25-19.486 12.99 7.5zm112.698-30.197-19.486-11.25 7.5-12.99 19.486 11.25zm-148.385 0-7.5-12.99 19.486-11.25 7.5 12.99zm164.192-43.995h-22.5v-15h22.5zm-157.5 0h-22.5v-15h22.5zm129.707-34.755-7.5-12.99 19.486-11.25 7.5 12.99zm-124.413 0-19.486-11.25 7.5-12.99 19.486 11.25zm102.451-27.452-12.99-7.5 11.25-19.486 12.99 7.5zm-80.49 0-11.25-19.486 12.99-7.5 11.25 19.486zm47.745-12.793h-15v-22.5h15z" fill="#feef8f"/></g></g><g><path d="m90 142.5c28.949 0 52.5-23.551 52.5-52.5s-23.551-52.5-52.5-52.5-52.5 23.551-52.5 52.5 23.552 52.5 52.5 52.5zm0-90c20.678 0 37.5 16.822 37.5 37.5s-16.822 37.5-37.5 37.5-37.5-16.822-37.5-37.5 16.823-37.5 37.5-37.5z"/><path d="m437 497h15v15h-15z"/><path d="m497 467v-128.5c0-79.126-64.374-143.5-143.5-143.5h-142.5c-33.105 0-65.465 11.664-91.118 32.843l9.55 11.567c22.972-18.966 51.94-29.41 81.568-29.41 34.173 0 66.401 13.408 90.747 37.753 24.345 24.345 37.753 56.573 37.753 90.747v128.5h-84.35c-3.426-15.154-16.989-26.507-33.164-26.507h-3.493v-23.456c33.703-3.743 60-32.399 60-67.08v-27.499h-7.5c-21.754 0-41.139 10.346-53.492 26.372-5.502-31.725-33.232-55.928-66.508-55.928h-7.5v27.498c0 34.682 26.297 63.337 60 67.08v53.012h-3.493c-16.174 0-29.738 11.354-33.164 26.507h-84.336v-128.499c0-33.501 12.966-65.277 36.511-89.473l-10.751-10.461c-26.284 27.012-40.76 62.502-40.76 99.934v128.5h-15v45h369.5v-15h-354.5v-15h429.499v15h-29.999v15h44.999v-45zm-278.506-77.048c0-26.399 19.591-48.31 45-51.96v11.965c0 26.399-19.591 48.31-45 51.959zm-60-69.552v-11.965c25.409 3.65 45 25.561 45 51.96v11.965c-25.408-3.65-45-25.56-45-51.96zm196.006 25.6h56.25v53h-56.25zm127.5 53h-56.25v-53h56.25zm0 15v53h-56.25v-53zm-207.179-204h78.679c34.173 0 66.401 13.408 90.747 37.753 22.555 22.556 35.714 51.88 37.528 83.247h-127.47c-2.743-53.026-34.41-98.523-79.484-121zm79.679 204h56.25v53h-56.25zm-154.498 41.493h21.985c7.818 0 14.543 4.747 17.459 11.507h-56.903c2.916-6.76 9.641-11.507 17.459-11.507z"/></g></g></svg>