<?xml version="1.0" encoding="UTF-8"?>
<svg xmlns="http://www.w3.org/2000/svg" xmlns:xlink="http://www.w3.org/1999/xlink" version="1.1" id="Capa_1" x="0px" y="0px" viewBox="0 0 512 512" style="enable-background:new 0 0 512 512;" xml:space="preserve" width="512" height="512">
<g>
	<g>
		<path style="fill:#9BE69D;" d="M39.721,350.706v88.165c0,8.473,6.869,15.342,15.342,15.342h0c8.473,0,15.342-6.869,15.342-15.342&#10;&#9;&#9;&#9;v-45.793h11.697c37.211,0,67.377-30.166,67.377-67.377v-26.374c0-8.835-7.162-15.997-15.997-15.997h-26.384&#10;&#9;&#9;&#9;C69.887,283.328,39.721,313.494,39.721,350.706z"/>
		<path style="fill:#6FD7A3;" d="M122.727,283.328c-37.207,0-67.377,30.16-67.377,67.367v103.517h-0.286&#10;&#9;&#9;&#9;c-8.473,0-15.342-6.869-15.342-15.342v-88.175c0-37.206,30.161-67.367,67.367-67.367H122.727z"/>
		<path style="fill:none;stroke:#000000;stroke-width:15;stroke-linecap:round;stroke-linejoin:round;stroke-miterlimit:10;" d="&#10;&#9;&#9;&#9;M70.41,432.032v-38.96H82.1c37.21,0,67.38-30.16,67.38-67.37v-26.38c0-8.83-7.16-15.99-16-15.99H107.1&#10;&#9;&#9;&#9;c-37.21,0-67.38,30.16-67.38,67.37v71.92"/>
	</g>
	<g>
		<path style="fill:#9BE69D;" d="M252.273,300.292h-26.38c-37.209,0-67.373-30.164-67.373-67.373v-26.38&#10;&#9;&#9;&#9;c0-8.836,7.163-15.999,15.999-15.999h26.38c37.209,0,67.373,30.164,67.373,67.373v26.38&#10;&#9;&#9;&#9;C268.272,293.129,261.109,300.292,252.273,300.292z"/>
		<path style="fill:#6FD7A3;" d="M246.448,300.287h-20.56c-37.207,0-67.367-30.16-67.367-67.367v-26.384&#10;&#9;&#9;&#9;c0-8.834,7.164-15.997,15.997-15.997h20.56c-8.843,0-15.997,7.164-15.997,15.997v26.384&#10;&#9;&#9;&#9;C179.081,270.127,209.241,300.287,246.448,300.287z"/>
		<path style="fill:none;stroke:#000000;stroke-width:15;stroke-linecap:round;stroke-linejoin:round;stroke-miterlimit:10;" d="&#10;&#9;&#9;&#9;M221.59,300.152c-35.2-2.21-63.07-31.46-63.07-67.23v-26.38c0-8.84,7.16-16,16-16h26.38c16.83,0,32.22,6.17,44.03,16.38"/>
		<path style="fill:#9BE69D;" d="M221.589,257.919v210.507c0,8.473,6.869,15.342,15.342,15.342h0&#10;&#9;&#9;&#9;c8.473,0,15.342-6.869,15.342-15.342V300.291h11.697c37.211,0,67.377-30.166,67.377-67.377v-26.374&#10;&#9;&#9;&#9;c0-8.835-7.162-15.997-15.997-15.997h-26.384C251.755,190.542,221.589,220.708,221.589,257.919z"/>
		<path style="fill:#6FD7A3;" d="M304.595,190.542c-37.207,0-67.377,30.16-67.377,67.367v225.859h-0.286&#10;&#9;&#9;&#9;c-8.473,0-15.342-6.869-15.342-15.342V257.909c0-37.206,30.161-67.367,67.367-67.367H304.595z"/>
		<path style="fill:none;stroke:#000000;stroke-width:15;stroke-linecap:round;stroke-linejoin:round;stroke-miterlimit:10;" d="&#10;&#9;&#9;&#9;M252.27,433.072v-132.78h11.7c37.21,0,67.38-30.17,67.38-67.38v-26.37c0-8.84-7.16-16-16-16h-26.38&#10;&#9;&#9;&#9;c-37.22,0-67.38,30.17-67.38,67.38v164.56"/>
	</g>
	<g>
		<path style="fill:#9BE69D;" d="M410.176,344.783h26.38c37.209,0,67.373-30.164,67.373-67.373v-26.38&#10;&#9;&#9;&#9;c0-8.836-7.163-15.999-15.999-15.999h-26.38c-37.209,0-67.373,30.164-67.373,67.373v26.38&#10;&#9;&#9;&#9;C394.177,337.62,401.34,344.783,410.176,344.783z"/>
		<path style="fill:#9BE69D;" d="M424.861,185.74h-26.38c-37.209,0-67.373-30.164-67.373-67.373v-26.38&#10;&#9;&#9;&#9;c0-8.836,7.163-15.999,15.999-15.999h26.38c37.209,0,67.373,30.164,67.373,67.373v26.38&#10;&#9;&#9;&#9;C440.86,178.577,433.697,185.74,424.861,185.74z"/>
		<path style="fill:#6FD7A3;" d="M419.036,185.735h-20.56c-37.207,0-67.367-30.16-67.367-67.367V91.983&#10;&#9;&#9;&#9;c0-8.834,7.164-15.997,15.997-15.997h20.56c-8.843,0-15.997,7.164-15.997,15.997v26.384&#10;&#9;&#9;&#9;C351.669,155.575,381.829,185.735,419.036,185.735z"/>
		<path style="fill:none;stroke:#000000;stroke-width:15;stroke-linecap:round;stroke-linejoin:round;stroke-miterlimit:10;" d="&#10;&#9;&#9;&#9;M394.18,185.602c-35.21-2.21-63.07-31.48-63.07-67.24v-26.37c0-8.84,7.16-16,16-16h26.38c16.84,0,32.23,6.17,44.03,16.38"/>
		<path style="fill:none;stroke:#000000;stroke-width:15;stroke-linecap:round;stroke-linejoin:round;stroke-miterlimit:10;" d="&#10;&#9;&#9;&#9;M424.86,245.882c10.56-6.86,23.15-10.85,36.69-10.85h26.38c8.84,0,16,7.16,16,16v26.38c0,37.21-30.17,67.37-67.37,67.37h-11.7"/>
		<path style="fill:#9BE69D;" d="M394.177,143.367v314.654c0,8.473,6.869,15.342,15.342,15.342h0&#10;&#9;&#9;&#9;c8.473,0,15.342-6.869,15.342-15.342V185.739h11.697c37.211,0,67.377-30.166,67.377-67.377V91.987&#10;&#9;&#9;&#9;c0-8.835-7.162-15.997-15.997-15.997h-26.384C424.343,75.99,394.177,106.156,394.177,143.367z"/>
		<path style="fill:#6FD7A3;" d="M477.183,75.99c-37.207,0-67.377,30.16-67.377,67.367v330.006h-0.286&#10;&#9;&#9;&#9;c-8.473,0-15.342-6.869-15.342-15.342V143.358c0-37.206,30.161-67.367,67.367-67.367H477.183z"/>
		
			<line style="fill:none;stroke:#000000;stroke-width:15;stroke-linecap:round;stroke-linejoin:round;stroke-miterlimit:10;" x1="394.18" y1="424.361" x2="394.18" y2="268.971"/>
		<path style="fill:none;stroke:#000000;stroke-width:15;stroke-linecap:round;stroke-linejoin:round;stroke-miterlimit:10;" d="&#10;&#9;&#9;&#9;M394.18,233.971v-90.61c0-37.21,30.16-67.37,67.37-67.37h26.39c8.83,0,16,7.16,16,16v26.37c0,37.21-30.17,67.38-67.38,67.38h-11.7&#10;&#9;&#9;&#9;v241.2"/>
	</g>
	<path style="fill:#D1A08F;" d="M466.9,497.441c20.766,0,37.6-16.834,37.6-37.6s-16.834-37.6-37.6-37.6&#10;&#9;&#9;c-12.329,0-23.271,5.934-30.128,15.101c-6.857-9.167-17.8-15.101-30.129-15.101s-23.271,5.934-30.128,15.101&#10;&#9;&#9;c-6.857-9.167-17.8-15.101-30.129-15.101c-12.329,0-23.272,5.934-30.129,15.101c-6.857-9.167-17.8-15.101-30.128-15.101&#10;&#9;&#9;s-23.272,5.934-30.129,15.101c-6.857-9.167-17.8-15.101-30.129-15.101s-23.271,5.934-30.128,15.101&#10;&#9;&#9;c-6.857-9.167-17.8-15.101-30.129-15.101c-12.329,0-23.271,5.934-30.128,15.101c-6.857-9.167-17.8-15.101-30.129-15.101&#10;&#9;&#9;s-23.271,5.934-30.128,15.101c-6.857-9.167-17.8-15.101-30.129-15.101c-20.766,0-37.6,16.834-37.6,37.6s16.834,37.6,37.6,37.6&#10;&#9;&#9;H466.9z"/>
	<path style="fill:#C68D7A;" d="M94.6,497.441H45.1c-20.77,0-37.6-16.84-37.6-37.6c0-20.77,16.83-37.6,37.6-37.6&#10;&#9;&#9;c9.48,0,18.14,3.51,24.75,9.29c-7.88,6.89-12.85,17.02-12.85,28.31C57,480.602,73.83,497.441,94.6,497.441z"/>
	<path style="fill:none;stroke:#000000;stroke-width:15;stroke-linecap:round;stroke-linejoin:round;stroke-miterlimit:10;" d="&#10;&#9;&#9;M273.5,497.441h193.4c20.77,0,37.6-16.83,37.6-37.6s-16.83-37.6-37.6-37.6c-12.33,0-23.27,5.93-30.13,15.1&#10;&#9;&#9;c-6.86-9.17-17.8-15.1-30.13-15.1c-12.33,0-23.27,5.93-30.13,15.1c-6.85-9.17-17.8-15.1-30.12-15.1c-12.33,0-23.28,5.93-30.13,15.1&#10;&#9;&#9;c-6.86-9.17-17.8-15.1-30.13-15.1c-12.33,0-23.27,5.93-30.13,15.1c-6.86-9.17-17.8-15.1-30.13-15.1s-23.27,5.93-30.13,15.1&#10;&#9;&#9;c-6.85-9.17-17.8-15.1-30.13-15.1c-12.32,0-23.27,5.93-30.12,15.1c-6.86-9.17-17.8-15.1-30.13-15.1s-23.27,5.93-30.13,15.1&#10;&#9;&#9;c-6.86-9.17-17.8-15.1-30.13-15.1c-20.77,0-37.6,16.83-37.6,37.6s16.83,37.6,37.6,37.6h193.4"/>
	<path style="fill:#FEA95C;" d="M303.36,14.562l-84.918,1.451c-7.716,0.132-12.395,8.567-8.422,15.182l11.569,19.266L45.757,156.044&#10;&#9;&#9;c-9.47,5.686-12.537,17.972-6.85,27.442c2.844,4.735,7.336,7.869,12.302,9.109c4.965,1.239,10.406,0.584,15.14-2.258&#10;&#9;&#9;L242.181,84.753l11.566,19.261c3.972,6.615,13.617,6.449,17.359-0.299l41.191-74.271C316.04,22.698,311.075,14.43,303.36,14.562z"/>
	<path style="fill:none;stroke:#000000;stroke-width:15;stroke-linecap:round;stroke-linejoin:round;stroke-miterlimit:10;" d="&#10;&#9;&#9;M114.84,114.561l106.75-64.1l-11.57-19.27c-3.97-6.61,0.71-15.05,8.42-15.18l84.92-1.45c7.71-0.13,12.68,8.14,8.94,14.88&#10;&#9;&#9;l-41.19,74.28c-3.75,6.74-13.39,6.91-17.36,0.29l-11.57-19.26L66.35,190.341c-4.74,2.84-10.18,3.49-15.14,2.25&#10;&#9;&#9;c-4.97-1.24-9.46-4.37-12.3-9.1c-5.69-9.47-2.62-21.76,6.85-27.45l39.37-23.64"/>
</g>















</svg>
