<svg id="svg8" height="512" viewBox="0 0 16.933333 16.933333" width="512" xmlns="http://www.w3.org/2000/svg" xmlns:svg="http://www.w3.org/2000/svg"><g id="layer2"><path id="path6960" d="m8.997403 16.13746c.4997833-.665006 1.283223-1.056241 2.115098-1.05624.832158-.000002 1.61583.391497 2.115582 1.05688z" fill="#ffc6a0"/><path id="path6963" d="m11.1125 15.08123c-.175898.000986-.35126.01951-.523482.0553.631331.130122 1.193443.486244 1.580782 1.00149h1.058333c-.499784-.66536-1.283475-1.056822-2.115633-1.05678z" fill="#ffaf7a"/><path id="circle6965" d="m12.960809 5.0232863c0 2.0457542-1.658411 3.7041657-3.7041657 3.7041657-2.0457542 0-3.7041657-1.6584115-3.7041657-3.7041657s1.6584115-3.7041657 3.7041657-3.7041657c2.0457547 0 3.7041657 1.6584115 3.7041657 3.7041657z" fill="#e4eff8"/><path id="path7006" d="m9.384449 2.66808-.196887-.19689c-.06238-.0624-.132157-.0855-.198437-.0816-.19883.0117-.362835.26917-.1757.4563l.100769.10077c-.112621.13724-.182935.30995-.182935.50023 0 .1192.02783.23176.07545.33331-.207463.0783-.376273.22305-.483175.4067l-.386023-.13178v-.33951c.0025-.13618-.0988-.252-.234094-.26769-.0091-.001-.01823-.002-.02739-.002-.149376-.002-.270594.1204-.267684.26975v.52917c-.000069.11273.07129.21312.177767.25011l.618567.21033c.0022.11757.0096.22898.02067.33486l-.545187.009c-.09719.002-.18568.0564-.230477.14263l-.265617.51573c-.152289.31093.306708.54673.470773.24185l.193268-.37466.472323-.0103c.03878.13646.08499.26099.137459.37258l-.370003.18449c-.09114.0436-.149479.13513-.150379.23616v.52917c0 .35286.529167.35286.529167 0v-.36277l.277502-.13488c.01838.0215.04022.0441.05891.0641.328152.35094.658357.42582.658357.42582.02084.005.0422.008.06356.008s.04272-.003.06356-.008c0 0 .330205-.0749.658358-.42582.01869-.02.04053-.0425.05891-.0641l.277503.13488v.36277c0 .35286.529166.35286.529166 0v-.52917c-.000899-.10103-.05924-.19256-.150378-.23616l-.370003-.18449c.05247-.11159.09868-.23612.137459-.37258l.472323.0103.193269.37465c.164065.30488.623062.0691.470773-.24184l-.265617-.51574c-.0448-.0863-.133286-.14102-.230477-.14262l-.545186-.009c.01107-.10588.01842-.2173.02067-.33487l.618567-.21032c.106479-.037.177834-.13739.177766-.25011v-.52917c.0029-.14936-.118309-.27151-.267684-.26975-.0092.00022-.0183.0009-.02739.002-.135294.0157-.236583.13151-.234095.26769v.33951l-.386022.13178c-.106902-.18365-.275712-.32842-.483175-.4067.04762-.10154.07545-.2141.07545-.33331 0-.19027-.07031-.36299-.182933-.50023l.100769-.10077c.187134-.18713.02313-.4446-.1757-.4563-.06628-.004-.136059.0193-.198437.0816l-.196888.19689c-.04562-.008-.09196-.0139-.14056-.0139s-.09494.006-.14056.0139z" fill="#c4dcf0" font-variant-ligatures="normal" font-variant-position="normal" font-variant-caps="normal" font-variant-numeric="normal" font-variant-alternates="normal" font-feature-settings="normal" text-indent="0" text-align="start" text-decoration-line="none" text-decoration-style="solid" text-decoration-color="#000000" text-transform="none" text-orientation="mixed" white-space="normal" shape-padding="0" isolation="auto" mix-blend-mode="normal" solid-color="#000000" solid-opacity="1" vector-effect="none"/><path id="path7010" d="m9.256799 1.31928c-2.045756-.0000001-3.7041683 1.658414-3.704166 3.70417.0009213 1.1122758.501613 2.1652644 1.363741 2.86804-.5390253-.6603726-.8337913-1.4864484-.834575-2.33888.0000032-2.0457525 1.6584145-3.7041607 3.704167-3.70416.853632.0009168 1.68075.2966392 2.341459.83715-.702844-.8637942-1.757015-1.3655437-2.870626-1.36632z" fill="#c4dcf0"/><path id="path7012" d="m14.49537 5.58939c.02923.0612.04447.12812.04463.19593 0 .2524-.204611.45701-.457012.45701-.08972-.00013-.177421-.0267-.252161-.0763.0155.0623.02344.12633.02364.19057 0 .4417-.358069.79977-.799771.79977-.330866-.00012-.627498-.20396-.746218-.5128-.0187.018-.03918.0334-.05757.0518-.981376.98158-1.365119 2.41181-1.006411 3.75518.952937.25648 1.94903.13479 2.798758-.3075-.209924-.22035-.249708-.55261-.09774-.81628.165497-.28609.511366-.41364.822981-.30349.0095-.0753.03372-.14793.07141-.21378.158502-.2751.510114-.36945.785044-.21065.004.002.0081.005.01205.008.492882-.87395.636754-1.9188.370442-2.91613-.335689-.0904-.676957-.13396-1.015339-.13345-.166631.00025-.332493.0111-.496733.0326z" fill="#b4d305"/><path id="path7018" d="m7.9074 9.55583c-.02769.058-.04213.12137-.04228.18561-.000001.23912.193841.43296.432957.43296.085-.00013.168082-.0253.238888-.0723-.01469.0591-.02221.11968-.0224.18054 0 .41845.339222.75768.757675.75768.313451-.00012.59447-.19324.70694-.48581.01772.017.03712.0316.05454.049.92972.9299 1.293264 2.28486.953437 3.55752-.902778.24297-1.846436.12769-2.651438-.29132.198875-.20875.236565-.52352.0926-.77332-.156786-.27103-.48445-.39186-.779663-.28751-.009-.0713-.03195-.14014-.06765-.20252-.150159-.26062-.483264-.35001-.743723-.19957-.0038.002-.0076.005-.01142.007-.466941-.82795-.603238-1.8178-.350945-2.76264.318019-.0856.641325-.12691.961895-.12643.157861.00023.314993.0105.470588.0309z" fill="#b4d305"/><path id="path7020" d="m7.436755 9.52498c-.32057-.00048-.643679.041-.961698.12661-.252293.94484-.116057 1.93467.350883 2.76262.0038-.002.0076-.005.01137-.007.160385-.0926.348046-.0939.503845-.0207-.454642-.8224-.586457-1.80027-.33693-2.73475.229812-.0619.462225-.0997.694531-.11628-.08704-.006-.174376-.0102-.262-.0103zm.239779 2.81016c-.102291-.007-.207408.015-.303341.0687.08352.0463.156583.11379.20774.20257.0357.0624.0587.13127.0677.20258.295213-.10435.623011.0163.779797.28732.143965.2498.106374.56485-.0925.77359.609224.31711 1.297759.45959 1.987992.40515-.508789-.0337-1.005854-.16937-1.458825-.40515.198875-.20874.236465-.52379.0925-.77359-.156786-.27103-.484585-.39167-.779798-.28732-.009-.0713-.032-.14019-.0677-.20258-.09385-.16288-.259189-.25893-.433565-.2713z" fill="#f8f8f8"/><path id="path7022" d="m14.991849 5.55675c-.131148.00019-.26141.009-.39119.0222.205189.021.410418.0565.613399.1111.266312.99734.122362 2.04215-.37052 2.9161-.004-.003-.0079-.005-.01189-.007-.27493-.15879-.626463-.0648-.784965.21033-.03769.0658-.06233.13866-.07183.21394-.311615-.11015-.657192.0173-.822689.30334-.151968.26367-.112256.59614.09767.81648-.432525.22514-.903103.36614-1.386478.41755.755675.0757 1.512738-.0704 2.179712-.41755-.209925-.22034-.249637-.55281-.09767-.81648.165497-.28609.511591-.41349.823206-.30334.0095-.0753.03362-.1481.07131-.21394.158502-.2751.510035-.36912.784965-.21033.004.002.0079.005.01188.007.492883-.87395.636833-1.91876.37052-2.9161-.335689-.0904-.67706-.13384-1.015442-.13332z" fill="#94ac04"/><path id="path7025" d="m14.991849 5.55675c-.16663.00025-.33237.0111-.49661.0325.02923.0612.0448.12805.04496.19586 0 .2524-.204936.45733-.457337.45733-.08972-.00013-.177441-.0268-.252181-.0765.0155.0623.02357.12645.02377.19069 0 .3491-.225055.64277-.536918.75189.08424.0299.173345.0475.266134.0475.441702 0 .799951-.35773.799951-.79943-.0002-.0642-.0083-.12835-.02377-.19069.07474.0496.162461.0764.252181.0765.252401 0 .457336-.20493.457336-.45733-.00016-.0678-.01573-.13467-.04496-.19586.07869-.0103.157853-.0178.237195-.0232-.08999-.006-.180007-.009-.269752-.009zm-2.683557 1.08675c-.0187.018-.03897.0333-.05736.0517-.981376.98157-1.365365 2.41195-1.006657 3.75532.41054.1105.828829.14672 1.240234.12145-.237744-.0181-.475733-.0581-.711068-.12145-.327274-1.22565-.03451-2.52254.764295-3.48609-.09975-.0848-.180361-.19323-.229444-.32091zm3.349667 1.9203c-.01926.008-.03844.0147-.05684.0243.0078.004.01605.006.02377.0108.004.002.0079.005.01188.007.0078-.0138.01358-.0285.02119-.0424z" fill="#f8f8f8"/><path id="path7028" d="m7.436755 9.52498c-.133457-.0002-.267182.009-.401009.0233.02596.003.05215.004.07803.008-.02769.058-.04223.12128-.04238.18552-.000001.23912.193933.43305.433049.43305.085-.00013.167939-.0253.238745-.0724-.01469.0591-.02203.11949-.02222.18035 0 .41845.339123.75758.757576.75758.143956-.00005.280304-.0418.397393-.1142-.216161-.13345-.361218-.37068-.361218-.64337.00019-.0609.0075-.12129.02222-.18035-.07081.047-.153745.0722-.238745.0724-.239116 0-.43305-.19394-.433049-.43305.00015-.0642.01468-.12755.04238-.18552-.155596-.0203-.312912-.0308-.470773-.031zm2.542481 1.02939c-.0752.19564-.226636.34502-.411862.42375.68383.89884.922924 2.07196.626319 3.18275-.188883.0508-.37969.0829-.570508.10284.449868.0511.911842.0188 1.363741-.10284.339827-1.27266-.02371-2.6275-.95343-3.5574-.01742-.0174-.03654-.0321-.05426-.0491z" fill="#94ac04"/><path id="path7031" d="m12.291239 2.90678c.268435.5341216.408407 1.1235582.408761 1.72134.000101 2.1200016-1.718523 3.8386286-3.838525 3.83853-.6082033-.001258-1.2074016-.147029-1.748214-.4253.6260382.4455455 1.3751411.685373 2.143538.68626 2.045752.0000007 3.704164-1.6584075 3.704167-3.70416-.0016-.7574358-.235324-1.4961817-.669727-2.11667z" fill="#f8f8f8"/><path id="path7033" d="m8.903894 3.96495h.705555c.390878 0 .705556.28845.705556.64676 0 1.73449-1.058334 1.99907-1.058334 1.99907s-1.058333-.26458-1.058333-1.99907c0-.35831.314678-.64676.705556-.64676z" fill="#e4eff8"/><path id="path7037" d="m8.903894 3.96495h.705555c.390878 0 .705556.28845.705556.64676 0 1.73449-1.058334 1.99907-1.058334 1.99907s-1.058333-.26458-1.058333-1.99907c0-.35831.314678-.64676.705556-.64676z" fill="#ff5151"/><path id="path7040" d="m9.080066 3.96511c.390878 0 .7059.28817.7059.64647 0 1.17383-.480388 1.66712-.79375 1.86811.149672.096.264583.13126.264583.13126s1.058333-.26488 1.058333-1.99937c0-.3583-.315021-.64647-.7059-.64647z" fill="#ff2929"/><path id="path7042" d="m8.903849 3.96511c-.390878 0-.705383.28817-.705383.64647 0 1.73449 1.058333 1.99937 1.058333 1.99937s.114911-.0353.264584-.13126c-.313363-.20099-.793751-.69428-.793751-1.86811 0-.3583.314506-.64647.705384-.64647z" fill="#f8f8f8"/><path id="circle7044" d="m9.7858405 3.4357774c0 .2922507-.236916.5291667-.5291667.5291667s-.5291666-.236916-.5291666-.5291667c0-.2922506.236916-.5291666.5291666-.5291666.2922507 0 .5291667.2369159.5291667.5291666z" fill="#ff5151"/><path id="rect7046" d="m1.5875022 8.2020435h2.9104167c.4397375 0 .79375.3540125.79375.79375v6.3500005c0 .439738-.3540125.79375-.79375.79375h-2.9104167c-.4397375 0-.79375001-.354012-.79375001-.79375v-6.3500005c0-.4397375.35401251-.79375.79375001-.79375z" fill="#ffc6a0"/><path id="path7052" d="m11.1125 15.08123c-.831887 0-1.6153359.391247-2.115117 1.05627h.79375c.416217-.552145 1.032043-.919416 1.715658-1.0232-.13042-.02086-.262219-.03192-.394291-.0331z" fill="#f8f8f8"/><path id="path7056" d="m3.704167 8.20206c.439737 0 .79375.35402.79375.79375v6.35c0 .43974-.354013.79375-.79375.79375h.79375c.439737 0 .79375-.35401.79375-.79375v-6.35c0-.43973-.354013-.79375-.79375-.79375z" fill="#ffaf7a"/><path id="path7061" d="m.79375 9.2604h4.497917v5.82083h-4.497917z" fill="#e4eff8"/><path id="path7078" d="m1.5875 8.20206c-.439738 0-.79375.35402-.79375.79375v6.35c0 .43974.354012.79375.79375.79375h.529167c-.439738 0-.79375-.35401-.79375-.79375v-6.35c0-.43973.354012-.79375.79375-.79375z" fill="#f8f8f8"/><path id="path7083" d="m4.497917 9.2604v5.82083h.79375v-5.82083z" fill="#c4dcf0"/><path id="path7095" d="m.79375 9.2604v5.82083h.529167v-5.82083z" fill="#f8f8f8"/><path id="path5252" d="m2.9103454.52917199c-.77158 0-1.51654.279919-2.09591994.78909891-.26560998.233233.0842.6316581.34982994.398425.48291-.424397 1.10295-.657841 1.74609-.657841.6431399 0 1.26266.233444 1.74557.657841.2656099.2332331.6154399-.165192.34983-.398425-.5793801-.50917991-1.32383-.78909891-2.0954-.78909891zm6.0851999.26458299v.27853592c-1.98345.130625-3.56002 1.7126141-3.69112 3.6902142h-.27749c-.3529898-.0001371-.3529898.5290288 0 .5291669h.27749c.1309801 1.9778559 1.7116901 3.560287 3.69112 3.691247v.2775029c-.0001299.353.52901.353.52915 0v-.273369c.4999897-.03367.9732397-.162782 1.4055497-.3653521-.07776.2901884-.0836.6328143-.0826.9032852v1.709457c-.1703-.295411-.37992-.571084-.62733-.818554-.0346-.03465-.0557-.05015-.0584-.05271-.13637-.130459-.3618196-.0804-.4299297.0956-.0735.191195-.2561098.3167-.4609399.316776-.26376 0-.4919401-.217015-.4919401-.492476.0001202-.03961.004-.07888.013401-.117305.0585-.2339871-.20066-.4174799-.4020301-.2847379-.027.017949-.0595.02853-.092.02894-.0961 0-.1700101-.07699-.1700101-.1679479.00006-.025001.007-.0498.0176-.07235.0781-.16271-.025601-.353881-.2045999-.3767219-.1669002-.02181-.33524-.03283-.50434-.03307-.3435601-.0005028-.6900801.04469-1.03091.136426-.0916.024421-.1631701.09602-.1875801.1875851-.2702898 1.0122876-.1237199 2.0737006.3767101 2.9610586.0743.131368.2432899.173807.3720499.0925.1375302-.07987.3068899-.0327.3839501.100769.018301.03198.0305.0665.0351.103353.021.167023.1908701.272437.3498299.217041.1767002-.06246.3686501.0078.4624901.170016.086.149176.0645.334224-.0543.458886-.1205301.127113-.0867.334138.0682.415996.8007699.416817 1.7312599.549162 2.6348888.358117v.370004c-.76949.07057-1.4802394.445454-1.9750095 1.043351h-2.5227599c-.3535-.000661-.3535.529812 0 .529162h9.7892394c.35351.000662.35351-.529822 0-.529162h-2.78732c-.49492-.598702-1.20493-.973213-1.975-1.04335v-4.082438c.95605.206715 1.94122.06916 2.78888-.372071.15487-.08186.18874-.288881.0682-.4159951-.12981-.1362591-.15018-.3466219-.0605-.502295.10104-.1750201.31279-.253777.50589-.1855179.15957.05695.33064-.04837.35139-.216525.005-.04084.019-.07981.0393-.1152382.0875-.149597.2713-.2005409.42167-.1136877.12804.08345.30013.04169.37515-.09147.52637-.933355.68066-2.0507891.39635-3.1155719-.025-.09081-.0965-.1614522-.18758-.1855189-.3585-.09649-.72224-.1442072-1.08361-.14366-.17787.0002637-.35567.011681-.53122.03462-.17901.022839-.28322.2140119-.20515.3767209.0123.02576.0196.05358.0196.08217 0 .108857-.0883.192437-.19171.19327-.0378-.0000569-.076-.01216-.107479-.03307-.20139-.1327798-.460591.05124-.402031.2852542.0104.04173.0154.08362.0155.1266068 0 .2987101-.242851.5353672-.53535.5353683-.0938-.0000352-.1808-.0287-.25889-.07235.23744-.464852.38699-.9809501.42373-1.5285892h.2744c.35298.0001371.35298-.5290288 0-.5291669h-.27853c-.13108-1.9772584-1.70712-3.5591095-3.6900896-3.6902134v-.27853601c.0000699-.176501-.1322501-.264583-.2645352-.264573-.132285.00001-.2644748.08809-.2645449.26459299zm-6.0851999.79426692c-.4876 0-.96016.168467-1.33786.4764561-.28947.220787.0588.648833.33382.410311.28334-.231048.63818-.357601 1.00404-.357601.36585 0 .72018.126553 1.0035199.357601.2750402.238522.6232901-.189524.33382-.410311-.3776998-.3079891-.84974-.4764561-1.3373399-.4764561zm6.0851999.26407c-.0001299.3530021.52901.3530021.52915 0v-.25063c1.6831897.129099 3.0312297 1.4711031 3.1604197 3.1610472h-.2501c-.35299-.0001371-.35299.5290288 0 .5291669h.25217c-.0299.392634-.12937.764523-.28008 1.1089759-.0917-.03721-.20238-.02409-.28266.05271-.004.0035-.0249.018709-.0605.05426-.40231.4024082-.70945.876305-.91516 1.388029-.47332.3136611-1.02751.5119769-1.6241297.5581052v-.251664c.00014-.3530013-.52901-.3530013-.5291499 0v.2511478c-1.6826701-.1287979-3.0330301-1.470963-3.1619301-3.1615679h.25166c.3529902.0001371.3529902-.5290301 0-.5291669h-.25166c.1292601-1.6902861 1.4782699-3.0324152 3.16197-3.1610452zm-.4469799.9859861.1007599.10077c-.1126101.137234-.18293.3099521-.18293.500228 0 .119204.0278.2317641.0755.333312-.2074599.07827-.3762601.2230501-.4831599.4066939l-.3860102-.1317749v-.3395141c.00201-.1361768-.0988-.2519969-.2340797-.267684-.009-.00119-.018201-.0019-.0274-.00209-.1493703-.0018-.2705902.1203902-.26768.269748v.5291661c-.0000601.112726.0713.21312.1777698.2501141l.61854.2103228c.00201.1175681.01.228985.020701.334863l-.54517.0093c-.0972.00159-.18567.05636-.23046.1426268l-.2656099.51573c-.15229.3109291.3066899.546726.4707501.2418461l.1932699-.374654.4723-.010329c.0388.1364641.085.260995.1374601.372587l-.3699902.184485c-.0911.04361-.1494798.135133-.1503799.2361599v.5291672c0 .352865.52915.352865.52915 0v-.3627694l.27749-.1348751c.018399.02154.0402.04409.0589.06408.32814.350942.65834.425813.65834.425813.020799.0052.0422.0078.0636.0078s.0427-.00249.0636-.0078c0 0 .3301902-.07487.6583297-.425813.0187-.019989.0405-.04254.0589-.06408l.27749.1348761v.3627681c0 .352865.52915.352865.52915 0v-.5291778c-.000901-.1010269-.0592-.192555-.150371-.236161l-.36999-.1844849c.0525-.111592.0987-.2361229.13745-.372587l.47231.010329.19326.3746539c.16406.3048799.62304.06908.47076-.241846l-.26561-.5157287c-.0448-.08627-.13328-.1410261-.23047-.1426271l-.54517-.0093c.0111-.105876.0184-.2172949.0207-.3348638l.61855-.2103231c.10647-.03699.17783-.1373871.17776-.250113v-.5291692c.003-.1493578-.11831-.2715159-.26768-.2697509-.009.0002141-.0183.0008731-.0274.00209-.13528.01569-.23657.1315069-.23408.267684v.3395183l-.38601.1317847c-.1069-.1836409-.2757-.3284162-.483159-.406691.047601-.1015479.075501-.214108.075501-.333312 0-.1902759-.070301-.362994-.1829304-.500228l.10077-.10077c.1871204-.187134.0231-.444606-.1756997-.456302-.0663-.0039-.1360501.01927-.1984301.08165l-.19688.196888c-.0456-.0081-.0919-.01395-.1405501-.01395-.0486 0-.0949.0058-.1405599.01395l-.1968815-.196889c-.0624-.06238-.1321501-.08555-.1985301-.0816495-.1989201.0117005-.3629199.2691685-.1757899.4563025zm-5.63822-.191719c-.19456 0-.38494.05338-.55085.154513-.32558.177288-.031.6597379.27542.4511351.083-.05058.17799-.07596.27543-.07596.0974 0 .19193.025389.2749101.07596.30646.2086028.6009999-.2738471.2754198-.4511351-.1659099-.101131-.3557699-.154513-.5503299-.154513zm6.6143681.792717c0 .149258-.1189299.265616-.2645701.265616-.1456398 0-.2645698-.116358-.2645698-.265616 0-.14926.1210001-.2635499.2645699-.2635499.14356 0 .26457.1142899.26457.2635499zm-6.6143681.2651c-.1461225-.0000033-.2645799.1184555-.26458.2645831.0000003.1461274.1184577.2645861.26458.2645828.1461184-.0000023.2645697-.1184593.26457-.2645828-.0000001-.1461236-.1184514-.2645808-.26457-.2645831zm6.0851598.5286489v.794784c0 .1764321.13229.264583.2645798.264583.1322801 0 .2645701-.08815.2645701-.264583v-.794784h.0879c.2607 0 .4418199.1868342.4418199.382923 0 .8032011-.2360799 1.234001-.4593898 1.4686441-.1469098.1543579-.3015098.23397-.33485.24908-.0333-.01511-.1879499-.09472-.33485-.24908-.2233099-.2346431-.4593899-.665443-.4593899-1.4686441 0-.1960888.1811102-.382923.4418149-.382923zm6.5151798 4.0416151c-.38956-.07745-.76015.1156078-.92343.4464838-.39034-.017539-.70371.1900402-.87071.473356-.0876.1597012-.20651.449952-.0568.8361242-.67226.283103-1.42138.368258-2.19669.202055-.24588-1.170541.0612-2.3059842.80147-3.163631.22588.2454478.50487.3481689.78959.3529499.48966-.0047.96215-.333438 1.05468-.914672.3553-.01315.66482-.284041.69554-.679545.0801-.0054.10693-.005.18756-.00518.2568-.0003812.52496.027556.79628.086314.17516.8032665.0777 1.6363055-.27749 2.3657451zm-13.9226996-.336931c-.58172 0-1.05880992.4688419-1.05880992 1.05885v6.349483c0 .588977.47708992 1.058339 1.05880992 1.058339h2.9092898c.5817201 0 1.0588101-.469362 1.0588101-1.058339v-6.349483c0-.5900081-.47709-1.05885-1.0588101-1.05885zm0 .5291669h2.9092898c.29772 0 .5296601.2390011.5296601.5296831h-3.9680899c0-.290682.23142-.5296831.52914-.5296831zm-.52914 1.0588501h3.9680899v5.290633h-3.9680899zm6.5440701.268749c.017399.324993.2879597.622025.6572998.644923.084.503579.5085199.865578 1.0107599.86558.3908502-.0077.6046399-.18091.7508298-.325046.73641.854204.96622 1.983864.74567 2.964677-.73819.153929-1.4216896.07192-2.0499396-.189136.10823-.271568.0675-.56995-.0594-.790135-.1560401-.269746-.4742399-.477915-.83093-.45682-.1277102-.253018-.44118-.500021-.8764-.424263-.3240701-.67728-.4185301-1.46242-.2568199-2.2138188.23832-.05086.50258-.08149.7415198-.081146.07589.0000964.09199.0000344.1674102.00518zm-4.5597701 1.053134c-.48734.000001-.96016.168983-1.33785.476973-.2990167.219576.05831.65824.33381.409794.28334-.231049.63845-.357083 1.00404-.357084.36561 0 .7201799.126027 1.0035201.357084.27549.248329.6327133-.190195.3338197-.409794-.3776998-.308-.8499797-.476973-1.3373398-.476973zm0 1.150834c-.1943-.000001-.38494.05287-.55085.153996-.30181.183703-.02638.636905.27543.453202.083-.05058.17825-.07803.27542-.07803.0972 0 .1919401.02745.27491.07803.3020432.183296.5774731-.269906.2754299-.453202-.1659099-.101122-.35605-.153996-.5503399-.153996zm-.0005107.966349c-.1461225-.000003-.2645797.118456-.2645793.264584.0000002.146128.1184576.264586.26458.264583.1461185-.000002.2645698-.118459.26457-.264583.0000004-.146124-.1184515-.264582-.2645707-.264584zm-1.9837899 2.38125h3.9680905c0 .290497-.2319401.529167-.5296601.529167h-2.9092898c-.29772 0-.52914-.23867-.5291406-.529167zm10.0512292 0c.002.000012.003.000014.005 0 .54942.00037 1.07279.191546 1.49081.529167h-2.9868386c.4182496-.337286.9426396-.528451 1.4913296-.529167z" fill="#333" font-variant-ligatures="normal" font-variant-position="normal" font-variant-caps="normal" font-variant-numeric="normal" font-variant-alternates="normal" font-feature-settings="normal" text-indent="0" text-align="start" text-decoration-line="none" text-decoration-style="solid" text-decoration-color="#000000" text-transform="none" text-orientation="mixed" white-space="normal" shape-padding="0" isolation="auto" mix-blend-mode="normal" solid-color="#000000" solid-opacity="1" vector-effect="none"/></g></svg>