<svg id="filled_outline" height="512" viewBox="0 0 340 340" width="512" xmlns="http://www.w3.org/2000/svg" data-name="filled outline"><path d="m285.362 35.127s-13.155-6.437-27.283-1.813a27.5 27.5 0 0 0 -18.462 29.286 54.844 54.844 0 0 0 .971 5.95 23.679 23.679 0 0 1 -2.441 16.814c-3.56 6.3-6.334 16.576-.111 30.369a39.958 39.958 0 0 1 3.389 18.877 50.487 50.487 0 0 1 -2.687 14.028l20.65 2.423s4.384-18.535 15.73-33a83.3 83.3 0 0 0 18.187-50.248c.168-13.137-1.569-26.192-7.943-32.686z" fill="#8eb260"/><path d="m279.5 141.552s6.761-11.874 5.253-30.4a52.689 52.689 0 0 0 -5.805-19.524c-2.663-5.241-5.308-14.559 1.16-25.2a24.8 24.8 0 0 0 2.732-19.589c-2.368-8.351-2.833-19.6 7.993-26.423a18.937 18.937 0 0 1 18.754-.648c11.145 5.72 27.723 19.974 18.156 52.288a35.529 35.529 0 0 0 -1.3 13.486c.81 8.452-.654 24.092-18.37 37.506a44.879 44.879 0 0 0 -9.37 9.776l-9.822 13.776z" fill="#abd37d"/><path d="m95 44.261s-21.191-1.767-24.989 15.519a22.366 22.366 0 0 0 .494 11 27.858 27.858 0 0 0 7.746 13 17.7 17.7 0 0 1 6.072 13.675c-.5 16.2 7.184 47.781 74.956 47.2 0 0-49.349-81.812-64.279-100.394z" fill="#769344"/><path d="m184.868 168.537s23.6-21.784 24.092-51.5a50.848 50.848 0 0 0 -11.76-32.969c-2.633-3.209-5.85-6.9-9.337-10.416a53.425 53.425 0 0 1 -12.566-20.033c-5.677-16.254-20.408-43.226-55.243-40.5a33.1 33.1 0 0 0 -20.667 9.129c-6.207 6.092-11.537 16.221-8.034 32.366 0 0 4.956 15.248 18.545 24.828a23.324 23.324 0 0 1 10.002 18.985c.022 13.957 4.185 35.546 27.04 48.189z" fill="#a0c16c"/><path d="m255.084 147.243s-43.6-18.1-55.095 42.328h37.519z" fill="#e57c35"/><path d="m298.98 148.412a25.872 25.872 0 0 0 -26.886-16.067c-9.938 1.066-22.491 6.825-31.206 26.39 0 0-11.154 25.244-18.253 30.536h61.855s22.537-20.156 14.49-40.859z" fill="#f9a364"/><circle cx="161.244" cy="173.321" fill="#e24d4d" r="31.769"/><path d="m115.542 134.232s-43.411 3.057-36.422 55.039h68.363s29.107-29.615-9.392-52.637z" fill="#ff6e6e"/><path d="m28.6 85.069a38.583 38.583 0 0 1 -7.554-34.025 7.019 7.019 0 0 1 9.1-4.861 7.058 7.058 0 0 1 4.527 8.456c-1.769 6.889-3.289 18.516 2.048 29.674z" fill="#abd37d"/><path d="m24.77 106.283s-11.708 51.995 13.33 83.288h78.9s-54.477-28.531-63.987-87.611c0 0-12.836-7.201-28.243 4.323z" fill="#927dbc"/><path d="m32.165 81.05s-14.814 2.25-18.405 25.138c0 0-.125.561-.391 1.471a7.4 7.4 0 0 0 10.289 8.753 37.806 37.806 0 0 0 8.764-5.859 16.624 16.624 0 0 1 14.568-4.132 81.514 81.514 0 0 0 8.783 1.368 6.78 6.78 0 0 0 5.927-10.938 19.607 19.607 0 0 1 -1.212-1.8 29.773 29.773 0 0 0 -5.2-6.762c-4.44-4.143-12.282-9.128-23.123-7.239z" fill="#abd37d"/><rect fill="#c99" height="52.856" rx="9.192" width="320" x="9.363" y="184.184"/><rect fill="#c99" height="52.856" rx="9.192" width="320" x="9.363" y="274.22"/><path d="m22.987 237.041h292.75v37.179h-292.75z" fill="#966363"/><path d="m88.741 131.764c5.229.507 15.559 2.068 18.967 6.612 0 0-4.025 11.116 2.928 20.31a1.272 1.272 0 0 0 2.242-.431c1.741-6.348 8.532-22.663 31.605-17.077a1.157 1.157 0 0 0 1.3-1.68c-2.827-5.018-11.071-15.963-27.285-10.99 0 0-11.334-13.036-30.351 1.045a1.226 1.226 0 0 0 .594 2.211z" fill="#abd37d"/><g fill="#24242b"><path d="m259.322 37.115a30.262 30.262 0 0 1 8.384-1.453 4 4 0 1 0 -.271-8 38.267 38.267 0 0 0 -10.6 1.846c-13.907 4.552-22.82 18.652-21.194 33.524a59.08 59.08 0 0 0 1.044 6.387 19.661 19.661 0 0 1 -2.02 13.976c-3.958 7.006-7.218 18.59-.274 33.982a35.974 35.974 0 0 1 3.113 14.8 4 4 0 0 0 3.988 4.011h.012a4 4 0 0 0 4-3.988 44.047 44.047 0 0 0 -3.82-18.118c-5.567-12.337-3.1-21.36-.053-26.757a27.64 27.64 0 0 0 2.862-19.651 51.046 51.046 0 0 1 -.9-5.515 23.584 23.584 0 0 1 15.729-25.044z"/><path d="m199.171 150.145a4 4 0 0 0 5.394-1.706 70.325 70.325 0 0 0 8.394-31.334 54.871 54.871 0 0 0 -12.672-35.575c-3.252-3.963-6.477-7.561-9.59-10.7a49.107 49.107 0 0 1 -11.629-18.53c-6.068-17.382-21.835-46.124-59.331-43.164a37.12 37.12 0 0 0 -23.157 10.264 34.1 34.1 0 0 0 -10.147 21.453c-10.873 1.98-18.21 8.424-20.333 18.069a26.471 26.471 0 0 0 .558 12.97 31.928 31.928 0 0 0 8.917 14.863 13.735 13.735 0 0 1 4.75 10.575 45.308 45.308 0 0 0 2.6 16.919 4 4 0 0 0 7.522-2.725 37.329 37.329 0 0 1 -2.125-13.946 21.7 21.7 0 0 0 -7.4-16.776 23.96 23.96 0 0 1 -6.575-11.134 18.444 18.444 0 0 1 -.43-9.029c1.588-7.227 7.069-10.355 12.516-11.634a53.57 53.57 0 0 0 1 6.462 3.684 3.684 0 0 0 .105.387c.219.674 5.533 16.632 20.044 26.862a19.372 19.372 0 0 1 8.318 15.718 69.353 69.353 0 0 0 1.7 15.347 4 4 0 1 0 7.8-1.787 61.324 61.324 0 0 1 -1.5-13.574 27.385 27.385 0 0 0 -11.7-22.243c-11.559-8.148-16.423-21.042-16.99-22.633-2.516-11.857-.171-21.423 6.976-28.438a29.121 29.121 0 0 1 18.178-8c32.136-2.506 45.836 22.623 51.151 37.832a57.041 57.041 0 0 0 13.505 21.533c2.935 2.956 5.991 6.365 9.082 10.133a46.874 46.874 0 0 1 10.859 30.369 62.434 62.434 0 0 1 -7.5 27.779 4 4 0 0 0 1.71 5.393z"/><path d="m320.171 180.185h-22.958c5.357-8.3 10.417-20.562 5.5-33.223a29.171 29.171 0 0 0 -11.591-14.031c20.578-28.385 17.878-73.725 17.75-75.731a4 4 0 0 0 -7.982.522c.028.424 2.222 37.693-12.123 63.944a69.126 69.126 0 0 0 -.029-10.839 50.374 50.374 0 0 0 -1.1-7.032c-.02-.082-.029-.168-.054-.249a60.568 60.568 0 0 0 -5.069-13.729c-2.481-4.882-4.319-12.543 1.011-21.314a28.836 28.836 0 0 0 3.163-22.758c-2.872-10.125-.76-17.51 6.278-21.948a15 15 0 0 1 14.793-.473c11.975 6.147 24.5 19.394 16.148 47.6a39.394 39.394 0 0 0 -1.444 15c.708 7.386-.533 21.615-16.8 33.935a46.672 46.672 0 0 0 -6.437 5.936 4 4 0 0 0 5.941 5.357 38.59 38.59 0 0 1 5.327-4.915c19.368-14.666 20.8-32.031 19.936-41.076a31.417 31.417 0 0 1 1.152-11.969c10.417-35.222-8.166-50.821-20.173-56.984a23.035 23.035 0 0 0 -22.713.823c-10.1 6.372-13.551 17.345-9.708 30.9a20.816 20.816 0 0 1 -2.3 16.421 29.013 29.013 0 0 0 -1.308 29.091 53.4 53.4 0 0 1 4.121 10.742 84.567 84.567 0 0 1 -7.529 11.413 83.393 83.393 0 0 0 -9.148 14.843c-1.073.4-2.16.856-3.255 1.386 7.224-29.6 3.58-61.293 3.4-62.792a4 4 0 0 0 -7.943.951c.046.391 4.509 39.082-5.979 69.367-.59.584-1.176 1.191-1.757 1.834-10.55-1.488-32.433-.781-44.827 26.552a4 4 0 1 0 7.285 3.305c8.536-18.824 22-22.555 31.911-22.318a68.747 68.747 0 0 0 -4.43 8.393c-.063.143-6.265 14.125-12.167 23.068h-28.716a35.9 35.9 0 0 0 -11.02-33.387c.928-21.416-4.228-40.946-8.821-53.716a4 4 0 1 0 -7.527 2.707c3.978 11.065 8.411 27.462 8.466 45.586a35.489 35.489 0 0 0 -4.412-1.857c-3.4-48.719-31.7-82.965-32.929-84.426a4 4 0 0 0 -6.125 5.146c.279.332 26.916 32.539 30.9 77.5-.822-.082-1.65-.146-2.489-.173a4 4 0 1 0 -.252 8 27.7 27.7 0 0 1 16.189 5.8 4 4 0 0 0 .788.641 27.9 27.9 0 0 1 9.042 28.181h-29.8c4.4-9.391 7.567-24.731-7.473-38.982a3.917 3.917 0 0 0 -.214-.82c-3.008-7.7-13.276-20.548-31.135-16.3-4.812-3.8-18.064-11.046-36.462 4.387a4 4 0 0 0 2.419 7.061c5.463.208 14.056 1.628 17.743 4.095-1.048 4.818-2.043 15.344 6.251 23.835a3.978 3.978 0 0 0 2.853 1.2 4 4 0 0 0 3.967-3.421c.014-.095 1.521-9.694 8.968-14.448 4.534-2.9 10.5-3.507 17.772-1.837 15.076 12.386 12 25.774 6.264 35.232h-39.946a3.621 3.621 0 0 0 -.355-.294c-5.444-3.654-14.475-11.819-14.538-11.875-2.728-2.519-5.62-5.4-8.544-8.617a33.534 33.534 0 0 1 9.481-12.624 4 4 0 0 0 -5.086-6.175 41.15 41.15 0 0 0 -10.031 12.172 113.328 113.328 0 0 1 -21.161-41.285 10.494 10.494 0 0 0 6.589-5.095 10.818 10.818 0 0 0 -.819-11.952 15.493 15.493 0 0 1 -.966-1.433 33.329 33.329 0 0 0 -5.916-7.656c-7.507-6.99-16.933-9.92-26.531-8.249a16.691 16.691 0 0 0 -2.978.867 34.7 34.7 0 0 1 -3.586-25.957 2.891 2.891 0 0 1 1.444-1.843 3.058 3.058 0 0 1 4.427 3.47 54.317 54.317 0 0 0 -1.751 15.045 4 4 0 1 0 8-.226 47.342 47.342 0 0 1 1.5-12.829 11.057 11.057 0 0 0 -15.992-12.491 10.94 10.94 0 0 0 -5.388 6.927 42.665 42.665 0 0 0 4.465 31.978c-4.749 3.951-9.818 10.966-11.796 23.369-.044.182-.143.577-.3 1.122a11.352 11.352 0 0 0 15.884 13.46 41.8 41.8 0 0 0 9.684-6.48 12.7 12.7 0 0 1 11.058-3.186c1.544.326 3.091.611 4.63.85 7.046 29.076 24.573 50.081 38.28 62.736.225.2 3.428 3.1 7.232 6.265h-60.3c-9.5-17.41-10.4-36.039-10.1-50.356a4 4 0 1 0 -8-.166c-.274 13.188.445 32.332 9.121 50.522h-8.467a13.207 13.207 0 0 0 -13.191 13.191v34.473a13.207 13.207 0 0 0 13.191 13.192h.434v29.179h-.434a13.207 13.207 0 0 0 -13.191 13.191v34.473a13.207 13.207 0 0 0 13.191 13.192h301.617a13.207 13.207 0 0 0 13.192-13.192v-34.473a13.207 13.207 0 0 0 -13.192-13.191h-293.183v-29.179h284.75v17.589a4 4 0 0 0 8 0v-17.589h.433a13.207 13.207 0 0 0 13.192-13.192v-34.473a13.207 13.207 0 0 0 -13.192-13.191zm-199.288-40.085a27.3 27.3 0 0 0 -9.606 11.128 20.285 20.285 0 0 1 .191-11.491 4 4 0 0 0 -.56-3.76c-2.85-3.8-8.624-5.9-13.975-7.049 11.352-5.122 17.736 1.309 18.546 2.2a4 4 0 0 0 4.191 1.2c9.005-2.763 14.981.23 18.667 3.8-6.703-.516-12.55.812-17.454 3.972zm-91.145-32.513a33.842 33.842 0 0 1 -7.84 5.232 3.224 3.224 0 0 1 -3.588-.462 3.379 3.379 0 0 1 -1.1-3.577c.311-1.065.455-1.72.455-1.72.018-.081.036-.171.048-.251 1.937-12.35 7.311-17.771 11.1-20.109a4.047 4.047 0 0 0 .5-.3 12.04 12.04 0 0 1 3.496-1.4l.043-.008c9.082-1.579 15.729 2.511 19.714 6.221a25.692 25.692 0 0 1 4.479 5.868 23.512 23.512 0 0 0 1.461 2.175 2.9 2.9 0 0 1 .24 3.223 2.542 2.542 0 0 1 -2.581 1.33 77.054 77.054 0 0 1 -8.346-1.3 20.714 20.714 0 0 0 -18.081 5.078zm286 170.633h4.433a5.2 5.2 0 0 1 5.192 5.191v34.473a5.2 5.2 0 0 1 -5.192 5.192h-301.617a5.2 5.2 0 0 1 -5.191-5.192v-34.473a5.2 5.2 0 0 1 5.191-5.191zm-34.777-161.311a59.078 59.078 0 0 1 -1.234 11.691 30.382 30.382 0 0 0 -6.684-.322 69.149 69.149 0 0 1 5.223-7.745q1.395-1.779 2.695-3.624zm-36.419 43.453a49.464 49.464 0 0 1 10.517-15.738 3.832 3.832 0 0 0 .333-.305 29.071 29.071 0 0 1 17.129-8 22.264 22.264 0 0 1 8.862.828c.063.021.119.054.184.073.037.01.074.014.111.023q.843.268 1.658.6a3.56 3.56 0 0 0 .347.154 21.374 21.374 0 0 1 11.568 11.857c4.594 11.816-2.819 23.937-7.865 30.325h-52.915c5.242-8.93 9.846-19.307 10.071-19.817zm80.821 67.487a5.2 5.2 0 0 1 -5.192 5.192h-301.617a5.2 5.2 0 0 1 -5.191-5.192v-34.473a5.2 5.2 0 0 1 5.191-5.191h301.617a5.2 5.2 0 0 1 5.192 5.191z"/><path d="m47.452 209.077a4.445 4.445 0 0 0 -.37-.69 4.02 4.02 0 0 0 -.5-.6 3.613 3.613 0 0 0 -.61-.5 3.249 3.249 0 0 0 -.689-.37 3.989 3.989 0 0 0 -.741-.23 4.033 4.033 0 0 0 -3.61 1.1 3.587 3.587 0 0 0 -.5.6 3.79 3.79 0 0 0 -.369.69 4.178 4.178 0 0 0 -.231 2.319 3.919 3.919 0 0 0 .231.741 3.6 3.6 0 0 0 .369.7 3.227 3.227 0 0 0 .5.6 4 4 0 0 0 5.65 0 3.571 3.571 0 0 0 .5-.6 4.166 4.166 0 0 0 .37-.7 4.917 4.917 0 0 0 .23-.741 4.017 4.017 0 0 0 .07-.779 4.066 4.066 0 0 0 -.07-.79 5.371 5.371 0 0 0 -.23-.75z"/><path d="m40.063 302.177a3.857 3.857 0 0 0 .369.69 3.654 3.654 0 0 0 .5.61 4.028 4.028 0 0 0 2.83 1.169 4.111 4.111 0 0 0 .78-.079 3.989 3.989 0 0 0 .741-.23 3.741 3.741 0 0 0 .689-.36 4.17 4.17 0 0 0 .61-.5 4.1 4.1 0 0 0 .5-.61 4.538 4.538 0 0 0 .37-.69 4.659 4.659 0 0 0 .23-.75 4.037 4.037 0 0 0 .07-.781 3.986 3.986 0 0 0 -1.17-2.829 4.17 4.17 0 0 0 -.61-.5 3.741 3.741 0 0 0 -.689-.36 3.357 3.357 0 0 0 -.741-.23 3.992 3.992 0 0 0 -4.78 3.919 4.2 4.2 0 0 0 .07.781 3.768 3.768 0 0 0 .231.75z"/><path d="m295.742 207.287a4.445 4.445 0 0 0 -.69-.37 4.3 4.3 0 0 0 -.75-.23 4.093 4.093 0 0 0 -1.56 0 3.875 3.875 0 0 0 -.75.23 4.071 4.071 0 0 0 -.69.37 3.646 3.646 0 0 0 -.609.5 3.987 3.987 0 0 0 -1.17 2.83 3.374 3.374 0 0 0 .08.779 3.88 3.88 0 0 0 .22.741 4.1 4.1 0 0 0 .37.7 3.524 3.524 0 0 0 .5.6 4 4 0 0 0 2.83 1.169 4.1 4.1 0 0 0 .779-.069 5.371 5.371 0 0 0 .75-.23 4.532 4.532 0 0 0 .69-.37 3.188 3.188 0 0 0 .6-.5 3.969 3.969 0 0 0 0-5.65 3.62 3.62 0 0 0 -.6-.5z"/><path d="m289.823 302.177a4.451 4.451 0 0 0 .37.69 4.036 4.036 0 0 0 .5.61 4.215 4.215 0 0 0 .609.5 4.1 4.1 0 0 0 .69.36 3.875 3.875 0 0 0 .75.23 4.048 4.048 0 0 0 .781.079 4.117 4.117 0 0 0 .779-.079 4.3 4.3 0 0 0 .75-.23 4.478 4.478 0 0 0 .69-.36 4.188 4.188 0 0 0 .6-.5 3.558 3.558 0 0 0 .5-.61 4.059 4.059 0 0 0 .6-1.44 3.842 3.842 0 0 0 0-1.56 4.059 4.059 0 0 0 -.6-1.44 3.558 3.558 0 0 0 -.5-.61 4.188 4.188 0 0 0 -.6-.5 4.478 4.478 0 0 0 -.69-.36 4.215 4.215 0 0 0 -.75-.23 3.992 3.992 0 0 0 -4.779 3.919 3.391 3.391 0 0 0 .08.781 3.742 3.742 0 0 0 .22.75z"/><path d="m163.753 74.569a4 4 0 0 0 -1.583 5.431c.005.008.466.852 1.214 2.389a4 4 0 0 0 7.193-3.5c-.845-1.737-1.373-2.7-1.394-2.739a4 4 0 0 0 -5.43-1.581z"/><path d="m274.915 150.864-5.259-3.214a4 4 0 0 0 -4.172 6.827l5.259 3.213a4 4 0 0 0 4.172-6.826z"/><path d="m264.442 160.02-3.006-1.791a4 4 0 1 0 -4.1 6.874l3.006 1.791a4 4 0 0 0 4.1-6.874z"/><path d="m36.344 141.511a4 4 0 0 0 -3.543 4.41c1.2 11 4.467 19.926 9.714 26.526a4 4 0 1 0 6.262-4.978c-4.291-5.4-6.991-12.94-8.023-22.415a4 4 0 0 0 -4.41-3.543z"/><path d="m37.341 123.915a4 4 0 0 0 -4.507 3.419s-.068.489-.155 1.38a4 4 0 0 0 3.589 4.372 3.775 3.775 0 0 0 .4.019 4 4 0 0 0 3.972-3.605c.065-.665.116-1.047.121-1.085a4 4 0 0 0 -3.42-4.5z"/></g></svg>