<svg id="icons" height="512" viewBox="0 0 340 340" width="512" xmlns="http://www.w3.org/2000/svg"><path d="m167.568 23.284 2.112-6.118 2.225 6.078a22.463 22.463 0 0 0 30.924 12.474l5.819-2.833-2.724 5.871a22.461 22.461 0 0 0 13.046 30.687l6.118 2.112-6.078 2.225a22.462 22.462 0 0 0 -12.474 30.92l2.832 5.82-5.868-2.72a22.462 22.462 0 0 0 -30.687 13.046l-2.112 6.118-2.225-6.078a22.462 22.462 0 0 0 -30.924-12.474l-5.819 2.833 2.724-5.871a22.461 22.461 0 0 0 -13.046-30.687l-6.118-2.112 6.078-2.225a22.462 22.462 0 0 0 12.474-30.924l-2.835-5.826 5.871 2.725a22.462 22.462 0 0 0 30.687-13.041z" fill="#ff597b"/><circle cx="170.189" cy="72.064" fill="#fff" r="20.723"/><path d="m58.752 214.339s10.889-19.018 42.587-19.2c0 0-7.087 30.343-42.587 19.2z" fill="#92b27b"/><path d="m222.275 255.814h-16.487c2.34-7.227 9.381-11.175 9.381-11.175l-3.758-2.626a9.523 9.523 0 0 0 -13.857 3.172c-2 3.377-7.183 10.629-14.773 10.629h-8.524v-12.654a49.527 49.527 0 0 0 14.884-13.06 9.778 9.778 0 0 0 1.07-9.96l-2.594-5.694s-4.9 8.858-13.36 11.644v-17.01a5.386 5.386 0 0 0 -5.387-5.386h-2.842a5.386 5.386 0 0 0 -5.387 5.386v16.487c-7.227-2.34-11.175-9.381-11.175-9.381l-2.626 3.758a9.522 9.522 0 0 0 3.16 13.845c3.37 2 10.646 7.181 10.646 14.783v7.242h-7.246c-7.589 0-12.771-7.251-14.772-10.629a9.524 9.524 0 0 0 -13.858-3.172l-3.758 2.626s7.041 3.948 9.382 11.175h-16.489a5.387 5.387 0 0 0 -5.386 5.387v2.842a5.387 5.387 0 0 0 5.386 5.387h17.01c-2.786 8.458-11.644 13.36-11.644 13.36l5.694 2.594a9.778 9.778 0 0 0 9.96-1.07 49.527 49.527 0 0 0 13.062-14.884h12.654v8.524c0 7.589-7.251 12.771-10.629 14.773a9.525 9.525 0 0 0 -3.172 13.857l2.626 3.758s3.948-7.041 11.175-9.381v16.487a5.386 5.386 0 0 0 5.387 5.386h2.842a5.386 5.386 0 0 0 5.387-5.386v-17.009c8.458 2.785 13.36 11.643 13.36 11.643l2.594-5.694a9.778 9.778 0 0 0 -1.07-9.96 49.527 49.527 0 0 0 -14.884-13.062v-13.936h13.937a49.5 49.5 0 0 0 13.062 14.884 9.778 9.778 0 0 0 9.96 1.07l5.693-2.594s-8.858-4.9-11.643-13.36h17.009a5.386 5.386 0 0 0 5.386-5.387v-2.843a5.386 5.386 0 0 0 -5.386-5.386z" fill="#97baf2"/><path d="m315 154.381a20.957 20.957 0 0 0 -11.9-9.45c4.154-4.441 14.314-8.654 14.314-8.654a36.2 36.2 0 0 0 -22.668-2.882l4.359-12.062c-17.093 2.544-23.589 11.82-23.589 11.82l-3.915-14.29c-10.125 21.153-32.678 23.776-32.678 23.776a42.7 42.7 0 0 1 -18.288 34.347l14.743 1.475s-8.061 7.953-7.717 25.231l11.166-6.311a36.192 36.192 0 0 0 6.625 21.869s2.458-10.722 6.143-15.558a20.961 20.961 0 0 0 11.3 10.152s-2.948-16.492 2.949-25.569c0 0 11.794 10.58 13.76 23.112 0 0 4.177-3.195 6.389-13.269 0 0 6.143 9.829 27.029 7.372-1.064-21-9.678-25.711-9.678-25.711 9.564-3.862 12.016-8.514 12.016-8.514-12.684.154-25.084-9.709-25.084-9.709 7.968-7.33 24.724-7.175 24.724-7.175z" fill="#fc9c59"/><path d="m175.139 170.985 102.988-102.985a3.5 3.5 0 1 0 -4.95-4.951l-102.988 102.986-102.989-102.989a3.5 3.5 0 0 0 -4.95 4.954l102.989 102.985-102.989 102.988a3.5 3.5 0 0 0 4.951 4.95l102.988-102.988 102.988 102.988a3.5 3.5 0 0 0 4.95-4.95z" fill="#e4e4f2"/><path d="m49.484 120.122c-3.507-2.079-6.7-1.162-10.071 1.223-3.4 2.341-5.361 5.025-4.617 9.033a11.717 11.717 0 0 0 3.674 6.3l15.181 13.878 8.278-5.781-7.8-19.032a11.73 11.73 0 0 0 -4.645-5.621z" fill="#ffc05d"/><path d="m89.1 176.863c.744 4.008-1.218 6.692-4.617 9.033-3.369 2.385-6.564 3.3-10.071 1.223a11.727 11.727 0 0 1 -4.647-5.619l-7.8-19.032 8.279-5.781 15.18 13.878a11.725 11.725 0 0 1 3.676 6.298z" fill="#ffc05d"/><path d="m85.7 126.906c.192-4.073-2.116-6.465-5.8-8.323-3.661-1.905-6.951-2.38-10.143.156a11.733 11.733 0 0 0 -3.841 6.2l-5.142 19.914 8.988 4.6 13.155-15.81a11.733 11.733 0 0 0 2.783-6.737z" fill="#ffc05d"/><path d="m54.149 188.5c-3.193 2.536-6.483 2.061-10.144.156-3.685-1.858-5.994-4.25-5.8-8.323a11.726 11.726 0 0 1 2.785-6.739l13.155-15.81 9.866 3.246-6.022 21.27a11.725 11.725 0 0 1 -3.84 6.2z" fill="#ffc05d"/><path d="m96.944 160.9c3.627-1.862 4.551-5.056 4.325-9.177-.173-4.123-1.4-7.212-5.19-8.716a11.724 11.724 0 0 0 -7.288-.241l-19.828 5.465.488 10.085 20.263 3.527a11.728 11.728 0 0 0 7.23-.943z" fill="#ffc05d"/><path d="m27.82 164.238c-3.789-1.5-5.017-4.593-5.189-8.717-.227-4.12.7-7.314 4.324-9.176a11.725 11.725 0 0 1 7.231-.943l20.263 3.527.487 10.085-19.828 5.465a11.724 11.724 0 0 1 -7.288-.241z" fill="#ffc05d"/><circle cx="61.95" cy="153.62" fill="#fff" r="11.263"/><g fill="#424256"><path d="m114.148 75.882 6.118 2.112a18.962 18.962 0 0 1 11.013 25.906l-2.724 5.872a3.5 3.5 0 0 0 4.707 4.62l5.819-2.833a18.963 18.963 0 0 1 26.106 10.53l2.225 6.079a3.5 3.5 0 0 0 3.286 2.3h.033a3.5 3.5 0 0 0 3.276-2.358l2.112-6.118a18.962 18.962 0 0 1 25.905-11.013l5.876 2.721a3.5 3.5 0 0 0 4.62-4.706l-2.832-5.82a18.96 18.96 0 0 1 10.53-26.105l6.078-2.225a3.5 3.5 0 0 0 -.061-6.595l-6.118-2.112a18.963 18.963 0 0 1 -11.017-25.908l2.724-5.871a3.5 3.5 0 0 0 -4.707-4.62l-5.817 2.833a18.963 18.963 0 0 1 -26.106-10.53l-2.225-6.079a3.54 3.54 0 0 0 -3.319-2.3 3.5 3.5 0 0 0 -3.276 2.357l-2.112 6.119a18.962 18.962 0 0 1 -25.9 11.013l-5.871-2.724a3.5 3.5 0 0 0 -4.62 4.706l2.832 5.82a18.962 18.962 0 0 1 -10.53 26.1l-6.078 2.225a3.5 3.5 0 0 0 .061 6.595zm23.575-16.914a26.01 26.01 0 0 0 .392-18.388 25.959 25.959 0 0 0 31.657-13.458 25.959 25.959 0 0 0 31.9 12.868 25.959 25.959 0 0 0 13.458 31.657 25.961 25.961 0 0 0 -12.869 31.9 25.959 25.959 0 0 0 -31.657 13.458 25.973 25.973 0 0 0 -31.9-12.868 25.961 25.961 0 0 0 -13.458-31.658 26.008 26.008 0 0 0 12.477-13.511z"/><path d="m170.189 96.287a24.251 24.251 0 0 0 24.223-24.223 3.5 3.5 0 0 0 -7 0 17.2 17.2 0 1 1 -13.748-16.872 3.5 3.5 0 0 0 1.4-6.859 24.225 24.225 0 1 0 -4.877 47.954z"/><path d="m184 61.778a3.5 3.5 0 1 0 5.611-4.185c-.4-.53-.821-1.054-1.263-1.556a3.5 3.5 0 1 0 -5.248 4.633c.319.358.622.73.9 1.108z"/><path d="m26.53 167.492a14.078 14.078 0 0 0 5.184.955 16.323 16.323 0 0 0 4.324-.593l6.717-1.854-4.455 5.358a15.083 15.083 0 0 0 -3.591 8.812c-.357 7.542 5.724 10.606 7.681 11.593a15.252 15.252 0 0 0 7.014 1.989 10.892 10.892 0 0 0 6.923-2.51 14.856 14.856 0 0 0 4.739-7.017c-.034 10.656-1.8 24.558-9.077 35.941a3.5 3.5 0 1 0 5.9 3.771 55.579 55.579 0 0 0 3.084-5.528 50.171 50.171 0 0 0 13.111 1.9 32.1 32.1 0 0 0 16.173-4.07c11.981-6.838 15.117-19.753 15.245-20.3a3.5 3.5 0 0 0 -.673-2.979 3.584 3.584 0 0 0 -2.756-1.317c-17.149.1-28.583 5.419-35.721 10.678a90.77 90.77 0 0 0 1.748-16.565 14.321 14.321 0 0 0 4.53 4.373 11.091 11.091 0 0 0 5.738 1.648 14.2 14.2 0 0 0 8.1-3c1.843-1.269 7.45-5.131 6.073-12.554a15.1 15.1 0 0 0 -4.754-8.243l-3.947-3.61 5.273.918a16.6 16.6 0 0 0 2.837.247 14.458 14.458 0 0 0 6.593-1.525c6.716-3.449 6.343-10.248 6.223-12.437-.094-2.236-.378-9.038-7.4-11.823a15.091 15.091 0 0 0 -9.509-.362l-6.716 1.851 4.457-5.356a15.1 15.1 0 0 0 3.59-8.812c.356-7.542-5.724-10.606-7.682-11.592-1.985-1.033-8.023-4.177-13.937.52a15.1 15.1 0 0 0 -5.052 8.064l-2.047 7.928-3.1-7.577a15.1 15.1 0 0 0 -6.1-7.3c-6.495-3.849-12.052.085-13.842 1.352-1.843 1.269-7.45 5.131-6.073 12.554a15.088 15.088 0 0 0 4.755 8.242l3.951 3.612-5.274-.918a15.1 15.1 0 0 0 -9.43 1.278c-6.716 3.449-6.343 10.248-6.223 12.437.093 2.229.378 9.036 7.396 11.821zm28.07 13.936a8.308 8.308 0 0 1 -2.63 4.333c-1.454 1.156-3.025 1.523-6.391-.229-3.349-1.688-3.968-3.177-3.88-5.032a8.309 8.309 0 0 1 1.98-4.665l8.956-10.764a14.61 14.61 0 0 0 5.466 2.8zm42.373 17.422a25.77 25.77 0 0 1 -10.189 11.305c-5.715 3.261-12.846 3.986-21.254 2.17 4.412-4.65 14.083-12.125 31.443-13.475zm-11.31-21.35c.338 1.826-.072 3.385-3.2 5.539-3.061 2.167-4.666 2.015-6.264 1.067a8.3 8.3 0 0 1 -3.192-3.935l-5.307-12.956a14.617 14.617 0 0 0 5.035-3.515l10.335 9.447a8.317 8.317 0 0 1 2.593 4.353zm4.059-31.365a8.294 8.294 0 0 1 5.066.12c1.726.685 2.827 1.863 2.986 5.655.206 3.745-.776 5.024-2.428 5.871a8.3 8.3 0 0 1 -5.032.609l-13.808-2.4a14.765 14.765 0 0 0 -.3-6.128zm-20.422-20.322a8.307 8.307 0 0 1 2.629-4.334c1.454-1.154 3.024-1.522 6.391.23 3.35 1.688 3.968 3.177 3.881 5.031a8.309 8.309 0 0 1 -1.98 4.666l-8.957 10.764a14.631 14.631 0 0 0 -5.467-2.8zm-11.795 21.442a7.712 7.712 0 0 1 4.429-1.4 7.9 7.9 0 0 1 1.374.122 7.763 7.763 0 1 1 -5.8 1.278zm-19.268-17.515c-.339-1.826.072-3.385 3.2-5.538 3.062-2.168 4.666-2.015 6.264-1.069a8.311 8.311 0 0 1 3.193 3.935l5.306 12.957a14.663 14.663 0 0 0 -5.035 3.516l-10.334-9.448a8.3 8.3 0 0 1 -2.594-4.353zm-9.683 19.718a8.3 8.3 0 0 1 5.031-.608l13.8 2.4a14.7 14.7 0 0 0 .3 6.131l-13.507 3.719a8.3 8.3 0 0 1 -5.067-.12c-1.725-.685-2.827-1.862-2.986-5.655-.206-3.741.775-5.018 2.429-5.867z"/><path d="m231.162 264.043v-2.843a8.9 8.9 0 0 0 -8.887-8.887h-10.627a20.9 20.9 0 0 1 5.233-4.622 3.5 3.5 0 0 0 .293-5.921l-3.758-2.627a13.023 13.023 0 0 0 -18.874 4.257c-1.587 2.68-5.913 8.913-11.761 8.913h-5.024v-7.138a54.73 54.73 0 0 0 14.171-12.961 13.243 13.243 0 0 0 1.467-13.528l-2.593-5.694a3.5 3.5 0 0 0 -6.243-.252 27.3 27.3 0 0 1 -6.8 7.594v-11.256a8.9 8.9 0 0 0 -8.886-8.886h-2.843a8.9 8.9 0 0 0 -8.886 8.886v10.627a20.888 20.888 0 0 1 -4.623-5.233 3.5 3.5 0 0 0 -5.921-.293l-2.627 3.759a13.341 13.341 0 0 0 -2.3 6 13.2 13.2 0 0 0 6.542 12.864c2.685 1.589 8.93 5.916 8.93 11.77v3.742h-3.745c-5.847 0-10.173-6.233-11.762-8.913a13.022 13.022 0 0 0 -18.873-4.257l-3.758 2.627a3.507 3.507 0 0 0 .282 5.915 20.9 20.9 0 0 1 5.244 4.628h-10.628a8.9 8.9 0 0 0 -8.886 8.887v2.842a8.9 8.9 0 0 0 8.886 8.887h11.258a27.321 27.321 0 0 1 -7.587 6.8 3.5 3.5 0 0 0 .244 6.247l5.694 2.594a13.248 13.248 0 0 0 13.528-1.468 54.694 54.694 0 0 0 12.958-14.173h7.139v5.024c0 5.847-6.234 10.173-8.914 11.762a13.213 13.213 0 0 0 -6.558 12.873 13.35 13.35 0 0 0 2.3 6l2.627 3.758a3.507 3.507 0 0 0 5.915-.282 20.87 20.87 0 0 1 4.629-5.244v10.627a8.9 8.9 0 0 0 8.886 8.886h2.843a8.9 8.9 0 0 0 8.886-8.886v-11.258a27.336 27.336 0 0 1 6.8 7.587 3.5 3.5 0 0 0 6.247-.244l2.593-5.694a13.246 13.246 0 0 0 -1.467-13.528 54.73 54.73 0 0 0 -14.171-12.961v-8.42h8.421a54.706 54.706 0 0 0 12.96 14.171 13.249 13.249 0 0 0 13.528 1.468l5.694-2.594a3.5 3.5 0 0 0 .252-6.243 27.3 27.3 0 0 1 -7.594-6.8h11.257a8.9 8.9 0 0 0 8.889-8.889zm-29.221 6.481a27.178 27.178 0 0 0 8.079 11.559l-.255.116a6.259 6.259 0 0 1 -6.391-.671 45.6 45.6 0 0 1 -12.1-13.753 3.5 3.5 0 0 0 -3.084-1.845h-13.933a3.5 3.5 0 0 0 -3.5 3.5v13.936a3.5 3.5 0 0 0 1.846 3.085 45.589 45.589 0 0 1 13.751 12.095 6.256 6.256 0 0 1 .671 6.392l-.116.254a27.169 27.169 0 0 0 -11.557-8.078 3.5 3.5 0 0 0 -4.595 3.324v17.01a1.888 1.888 0 0 1 -1.886 1.886h-2.843a1.888 1.888 0 0 1 -1.886-1.886v-16.488a3.5 3.5 0 0 0 -4.579-3.329 23.527 23.527 0 0 0 -9.989 6.748 6.024 6.024 0 0 1 2.223-8.642c3.712-2.2 12.345-8.337 12.345-17.783v-8.524a3.5 3.5 0 0 0 -3.5-3.5h-12.655a3.5 3.5 0 0 0 -3.085 1.845 45.586 45.586 0 0 1 -12.095 13.753 6.261 6.261 0 0 1 -6.391.671l-.255-.116a27.177 27.177 0 0 0 8.078-11.559 3.5 3.5 0 0 0 -3.324-4.594h-17.01a1.889 1.889 0 0 1 -1.886-1.887v-2.843a1.888 1.888 0 0 1 1.886-1.887h16.488a3.5 3.5 0 0 0 3.329-4.578 23.518 23.518 0 0 0 -6.748-9.989 6.024 6.024 0 0 1 8.642 2.223c2.2 3.712 8.337 12.344 17.783 12.344h7.243a3.5 3.5 0 0 0 3.5-3.5v-7.242c0-9.457-8.647-15.594-12.364-17.8a6.022 6.022 0 0 1 -2.2-8.63 23.536 23.536 0 0 0 9.989 6.748 3.5 3.5 0 0 0 4.579-3.33v-16.481a1.888 1.888 0 0 1 1.886-1.886h2.843a1.888 1.888 0 0 1 1.886 1.886v17.009a3.5 3.5 0 0 0 4.595 3.325 27.162 27.162 0 0 0 11.557-8.079l.116.255a6.256 6.256 0 0 1 -.671 6.392 45.589 45.589 0 0 1 -13.751 12.1 3.5 3.5 0 0 0 -1.846 3.085v12.654a3.5 3.5 0 0 0 3.5 3.5h8.524c9.448 0 15.584-8.633 17.783-12.345a6.024 6.024 0 0 1 8.642-2.222 23.538 23.538 0 0 0 -6.748 9.988 3.5 3.5 0 0 0 3.33 4.579h16.487a1.889 1.889 0 0 1 1.887 1.887v2.842a1.89 1.89 0 0 1 -1.887 1.887h-17.013a3.5 3.5 0 0 0 -3.325 4.594z"/><path d="m274.977 117.938a3.5 3.5 0 0 0 -6.533-.586c-7.75 16.19-23.288 20.534-28.329 21.541-3.12-3.084-4.989-5.046-5.056-5.117a3.5 3.5 0 0 0 -5.082 4.813c.57.6 8.245 8.666 18.918 18.184a34.079 34.079 0 0 1 .409 20.811 3.5 3.5 0 1 0 6.686 2.072 40.025 40.025 0 0 0 1.583-15.42 190.868 190.868 0 0 0 21.749 15.809 3.5 3.5 0 1 0 3.636-5.982 188.816 188.816 0 0 1 -22.465-16.536 31.16 31.16 0 0 0 12.271-4.026 3.5 3.5 0 1 0 -3.518-6.051 25.248 25.248 0 0 1 -17.046 2.85c-2.224-2.005-4.3-3.929-6.187-5.713a47.577 47.577 0 0 0 24.376-16.91l1.753 6.4a3.51 3.51 0 0 0 6.226 1.106c.206-.284 4.506-6.054 15.308-9.12l-2.219 6.141a3.507 3.507 0 0 0 4.173 4.577 31.221 31.221 0 0 1 12.583.128 33.788 33.788 0 0 0 -7.667 5.63 3.5 3.5 0 0 0 1.691 5.782 17.463 17.463 0 0 1 5.623 3.036c-6.061.752-14.58 2.682-19.949 7.623a3.5 3.5 0 0 0 .191 5.314 55.784 55.784 0 0 0 19.358 9.518 34.687 34.687 0 0 1 -5.421 2.721 3.509 3.509 0 0 0 -2.224 3.019 3.432 3.432 0 0 0 1.775 3.252c.066.04 6.15 3.99 7.692 19.5-15.407.88-20.142-5.791-20.317-6.045a3.5 3.5 0 0 0 -6.386 1.1 34.68 34.68 0 0 1 -1.777 5.8c-4.226-9.885-12.2-17.124-12.616-17.5a3.5 3.5 0 0 0 -5.272.7c-3.975 6.119-4.456 14.839-4.185 20.94a17.541 17.541 0 0 1 -3.932-5.035 3.5 3.5 0 0 0 -5.983-.7 33.763 33.763 0 0 0 -4.271 8.5 31.229 31.229 0 0 1 -2.229-12.369 3.5 3.5 0 0 0 -5.208-3.367l-5.685 3.213c1.221-11.162 6.189-16.362 6.417-16.595a3.5 3.5 0 0 0 -2.11-5.974l-6.532-.653a45.409 45.409 0 0 0 10.186-15.876 3.5 3.5 0 1 0 -6.539-2.5 38.9 38.9 0 0 1 -14.223 18.174 3.5 3.5 0 0 0 1.669 6.343l8.837.884c-2.461 4.509-5.171 11.905-4.962 22.409a3.5 3.5 0 0 0 5.222 2.977l6.216-3.513a41.358 41.358 0 0 0 6.97 18.009 3.5 3.5 0 0 0 6.294-1.2 67.777 67.777 0 0 1 3.071-9.651 23.846 23.846 0 0 0 9.767 6.751 3.5 3.5 0 0 0 4.642-3.905c-.61-3.409-1.4-12.155.564-18.807 3.35 3.845 8.126 10.394 9.241 17.508a3.5 3.5 0 0 0 5.584 2.238c.429-.328 3.595-2.92 6.07-9.694 4.465 2.969 12.461 6.042 25.631 4.492a3.5 3.5 0 0 0 3.086-3.653c-.666-13.153-4.173-20.538-7.158-24.5 6.7-3.673 8.838-7.42 9.1-7.912a3.5 3.5 0 0 0 -3.138-5.131c-7.136.082-14.432-3.531-18.793-6.192 6.221-3.031 14.974-3.725 18.436-3.694a3.5 3.5 0 0 0 3.076-5.228 23.853 23.853 0 0 0 -8.287-8.5 67.934 67.934 0 0 1 9-4.638 3.5 3.5 0 0 0 .135-6.406 41.339 41.339 0 0 0 -18.921-3.867l2.426-6.715a3.5 3.5 0 0 0 -3.806-4.651c-10.392 1.546-17.231 5.454-21.267 8.633z"/><path d="m162.68 178.494a3.5 3.5 0 0 0 -4.951 0l-95.479 95.479a3.5 3.5 0 0 0 4.951 4.95l95.479-95.479a3.5 3.5 0 0 0 0-4.95z"/><path d="m273.177 278.923a3.5 3.5 0 0 0 4.95-4.95l-102.988-102.988 102.988-102.985a3.5 3.5 0 1 0 -4.95-4.951l-102.988 102.986-102.989-102.989a3.5 3.5 0 0 0 -4.95 4.954z"/></g></svg>