<svg id="svg8" height="512" viewBox="0 0 16.933333 16.933333" width="512" xmlns="http://www.w3.org/2000/svg" xmlns:svg="http://www.w3.org/2000/svg"><g id="layer2"><path id="path10010" d="m3.1750001 2.9104167c-.3506123.4908572-.3161998-.0009054-.8279663.318414s-.0549309.5045653-.6499397.6037334c-.5950089.0991681-.2229468-.2242273-.81061335-.3603079-.58766643-.1360806-.39562353.3179395-.88648072-.0326728-.49085725-.3506124.00090542-.3161999-.31841403-.8279664-.3193194-.5117664-.50456525-.0549309-.60373336-.6499397-.09916814-.5950088.22422729-.2229468.36030791-.8106133.1360806-.58766645-.3179395-.39562355.0326728-.88648074.35061234-.49085725.31619985.00090542.82796635-.31841403.51176643-.3193194.0549309-.50456525.64993969-.60373336.59500891-.0991681.22294681.22422729.81061331.36030791.5876665.1360806.3956236-.3179395.8864808.0326728.4908572.35061235-.0009055.31619986.318414.82796636.3193194.51176646.5045652.05493091.6037334.64993966.0991681.5950089-.2242273.2229469-.360308.8106134-.1360806.5876664.3179395.3956235-.0326728.8864807z" fill="#b4d305" transform="matrix(.154 -.976 .976 .154 6.845 4.089)"/><path id="path10012" d="m8.5798378.79374999c-.3270453.002793-.3504451.0808093-.394291.18810221.037476.0864396.09255.1904994.3358967.2888713.5526164.2233924.4353502-.2493997.8604126.1684651.4250626.4178649-.0493451.3080741.1834515.8567953.2327965.5487211.4837694.1315645.4888594.727604.00509.5960398-.2530646.183256-.4764571.7358724s.2493997.4348334-.1684652.8598958c-.4178649.4250627-.3085907-.049345-.8573119.1834515-.2475492.1050235-.297769.2125258-.3338298.3007567.0477647.1100714.0659825.1909542.3999756.1881023.5960396-.0050906.1788829-.2560624.7276042-.488859.5487212-.2327965.4389302.2416112.8567952-.1834515.417865-.4250624-.054411-.3072794.168982-.8598958.223392-.5526164.481546-.1398326.476457-.7358724-.00509-.5960395-.25658-.1788829-.489376-.727604-.232797-.5487212.242128-.4389304-.182935-.8567953-.4250623-.4178648-.3077961.0549273-.8604125-.1684651-.5526164-.2233925-.1393158-.48206296-.7353557-.47697351z" fill="#94ac04"/><path id="path10014" d="m3.1750001 2.9104167c-.3506123.4908572-.3161998-.0009054-.8279663.318414s-.0549309.5045653-.6499397.6037334c-.5950089.0991681-.2229468-.2242273-.81061335-.3603079-.58766643-.1360806-.39562353.3179395-.88648072-.0326728-.49085725-.3506124.00090542-.3161999-.31841403-.8279664-.3193194-.5117664-.50456525-.0549309-.60373336-.6499397-.09916814-.5950088.22422729-.2229468.36030791-.8106133.1360806-.58766645-.3179395-.39562355.0326728-.88648074.35061234-.49085725.31619985.00090542.82796635-.31841403.51176643-.3193194.0549309-.50456525.64993969-.60373336.59500891-.0991681.22294681.22422729.81061331.36030791.5876665.1360806.3956236-.3179395.8864808.0326728.4908572.35061235-.0009055.31619986.318414.82796636.3193194.51176646.5045652.05493091.6037334.64993966.0991681.5950089-.2242273.2229469-.360308.8106134-.1360806.5876664.3179395.3956235-.0326728.8864807z" fill="#38668c" transform="matrix(.181 -1.148 1.148 .181 11.431 7.581)"/><path id="path10016" d="m13.471012 3.7041666c-.241581.00206-.33791.040112-.391707.098185.09482.1098106.04705.2941426.463537.4625041.650134.2628133.511754-.293166 1.011825.1984375s-.05787.3626556.216007 1.0082072c.273878.6455511.569172.1545418.575159.8557615.006.7012199-.297876.2154462-.560689.8655804-.262814.6501338.293166.5117533-.198438 1.0118246-.491603.5000712-.362655-.05787-1.008207.2160074-.423148.1795219-.361699.3664831-.464054.4769733.0532.061605.150033.1003372.402043.098185.701219-.00599.21021-.3012815.855761-.5751586.645552-.2738771.516604.2840638 1.008207-.2160074.491604-.5000707-.064376-.3616902.198438-1.011824.262813-.6501342.566677-.1643605.560689-.8655804-.005987-.7012197-.301798-.2102104-.575675-.8557615-.273877-.6455516.28458-.5166037-.215491-1.0082072s-.361691.0643758-1.011825-.1984375c-.650134-.2628135-.16436-.5666769-.86558-.5606894z" fill="#2c5170"/><path id="path10018" d="m11.971879 4.2793253c-.08343-.01047-.180484.028481-.364836.2160074-.491603.5000712.06438.3616907-.198437 1.0118246-.262814.6501341-.566677.1643605-.560689.8655804.006.7012196.301798.2102104.575675.8557614.273877.6455516-.28458.5166037.215491 1.0082072.385649.3791194.394647.138103.675411.1271241-.04258-.031592-.08914-.070983-.146245-.1271241-.500071-.4916035.05839-.3626556-.21549-1.0082072-.273877-.645551-.569688-.1545418-.575676-.8557614-.006-.7012199.297876-.2154463.56069-.8655804.262813-.6501339-.293166-.5117534.198437-1.0118246.0606-.061648.111183-.1065096.155546-.1395262-.151189-.0001677-.229656-.065161-.319877-.076481z" fill="#f8f8f8"/><path id="path10020" d="m3.1750001 2.9104167c-.3506123.4908572-.3161998-.0009054-.8279663.318414s-.0549309.5045653-.6499397.6037334c-.5950089.0991681-.2229468-.2242273-.81061335-.3603079-.58766643-.1360806-.39562353.3179395-.88648072-.0326728-.49085725-.3506124.00090542-.3161999-.31841403-.8279664-.3193194-.5117664-.50456525-.0549309-.60373336-.6499397-.09916814-.5950088.22422729-.2229468.36030791-.8106133.1360806-.58766645-.3179395-.39562355.0326728-.88648074.35061234-.49085725.31619985.00090542.82796635-.31841403.51176643-.3193194.0549309-.50456525.64993969-.60373336.59500891-.0991681.22294681.22422729.81061331.36030791.5876665.1360806.3956236-.3179395.8864808.0326728.4908572.35061235-.0009055.31619986.318414.82796636.3193194.51176646.5045652.05493091.6037334.64993966.0991681.5950089-.2242273.2229469-.360308.8106134-.1360806.5876664.3179395.3956235-.0326728.8864807z" fill="#e4eff8" transform="matrix(.363 -2.296 2.296 .363 1.96 13.31)"/><path id="path10022" d="m8.1266357 7.9385334c-.2012585.0005291-.4004397.0269422-.5932456.0785481-.3856114.1032124-.7438482.3060909-1.0355955.5978965-.5829911.5831083-.8124648 1.434669-.5994466 2.232422.025043.090824.096489.161483.1875853.185518.7977045.214694 1.6489262-.012218 2.2324219-.595829.5830056-.5831089.8124637-1.4346684.5994466-2.2324218-.0244047-.0916205-.0959649-.1631809-.1875854-.1875857-.1994267-.0536728-.4023225-.0790649-.6035807-.0785481z" fill="#c4dcf0"/><path id="circle10024" d="m8.7311459 11.1125c0 1.461253-1.1845798 2.645833-2.6458331 2.645833-1.4612532 0-2.645833-1.18458-2.645833-2.645833.0000001-1.4612531 1.1845799-2.6458328 2.645833-2.6458328 1.4612532-.0000001 2.645833 1.1845796 2.6458331 2.6458328z" fill="#38668c"/><path id="path10026" d="m6.6078652 8.5188599c-.0365368.0321921-.0753411.0613814-.1100706.0961181-.5829911.5831083-.8124648 1.434669-.5994466 2.232422.025043.09082.096489.161483.1875853.185518.7977045.214694 1.6489262-.01222 2.2324219-.595829.086954-.08697.1636754-.181209.234611-.279053-.3259615-.8426628-1.0593865-1.4607349-1.945101-1.6391761z" fill="#2c5170" font-variant-ligatures="normal" font-variant-position="normal" font-variant-caps="normal" font-variant-numeric="normal" font-variant-alternates="normal" font-feature-settings="normal" text-indent="0" text-align="start" text-decoration-line="none" text-decoration-style="solid" text-decoration-color="#000000" text-transform="none" text-orientation="mixed" white-space="normal" shape-padding="0" isolation="auto" mix-blend-mode="normal" solid-color="#000000" solid-opacity="1" vector-effect="none"/><path id="path10028" d="m6.0854162 10.054166c-.000661-.3535135.529819-.3535135.529167 0v2.645281c.000661.353515-.529819.353515-.529167 0z" fill="#2c5170" font-variant-ligatures="normal" font-variant-position="normal" font-variant-caps="normal" font-variant-numeric="normal" font-variant-alternates="normal" font-feature-settings="normal" text-indent="0" text-align="start" text-decoration-line="none" text-decoration-style="solid" text-decoration-color="#000000" text-transform="none" text-orientation="mixed" white-space="normal" shape-padding="0" isolation="auto" mix-blend-mode="normal" solid-color="#000000" solid-opacity="1" vector-effect="none"/><path id="path10030" d="m8.1901976 9.5131143c.1811309.3750453.2756175.7860177.276469 1.2025107.0000003 1.534316-1.2438088 2.778125-2.778125 2.778125-.4163585-.0011-.8271475-.09575-1.2019939-.276986.459526.35026 1.0210757.540468 1.5988689.541569 1.4612533 0 2.6458333-1.18458 2.6458333-2.645833-.0008394-.577911-.19087-1.1396534-.5410523-1.5993857z" fill="#f8f8f8"/><path id="path10032" d="m6.0854166 12.4349c-.2705301 0-.5409795.103798-.7482747.311092l-.6247681.624768c.4135584.252478.8885074.386543 1.3730428.387573.4845354-.001.9594843-.135095 1.3730427-.387573l-.624768-.624768c-.2072949-.207295-.4777446-.311092-.7482747-.311092z" fill="#ffc6a0"/><path id="path10034" d="m6.0854166 8.4666666c-1.4612535-.0000002-2.6458335 1.1845799-2.6458333 2.6458334.00126.831613.3934364 1.614244 1.05885 2.113049-.3429304-.456929-.5287524-1.012582-.5296833-1.583882-.0000004-1.461254 1.1845796-2.6458339 2.6458332-2.6458338.5724796.00112 1.129154.1878847 1.5864666.5322673-.49881-.667114-1.2826557-1.0603771-2.1156332-1.0614339z" fill="#2c5170"/><path id="path10036" d="m6.0399413 5.5562499c-.1484116.00127-.265344.010271-.3658692.02377.7651302.1167148.1675765.6385051 1.3032798 1.0976075.5391607.2179531.8036745.1540536 1.0040731.0749308-.0655513-.0202301-.134655-.0443423-.2103231-.0749308-1.3002268-.5256091-.3287655-1.1333522-1.7311606-1.1213775zm3.1042033 1.0965738c-.1647079-.013047-.2858788.081563-.4749064.1364258.093458.065243.2015958.1567834.3322793.2852539 1.0001105.9831758-.116755.7258696.4309817 2.0169312.5477364 1.2910614 1.1388588.3091286 1.1508338 1.7115234.01197 1.402395-.5957682.430417-1.1213783 1.730644-.5256101 1.300226.5863003 1.024055-.396875 2.024165-.1357196.138058-.2458035.232916-.3415813.300241.374927.09571.4828529.363477 1.1353313-.300241.9831753-1.00011-.1292519-.723939.3963583-2.024165.52561-1.300227 1.133353-.328249 1.121378-1.730644-.011975-1.4023948-.603097-.420462-1.150834-1.7115234-.5477363-1.2910616.569129-1.0337554-.4309812-2.0169312-.3125343-.3072423-.5003176-.409775-.6506062-.4216797zm-1.3740762 8.1777953c-.1727909-.01205-.3991544.0212-.7219199.15813-1.1541868.489667-.4965869 1.012324-1.3451374 1.126546.1108596.01692.249849.02581.427364.02429 1.4023949-.01197.4204621-.603098 1.7115234-1.150834.082015-.03479.1576599-.06294.2278931-.08527-.084747-.03279-.1768369-.06429-.2997232-.07286z" fill="#c4dcf0"/><path id="path10038" d="m6.0399413 5.5562499c-1.4023948.0119751-.420462.6030976-1.7115234 1.1508341-.1447374.0614053-.2674921.0996481-.3772379.1245401.1922553.0544309.4530564.0677942.9064046-.1245401 1.2077041-.512372.4271608-1.0622902 1.4691608-1.1410156-.0836242-.0064845-.175677-.0107673-.2868041-.0098185zm-3.0845661 1.1492839c-.1500635.0144692-.336646.1199972-.6438884.4325318-.9831756 1.0001102.1292518.7239392-.3963583 2.0241657-.5256101 1.3002267-1.13335323.3282487-1.12137851 1.7306437.0119748 1.402395.60309761.420462 1.15083411 1.711523.5477367 1.291062-.569129 1.033756.4309815 2.016932.5421895.533008.7126632.450104.9591146.346232-.1136229-.063101-.250817-.170135-.4299479-.346232-1.0001106-.983176.1167551-.72587-.4309815-2.016932-.5477366-1.291061-1.1388594-.309128-1.1508342-1.711523-.0119747-1.402395.5957685-.430417 1.1213786-1.7306437.5256101-1.3002265-.5868173-1.0240555.3963582-2.0241657.1804871-.183596.3189192-.2943273.4330486-.3586345-.1088814-.043543-.2050018-.0848241-.3183268-.0738973zm1.3895792 8.1648762c-.1240756-.0065-.2220852.01001-.3074747.03411.1061201.02333.2238415.05774.3622516.113689 1.3002268.52561.3282487 1.133353 1.7306438 1.121378.090546-.000767.1704422-.0044.2423626-.0098-.9710984-.075492-.2468065-.627688-1.4438397-1.111583-.2437924-.098552-.4321998-.139798-.5839436-.147794z" fill="#f8f8f8"/><path id="path10040" d="m6.0854166 12.4349c-.2031265 0-.4060571.05879-.5823934.1757.017798-.0009.035411-.0052.053227-.0052.2705301 0 .5409798.103797.7482748.311092l.624768.624769c-.1003402.06079-.2046123.114832-.3121258.161779.2974249-.06165.5820136-.17405.8412921-.33228l-.624768-.624768c-.2072949-.207295-.4777446-.311092-.7482747-.311092z" fill="#ffaf7a"/><path id="path10042" d="m5.2415405 13.37076.624768-.624768c.138929-.138928.3070162-.226988.4836914-.272852-.086941-.022569-.1753621-.03824-.2645833-.03824-.2705301 0-.5409795.103798-.7482747.311092l-.6247681.624768z" fill="#f8f8f8"/><path id="path10044" d="m6.6844609 8.5365161c.516975-.517078 1.270442-.719095 1.977178-.528887.1888.70706-.0133 1.459864-.52984 1.976495-.516976.5170789-1.270443.7190959-1.977176.5288859-.1888-.7070569.01331-1.4598619.529838-1.9764939z" fill="#b4d305"/><path id="path10046" d="m5.4860599 9.329712c-.516975-.517078-1.270442-.719095-1.977175-.528887-.1888.70706.01331 1.459864.529837 1.976496.516976.517079 1.270443.719096 1.977176.528886.1888-.707058-.01331-1.459863-.529838-1.976495z" fill="#b4d305"/><path id="path10048" d="m4.043164 8.7307332c-.1328944-.0002019-.266211.017153-.3989419.043408.390325.077653.7570142.2644799 1.0479979.5555218.516528.5166321.7184834 1.269566.5296834 1.976624-.044516.01198-.089542.01798-.1343586.02687.3029797.06019.619352.05623.9281086-.02687.1888-.707058-.0131551-1.4599919-.5296834-1.976624-.3877313-.3878085-.9085072-.5981186-1.442806-.5989298z" fill="#94ac04"/><path id="path10050" d="m4.043164 8.7307332c-.1780995-.0002646-.357651.0227277-.5343342.0702799-.1888001.7070601.0131577 1.4594749.5296834 1.9761069.4525949.452685 1.0864577.664438 1.7115234.582393-.4404291-.057395-.8581096-.258081-1.1823568-.582393-.516527-.516632-.7184834-1.2690468-.5296834-1.9761069.0880124-.0236881.176702-.0415562.2656168-.0532268-.0860687-.0111945-.1731356-.0169201-.2604492-.0170523z" fill="#f8f8f8"/><path id="path10052" d="m8.1271524 7.9374999c-.1334045.0002027-.2649519.017558-.394808.043408.04515.00893.090546.014801.1353923.026872.1888.7070601-.013145 1.4594758-.5296834 1.9761068-.2911203.2911783-.6579846.4784553-1.0485149.5560383.6665272.132014 1.3579731-.07165 1.8422649-.5560384.5165399-.516631.7184834-1.2690467.5296834-1.9761068-.176684-.0475519-.3562342-.0705503-.5343343-.0702799z" fill="#94ac04"/><path id="path10054" d="m8.1271524 7.9374999c-.5343001.0008202-1.0550747.2111214-1.4428059.5989299-.5165281.516632-.7184835 1.2695666-.5296834 1.9766232.2633022.07087.5331539.08726.7947834.05323-.088915-.01167-.1776044-.02954-.2656168-.05323-.1888-.7070566.0131551-1.4599912.5296834-1.9766232.3241191-.3241837.7410847-.5243912 1.1813233-.5818767-.0892492-.0116697-.1786339-.0171884-.267684-.0170532z" fill="#f8f8f8"/><path id="circle10056" d="m14.287396 6.3499999c0 .438376-.355374.79375-.79375.79375s-.79375-.355374-.79375-.79375.355374-.79375.79375-.79375.79375.355374.79375.79375z" fill="#e4eff8"/><path id="path10058" d="m13.49375 5.5562499c-.438376 0-.79375.355374-.79375.79375.000256.3495861.229196.6578472.56379.7591269-.02277-.074538-.03443-.1520228-.03462-.2299602 0-.4383756.355373-.7937495.793749-.79375.07776.0002392.155072.011905.229444.034623-.101224-.3344109-.409215-.5633061-.75861-.5637898z" fill="#c4dcf0"/><path id="path10060" d="m7.3049804 1.282609c-.0709205-.0088983-.1533594.0240529-.3100586.1834514-.4178649.4250624.0549272.3077961-.1684652.8604126-.2233925.5526164-.4815462.1393159-.4764567.7353557.0050906.5960395.2560624.1788829.488859.7276041.2327966.5487213-.2416111.439447.1834515.8573119.3628218.3566782.3335197.0669478.6599079.1126546-.0374074-.0272169-.0798722-.0626467-.1307412-.1126546-.4250627-.4178649.049345-.3085906-.1834515-.8573119-.2327966-.5487212-.4837695-.1315646-.488859-.7276041-.0050895-.5960398.2530641-.1827393.4764566-.7353557.2233925-.5526165-.2493997-.4353502.1684652-.8604126.0566227-.057598.1024171-.0965014.1426269-.125057-.1941648.0359378-.2686863-.0467197-.3617349-.0583944z" fill="#f8f8f8"/><path id="circle10062" d="m9.2603168 3.0428135c0 .3653132-.2961448.6614581-.661458.6614581s-.661458-.2961449-.661458-.6614581.2961448-.661458.661458-.661458.661458.2961448.661458.661458z" fill="#e4eff8"/><path id="path10064" d="m8.5989582 2.38125c-.3653134-.0000002-.6614585.2961449-.6614583.6614583.0001068.3185944.2273101.5918465.5405355.6500894-.00749-.039874-.011296-.080352-.011369-.1209227-.0000002-.3653134.2961449-.6614586.6614583-.6614584.040414.0002751.080718.00425.120406.011886-.0579876-.3132399-.331011-.5406508-.6495725-.5410526z" fill="#c4dcf0"/><path id="path9203" d="m8.1693231.59745781c-.1192672.05989961-.1825759.15747897-.2196151.24184842-.026001.0591996-.027.0685996-.042899.0867994s-.053199.0532996-.1643262.09819937c-.1111077.0449-.1624563.0455-.1865458.0434-.024101-.002-.0332-.006-.092998-.0305-.080498-.0369-.1966057-.06249957-.3240029-.0227-.1274073.0398-.2239349.1179692-.3436425.2356484-.1197073.1176792-.1978055.2122886-.2397745.3389878-.0493.145709-.009.2653482.014499.3255678.0235.0602.0288.0689.0305.093.00201.0241.0008202.0736-.046.1839688-.046798.1103292-.081698.148259-.1002579.163819-.0185.0155-.0365.0205-.096098.0455-.087498.0353-.1768064.0942-.238745.2123886-.061898.1182392-.074598.2408984-.075998.4087574-.00101.1678588.010401.289488.070298.4087571.059898.1192792.1599264.1869288.2418346.2180785.0457.019701.068598.0286.086798.0444.018201.015899.053798.0532.098698.1643289.044999.1111093.044999.1624589.042899.1865488-.00201.024101-.008.0332-.032.093-.0358.0856-.060998.1966088-.021201.3240079.039799.1273992.1164175.2244586.2340949.3441677.1176771.1196991.2117652.1972788.3384724.2392585.1266972.042.2415647.020899.3172828-.011901.060198-.0235.077198-.0329.1012879-.0346.019-.00201.075198.0002202.1855159.047.1103274.0468.1466965.0828.1622564.1012896.0156.0185.017899.0272.042899.0868.0363.0937.096698.1840387.2149751.2459783.1182274.0619.2408448.0745.408751.076.015999.0001299.0272-.00201.0424-.00201.0152.0001101.0264.00201.0424.00201.1678463-.00101.2905134-.013999.408751-.076.1182272-.0619.178636-.1522691.2149651-.2459783.025001-.0596.0273-.0683.042898-.0868.0156-.0185.051899-.0545.1622664-.1012896.1103276-.0468.1665563-.0487.1855059-.047.024101.00201.041099.011099.1012876.0346.075698.0328.1905857.0539.3172828.011901.126706-.042.220804-.1195594.338472-.2392585.117679-.1197091.194287-.2167685.234096-.3441677.0398-.1273991.0147-.2383685-.0212-.3240079-.0245-.0598-.0299-.0689-.032-.093-.002-.024101-.002-.0754.0429-.1865488.0449-.1111092.0805-.1484591.0987-.1643289.0182-.015899.0411-.024699.0868-.0444.0819-.0312.181936-.0988.241845-.2180785.0599-.1192691.0717-.2408983.0703-.4087571-.001-.1678591-.014-.2905183-.076-.4087575-.0619-.1182292-.151227-.1770888-.238735-.2123886-.0596-.025-.0776-.0299-.0961-.0455s-.0534-.0535-.100248-.163819c-.0468-.1103292-.0477-.159839-.046-.1839688.002-.0241.007-.0328.0305-.093s.0638-.1798588.0145-.3255678c-.042001-.1266991-.120069-.2213085-.239767-.3389877-.119717-.1176792-.216244-.1958388-.343642-.2356484-.1274068-.0397998-.243534-.0142-.3240023.0227-.059798.0245-.068898.0284-.092998.0305-.0241.002-.075398.002-.1865459-.0434-.1111166-.0448997-.1484656-.0798995-.1643255-.0981993-.0159-.0181999-.0169-.0275998-.042899-.0867994-.0369982-.08439962-.1003463-.18192898-.2196136-.24184859-.1101874-.05529964-.2414147-.06959954-.4093758-.06819955-.167961-.00099994-.2991882.0129-.4093758.0681996zm.5615473.47232699c.0162.0387.046799.1177292.1214374.2035986.080798.0929.1991157.1745488.364312.2413284.1651863.0668.3052832.0918.4278704.0811.1135075-.01.1976357-.047.2361546-.0636 0 0 .0268.0138.1095576.0951.082999.0816.0982.1090393.0982.1090393-.0159.0389-.0531.1210792-.061.2346085-.009.1227592.0193.2643682.0889.4283972.0696.1640289.151755.2805181.245973.3596676.0875.0735.172606.1069693.211347.1224692-.00045.002.009.0297.0103.144699.000979.1164993-.0128.1471991-.0119.148309-.0387.0162-.118758.0457-.204636.1203993-.0928.0807-.174026.1991287-.240804.3643178-.0668.1651989-.0908.3083877-.0801.4309769.01.1135095.0481.195569.0646.2340987-.0176.022199-.0301.037-.0951.1085191-.070301.0686-.090801.0838-.1095509.0977-.038899-.015899-.121147-.052-.2346048-.06-.1227472-.009-.2638439.019301-.4278703.0889-.1640264.0696-.2820636.151239-.361212.2454584-.072698.0866-.1041775.172509-.1198871.2118687-.013401.00201-.055798.010401-.1457269.0103-.018899.00016-.023601-.00201-.0382-.00201-.0146.0004763-.019399.00201-.038199.00201-.089898.0000299-.1322872-.009-.1457266-.0103-.0157-.0394-.047098-.1252693-.1198874-.2118687-.079098-.0942-.1971756-.1758687-.361202-.2454584-.1640364-.0696-.3051231-.0975-.4278704-.0889-.1134576.008-.1957159.044-.2346149.06-.018701-.013801-.039199-.029-.1095474-.0977-.064998-.0715-.077498-.0863-.095098-.1085191.016499-.0385.054698-.1205892.064598-.2340987.0107018-.12259-.013299-.2657788-.0800962-.4309777-.0667987-.1651891-.1479569-.2835682-.2408048-.3643178-.0858981-.0746995-.1659162-.1041493-.2046356-.1203993.000926-.0009999-.012901-.0318-.011901-.148309.0009525-.1150192.0108-.142319.0103-.144699.038799-.0155.1238773-.049.2113553-.1224692.094198-.0791.1763861-.1956387.2459745-.3596676.069598-.164029.097498-.305638.088898-.4283972-.008-.1135293-.0451-.1957388-.060998-.2346085 0 0 .0152-.0274.098198-.1090393.082698-.0813.1095475-.0951.1095475-.0951.0385.0165.1226574.0537.2361547.0636.1225872.0107.2626841-.0144.4278704-.0811.1651963-.0668.2835638-.148469.364312-.2413284.074698-.0859.1051876-.164879.1214373-.2035986.00201.0005503.0321-.0134.1519377-.0124.1198386-.000979.1496978.013.1519379.012401zm-3.6913264 1.0469643c-.1891938.01058-.3062684.2107762-.2227251.3808575l.2346149.4904068c.1530568.3177607.6298762.0896404.4785095-.2289285l-.2346061-.489888c-.041935-.0902844-.1309923-.149393-.2304848-.152969-.0084499-.0002298-.0168889-.0000559-.0253084.0005212zm3.5604097 0c-.5144986 0-.9280895.4177372-.9280895.926034 0 .5083066.4135909.9255239.9280895.9255239.5144886 0 .9254993-.4172173.9254993-.9255239 0-.5082968-.4110107-.926034-.9254993-.926034zm0 .5291666c.216115 0 .3963409.1745488.3963409.3968674 0 .2223185-.1802259.3963574-.3963409.3963574-.2161153 0-.3989413-.1740389-.3989413-.3963574 0-.2223186.182826-.3968674.3989413-.3968674zm-4.4978698 1.2112809.5115885.1793186c.3480477.1529499.5426197-.3981503.175696-.4976367l-.5115886-.1819088c-.0330763-.0119854-.0682106-.0172545-.1033226-.0154994-.2945202.0115754-.3523462.4234963-.0723733.5157263zm8.9558901-.3410279c-.147756.0742-.205585.1926488-.235124.2599285-.0296.0673-.0356.0872-.0599.1152393-.0244.0281-.0764.0729-.211865.1276389-.135497.0548-.202746.0575-.239775.0543-.037-.003-.0658-.0171-.133837-.045-.0866-.0361-.200436-.0616-.337962-.0186-.137527.043-.247555.1294993-.386012.2656082-.138456.1361191-.225974.2414984-.271294.3782776-.0526.1587091-.008.2824181.0186.3508777.0267.0685.0356.088.0382.125059.003.0371-.001.1047194-.0584.2392586-.0571.1345392-.102278.1827888-.130736.2066986-.0285.0239-.049.0316-.116788.0599-.0993.0416-.198236.1028393-.265094.2304785-.0669.1276292-.082.2647282-.0837.4588768-.002.194149.0108.332718.0755.4614671.0647.1287592.175716.2021485.261994.2346084.0673.0295.0872.0356.115238.06.0207.0171.0724.0743.127117.2097986.0548.1354992.058.2048188.0548.2418485-.003.037-.013.0534-.0408.1214393-.0278.068-.0734.1952286-.0248.3508778.043.137529.128977.2475682.265094.3860274.136107.138449.244075.2254685.380841.2707781.136778.0453.254655.019801.350883-.0186.0682-.0272.0859-.0351.122987-.0377.0371-.003.104718.00101.239255.0584.134537.0571.184855.1017594.208765.1302191.0239.0285.0295.0495.0579.1173095.0366.0895.102317.1982288.229955.2650983.127627.0669.265244.082.45939.0837.01.00008.0162-.002.0258-.002.01 0 .016.002.0258.002.194146-.002.331763-.0169.45939-.0837.127638-.0669.193306-.1756189.229955-.2650983.0284-.0678.034-.0888.0579-.1173095.0239-.0285.0742-.0731.208765-.1302191.134537-.0571.202175-.061.239255-.0584.0371.003.0547.010499.122987.0377.0962.0384.214105.0639.350882.0186.136767-.0453.244735-.1323291.380841-.2707781.136118-.1384592.222126-.2484984.265094-.3860274.0486-.1556492.003-.2828783-.0248-.3508778-.0279-.068-.0376-.0844-.0408-.1214393-.003-.037.00001-.1063493.0548-.2418485.0548-.135489.106377-.1927185.127117-.2097986.028-.0244.048-.0304.115239-.06.0863-.0325.197326-.1058492.261993-.2346084.0647-.1287491.0771-.2673181.0754-.4614671-.002-.1941486-.0169-.3312476-.0837-.4588768-.0669-.1276392-.165797-.1888888-.265095-.2304785-.0678-.0284-.0883-.036-.116777-.0599-.0285-.0239-.0737-.0722-.130746-.2066986-.0571-.1345392-.061-.2021787-.0584-.2392586.003-.0371.0115-.0566.0382-.125059.0267-.0685.0712-.1921686.0186-.3508777-.045302-.1367792-.13284-.2421585-.271296-.3782776-.138458-.1361089-.248485-.2226385-.386012-.2656082-.137527-.043-.251354-.0175-.337952.0186-.068.0279-.0968.0417-.133848.045-.037.003-.104277.0005027-.239764-.0543-.135497-.0548-.187476-.0996-.211876-.1276389-.0244-.0281-.0304-.048-.0599-.1152393-.0295-.0673-.0874-.1857088-.235125-.2599285-.113917-.0572-.255534-.0756-.43618-.076-.180646.0003705-.322263.018701-.436181.076zm.622176.4681361c.0117.0336.0559.1526191.145208.2552783.0893.1026495.222794.1931088.41236.2697483.189576.0766.348672.1042793.4842.0925.135526-.0118.238854-.0632.280084-.0801.0172-.006.134186.1030993.160706.1291892.0501.0492.0917.0923.134876.1550289-.0162.0415-.0665.1505789-.076.2862881-.01.1357092.0188.2938981.0987.4821371.0799.1882386.173846.3197076.278004.407207.104168.0875.210056.1233493.251144.1405591.0204-.000291.0253.1538992.0253.2061887.001.0697-.003.1306192-.0145.2061886-.0408.017899-.152616.0575-.255274.1467589-.102648.0893-.195176.2227987-.271814.4123775-.0766.1895687-.102218.3486778-.0904.4842068.0118.135529.0611.2357485.078.2769783.002.0152-.0251.0574-.129187.1632987-.104047.1058493-.151177.1361693-.161227.1333192-.0415-.016201-.142306-.0644-.278013-.0739-.135707-.009-.295963.018299-.484199.0982-.188236.0799-.317634.1743688-.405132.278538-.0875.1041596-.123346.2105686-.140556.2516585-.005.0191-.165176.024299-.208766.024299-.009.0000799-.0112-.000979-.0196-.00101-.008.00006-.0105.00101-.0196.00101-.0436 0-.203567-.005-.208766-.024299-.0172-.0411-.0531-.1474989-.140558-.2516585-.0875-.1041692-.216894-.1986784-.405131-.278538-.188236-.0799-.348492-.1076494-.484199-.0982-.135706.009-.236505.0577-.278014.0739-.0101.003-.0572-.0275-.161227-.1333192-.104057-.1058591-.130986-.1480491-.129185-.1632987.0169-.0412.0663-.1414493.078-.2769783.0118-.135529-.0138-.2946381-.0904-.4842068-.0766-.1895788-.169155-.3231078-.271814-.4123775-.102658-.0893-.214476-.1288491-.255274-.1467589-.0112-.0756-.0156-.1364689-.0145-.2061886 0-.0523.005-.2064686.0253-.2061887.0411-.017201.146976-.0531.251144-.1405591.104158-.0875.198156-.2189684.278014-.407207.0799-.188239.108197-.3464279.0987-.4821371-.009-.1357092-.0598-.2447784-.076-.2862881.0432-.0628.0848-.1058293.134877-.1550289.0265-.026101.143517-.1351794.160706-.1291892.0412.016899.144557.0683.280084.0801s.294624-.015899.4842-.0925c.189565-.0766.323092-.1670988.41236-.2697483.0893-.1026592.133508-.2217185.145217-.2552783.0623-.013801.123697-.0157.186071-.015999.06235.000344.123782.00201.18608.015999zm-9.2090545.6459766-.4883291.2346084c-.341137.1440389-.0967128.6527766.2289148.4764568l.488339-.2325383c.259484-.1167433.1770458-.5047594-.1074875-.5059218-.042082-.0006596-.0837131.0087299-.1214372.0273949zm.8619408.7834049c-.1919658.0963994-.2914136.2579885-.3467423.3947975-.0532988.1213192-.083598.2037386-.1648364.2971381-.0811982.0933994-.220305.2050886-.5183083.3255677-.2980034.1204692-.4818093.1383592-.6051166.1276391-.1233074-.0106998-.2014057-.0499996-.3240029-.1002591-.1381068-.0594997-.3163629-.1059195-.5214083-.0418998-.2050455.0640996-.3979811.2086585-.6614453.4676668-.2634542.2589983-.4114808.4523569-.4790294.6562855-.070698.2101288-.0207.3907275.0326.5214068.048098.1234492.086498.2020887.095098.3255678.009.1234691-.0124.3030079-.1379769.5989262-.1255375.295908-.239565.4350771-.3343428.5146866-.094798.0796-.179066.1069492-.3012634.158129-.16312631.0716-.29666335.152319-.39635113.3426185-.0996978.190288-.13735694.429978-.14055687.799423-.003.369448.0296994.606426.12608719.798396.0963978.191968.24558454.285739.39067121.347268.1213074.0533.2037256.0836.2971234.164848.093398.0812.2050854.220298.3255627.518306.1205474.298018.139387.481818.1286672.605126-.0107.12331-.0474.19624-.097698.318848-.069198.15183-.1054077.321008-.0413.526058.064098.205048.2086653.397986.4676595.661454.2590043.26347.4461601.408898.6500756.476458.2039254.0676.3736217.0306.5131386-.0248.1231271-.0489.2124151-.0911.3358924-.0997.1234674-.009.3045532.009.6004667.13487.2959034.125538.4366202.243178.5162284.337968.079598.0948.1079777.178028.1591666.300238.051198.122198.1335669.289868.3384723.396866.190286.0997.4299804.13736.7994123.14056.017201.0002.0304-.001.046999-.001.0166.00001.0299.001.047.001.3694416-.003.6091262-.0409.799422-.14056.2049054-.106998.2872837-.274668.3384725-.396866.051198-.12221.079598-.20547.1591564-.300238.079598-.0948.2203253-.21243.5162387-.337968.2959034-.12554.4769892-.14349.6004664-.13487.1234773.009.2127555.0508.3358927.0997.1395168.0554.309213.0924.5131284.0248.2039255-.0676.3910714-.212988.6500751-.476458.259005-.263468.403601-.456406.467659-.661454.0641-.20505.0278-.374228-.0413-.526058-.0502-.122608-.087-.195538-.0977-.318848-.0107-.123308.008-.307118.128678-.605126.120468-.298008.232155-.437086.325553-.518306.0934-.0812.175826-.11159.297134-.164848.145076-.0615.294243-.1553.390661-.347268.0964-.19197.129247-.428948.126087-.798396-.003-.369445-.0409-.609135-.140557-.799423-.0997-.1902995-.233215-.2709691-.396341-.3426185-.122207-.0512-.206496-.0785-.301273-.158129-.0948-.0796-.208795-.2187786-.334334-.5146866-.125547-.2959183-.146586-.4754571-.137977-.5989262.009-.1234791.047-.2021186.0951-.3255678.0533-.1306793.103209-.311278.0326-.5214068-.067598-.2039286-.215565-.3972872-.4790286-.6562855-.2634642-.2590083-.4563998-.4036074-.6614452-.4676668-.2050454-.0641-.3833016-.017701-.5213986.0419-.1226072.0502-.2006954.0895-.3240028.1002591-.1233171.0107-.307113-.007-.6051264-.1276391-.2980029-.1204794-.43708-.2321588-.5182982-.325568-.0811982-.0933994-.1115774-.1758189-.1648462-.2971381-.0552987-.136809-.1547764-.2983781-.3467423-.3947975-.1687363-.0847994-.4100007-.1219591-.7529432-.1224791-.3429524.0005293-.5842171.0376998-.7529532.1224792zm8.1610787-.1224791c-.582427 0-1.058827.4808868-1.058827 1.064533 0 .5836461.4764 1.062463 1.058827 1.062463.582437 0 1.058827-.4788169 1.058827-1.062463 0-.5836462-.47639-1.064533-1.058827-1.064533zm0 .4883468c.317573 0 .572047.2540282.572047.5761862s-.254474.5761861-.572047.5761861-.570497-.2540281-.570497-.5761861.252924-.5761862.570497-.5761862zm-6.8970968.1059993c.0485.023299.062698.0411.1043777.1359089.0416.0948.1034977.2624584.2495945.4304674.1460967.1679986.3672316.3263677.7193238.4686968.3520922.1423391.627216.1841289.849021.1648488.2218051-.019299.3780217-.0967.4738596-.1359089.056598-.0186.1023978-.0472.1674362-.0269.080498.0245.2114353.106929.4480201.3395075.2365846.2325788.3273826.3766376.3488124.4413172.0214.0647-.00201.1050393-.0279.1746688-.0365.0969-.1095576.2502085-.1250573.472317-.015499.2220985.0294.4947668.1777661.8443845.1483277.3496177.3116537.5694062.4821297.7126153.170476.1432104.340103.1987304.43562.2387384.0955.04.116688.0632.135908.0997.0317.0603.0747.227388.0775.559135.003.331749-.0335.492558-.0692.554488-.0213.0433-.0364.0617-.131258.103348-.0948.0416-.267104.10453-.4351.250628-.168006.1461-.325333.367238-.46766.719336-.1423372.352098-.1830964.625676-.1638169.847484.019299.221808.1013079.381028.1390072.477488.023199.0593.044598.0993.024297.164328-.020297.065-.1048666.211448-.3374413.448038-.232575.236578-.3807615.326348-.4454402.347776-.064698.0214-.1055576-.004-.179316-.03-.097598-.0347-.2414245-.10647-.4635196-.12196-.2221051-.0155-.496839.0305-.8464412.178798-.3496123.14833-.5699172.312178-.7131242.482658-.1432068.170468-.2007955.338038-.2408047.433556-.04.0955-.062298.11745-.099198.13591-.060998.0305-.2232449.0752-.5549876.078-.016499.00014-.0277-.000979-.043398-.001-.0157.00004-.0269.001-.0434.001-.3317426-.003-.4940389-.0476-.5549975-.078-.037-.0185-.059198-.0404-.099198-.13591-.04-.0955-.097598-.263088-.2408148-.433556-.1431973-.170479-.3635022-.334327-.7131145-.482657-.3496121-.148318-.6243461-.194288-.8464412-.178798-.2221048.0155-.3659519.0872-.4635296.12196-.073798.0263-.1146274.0514-.179316.03-.064698-.0214-.2128647-.111198-.4454396-.347776-.2325748-.23659-.3171129-.382998-.3374325-.448038-.0203-.065.001-.10503.0243-.164328.0377-.0965.1197273-.25568.1390069-.477488.0193-.221808-.0215-.495386-.1638064-.847484-.1423364-.352099-.2996628-.573237-.4676592-.719337-.1680061-.146098-.3402823-.208988-.4351101-.250628-.094798-.0416-.1099676-.06-.1312572-.103348-.0357-.0619-.071998-.222739-.069198-.554488.003-.331747.0458-.498805.077498-.559135.0192-.0366.0404-.0597.135907-.0997.095498-.04.2651541-.0955.4356203-.2387382.170476-.1432091.3338124-.3629976.482129-.7126153.1483267-.3496177.1932557-.622286.1777661-.8443845-.0154997-.2221085-.0884981-.3754076-.1250573-.472317-.0262-.0696-.049298-.1099891-.0279-.1746688.0214-.0647.1122275-.2087384.3488122-.4413172.2365747-.2325785.3674818-.3150578.44802-.3395075.064998-.020301.1108676.008.1674262.0269.095798.0393.2520646.1166292.4738596.1359089.221805.019301.4969388-.0225.849031-.1648488.352093-.1423293.5732279-.3006984.7193148-.468697.1460968-.168009.2079553-.3356379.2495945-.4304674.0416-.0948.055898-.112559.1043877-.1359089.058498-.0282.2016254-.0659.5109939-.0636.3093588-.00201.4525256.0354.5109944.0636zm.00723 2.3631143c-.6550957-.1195892-1.3274706-.0118-1.9145676.3100479-.400061-.1172391-.8313315-.1255591-1.2479621-.013398-.091598.0244-.1631665.096-.1875759.1875789-.1289572.4829569-.095998.9846737.079098 1.4355706-.4200306 1.225051.021701 2.593093 1.0970655 3.336717 1.1185553.773516 2.6286819.667986 3.6286396-.253727.9754581-.899124 1.2163627-2.343224.5963366-3.5067371.3276228-.5340865.4282604-1.1847924.2625143-1.8055683-.0243997-.0915997-.0959979-.163159-.187586-.1875789-.1994255-.0536998-.4019611-.0793997-.6030666-.0791007-.5550578.00101-1.0988857.2030678-1.5228958.5761956zm1.837099-.0191c.0985976.6269961-.1129377 1.1841024-.4960792 1.5673298-.3834814.3835776-.9664383.6021476-1.5683449.4945476-.1063477-.6131668.1129274-1.183593.4960787-1.5668205.3355426-.3356279.8120519-.5459266 1.3394204-.5219466.075298.00299.1517663.01369.228925.02689zm-2.25304.5047968c-.1333173.2079986-.2308249.4297372-.2919735.6666256-.0676984-.0916994-.1402569-.1758988-.222195-.2578683-.1089876-.1090093-.223235-.2036287-.3488122-.2873181.221955-.0755.44762-.1156494.6810847-.1234743.062298-.00198.1194475-.0007157.181896.00204zm-.8893302.7839848c.3831414.3832276.6024267.9536538.4960788 1.5668198-.6019165.107599-1.1848634-.110969-1.568345-.494547-.3831513-.383227-.5946767-.9403335-.4960788-1.5673294.077198-.0132.1535764-.0214.2289147-.024805.5273682-.024005.9951179.1754639 1.3394303.5198616zm8.615299.2762582c-.380312-.025058-.373643.5613086.006.5276076l.541037-.004c.360586.0051.356467-.539732-.004-.5293875zm-5.6279554.4089676c.3781814.912143.1559763 1.974857-.5865171 2.659243-.065698.0606-.1350168.115478-.2056654.167438l-.4723095-.472326c-.1902757-.19028-.4248604-.312438-.671265-.362247v-1.374063c.7021144.10317 1.4185885-.121568 1.935757-.618045zm4.8822814.973574.386532.380848c.251079.268756.643567-.129748.371032-.376719l-.386532-.380848c-.05016-.05044-.118524-.07855-.189656-.07802-.236552.0023-.351376.290223-.181376.454732zm-9.4457297-.355049c.042199.0502.081798.0962.128677.143151.5194284.519535 1.252392.755994 1.9698561.650595v.580327c-.2459944.0499-.4802394.171737-.6702251.361727l-.4738594.473876c-.7083943-.518976-1.0603563-1.36685-.9544486-2.209676zm8.7052257.475939v.000529c-.146953.0025-.263672.124367-.259934.271298l.006.543116c.01144.345081.525543.339252.529158-.006l-.006-.541046c.0018-.149377-.120387-.2706-.269744-.267688zm-6.0801143 1.445899c.1105976.0385.2095853.0995.2991934.189128l.3705115.370518c-.5904867.251218-1.2636717.252818-1.8623784-.002l.3689619-.368469c.089898-.0899.1887758-.150667.2997233-.189152.046798.295373.4782193.292303.5239883-.000025z" fill="#333" font-variant-ligatures="normal" font-variant-position="normal" font-variant-caps="normal" font-variant-numeric="normal" font-variant-alternates="normal" font-feature-settings="normal" text-indent="0" text-align="start" text-decoration-line="none" text-decoration-style="solid" text-decoration-color="#000000" text-transform="none" text-orientation="mixed" white-space="normal" shape-padding="0" isolation="auto" mix-blend-mode="normal" solid-color="#000000" solid-opacity="1" vector-effect="none"/></g></svg>