<svg id="icons" enable-background="new 0 0 64 64" height="64" viewBox="0 0 64 64" width="64" xmlns="http://www.w3.org/2000/svg"><g><g><path d="m40.5 3v4c0 1.1-.899 2-2 2-1.109 0-2-.9-2-2v-4c0-1.1.891-2 2-2 1.101 0 2 .9 2 2z" fill="#f5f7fa"/></g><g><path d="m54.5 3v4c0 1.1-.899 2-2 2-1.109 0-2-.9-2-2v-4c0-1.1.891-2 2-2 1.101 0 2 .9 2 2z" fill="#f5f7fa"/></g><g><path d="m43.5 24.01h4v9.99h-4z" fill="#ccd1d9"/></g><g><path d="m51.5 34v2.99h-12v-2.99h4 4z" fill="#a0d468"/></g><g><path d="m50.5 37v21c0 2.76-2.24 5-5 5s-5-2.24-5-5v-21z" fill="#8cc152"/></g><g><path d="m54.5 7v15.01c0 1.11-.89 2-2 2h-5-4-5c-1.109 0-2-.89-2-2v-15.01c0 1.1.891 2 2 2 1.101 0 2-.9 2-2v10.01h3v-10.01c0 1.1.891 2 2 2 1.101 0 2-.9 2-2v10.01h3v-10.01c0 1.1.891 2 2 2 1.101 0 2-.9 2-2z" fill="#e6e9ed"/></g><g><path d="m47.5 3v4c0 1.1-.899 2-2 2-1.109 0-2-.9-2-2v-4c0-1.1.891-2 2-2 1.101 0 2 .9 2 2z" fill="#f5f7fa"/></g><g><path d="m24.5 6.01v21h-10v-21-.01c0-2.76 2.24-5 5-5s5 2.24 5 5z" fill="#8cc152"/></g><g><path d="m21.5 39.99v5.01c0 1.1-.899 1.99-2 1.99-1.109 0-2-.891-2-1.99v-5z" fill="#656d78"/></g><g><path d="m21.5 30.01v9.98l-4 .01v-9.99z" fill="#545c66"/></g><g><path d="m14.5 27.01h10 1v3h-4-4-4v-3z" fill="#a0d468"/></g><g><path d="m29.5 47.5v.23c0 6.829-4.12 12.699-10 15.27-5.89-2.57-10-8.44-10-15.27v-7.73h8v5c0 1.1.891 1.99 2 1.99 1.101 0 2-.891 2-1.99v-5.01h8z" fill="#545c66"/></g></g><g><g><path d="m40.5 4c-.553 0-1-.447-1-1 0-.552-.448-1-1-1s-1 .448-1 1c0 .553-.447 1-1 1s-1-.447-1-1c0-1.654 1.346-3 3-3s3 1.346 3 3c0 .553-.447 1-1 1z"/></g><g><path d="m47.5 4c-.553 0-1-.447-1-1 0-.552-.448-1-1-1s-1 .448-1 1c0 .553-.447 1-1 1s-1-.447-1-1c0-1.654 1.346-3 3-3s3 1.346 3 3c0 .553-.447 1-1 1z"/></g><g><path d="m54.5 4c-.553 0-1-.447-1-1 0-.552-.448-1-1-1s-1 .448-1 1c0 .553-.447 1-1 1s-1-.447-1-1c0-1.654 1.346-3 3-3s3 1.346 3 3c0 .553-.447 1-1 1z"/></g><g><path d="m52.5 9.998c-1.654 0-3-1.346-3-3 0-.553.447-1 1-1s1 .447 1 1c0 .552.448 1 1 1s1-.448 1-1c0-.553.447-1 1-1s1 .447 1 1c0 1.654-1.346 3-3 3z"/></g><g><path d="m45.5 9.998c-1.654 0-3-1.346-3-3 0-.553.447-1 1-1s1 .447 1 1c0 .552.448 1 1 1s1-.448 1-1c0-.553.447-1 1-1s1 .447 1 1c0 1.654-1.346 3-3 3z"/></g><g><path d="m38.5 9.998c-1.654 0-3-1.346-3-3 0-.553.447-1 1-1s1 .447 1 1c0 .552.448 1 1 1s1-.448 1-1c0-.553.447-1 1-1s1 .447 1 1c0 1.654-1.346 3-3 3z"/></g><g><g><path d="m36.5 23.012c-.553 0-1-.447-1-1v-19.012c0-.553.447-1 1-1s1 .447 1 1v19.012c0 .552-.447 1-1 1z"/></g><g><path d="m40.5 18.008c-.553 0-1-.447-1-1v-14.008c0-.553.447-1 1-1s1 .447 1 1v14.008c0 .553-.447 1-1 1z"/></g><g><path d="m43.5 18.008c-.553 0-1-.447-1-1v-14.008c0-.553.447-1 1-1s1 .447 1 1v14.008c0 .553-.447 1-1 1z"/></g><g><path d="m47.5 18.008c-.553 0-1-.447-1-1v-14.008c0-.553.447-1 1-1s1 .447 1 1v14.008c0 .553-.447 1-1 1z"/></g><g><path d="m50.5 18.008c-.553 0-1-.447-1-1v-14.008c0-.553.447-1 1-1s1 .447 1 1v14.008c0 .553-.447 1-1 1z"/></g><g><path d="m54.5 23.012c-.553 0-1-.447-1-1v-19.012c0-.553.447-1 1-1s1 .447 1 1v19.012c0 .552-.447 1-1 1z"/></g></g><g><path d="m38.5 25.012c-1.654 0-3-1.346-3-3 0-.553.447-1 1-1s1 .447 1 1c0 .552.448 1 1 1 .553 0 1 .447 1 1s-.447 1-1 1z"/></g><g><path d="m52.502 25.012c-.553 0-1-.447-1-1s.447-1 1-1c.552 0 1-.448 1-1 0-.553.447-1 1-1s1 .447 1 1c0 1.654-1.346 3-3 3z"/></g><g><path d="m43.5 18.008h-3c-.553 0-1-.447-1-1s.447-1 1-1h3c.553 0 1 .447 1 1s-.447 1-1 1z"/></g><g><path d="m50.5 18.008h-3c-.553 0-1-.447-1-1s.447-1 1-1h3c.553 0 1 .447 1 1s-.447 1-1 1z"/></g><g><path d="m52.502 25.012h-14.002c-.553 0-1-.447-1-1s.447-1 1-1h14.002c.553 0 1 .447 1 1s-.447 1-1 1z"/></g><g><path d="m43.5 34.994c-.553 0-1-.447-1-1v-9.982c0-.553.447-1 1-1s1 .447 1 1v9.982c0 .553-.447 1-1 1z"/></g><g><path d="m47.498 34.994c-.553 0-1-.447-1-1v-9.982c0-.553.447-1 1-1s1 .447 1 1v9.982c0 .553-.447 1-1 1z"/></g><g><path d="m51.498 37.992h-11.998c-.553 0-1-.447-1-1v-2.998c0-.553.447-1 1-1h11.998c.553 0 1 .447 1 1v2.998c0 .553-.447 1-1 1zm-10.998-2h9.998v-.998h-9.998z"/></g><g><path d="m50.5 58.994c-.553 0-1-.447-1-1v-19.996h-8v19.996c0 .553-.447 1-1 1s-1-.447-1-1v-20.996c0-.553.447-1 1-1h10c.553 0 1 .447 1 1v20.996c0 .553-.447 1-1 1z"/></g><g><path d="m45.5 64c-3.309 0-6-2.691-6-6 0-.553.447-1 1-1s1 .447 1 1c0 2.206 1.794 4 4 4s4-1.794 4-4c0-.553.447-1 1-1s1 .447 1 1c0 3.309-2.691 6-6 6z"/></g><g><path d="m21.498 45.996c-.553 0-1-.447-1-1v-14.986c0-.553.447-1 1-1s1 .447 1 1v14.986c0 .553-.447 1-1 1z"/></g><g><path d="m17.5 45.996c-.553 0-1-.447-1-1v-14.986c0-.553.447-1 1-1s1 .447 1 1v14.986c0 .553-.447 1-1 1z"/></g><g><path d="m25.498 31.01h-11.998c-.553 0-1-.447-1-1v-2.998c0-.553.447-1 1-1h11.998c.553 0 1 .447 1 1v2.998c0 .553-.447 1-1 1zm-10.998-2h9.998v-.998h-9.998z"/></g><g><path d="m24.5 28.006h-10c-.553 0-1-.447-1-1v-20.996c0-.553.447-1 1-1s1 .447 1 1v19.996h8v-19.996c0-.553.447-1 1-1s1 .447 1 1v20.996c0 .553-.447 1-1 1z"/></g><g><path d="m24.5 7.004c-.553 0-1-.447-1-1 0-2.206-1.794-4-4-4s-4 1.794-4 4c0 .553-.447 1-1 1s-1-.447-1-1c0-3.309 2.691-6 6-6s6 2.691 6 6c0 .553-.447 1-1 1z"/></g><g><path d="m19.5 64c-.137 0-.272-.028-.4-.084-6.44-2.813-10.6-9.167-10.6-16.187 0-.553.447-1 1-1s1 .447 1 1c0 6.078 3.518 11.594 9 14.174 5.482-2.581 9-8.096 9-14.174 0-.553.447-1 1-1s1 .447 1 1c0 7.02-4.16 13.373-10.6 16.188-.128.055-.263.083-.4.083z"/></g><g><path d="m9.5 48.729c-.552 0-1-.447-1-1l-.002-7.729c0-.552.447-1 1-1 .552 0 1 .447 1 1l.002 7.729c0 .551-.447 1-1 1z"/></g><g><path d="m9.498 41c-.552 0-1-.447-1-1 0-.552.447-1 1-1l20.002-.008c.552 0 1 .447 1 1 0 .552-.447 1-1 1z"/></g><g><path d="m29.5 48.496c-.553 0-1-.447-1-1v-7.504c0-.553.447-1 1-1s1 .447 1 1v7.504c0 .553-.447 1-1 1z"/></g><g><path d="m19.5 47.992c-1.654 0-3-1.345-3-2.998 0-.553.447-1 1-1s1 .447 1 1c0 .551.448.998 1 .998.551 0 .998-.447.998-.998 0-.553.447-1 1-1s1 .447 1 1c0 1.653-1.345 2.998-2.998 2.998z"/></g></g></svg>