<svg height="512" viewBox="0 0 64 64" width="512" xmlns="http://www.w3.org/2000/svg"><g id="Flat"><path d="m22 18c0 2.761-3 7-3 7s-3-4.239-3-7 3-7 3-7 3 4.239 3 7z" fill="#12b55c"/><path d="m15 24a29.656 29.656 0 0 0 -4-9c3.989 2.27 10 10 10 15z" fill="#0d9e4f"/><path d="m23 24a29.656 29.656 0 0 1 4-9c-3.989 2.27-10 10-10 15z" fill="#0ca856"/><path d="m5 30h28v4h-28z" fill="#963944"/><path d="m27 30h-10c4-6 8-9 17-10-3.744 3.257-6.437 6.57-7 10z" fill="#09b25e"/><path d="m19 27.275c-3.453-4.209-7.483-6.44-15-7.275 3.744 3.257 6.437 6.57 7 10h6" fill="#009d54"/><path d="m31 34-.2 2-1.8 18h-20l-1.3-12.96-.2-2.01-.3-3.03-.2-2z" fill="#963944"/><g fill="#8adaf9"><path d="m27.914 5.179h2v2h-2z" transform="matrix(.973 -.231 .231 .973 -.645 6.861)"/><path d="m32.268 6.198h2v2h-2z" transform="matrix(.973 -.231 .231 .973 -.763 7.897)"/><path d="m28.84 9.07h2v2h-2z" transform="matrix(.973 -.231 .231 .973 -1.521 7.181)"/><path d="m33.194 10.09h2v2h-2z" transform="matrix(.973 -.231 .231 .973 -1.638 8.217)"/><path d="m29.766 12.961h2v2h-2z" transform="matrix(.973 -.232 .232 .973 -2.399 7.517)"/></g><path d="m58.26 38.26-9.97 2.37a2 2 0 0 1 -2.37-1.36l-3.44-11.27-.69-2.27c2.96-3.96 4.94-5.15 3.8-9.96l-.05-.19 3.89-.92.05.18a7.022 7.022 0 0 0 2.7 4.57 41.967 41.967 0 0 0 5.17 2.61l.87 5 .17.98.17 1.01 1.21 6.96a2.007 2.007 0 0 1 -1.51 2.29z" fill="#ccc"/><path d="m45.026 11.176h4v4h-4z" fill="#b3b3b3" transform="matrix(.973 -.232 .232 .973 -1.773 11.245)"/><path d="m48.508 10.767-3.891.926-.232-.973a2 2 0 0 0 -2.408-1.483l-3.892.927-.926-3.892 11.674-2.778 2.409 1.483.463 1.945-1.946.463a2 2 0 0 0 -1.482 2.409z" fill="#2a86c5"/><path d="m41.3 16.293-1.7-1.049.858-1.393a1.89 1.89 0 0 0 .227-1.418l-.654-2.733 1.946-.463.65 2.733a3.848 3.848 0 0 1 -.47 2.928z" fill="#ccc"/><path d="m40.514 5.291h2v4h-2z" fill="#33a4db" transform="matrix(.973 -.232 .232 .973 -.56 9.811)"/><path d="m23 51h4v10h-4z" fill="#a67c52"/><path d="m11 51h4v10h-4z" fill="#a67c52"/><path d="m31 34-.2 2h-23.6l-.2-2z" fill="#84313f"/><path d="m15 53h8v2h-8z" fill="#936f4e"/><path d="m58.26 38.26-9.97 2.37a2 2 0 0 1 -2.37-1.36l-3.44-11.27h15.91l.17 1.01 1.21 6.96a2.007 2.007 0 0 1 -1.51 2.29z" fill="#4aa8dd"/></g><g id="Outline"><path d="m33.89 19.006a28.05 28.05 0 0 0 -9.006 2.323 29.047 29.047 0 0 1 2.957-5.789 1 1 0 0 0 -1.336-1.409 21.346 21.346 0 0 0 -3.651 2.605 20.424 20.424 0 0 0 -3.038-6.314 1.038 1.038 0 0 0 -1.632 0 20.424 20.424 0 0 0 -3.038 6.314 21.346 21.346 0 0 0 -3.646-2.605 1 1 0 0 0 -1.336 1.409 29.091 29.091 0 0 1 2.936 5.76 27.958 27.958 0 0 0 -8.99-2.294 1 1 0 0 0 -.766 1.749c3.479 3.026 5.575 5.736 6.38 8.245h-4.724a1 1 0 0 0 -1 1v4a1 1 0 0 0 1 1h1.1l.413 4.127 1.99-.2-.398-3.927h21.795l-1.8 18h-.1v-2a1 1 0 0 0 -1-1h-4a1 1 0 0 0 -1 1v2h-6v-2a1 1 0 0 0 -1-1h-4a1 1 0 0 0 -1 1v2h-.1l-1.2-12.062-1.991.2 1.296 12.962a1 1 0 0 0 .995.9h1v6a1 1 0 0 0 1 1h4a1 1 0 0 0 1-1v-6h6v6a1 1 0 0 0 1 1h4a1 1 0 0 0 1-1v-6h1a1 1 0 0 0 1-.9l1.905-19.1h1.095a1 1 0 0 0 1-1v-4a1 1 0 0 0 -1-1h-4.725c.806-2.509 2.9-5.219 6.381-8.245a1 1 0 0 0 -.766-1.749zm-19.89 40.994h-2v-8h2zm12 0h-2v-8h2zm-2.085-41.547a21.714 21.714 0 0 0 -1.545 4.323 18.353 18.353 0 0 0 -2.222 1.793 12.983 12.983 0 0 1 3.767-6.116zm-4.915-5.609c.894 1.493 2 3.681 2 5.156a3.146 3.146 0 0 1 -.107.765 14.588 14.588 0 0 0 -1.893 3.125 14.588 14.588 0 0 0 -1.893-3.125 3.146 3.146 0 0 1 -.107-.765c0-1.475 1.105-3.663 2-5.156zm-4.916 5.609a12.977 12.977 0 0 1 3.768 6.116 18.4 18.4 0 0 0 -2.229-1.818 21.645 21.645 0 0 0 -1.539-4.298zm-7.054 3.013a17.662 17.662 0 0 1 10.67 5.842c-.415.538-.82 1.106-1.221 1.692h-4.667c-.612-2.423-2.163-4.873-4.782-7.534zm24.97 11.534h-26v-2h26zm-5.812-4h-7.268c2.853-3.853 6.049-6.337 12.044-7.528-2.615 2.659-4.164 5.107-4.776 7.528z"/><path d="m27.914 5.179h2v2h-2z" transform="matrix(.973 -.231 .231 .973 -.645 6.861)"/><path d="m32.268 6.198h2v2h-2z" transform="matrix(.973 -.231 .231 .973 -.763 7.895)"/><path d="m28.84 9.071h2v2h-2z" transform="matrix(.973 -.231 .231 .973 -1.521 7.18)"/><path d="m33.194 10.09h2v2h-2z" transform="matrix(.973 -.231 .231 .973 -1.638 8.217)"/><path d="m29.766 12.961h2v2h-2z" transform="matrix(.973 -.232 .232 .973 -2.399 7.517)"/><path d="m59.549 28.845-1.971.34 1.2 6.956a1 1 0 0 1 -.754 1.142l-9.963 2.372a1.006 1.006 0 0 1 -1.189-.681l-3.972-13.048c.386-.5.752-.961 1.094-1.387 2.054-2.562 3.454-4.308 2.738-8.209l.993-.236.992-.236c1.119 3.8 3.154 4.732 6.141 6.094.5.227 1.032.47 1.6.746l.778 4.494 1.971-.341-.865-5a1 1 0 0 0 -.54-.724c-.767-.381-1.471-.7-2.117-1-3.018-1.375-4.4-2-5.232-5.521l-.044-.184-.926-3.892-.232-.972a1 1 0 0 1 .742-1.2l1.944-.458a1 1 0 0 0 .741-1.2l-.464-1.945a1 1 0 0 0 -.448-.62l-2.409-1.492a.991.991 0 0 0 -.755-.121l-11.674 2.778a1 1 0 0 0 -.742 1.2l.927 3.891a1 1 0 0 0 1.2.741l1.946-.463.418 1.76a1.89 1.89 0 0 1 -.227 1.418l-.85 1.397 1.7 1.049.858-1.395a3.848 3.848 0 0 0 .47-2.928l-.419-1.76a1 1 0 0 1 1.2.741l.231.974.926 3.89.044.185c.837 3.519-.11 4.7-2.185 7.287-.444.554-.928 1.157-1.44 1.842a1 1 0 0 0 -.156.892l4.129 13.537a3.007 3.007 0 0 0 2.872 2.124 3.04 3.04 0 0 0 .692-.081l9.964-2.373a3 3 0 0 0 2.265-3.428zm-11.782-16.874.463 1.946-.973.231-.973.232-.463-1.945 1.205-.288zm-9.4-4.957 1.945-.463.46 1.949-1.945.463zm4.4 1.2-.5-2.123 6.407-1.524 1.7 1.048.135.57-.972.232a3 3 0 0 0 -2.237 3.608l-.741.177-1.205.287a3 3 0 0 0 -2.594-2.279z"/></g></svg>