<?xml version="1.0" encoding="UTF-8"?>
<svg xmlns="http://www.w3.org/2000/svg" xmlns:xlink="http://www.w3.org/1999/xlink" version="1.1" id="Capa_1" x="0px" y="0px" viewBox="0 0 512 512" style="enable-background:new 0 0 512 512;" xml:space="preserve" width="512" height="512">
<g>
	<g>
		<path style="fill:#80D261;" d="M207.9,124.559c2.93-42.14,9.17-81.09,13.57-104.99c1-5.39,8.73-5.39,9.72,0&#10;&#9;&#9;&#9;c4.4,23.91,10.64,62.85,13.57,104.99"/>
		<g>
			<path style="fill:#80D261;" d="M245.02,124.559c1.58-20.89,4.56-44.51,9.81-69.38c1.25-5.92,9.71-5.92,10.97,0&#10;&#9;&#9;&#9;&#9;c3.61,16.99,8.15,41.84,10.75,69.38"/>
		</g>
		<path style="fill:#68CA44;" d="M228.74,124.559h16.02c-2.93-42.14-9.17-81.08-13.57-104.99c-0.99-5.39-8.72-5.39-9.72,0&#10;&#9;&#9;&#9;c-0.978,5.312-2.047,11.372-3.15,18.041C222.181,60.946,226.459,91.783,228.74,124.559z"/>
		<g>
			<path style="fill:#68CA44;" d="M175.965,207.455c0,0-7.877-69.106,9.681-152.274c1.249-5.918,9.705-5.917,10.964-0.002&#10;&#9;&#9;&#9;&#9;c7.508,35.261,18.975,104.299,8.786,161.143L175.965,207.455z"/>
		</g>
		<path style="fill:#68CA44;" d="M260.557,124.559h15.993c-2.6-27.54-7.14-52.39-10.75-69.38c-1.26-5.92-9.72-5.92-10.97,0&#10;&#9;&#9;&#9;c-0.892,4.223-1.713,8.407-2.478,12.551C255.369,83.447,258.547,103.183,260.557,124.559z"/>
		<path style="fill:#FFCEBF;" d="M297.604,143.704L297.604,143.704c0-10.576-8.573-19.15-19.15-19.15h-68.148v0.005H175.83&#10;&#9;&#9;&#9;l0.01-0.07c0.94-12.33,2.36-25.61,4.45-39.54H151.9c-7.74,0-15.33,2.17-21.91,6.25l-39.83,24.72l-81.83,8.64v148.83l66.32-12.39&#10;&#9;&#9;&#9;c9.87,5.5,20.36,9.68,31.21,12.5c10.85,2.81,22.06,4.25,33.35,4.25h71.096v0.003h53.058c10.576,0,19.15-8.574,19.15-19.15&#10;&#9;&#9;&#9;c0-10.576-8.574-19.15-19.15-19.15h15.09c10.576,0,19.15-8.574,19.15-19.15s-8.573-19.15-19.15-19.15&#10;&#9;&#9;&#9;c10.576,0,19.15-8.574,19.15-19.15s-8.573-19.15-19.15-19.15C289.031,162.854,297.604,154.28,297.604,143.704z"/>
		<path style="fill:#FFB09E;" d="M263.365,239.452h-26.002c10.576,0,19.15,8.574,19.15,19.15c0,10.576-8.574,19.15-19.15,19.15&#10;&#9;&#9;&#9;h26.002c10.576,0,19.15-8.574,19.15-19.15C282.514,248.026,273.941,239.452,263.365,239.452z"/>
		<path style="fill:#FFB09E;" d="M278.454,201.153h-26.002c10.576,0,19.15,8.574,19.15,19.15s-8.574,19.15-19.15,19.15h26.002&#10;&#9;&#9;&#9;c10.576,0,19.15-8.574,19.15-19.15S289.031,201.153,278.454,201.153z"/>
		<path style="fill:#C59191;" d="M276.214,421.408l-34.106,23.232c-15.212,10.362-35.215,10.362-50.428,0l-34.106-23.232&#10;&#9;&#9;&#9;c-5.483-3.735-11.964-5.732-18.598-5.732H30.489c-12.697,0-22.989,10.293-22.989,22.989v57.808h497v-57.808&#10;&#9;&#9;&#9;c0-12.697-10.293-22.989-22.989-22.989H294.812C288.178,415.676,281.697,417.673,276.214,421.408z"/>
		<path style="fill:#B98080;" d="M504.5,438.669v57.8h-34.02v-57.8c0-12.7-10.3-22.99-22.99-22.99h34.02&#10;&#9;&#9;&#9;C494.21,415.679,504.5,425.969,504.5,438.669z"/>
		<path style="fill:#FFB09E;" d="M278.454,162.854h-26.002c10.576,0,19.15,8.574,19.15,19.15s-8.574,19.15-19.15,19.15h26.002&#10;&#9;&#9;&#9;c10.576,0,19.15-8.574,19.15-19.15S289.031,162.854,278.454,162.854z"/>
		<path style="fill:#FFB09E;" d="M278.454,124.554h-26.002c10.576,0,19.15,8.574,19.15,19.15v0c0,10.576-8.574,19.15-19.15,19.15&#10;&#9;&#9;&#9;h26.002c10.576,0,19.15-8.574,19.15-19.15v0C297.604,133.128,289.031,124.554,278.454,124.554z"/>
		<g>
			<path style="fill:#68CA44;" d="M379.499,415.676c0,0-27.477-63.896-34.658-148.593c-0.511-6.026,7.585-8.465,10.498-3.164&#10;&#9;&#9;&#9;&#9;c17.36,31.596,48.256,94.391,54.898,151.758L379.499,415.676z"/>
			<path style="fill:#80D261;" d="M453.058,415.676c0,0,27.477-63.896,34.658-148.593c0.511-6.026-7.585-8.465-10.498-3.164&#10;&#9;&#9;&#9;&#9;c-17.36,31.596-48.256,94.391-54.898,151.758L453.058,415.676z"/>
			<path style="fill:#68CA44;" d="M477.218,263.918c-3.39,6.17-7.3,13.543-11.441,21.82c-9.207,75.25-32.721,129.937-32.721,129.937&#10;&#9;&#9;&#9;&#9;h20.002c0,0,27.477-63.896,34.658-148.593C488.227,261.056,480.13,258.618,477.218,263.918z"/>
		</g>
		<path style="fill:#80D261;" d="M188.312,277.752c0,0,12.995,52.916,33.415,52.916s35.271-52.916,35.271-52.916H188.312z"/>
		<path style="fill:#68CA44;" d="M230.996,277.752c0,0-8.791,31.316-22.144,45.764c3.852,4.332,8.166,7.151,12.876,7.151&#10;&#9;&#9;&#9;c20.42,0,35.271-52.916,35.271-52.916H230.996z"/>
		<path style="fill:#80D261;" d="M410.766,222.51c-7.645,42.385-19.719,125.254-12.184,193.166h35.391&#10;&#9;&#9;&#9;c7.536-67.912-4.539-150.781-12.184-193.166C420.683,216.371,411.874,216.371,410.766,222.51z"/>
		<path style="fill:#68CA44;" d="M421.79,222.51c-1.107-6.139-9.917-6.139-11.024,0c-1.397,7.748-2.943,16.852-4.489,26.967&#10;&#9;&#9;&#9;c6.915,45.219,13.853,110.701,7.695,166.199h20.002C441.509,347.764,429.435,264.895,421.79,222.51z"/>
	</g>
	<g>
		<path style="fill:none;stroke:#000000;stroke-width:15;stroke-linecap:round;stroke-linejoin:round;stroke-miterlimit:10;" d="&#10;&#9;&#9;&#9;M210.306,239.452h53.058c10.576,0,19.15,8.574,19.15,19.15v0c0,10.576-8.574,19.15-19.15,19.15h-53.058"/>
		<path style="fill:none;stroke:#000000;stroke-width:15;stroke-linecap:round;stroke-linejoin:round;stroke-miterlimit:10;" d="&#10;&#9;&#9;&#9;M210.306,201.153h68.148c10.576,0,19.15,8.574,19.15,19.15v0c0,10.576-8.574,19.15-19.15,19.15h-68.148"/>
		<path style="fill:none;stroke:#000000;stroke-width:15;stroke-linecap:round;stroke-linejoin:round;stroke-miterlimit:10;" d="&#10;&#9;&#9;&#9;M343.674,415.676h-48.862c-6.634,0-13.115,1.997-18.598,5.732l-34.106,23.232c-15.212,10.362-35.215,10.362-50.428,0&#10;&#9;&#9;&#9;l-34.106-23.232c-5.483-3.735-11.964-5.732-18.598-5.732H30.489c-12.697,0-22.989,10.293-22.989,22.989v57.808"/>
		<path style="fill:none;stroke:#000000;stroke-width:15;stroke-linecap:round;stroke-linejoin:round;stroke-miterlimit:10;" d="&#10;&#9;&#9;&#9;M504.5,496.473v-57.808c0-12.697-10.293-22.989-22.989-22.989H379.499"/>
		<path style="fill:none;stroke:#000000;stroke-width:15;stroke-linecap:round;stroke-linejoin:round;stroke-miterlimit:10;" d="&#10;&#9;&#9;&#9;M278.454,162.854c10.576,0,19.15,8.574,19.15,19.15v0c0,10.576-8.574,19.15-19.15,19.15h-68.148"/>
		
			<line style="fill:none;stroke:#000000;stroke-width:15;stroke-linecap:round;stroke-linejoin:round;stroke-miterlimit:10;" x1="227.887" y1="162.854" x2="210.306" y2="162.854"/>
		<path style="fill:none;stroke:#000000;stroke-width:15;stroke-linecap:round;stroke-linejoin:round;stroke-miterlimit:10;" d="&#10;&#9;&#9;&#9;M210.306,124.554h68.148c10.576,0,19.15,8.574,19.15,19.15v0c0,10.576-8.574,19.15-19.15,19.15H262.95"/>
		<path style="fill:none;stroke:#000000;stroke-width:15;stroke-linecap:round;stroke-linejoin:round;stroke-miterlimit:10;" d="&#10;&#9;&#9;&#9;M8.33,273.389l66.32-12.39c9.87,5.5,20.36,9.68,31.21,12.5c10.85,2.81,22.06,4.25,33.35,4.25h71.1"/>
		<path style="fill:none;stroke:#000000;stroke-width:15;stroke-linecap:round;stroke-linejoin:round;stroke-miterlimit:10;" d="&#10;&#9;&#9;&#9;M180.29,84.949H151.9c-7.74,0-15.33,2.17-21.91,6.25l-39.83,24.72l-81.83,8.64"/>
		
			<polyline style="fill:none;stroke:#000000;stroke-width:15;stroke-linecap:round;stroke-linejoin:round;stroke-miterlimit:10;" points="&#10;&#9;&#9;&#9;175.84,124.559 207.36,124.559 210.31,124.559 &#9;&#9;"/>
		<path style="fill:none;stroke:#000000;stroke-width:15;stroke-linecap:round;stroke-linejoin:round;stroke-miterlimit:10;" d="&#10;&#9;&#9;&#9;M410.766,222.51c-7.645,42.385-19.719,125.254-12.184,193.166h35.391c7.536-67.912-4.539-150.781-12.184-193.166&#10;&#9;&#9;&#9;C420.683,216.371,411.874,216.371,410.766,222.51z"/>
		<g>
			<path style="fill:none;stroke:#000000;stroke-width:15;stroke-linecap:round;stroke-linejoin:round;stroke-miterlimit:10;" d="&#10;&#9;&#9;&#9;&#9;M410.24,415.679h-11.66H379.5c0,0-27.48-63.9-34.66-148.6c-0.51-6.02,7.59-8.46,10.5-3.16c11.4,20.74,28.62,54.93,41,92.2"/>
			<path style="fill:none;stroke:#000000;stroke-width:15;stroke-linecap:round;stroke-linejoin:round;stroke-miterlimit:10;" d="&#10;&#9;&#9;&#9;&#9;M422.32,415.679h11.65h19.09c0,0,27.48-63.9,34.66-148.6c0.51-6.02-7.59-8.46-10.5-3.16c-11.4,20.75-28.63,54.94-41.01,92.23"/>
		</g>
		<path style="fill:none;stroke:#000000;stroke-width:15;stroke-linecap:round;stroke-linejoin:round;stroke-miterlimit:10;" d="&#10;&#9;&#9;&#9;M207.9,124.559c2.93-42.14,9.17-81.09,13.57-104.99c1-5.39,8.73-5.39,9.72,0c4.4,23.91,10.64,62.85,13.57,104.99"/>
		<g>
			<path style="fill:none;stroke:#000000;stroke-width:15;stroke-linecap:round;stroke-linejoin:round;stroke-miterlimit:10;" d="&#10;&#9;&#9;&#9;&#9;M207.36,124.559c-2.59-27.54-7.13-52.39-10.75-69.38c-1.26-5.92-9.71-5.92-10.96,0c-2.15,10.17-3.91,20.12-5.36,29.77&#10;&#9;&#9;&#9;&#9;c-2.09,13.96-3.52,27.26-4.45,39.61"/>
		</g>
		<g>
			<path style="fill:none;stroke:#000000;stroke-width:15;stroke-linecap:round;stroke-linejoin:round;stroke-miterlimit:10;" d="&#10;&#9;&#9;&#9;&#9;M245.02,124.559c1.58-20.89,4.56-44.51,9.81-69.38c1.25-5.92,9.71-5.92,10.97,0c3.61,16.99,8.15,41.84,10.75,69.38"/>
		</g>
		
			<line style="fill:none;stroke:#000000;stroke-width:15;stroke-linecap:round;stroke-linejoin:round;stroke-miterlimit:10;" x1="176.214" y1="124.554" x2="155.542" y2="124.554"/>
		<path style="fill:none;stroke:#000000;stroke-width:15;stroke-linecap:round;stroke-linejoin:round;stroke-miterlimit:10;" d="&#10;&#9;&#9;&#9;M188.312,277.752c0,0,12.995,52.916,33.415,52.916s35.271-52.916,35.271-52.916H188.312z"/>
		<path style="fill:none;stroke:#000000;stroke-width:15;stroke-linecap:round;stroke-linejoin:round;stroke-miterlimit:10;" d="&#10;&#9;&#9;&#9;M170.579,381.408L170.579,381.408c11.07,0,21.399-5.565,27.487-14.811l23.661-35.93l35.271,34.831"/>
		
			<line style="fill:none;stroke:#000000;stroke-width:15;stroke-linecap:round;stroke-linejoin:round;stroke-miterlimit:10;" x1="201.493" y1="361.394" x2="216.894" y2="378.408"/>
		
			<line style="fill:none;stroke:#000000;stroke-width:15;stroke-linecap:round;stroke-linejoin:round;stroke-miterlimit:10;" x1="234.84" y1="407.266" x2="234.84" y2="407.266"/>
	</g>
</g>















</svg>
