<?xml version="1.0" encoding="UTF-8"?>
<svg xmlns="http://www.w3.org/2000/svg" xmlns:xlink="http://www.w3.org/1999/xlink" version="1.1" id="Capa_1" x="0px" y="0px" viewBox="0 0 512 512" style="enable-background:new 0 0 512 512;" xml:space="preserve" width="512" height="512">
<g>
	<g>
		<path style="fill:#97DA7B;" d="M444.242,229.069l-8.655-2.752c-4.327-1.376-5.715-7.28-2.798-11.919&#10;&#9;&#9;&#9;c7.82-12.438,21.091-36.303,27.067-63.188c1.124-5.055-1.308-9.675-5.528-10.647l-12.53-2.886&#10;&#9;&#9;&#9;c-4.025-0.927-5.854-5.79-4.015-10.424c7.896-19.898,9.156-44.323,9.087-58.793c-0.031-6.387-5.441-10.112-10.925-7.532&#10;&#9;&#9;&#9;l-9.915,4.664c-4.095,1.926-8.253-0.397-8.939-4.995l-6.398-42.891c-1.286-8.619-11.061-13.014-18.361-8.255l-36.327,23.682&#10;&#9;&#9;&#9;c-3.894,2.539-8.392,0.971-9.669-3.371l-3.092-10.512c-1.71-5.814-8.087-7.389-12.885-3.172&#10;&#9;&#9;&#9;c-10.869,9.553-28.302,26.707-37.944,45.819c-2.245,4.451-7.097,6.311-10.462,3.915l-10.475-7.457&#10;&#9;&#9;&#9;c-3.528-2.511-8.597-1.264-11.632,2.932c-16.143,22.314-25.185,48.081-29.297,62.185c-1.534,5.261-6.871,8.141-10.772,5.818&#10;&#9;&#9;&#9;l-7.803-4.647c-4.793-2.854-11.386,0.792-13.101,7.291c-23.808,101.031,12.29,162.77,65.407,186.713s123.253,10.09,183.204-74.943&#10;&#9;&#9;&#9;C451.207,238.111,449.559,230.76,444.242,229.069z"/>
		<path style="fill:#80D261;" d="M432.79,214.4c-2.92,4.64-1.53,10.54,2.8,11.92l8.65,2.75c5.32,1.69,6.97,9.04,3.24,14.64&#10;&#9;&#9;&#9;c-32.79,46.51-68.63,71.73-103.07,81.1c43.9-45.63,70.88-107.64,70.88-175.94c0-47.83-13.23-92.57-36.23-130.76l13.27-8.66&#10;&#9;&#9;&#9;c7.3-4.76,17.08-0.36,18.36,8.26l6.4,42.89c0.69,4.6,4.85,6.92,8.94,4.99l9.92-4.66c5.48-2.58,10.89,1.14,10.92,7.53&#10;&#9;&#9;&#9;c0.07,14.47-1.19,38.9-9.09,58.79c-1.83,4.64-0.01,9.5,4.02,10.43l12.53,2.88c4.22,0.98,6.65,5.59,5.53,10.65&#10;&#9;&#9;&#9;C453.88,178.09,440.61,201.96,432.79,214.4z"/>
		<path style="fill:#97DA7B;" d="M219.484,217.555l-5.038,3.63c-2.518,1.815-6.325,0.171-7.684-3.321&#10;&#9;&#9;&#9;c-3.642-9.362-11.337-26.373-23.662-40.609c-2.318-2.677-5.845-3.224-8.098-1.304l-6.69,5.704&#10;&#9;&#9;&#9;c-2.149,1.832-5.565,0.855-7.359-2.043c-7.707-12.443-20.603-23.088-28.576-28.947c-3.519-2.586-7.769-1.133-8.587,2.929&#10;&#9;&#9;&#9;l-1.48,7.344c-0.611,3.033-3.581,4.369-6.385,2.872L89.77,149.846c-5.256-2.806-11.652,0.77-12.014,6.717l-1.801,29.595&#10;&#9;&#9;&#9;c-0.193,3.172-2.887,5.003-5.791,3.935l-7.031-2.586c-3.889-1.43-7.352,1.429-6.992,5.781c0.816,9.86,3.13,26.422,9.694,39.504&#10;&#9;&#9;&#9;c1.529,3.047,0.573,6.468-2.114,7.339l-8.363,2.712c-2.816,0.913-4.197,4.205-3.13,7.581c5.673,17.955,16.135,33.42,22.203,41.425&#10;&#9;&#9;&#9;c2.263,2.986,1.67,7.09-1.195,8.285l-5.731,2.391c-3.52,1.469-4.205,6.574-1.336,10.164&#10;&#9;&#9;&#9;c45.767,54.241,94.373,59.58,129.164,40.174c34.79-19.406,55.765-63.558,33.508-131.123&#10;&#9;&#9;&#9;C227.287,217.416,222.579,215.326,219.484,217.555z"/>
		<path style="fill:#80D261;" d="M195.33,352.86c-3.62,2.02-7.39,3.77-11.3,5.23c10.52-19.52,16.54-44,16.56-74.52&#10;&#9;&#9;&#9;c0.02-40.69-18.39-80.58-37.76-101.96c1.77,1.23,3.95,1.36,5.48,0.05l6.69-5.71c2.26-1.92,5.78-1.37,8.1,1.31&#10;&#9;&#9;&#9;c12.33,14.23,20.02,31.24,23.66,40.6c1.36,3.5,5.17,5.14,7.69,3.33l5.03-3.63c3.1-2.23,7.81-0.14,9.36,4.18&#10;&#9;&#9;&#9;C251.1,289.31,230.12,333.46,195.33,352.86z"/>
		<path style="fill:#80D261;" d="M162.8,181.59c-0.7-0.49-1.34-1.16-1.85-1.98C161.57,180.25,162.18,180.91,162.8,181.59z"/>
		<path style="fill:#00C27A;" d="M268.394,333.935c10.047-54.583,43.838-101.109,44.396-101.869&#10;&#9;&#9;&#9;c4.503-6.102,3.21-14.701-2.891-19.207c-6.103-4.507-14.703-3.214-19.211,2.888c-1.549,2.097-38.055,52.05-49.313,113.215&#10;&#9;&#9;&#9;c-3.188,17.317-8.12,35.029-12.857,63.176l-53.379-98.427c-3.782-6.576-12.177-8.842-18.756-5.061&#10;&#9;&#9;&#9;c-6.577,3.782-8.843,12.179-5.061,18.756l70.069,127.452c-8.814,53.209-7.841,53.07-7.983,53.948&#10;&#9;&#9;&#9;c-2.78,17.707,24.127,22.148,27.123,4.375C240.607,492.699,262.696,364.89,268.394,333.935z"/>
	</g>
	<g>
		<path style="fill:none;stroke:#000000;stroke-width:15;stroke-linecap:round;stroke-linejoin:round;stroke-miterlimit:10;" d="&#10;&#9;&#9;&#9;M253.917,416.01c5.804-33.313,11.864-67.88,14.477-82.076c10.047-54.583,43.838-101.109,44.396-101.869&#10;&#9;&#9;&#9;c4.503-6.102,3.21-14.701-2.891-19.207c-6.103-4.507-14.703-3.214-19.211,2.888c-1.549,2.097-38.055,52.05-49.313,113.215&#10;&#9;&#9;&#9;c-3.188,17.317-8.12,35.029-12.857,63.176l-53.379-98.427c-3.782-6.576-12.177-8.842-18.756-5.061&#10;&#9;&#9;&#9;c-6.577,3.782-8.843,12.179-5.061,18.756l70.069,127.452c-8.814,53.209-7.841,53.07-7.983,53.948&#10;&#9;&#9;&#9;c-2.78,17.707,24.127,22.148,27.123,4.375c0.029-0.18,3.132-18.144,7.306-42.19"/>
		<path style="fill:none;stroke:#000000;stroke-width:15;stroke-linecap:round;stroke-linejoin:round;stroke-miterlimit:10;" d="&#10;&#9;&#9;&#9;M307,329.005c44.916,2.173,95.56-21.577,140.484-85.298c3.723-5.596,2.074-12.947-3.242-14.638l-8.655-2.752&#10;&#9;&#9;&#9;c-4.327-1.376-5.715-7.28-2.798-11.919c7.82-12.438,21.091-36.303,27.067-63.188c1.124-5.055-1.308-9.675-5.528-10.647&#10;&#9;&#9;&#9;l-12.53-2.886c-4.025-0.927-5.854-5.79-4.015-10.424c7.896-19.898,9.156-44.323,9.087-58.793&#10;&#9;&#9;&#9;c-0.031-6.387-5.441-10.112-10.925-7.532l-9.915,4.664c-4.095,1.926-8.253-0.397-8.939-4.995l-6.398-42.891&#10;&#9;&#9;&#9;c-1.286-8.619-11.061-13.014-18.361-8.255l-36.327,23.682c-3.894,2.539-8.392,0.971-9.669-3.371l-3.092-10.512&#10;&#9;&#9;&#9;c-1.71-5.814-8.087-7.389-12.885-3.172c-10.869,9.553-28.302,26.707-37.944,45.819c-2.245,4.451-7.097,6.311-10.462,3.915&#10;&#9;&#9;&#9;l-10.475-7.457c-3.528-2.511-8.597-1.264-11.632,2.932c-16.143,22.314-25.185,48.081-29.297,62.185&#10;&#9;&#9;&#9;c-1.534,5.261-6.871,8.141-10.772,5.818l-7.803-4.647c-4.793-2.854-11.386,0.792-13.101,7.291&#10;&#9;&#9;&#9;c-4.795,20.346-7.16,39.099-7.445,56.27"/>
		<path style="fill:none;stroke:#000000;stroke-width:15;stroke-linecap:round;stroke-linejoin:round;stroke-miterlimit:10;" d="&#10;&#9;&#9;&#9;M70.661,286.658c1.369,1.966,2.645,3.707,3.771,5.192c2.263,2.986,1.67,7.09-1.195,8.285l-5.731,2.391&#10;&#9;&#9;&#9;c-3.52,1.469-4.205,6.574-1.336,10.164c39.36,46.647,80.82,57.127,113.786,46.803"/>
		<path style="fill:none;stroke:#000000;stroke-width:15;stroke-linecap:round;stroke-linejoin:round;stroke-miterlimit:10;" d="&#10;&#9;&#9;&#9;M204.143,347.192c29.326-21.653,45.005-63.808,24.699-125.452c-1.555-4.324-6.263-6.415-9.358-4.185l-5.038,3.63&#10;&#9;&#9;&#9;c-2.518,1.815-6.325,0.171-7.684-3.321c-3.642-9.362-11.337-26.373-23.662-40.609c-2.318-2.677-5.845-3.224-8.098-1.304&#10;&#9;&#9;&#9;l-6.69,5.704c-2.149,1.832-5.565,0.855-7.359-2.043c-7.707-12.443-20.603-23.088-28.576-28.947&#10;&#9;&#9;&#9;c-3.519-2.586-7.769-1.133-8.587,2.929l-1.48,7.344c-0.611,3.033-3.581,4.369-6.385,2.872L89.77,149.846&#10;&#9;&#9;&#9;c-5.256-2.806-11.652,0.77-12.014,6.717l-1.801,29.595c-0.193,3.172-2.887,5.003-5.791,3.935l-7.031-2.586&#10;&#9;&#9;&#9;c-3.889-1.43-7.352,1.429-6.992,5.781c0.816,9.86,3.13,26.422,9.694,39.504c1.529,3.047,0.573,6.468-2.114,7.339l-8.363,2.712&#10;&#9;&#9;&#9;c-2.816,0.913-4.197,4.205-3.13,7.581c0.596,1.888,1.246,3.748,1.938,5.575"/>
		
			<line style="fill:none;stroke:#000000;stroke-width:15;stroke-linecap:round;stroke-linejoin:round;stroke-miterlimit:10;" x1="309.899" y1="212.858" x2="365.071" y2="96.161"/>
		
			<line style="fill:none;stroke:#000000;stroke-width:15;stroke-linecap:round;stroke-linejoin:round;stroke-miterlimit:10;" x1="317.586" y1="112.88" x2="324.682" y2="181.59"/>
		
			<line style="fill:none;stroke:#000000;stroke-width:15;stroke-linecap:round;stroke-linejoin:round;stroke-miterlimit:10;" x1="345.759" y1="137.009" x2="387.571" y2="126.714"/>
		
			<line style="fill:none;stroke:#000000;stroke-width:15;stroke-linecap:round;stroke-linejoin:round;stroke-miterlimit:10;" x1="266.694" y1="256" x2="256" y2="154.509"/>
		
			<line style="fill:none;stroke:#000000;stroke-width:15;stroke-linecap:round;stroke-linejoin:round;stroke-miterlimit:10;" x1="309.899" y1="236.243" x2="387.571" y2="215.857"/>
		
			<line style="fill:none;stroke:#000000;stroke-width:15;stroke-linecap:round;stroke-linejoin:round;stroke-miterlimit:10;" x1="156.381" y1="288.649" x2="115.857" y2="215.857"/>
		
			<line style="fill:none;stroke:#000000;stroke-width:15;stroke-linecap:round;stroke-linejoin:round;stroke-miterlimit:10;" x1="136.119" y1="252.253" x2="101.286" y2="236.243"/>
		
			<line style="fill:none;stroke:#000000;stroke-width:15;stroke-linecap:round;stroke-linejoin:round;stroke-miterlimit:10;" x1="160.95" y1="226.05" x2="156.381" y2="288.649"/>
	</g>
</g>















</svg>
