<svg id="Icons" viewBox="0 0 60 60" xmlns="http://www.w3.org/2000/svg"><path d="m59 16v42c0 .55-.45 1-1 1h-56c-.55 0-1-.45-1-1v-42l1-2h56z" fill="#e4ebf2"/><path d="m59 7v9h-58v-9c0-.55.45-1 1-1h56c.55 0 1 .45 1 1z" fill="#e84949"/><g fill="#505d68"><rect height="10" rx="2" width="4" x="7" y="1"/><rect height="10" rx="2" width="4" x="21" y="1"/><rect height="10" rx="2" width="4" x="35" y="1"/><rect height="10" rx="2" width="4" x="49" y="1"/></g><path d="m27.902 45.28c-.05.1-.12.2-.18.3-.35.52-.75.99-1.2 1.4-1.18 1.09-2.66 1.67-4.18 1.9-5.56.84-9.669-2.93-11.509-7.22-1.94-4.55-2.64-9.38-2.83-10.92-.03-.28.17-.53.44-.56 2.44-.28 13.289-1.07 18.449 5.65z" fill="#86cc58"/><path d="m48.49 40.113c-2.276 5.193-7.355 9.763-14.242 8.744-1.881-.278-3.721-.98-5.181-2.301-.55-.498-1.048-1.064-1.479-1.696-1.651-2.417-2.105-5.806-.925-8.532 5.038-11.64 21.417-10.483 24.789-10.113.343.038.585.342.543.684-.228 1.865-1.092 7.708-3.505 13.214z" fill="#8fd860"/><path d="m20.783 49.999c.552 0 1.121-.042 1.708-.13 1.886-.285 3.47-1.01 4.704-2.149.28-.256.542-.539.792-.839.137.138.265.286.409.416 1.494 1.353 3.414 2.21 5.706 2.549.712.105 1.402.155 2.072.155 6.65 0 11.231-4.923 13.231-9.486 2.488-5.678 3.37-11.765 3.581-13.494.054-.433-.065-.858-.335-1.199-.271-.34-.658-.554-1.091-.601-3.2-.349-18.707-1.46-24.867 8.872-5.822-5.981-16.231-5.149-18.363-4.907-.818.092-1.412.838-1.321 1.678.229 1.855.972 6.662 2.903 11.191 1.64 3.822 5.4 7.944 10.869 7.944zm26.508-22.999c1.568 0 2.854.092 3.661.169-.273 2.056-1.159 7.48-3.378 12.543-2.011 4.588-6.53 9.141-13.179 8.155-1.895-.28-3.462-.971-4.657-2.054-.501-.452-.946-.963-1.324-1.519-1.505-2.202-1.84-5.244-.833-7.569 3.638-8.407 13.736-9.726 19.71-9.726zm-21.572 9.005c-1.232 2.92-.852 6.536.966 9.289-.258.348-.535.673-.842.952-.939.867-2.167 1.421-3.65 1.645-5.263.804-8.843-2.9-10.439-6.623-1.681-3.94-2.415-8.126-2.692-10.146 2.837-.259 11.96-.6 16.658 4.884z" fill="#181818"/><path d="m58 5h-4v-2c0-1.654-1.346-3-3-3s-3 1.346-3 3v2h-8v-2c0-1.654-1.346-3-3-3s-3 1.346-3 3v2h-8v-2c0-1.654-1.346-3-3-3s-3 1.346-3 3v2h-8v-2c0-1.654-1.346-3-3-3s-3 1.346-3 3v2h-4c-1.103 0-2 .897-2 2v13c0 .553.447 1 1 1s1-.447 1-1v-3h56v41h-56v-34c0-.553-.447-1-1-1s-1 .447-1 1v34c0 1.103.897 2 2 2h56c1.103 0 2-.897 2-2v-51c0-1.103-.897-2-2-2zm-8-2c0-.552.448-1 1-1s1 .448 1 1v6c0 .552-.448 1-1 1s-1-.448-1-1zm-14 0c0-.552.448-1 1-1s1 .448 1 1v6c0 .552-.448 1-1 1s-1-.448-1-1zm-14 0c0-.552.448-1 1-1s1 .448 1 1v6c0 .552-.448 1-1 1s-1-.448-1-1zm-14 0c0-.552.448-1 1-1s1 .448 1 1v6c0 .552-.448 1-1 1s-1-.448-1-1zm-6 12v-8h4v2c0 1.654 1.346 3 3 3s3-1.346 3-3v-2h8v2c0 1.654 1.346 3 3 3s3-1.346 3-3v-2h8v2c0 1.654 1.346 3 3 3s3-1.346 3-3v-2h8v2c0 1.654 1.346 3 3 3s3-1.346 3-3v-2h4v8z" fill="#181818"/><path d="m33.001 42c.256 0 .512-.098.707-.293 3.104-3.104 7.02-5.952 10.74-7.812.494-.247.694-.848.447-1.342-.248-.494-.849-.693-1.342-.447-3.905 1.953-8.01 4.937-11.26 8.188-.391.391-.391 1.023 0 1.414.195.195.451.293.707.293z" fill="#181818"/><path d="m14.016 36.677c2.868 1.436 5.886 3.634 8.278 6.03.195.195.452.293.708.293s.512-.098.707-.292c.391-.391.391-1.023 0-1.415-2.539-2.542-5.746-4.876-8.798-6.405-.498-.245-1.096-.047-1.343.446-.247.494-.047 1.095.446 1.343z" fill="#181818"/></svg>