<svg width="128" height="128" viewBox="0 0 128 128" fill="none" xmlns="http://www.w3.org/2000/svg">
<path d="M44.1381 57.2129C48.2931 63.5103 54.2584 68.401 61.2481 71.2407C64.8776 61.7646 65.4744 53.8586 63.7425 47.2518C61.0359 40.2117 56.0006 34.4709 45.0086 29C39.6457 42.3747 41.2149 50.6601 44.1381 57.2129Z" stroke="#72E3AD" stroke-width="8" stroke-linecap="round" stroke-linejoin="round"/>
<path d="M56 98C70.6667 92.75 58.1333 84.56 64 77" stroke="#1E2723" stroke-width="8" stroke-linecap="round" stroke-linejoin="round"/>
<path d="M70.1998 55.9999C66.1336 62.3549 64.0882 69.7927 64.3332 77.3333C74.4665 76.7999 81.9332 74.1333 87.2665 69.8666C92.5998 64.5333 95.7998 57.5999 96.3332 45.3333C81.9332 45.8666 74.9998 50.6666 70.1998 55.9999Z" stroke="#1E2723" stroke-width="8" stroke-linecap="round" stroke-linejoin="round"/>
<path d="M71.7797 56.3333C68.478 61.2982 66.8171 67.109 67.016 73C75.2443 72.5833 81.3072 70.5 85.6379 67.1667C89.9685 63 92.5669 57.5833 93 48C81.3072 48.4167 75.6773 52.1667 71.7797 56.3333Z" fill="#72E3AD" stroke="#1E2723" stroke-width="8" stroke-linecap="round" stroke-linejoin="round"/>
</svg>
