<?xml version="1.0" encoding="UTF-8"?>
<svg xmlns="http://www.w3.org/2000/svg" viewBox="0 0 64 64" width="512" height="512"><g id="fildoutline"><g id="_18-_Cup_cake_copy_5" data-name="18- Cup cake copy 5"><path d="M43.4917,33.0782h12a2,2,0,0,1,2,2v16a8,8,0,0,1-8,8h0a8,8,0,0,1-8-8v-16a2,2,0,0,1,2-2Z" transform="translate(12.6321 -10.6139) rotate(14.0148)" fill="#e0e0e0"/><path d="M58.4614,34.9182,46.8185,32.0121A1.9937,1.9937,0,0,0,44.4828,33.22l11.0011,2.7459A2,2,0,0,1,56.94,38.3909L53.0652,53.9146a7.9735,7.9735,0,0,1-3.6661,4.9333,7.9984,7.9984,0,0,0,6.6436-5.9812L59.9175,37.343A2,2,0,0,0,58.4614,34.9182Z" fill="#bdbdbd"/><path d="M28,34.3678c0-4.4077-1.6486-7.8283-7.999-8.8373C13,24.418,8,29.418,8,29.418s6,0,10,4C21.5355,36.9536,28,34.3678,28,34.3678Z" fill="#81c785"/><path d="M18,31.049a14.2827,14.2827,0,0,0-7.2158-3.663A14.7485,14.7485,0,0,0,8,29.418s6,0,10,4c3.5355,3.5356,10,.95,10,.95a13.3306,13.3306,0,0,0-.1845-2.3008C26.7774,32.4415,21.1984,34.2474,18,31.049Z" fill="#66bb6a"/><path d="M28,18.7608c.07-3.2307,1.37-5.7644,6.18-6.6056a7.89,7.89,0,0,1,7.8184,2.6056,10.7966,10.7966,0,0,0-6.4339,3.1438C32.8391,20.5527,28,18.7608,28,18.7608Z" fill="#81c785"/><path d="M40.8068,13.6053a11.4133,11.4133,0,0,0-5.2419,2.9459c-2.4939,2.4229-6.7456,1.1323-7.4528.8946A10.1632,10.1632,0,0,0,28,18.7608s4.8391,1.7919,7.5649-.8562a10.7959,10.7959,0,0,1,6.4339-3.1438A6.2486,6.2486,0,0,0,40.8068,13.6053Z" fill="#66bb6a"/><path d="M28,31.6951c0-2.8481,1.5571-5.973,7-7.3062a17.588,17.588,0,0,1,11,1,17.9527,17.9527,0,0,1-9,7A11.3285,11.3285,0,0,1,28,31.6951Z" fill="#81c785"/><path d="M37,29.3889a11.4971,11.4971,0,0,1-8.4573-.4138A6.82,6.82,0,0,0,28,31.6951a11.3285,11.3285,0,0,0,9,.6938,17.9527,17.9527,0,0,0,9-7,13.33,13.33,0,0,0-1.8336-.6834A17.557,17.557,0,0,1,37,29.3889Z" fill="#66bb6a"/><path d="M28,20.28c-.0411-1.9859-1.9811-3.9953-6-5a9.3623,9.3623,0,0,0-7.0012,1,10.2443,10.2443,0,0,0,5.99,5.0673A8.384,8.384,0,0,0,28,20.28Z" fill="#81c785"/><path d="M20.9888,18.3472a10.5587,10.5587,0,0,1-4.4-2.8081,7.7584,7.7584,0,0,0-1.59.7409,10.2439,10.2439,0,0,0,5.99,5.0672A8.3837,8.3837,0,0,0,28,20.28a3.7347,3.7347,0,0,0-1.0634-2.4049A8.03,8.03,0,0,1,20.9888,18.3472Z" fill="#66bb6a"/><path d="M33,43c4-3,7-1,8.222.5263h2.5868A6.77,6.77,0,0,1,50.56,50.1579C56.36,50.1579,62,53,61,61H3c0-7.001,4.64-10.8421,10.44-10.8421C13.44,46.61,16.2764,43,20,43h3c0-2,2-4,5-4S33,40.9987,33,43Z" fill="#a1887f"/><path d="M10.44,53.1579A7.2977,7.2977,0,0,1,11,50.4088a9.5543,9.5543,0,0,0-6.3526,4.3A10.958,10.958,0,0,1,10.44,53.1579Z" fill="#8d6e63"/><path d="M17,46h3a3.7871,3.7871,0,0,1,1.729-3H20a6.5545,6.5545,0,0,0-5.6333,3.6407A5.7876,5.7876,0,0,1,17,46Z" fill="#8d6e63"/><path d="M50.56,50.1579a6.77,6.77,0,0,0-6.7512-6.6316H41.222C40,42,37,40,33,43c0-2.0013-2-4-5-4-2.6528,0-4.5175,1.5644-4.915,3.3093A6.04,6.04,0,0,1,25,42c3,0,5,1.9987,5,4,4-3,7-1,8.222.5263h2.5868A6.77,6.77,0,0,1,47.56,53.1579c5.0038,0,9.878,2.1243,10.4827,7.8421H61C62,53,56.36,50.1579,50.56,50.1579Z" fill="#8d6e63"/><path d="M56.2756,27.1579,52.9147,40.6231a2.0876,2.0876,0,0,1-2.1159,1.629,2.0052,2.0052,0,0,1-1.7945-2.48l3.39-13.5832Z" fill="#bdbdbd"/><path d="M54.7954,26.7884,51.639,39.4339a2.0873,2.0873,0,0,1-2.1158,1.629,2.0437,2.0437,0,0,1-.4343-.0833,1.9939,1.9939,0,0,0,1.71,1.2725,2.0876,2.0876,0,0,0,2.1159-1.6291l3.3609-13.4652Z" fill="#9e9d9e"/><path d="M56.1514,11.8968h0a4,4,0,0,1,4,4v9a2,2,0,0,1-2,2h-4a2,2,0,0,1-2-2v-9a4,4,0,0,1,4-4Z" transform="translate(6.3688 -13.021) rotate(14.0148)" fill="#faa629"/><path d="M58.1526,12.1865a3.9876,3.9876,0,0,1,.8488,3.5653l-2.1795,8.7321A2,2,0,0,1,54.397,25.94l-3.3112-.8265a1.9867,1.9867,0,0,0,1.3089,1.0756l3.8809.9687A2,2,0,0,0,58.7,25.7017L60.88,16.97A3.99,3.99,0,0,0,58.1526,12.1865Z" fill="#f8981d"/><path d="M28,11a3.7094,3.7094,0,0,1-1.9935-3.09A8.0273,8.0273,0,0,1,28,3a8.413,8.413,0,0,1,2,5C30,9.8514,28,11,28,11Z" fill="#81c785"/><path d="M28,9.259A3.9743,3.9743,0,0,1,26.1312,7a6.06,6.06,0,0,0-.1247,1.1693A3.71,3.71,0,0,0,28,11.259s2-1.1486,2-3a6.143,6.143,0,0,0-.1344-1.2135A4.5538,4.5538,0,0,1,28,9.259Z" fill="#66bb6a"/><path d="M28.4023,51.833a1.0013,1.0013,0,0,1-.8193,1.1533c-2.5762.4356-4.09,1.503-4.6269,3.2637A1,1,0,0,1,22,56.958a.9834.9834,0,0,1-.292-.0439,1,1,0,0,1-.6641-1.2481c.7686-2.52,2.8565-4.0859,6.2051-4.6523A1.0025,1.0025,0,0,1,28.4023,51.833Zm7.8145-5.543c-3.3145-.7382-5.8379-.0752-7.501,1.9707a1,1,0,1,0,1.5508,1.2618c1.1621-1.4287,2.9678-1.8477,5.5166-1.2793a1,1,0,0,0,.4336-1.9532ZM24.6152,47.4756a1.0028,1.0028,0,0,0-1.1572-.8135c-3.3457.585-5.4248,2.1621-6.18,4.6875a1,1,0,1,0,1.916.5723c.5274-1.7637,2.0342-2.84,4.6075-3.2891A1.001,1.001,0,0,0,24.6152,47.4756ZM61.9922,61.123A1,1,0,0,1,61,62H3a1,1,0,0,1-1-1c0-6.7539,4.1816-11.3936,10.5039-11.81C12.9668,45.6152,15.916,42,20,42h2.1289A5.6161,5.6161,0,0,1,27,38.0757v-2.34a15.0293,15.0293,0,0,1-3.8721.5485A8.009,8.009,0,0,1,17.293,34.125c-3.6475-3.647-9.2383-3.707-9.295-3.707a1,1,0,0,1-.705-1.7071c.2187-.2187,5.4433-5.3432,12.8652-4.1684,3.1333.4981,5.39,1.5859,6.8418,3.3156V21.9446a9.5192,9.5192,0,0,1-3.69.779,8.2828,8.2828,0,0,1-2.6367-.4277,11.2089,11.2089,0,0,1-6.5918-5.6187,1.0007,1.0007,0,0,1,.3632-1.2294A10.3544,10.3544,0,0,1,22.2422,14.31,11.9785,11.9785,0,0,1,27,16.5355v-4.991A4.5214,4.5214,0,0,1,25.0068,7.91,9.0128,9.0128,0,0,1,27.27,2.3174.98.98,0,0,1,28.01,2a.9989.9989,0,0,1,.7334.3311A9.3938,9.3938,0,0,1,31,8a4.626,4.626,0,0,1-2,3.5214v1.9A9.2249,9.2249,0,0,1,34.0088,11.17a8.8474,8.8474,0,0,1,8.8047,3.01,1,1,0,0,1-.77,1.5791,9.9526,9.9526,0,0,0-5.7813,2.8623,6.6893,6.6893,0,0,1-4.7842,1.7319A11.7329,11.7329,0,0,1,29,20.0731v6.4188a11.2,11.2,0,0,1,5.7617-3.0744,18.49,18.49,0,0,1,11.6807,1.0747,1,1,0,0,1,.415,1.4111,18.8351,18.8351,0,0,1-9.541,7.4336,12.7157,12.7157,0,0,1-4.043.666A12.41,12.41,0,0,1,29,33.2448v4.8233a5.7564,5.7564,0,0,1,4.6621,3.3137,6.2513,6.2513,0,0,1,7.55.6926l2.2069-8.8469A3.0094,3.0094,0,0,1,47.0645,31.04l2.9027.7259,1.2546-5.0277a2.97,2.97,0,0,1-1.254-3.2162l2.18-8.732a5,5,0,1,1,9.7031,2.4219l-2.18,8.7319a2.9991,2.9991,0,0,1-2.6188,2.2493l-1.2593,5.03,2.9093.7275a3.0176,3.0176,0,0,1,2.1895,3.626L57.5791,50.8336C61.01,52.8288,62.5737,56.45,61.9922,61.123Zm-32.9658-30.02a10.4576,10.4576,0,0,0,7.6572.3374,17.03,17.03,0,0,0,7.7607-5.5918,16.7706,16.7706,0,0,0-9.206-.4882C31.4189,26.2954,29.2842,28.2744,29.0264,31.1025ZM29.04,18.0278c1.3067.333,4.1426.7993,5.8272-.84a12.5324,12.5324,0,0,1,5.03-3.0161,7.3574,7.3574,0,0,0-5.545-1.0313C30.2139,13.8643,29.2363,15.8545,29.04,18.0278Zm21.0957,22.81a.9978.9978,0,0,0,.7432.415A1.08,1.08,0,0,0,51.94,40.38L55.0678,27.887,53.1184,27.4,49.97,40.0127A1.0053,1.0053,0,0,0,50.1357,40.8379Zm1.8858-16.0742a.9939.9939,0,0,0,.6152.4551l3.8809.9687A1.003,1.003,0,0,0,57.73,25.46l2.18-8.732a2.9995,2.9995,0,1,0-5.82-1.4531l-2.18,8.7319A.99.99,0,0,0,52.0215,24.7637ZM43.1605,42.53H43.81a7.8314,7.8314,0,0,1,7.6836,6.6533,15.0271,15.0271,0,0,1,4.2367.8042l3.22-12.89a1.01,1.01,0,0,0-.7354-1.2081l-2.9075-.7272L53.88,40.8633a3.1054,3.1054,0,0,1-2.9385,2.3926c-.0742,0-.1475-.003-.2226-.0088a3.0108,3.0108,0,0,1-2.69-3.7159l1.4536-5.8248L46.5781,32.98a1.0024,1.0024,0,0,0-1.2187.7348ZM27.0068,7.91a2.4681,2.4681,0,0,0,.9746,1.871A2.5217,2.5217,0,0,0,29,8a6.5935,6.5935,0,0,0-1.0078-3.2935A6.35,6.35,0,0,0,27.0068,7.91Zm-.083,11.8559c-.3984-1.4849-2.3066-2.8013-5.166-3.5161a8.5107,8.5107,0,0,0-5.376.4438,9.4722,9.4722,0,0,0,4.9239,3.7046A7.1815,7.1815,0,0,0,26.9238,19.7661Zm.06,13.8941c-.2022-4.2881-2.3154-6.3755-7.14-7.1421a13.31,13.31,0,0,0-9.27,2.1728,15.4345,15.4345,0,0,1,8.1328,4.02C21.1416,35.1455,25.375,34.1572,26.9834,33.66ZM55.9863,52.251A12.6643,12.6643,0,0,0,50.56,51.16a.9994.9994,0,0,1-1-1,5.7668,5.7668,0,0,0-5.75-5.63H41.22a1,1,0,0,1-.7822-.377c-.6416-.8047-3.0293-3.207-6.8379-.3535A1,1,0,0,1,32,43c0-1.4424-1.5293-3-4-3s-4,1.5576-4,3a1,1,0,0,1-1,1H20c-3.2764,0-5.56,3.2461-5.56,6.16a.9994.9994,0,0,1-1,1c-5.4082,0-9.0117,3.4355-9.4043,8.84H60.0908C60.3271,56.2793,58.9492,53.6748,55.9863,52.251Z"/></g></g></svg>
