<svg id="Pruning_Shears" enable-background="new 0 0 64 64" viewBox="0 0 64 64" xmlns="http://www.w3.org/2000/svg"><g><g><path d="m60.47549 20.98596-35.2141 9.68853c2.97856 5.7643 12.32979 8.2589 22.06794 5.57962 8.06043-2.21768 14.07986-7.34562 15.69384-12.71953.46238-1.53951-.99783-2.97504-2.54768-2.54862z" fill="#9b9ba7"/><path d="m25.26913 30.67361c2.96683 5.7578 12.33254 8.25942 22.05021 5.58171.27661-.07542.55315-.15077.82976-.25137-1.15662-.47772-2.25026-1.1943-3.20569-2.14974-2.13715-2.13715-3.10526-5.01598-2.8789-7.80679z" opacity=".15"/><path d="m39.65935 38.20013c-6.92048.00174-12.85393-2.59909-15.18824-7.11754-.1224-.23786-.13195-.51912-.02431-.7648.10765-.24567.32033-.42884.57815-.50002l35.21526-9.68884c1.03998-.2856 2.16156.01649 2.92028.79431.75525.77174 1.02088 1.84297.71358 2.86646-1.75703 5.85098-8.15839 11.07867-16.30809 13.32183-2.68241.73789-5.36136 1.0886-7.90663 1.0886zm-13.03015-6.98038c3.3335 4.74763 11.83912 6.54633 20.46454 4.17642 7.57329-2.08257 13.49198-6.83974 15.07886-12.11778.17015-.5686-.14063-.96706-.283-1.11203-.31425-.3212-.75872-.43926-1.17714-.3238zm33.84714-10.234h.01736z" fill="#101016"/></g><g><path d="m15.617 20.182h5.617v30.573h-5.617z" fill="#9b9ba7" transform="matrix(-.265 -.964 .964 -.265 -10.885 62.642)"/><path d="m4.43107 43.12051c-.15279 0-.30383-.03993-.43926-.11632-.20487-.11633-.35505-.30904-.41756-.53649l-1.48965-5.41693c-.13021-.47398.14758-.96359.62069-1.0938l29.47713-8.1089c.4679-.13282.96272.14671 1.09293.62069l1.49139 5.4152c.0625.22744.03125.47051-.08508.67538s-.30904.35592-.53648.41842l-29.478 8.11151c-.07812.02082-.15711.03124-.23611.03124zm-.39672-5.68431 1.01828 3.70157 27.76351-7.63926-1.01915-3.7007z" fill="#101016"/></g><g><path d="m1.04914 40.24886c.64269 2.33595 3.05735 3.7086 5.3933 3.06591l13.85531-3.81204c1.24685-.34305 1.97952-1.63192 1.63647-2.87877l-1.08511-3.94396c-.34305-1.24685-1.63191-1.97952-2.87876-1.63648l-13.85531 3.81205c-2.33594.64269-3.70859 3.05735-3.0659 5.39329z" fill="#f7524b"/><path d="m14.73041 41.0238-8.2841 2.29329c-2.34657.63994-4.74641-.72892-5.40414-3.07548-.63994-2.32877.72881-4.74641 3.07537-5.38635l8.55069-2.34657c.01779 3.05769.7467 5.95523 2.06218 8.51511z" opacity=".15"/><path d="m5.28094 44.36189c-2.31522 0-4.44466-1.53827-5.08879-3.87693-.37415-1.35944-.19619-2.78139.50002-4.00714.69621-1.22402 1.82821-2.10427 3.18679-2.47929l13.85484-3.81182c1.71883-.47311 3.4993.54082 3.97242 2.25706l1.08512 3.94377c.22918.83164.12066 1.70321-.30644 2.45325-.42624.75177-1.11985 1.28999-1.95148 1.51917l-13.85484 3.81268c-.46617.12675-.93581.18925-1.39764.18925zm-3.37517-4.34917c.51305 1.85947 2.44196 2.96021 4.30056 2.44456l13.85571-3.81269c.37415-.10244.6858-.34377.87765-.68233.19185-.33682.24046-.7292.13803-1.10248l-1.08512-3.94377c-.21268-.77348-1.01741-1.22141-1.78741-1.01567l-13.85399 3.81356c-.90109.24654-1.65112.83164-2.11295 1.64244-.46182.81254-.57989 1.75703-.33248 2.65638z" fill="#101016"/></g></g><g><g><path d="m43.01443 3.5249-9.68853 35.2141c-5.7643-2.97856-8.2589-12.32979-5.57962-22.06794 2.21768-8.06043 7.34562-14.07986 12.71953-15.69385 1.53951-.46237 2.97504.99783 2.54862 2.54769z" fill="#b1b1bc"/><path d="m33.32677 38.73125c-5.7578-2.96683-8.25942-12.33254-5.5817-22.05021.07542-.27661.15077-.55314.25137-.82975.47772 1.15662 1.1943 2.25025 2.14974 3.20569 2.13715 2.13715 5.01598 3.10525 7.80679 2.8789z" opacity=".15"/><path d="m33.32571 39.62728c-.14063 0-.2804-.03299-.408-.09896-6.18086-3.19287-8.77213-13.12043-6.02807-23.09314 2.24143-8.1497 7.46911-14.55193 13.3201-16.30982 1.02262-.30817 2.09559-.03993 2.86819.71444.77608.75959 1.07991 1.87856.79344 2.92115l-9.68797 35.21352c-.07205.25869-.25522.47051-.50089.57815-.11373.05035-.23527.07466-.3568.07466zm7.72434-37.84907c-.10244 0-.21181.01476-.32988.05035-5.2763 1.58515-10.03348 7.50471-12.11691 15.07886-2.37338 8.62455-.57034 17.13104 4.17729 20.4628l9.37545-34.08152c.11806-.42537-.00347-.86549-.3212-1.17801-.11632-.11198-.39064-.33248-.78475-.33248z" fill="#101016"/></g><g><path d="m25.724 30.289h5.617v30.573h-5.617z" fill="#b1b1bc" transform="matrix(.964 .265 -.265 .964 13.112 -5.936)"/><path d="m27.18565 61.94781c-.07813 0-.158-.01041-.23699-.03125l-5.41519-1.48965c-.22657-.0625-.42016-.21355-.53649-.41843-.11633-.20487-.14671-.44794-.08421-.67538l8.10977-29.478c.0625-.22657.21268-.42016.41755-.53648.20574-.11806.44447-.15018.67538-.08421l5.41519 1.49052c.47225.13021.75177.61895.62156 1.09294l-8.11062 29.47714c-.10851.39412-.46617.6528-.85595.6528zm-4.32312-3.00014 3.7007 1.01915 7.63926-27.76351-3.70157-1.01915z" fill="#101016"/></g><g><path d="m23.75153 62.95124c-2.33595-.64269-3.7086-3.05735-3.06591-5.39329l3.81204-13.85531c.34305-1.24685 1.63192-1.97952 2.87877-1.63647l3.94396 1.08511c1.24685.34305 1.97952 1.63192 1.63647 2.87877l-3.81204 13.8553c-.64269 2.33594-3.05735 3.70859-5.39329 3.06589z" fill="#f7524b"/><path d="m31.49403 51.3345-2.34657 8.55069c-.63994 2.32877-3.05758 3.71532-5.40414 3.05758-2.32877-.63994-3.69763-3.05758-3.05769-5.38635l2.2755-8.2841c2.55988 1.29768 5.45752 2.04438 8.5329 2.06218z" opacity=".15"/><path d="m24.92339 64c-.46964 0-.94275-.06424-1.40805-.19098-1.35857-.37502-2.49057-1.25527-3.18679-2.47929-.69621-1.22575-.87417-2.6477-.50002-4.00714l3.81269-13.85658c.22831-.83164.7674-1.52438 1.51744-1.95148.75004-.42537 1.62074-.53475 2.45411-.30557l3.94377 1.08512c.83077.22918 1.52438.7674 1.95061 1.51917.4271.75003.53562 1.6216.30644 2.45324l-3.81182 13.85484c-.37328 1.35944-1.25353 2.49144-2.47929 3.18766-.8056.45662-1.69627.69101-2.59909.69101zm1.82908-21.12951c-.24828 0-.49395.06424-.71531.19098-.33682.19098-.57902.50176-.68233.87678l-3.81269 13.85658c-.24741.89935-.12935 1.84384.33248 2.65638.46183.81081 1.21186 1.3959 2.11295 1.64244.89935.24828 1.84471.13021 2.65638-.33162.81254-.46183 1.3959-1.21186 1.64418-2.11295l3.81182-13.85484c.10244-.37328.05382-.76566-.13803-1.10249-.19185-.33856-.5035-.57989-.87678-.68232l-3.94464-1.08512c-.12847-.03645-.25868-.05382-.38803-.05382z" fill="#101016"/></g></g><g><circle cx="31.559" cy="32.441" fill="#424249" r="5.266"/><circle cx="31.559" cy="32.441" fill="#b1b1bc" r="1.98"/><g fill="#101016"><path d="m31.55913 38.59251c-1.5756 0-3.15206-.59899-4.35177-1.7987-1.16238-1.16325-1.80304-2.70847-1.80304-4.35265s.64066-3.19026 1.80304-4.35177c2.32563-2.32477 6.38052-2.32477 8.70355 0 1.16325 1.16152 1.80391 2.7076 1.80391 4.35177 0 1.64418-.64066 3.18939-1.80391 4.35265-1.19972 1.19971-2.77531 1.7987-4.35178 1.7987zm0-10.52829c-1.16846 0-2.26834.45575-3.09477 1.28218s-1.28218 1.92544-1.28218 3.09477.45575 2.26921 1.28218 3.09564c1.70668 1.70494 4.48286 1.70494 6.18954 0 .82643-.82643 1.28305-1.92631 1.28305-3.09564s-.45662-2.26834-1.28305-3.09477-1.92544-1.28218-3.09477-1.28218z"/><path d="m31.55913 35.3111c-.76653 0-1.48705-.30036-2.02874-.84206-1.11811-1.11811-1.11811-2.93764 0-4.05662 1.11985-1.11811 2.94025-1.11637 4.05749 0 .54169.54169.84032 1.26221.84032 2.02874 0 .76566-.29863 1.48618-.84032 2.02788-.54257.54343-1.26222.84206-2.02875.84206zm0-3.96113c-.27953 0-.55905.10678-.77174.31946-.4245.42537-.42537 1.11724 0 1.54261.41321.41321 1.13026.41321 1.54348 0 .2066-.20574.31946-.48006.31946-.77087 0-.29168-.11372-.56513-.31946-.77174-.21268-.21269-.49221-.31946-.77174-.31946z"/></g></g></svg>