<svg id="Layer_1" enable-background="new 0 0 468 468" viewBox="0 0 468 468" xmlns="http://www.w3.org/2000/svg"><g><g><g><g><path d="m278.258 169.623c-1.581 0-3.158-.62-4.336-1.853-1.119-1.169-2.316-2.338-3.56-3.474-2.446-2.236-2.617-6.032-.382-8.478 2.235-2.448 6.03-2.618 8.477-.383 1.441 1.317 2.833 2.676 4.136 4.039 3.565 3.727.858 10.149-4.335 10.149zm-18.182-14.494c-1.079 0-2.171-.291-3.156-.902-1.424-.883-2.906-1.756-4.404-2.595-2.892-1.619-3.923-5.277-2.304-8.169s5.276-3.924 8.167-2.304c1.653.926 3.29 1.89 4.865 2.867 5.007 3.106 2.74 11.103-3.168 11.103zm-20.808-10.438c-.75 0-1.512-.142-2.249-.441-1.575-.637-3.204-1.267-4.842-1.871-3.109-1.146-4.701-4.596-3.556-7.706s4.596-4.7 7.704-3.556c1.756.647 3.504 1.323 5.196 2.007 5.947 2.408 4.178 11.567-2.253 11.567zm-22.117-7.32c-2.171 0-4.508-.978-6.612-1.479-3.224-.768-5.215-4.004-4.447-7.228.768-3.223 4.003-5.219 7.227-4.448 1.802.429 3.608.884 5.37 1.352 3.203.851 5.109 4.138 4.258 7.34-.715 2.687-3.142 4.463-5.796 4.463z" fill="#333"/></g><g><path d="m290.255 186.671c-2.227 0-4.366-1.245-5.403-3.384-.396-.817-.813-1.628-1.242-2.412-1.588-2.909-.519-6.555 2.389-8.144 2.908-1.59 6.553-.519 8.142 2.389.521.953 1.028 1.939 1.508 2.929 1.897 3.913-1.03 8.622-5.394 8.622z" fill="#333"/></g></g><g><g><path d="m284.964 143.163c-1.071 0-2.155-.287-3.134-.889-1.534-.942-3.111-1.862-4.687-2.733-2.9-1.604-3.952-5.255-2.348-8.155 1.603-2.902 5.254-3.954 8.154-2.349 1.735.959 3.472 1.972 5.161 3.01 5.031 3.091 2.776 11.116-3.146 11.116zm-22.147-10.854c-.715 0-1.442-.129-2.15-.401-1.678-.645-3.411-1.274-5.152-1.871-3.135-1.073-4.806-4.486-3.732-7.622 1.073-3.135 4.485-4.81 7.621-3.732 1.879.644 3.752 1.324 5.567 2.021 6.047 2.322 4.324 11.605-2.154 11.605zm-23.644-7.074c-2.204 0-4.558-.852-6.72-1.267-3.254-.625-5.386-3.77-4.761-7.025.625-3.256 3.768-5.389 7.024-4.763 1.94.373 3.878.775 5.76 1.196 3.234.723 5.27 3.931 4.547 7.166-.624 2.793-3.102 4.693-5.85 4.693zm-24.389-3.859c-2.023 0-4.089-.349-6.109-.49-3.306-.231-5.798-3.099-5.566-6.406.231-3.307 3.099-5.803 6.404-5.568 1.954.137 3.921.302 5.847.489 3.298.322 5.711 3.257 5.389 6.556-.304 3.101-2.915 5.419-5.965 5.419z" fill="#333"/></g><g><path d="m302.471 156.432c-1.464 0-2.932-.533-4.088-1.61-.693-.646-1.393-1.281-2.099-1.902-2.488-2.189-2.731-5.982-.543-8.471 2.188-2.487 5.979-2.731 8.468-.543.792.697 1.577 1.409 2.354 2.132 3.891 3.628 1.261 10.394-4.092 10.394z" fill="#333"/></g></g><g><g><path d="m252.612 185.428c-1.92 0-3.807-.92-4.967-2.628-1.001-1.473-2.088-2.948-3.23-4.385-2.063-2.593-1.632-6.369.961-8.432 2.594-2.063 6.368-1.632 8.431.962 1.328 1.669 2.593 3.387 3.762 5.108 2.649 3.895-.223 9.375-4.957 9.375zm-17.337-18.682c-1.342 0-2.691-.447-3.809-1.367-1.412-1.162-2.895-2.318-4.407-3.435-2.665-1.97-3.229-5.728-1.26-8.393 1.969-2.667 5.726-3.229 8.391-1.261 1.679 1.241 3.328 2.527 4.9 3.82 4.248 3.496 1.702 10.636-3.815 10.636zm-21.321-14.051c-.947 0-1.908-.225-2.804-.699-1.645-.872-3.347-1.732-5.059-2.554-2.987-1.436-4.244-5.022-2.809-8.01s5.021-4.244 8.007-2.809c1.853.892 3.697 1.823 5.48 2.767 5.385 2.855 3.299 11.305-2.815 11.305z" fill="#333"/></g><g><path d="m262.18 205.889c-2.628 0-5.041-1.741-5.778-4.397-.243-.875-.508-1.753-.789-2.609-1.032-3.15.685-6.54 3.833-7.572 3.148-1.031 6.538.686 7.57 3.835.337 1.03.656 2.083.948 3.134 1.046 3.764-1.874 7.609-5.784 7.609z" fill="#333"/></g></g><g><g><g><g><path d="m74.506 161.076-62.026-54.048 64.948-93.666 81.413 70.942z" fill="#25c5df"/></g><g><path d="m25.595 118.128 64.806-93.462-12.973-11.304-64.948 93.666z" fill="#2babc0"/></g></g><g><g><path d="m158.995 84.127c-7.632 8.714-32.044-.103-54.526-19.693s-34.519-42.535-26.887-51.248 32.044.103 54.526 19.693 34.52 42.535 26.887 51.248z" fill="#d9d9d9"/></g><g><path d="m132.108 32.879c-20.334-17.719-42.244-26.621-51.893-21.714 10.589 2.934 23.984 10.581 36.76 21.714 22.482 19.59 34.519 42.535 26.887 51.249-.729.833-1.614 1.503-2.633 2.021 8.045 2.229 14.471 1.741 17.766-2.021 7.633-8.715-4.405-31.659-26.887-51.249z" fill="#fff"/></g></g></g><path d="m174.275 135.657-2.528-16.47-45.736-4.997-38.061 34.647z" fill="#d98239"/><g><path d="m197.302 123.287c1.461 10.844-4.047 20.532-12.301 21.638s-16.13-6.788-17.59-17.632c-1.461-10.844 4.047-20.532 12.301-21.638s16.13 6.788 17.59 17.632z" fill="#d9d9d9"/><ellipse cx="189.971" cy="129.617" fill="#fff" rx="6.365" ry="12.384"/></g></g><path d="m203.249 122.486c-1.9-14.106-12.831-24.331-24.333-22.779-7.07.948-12.621 6.186-15.394 12.545l-23.631-2.582s23.59-21.555 23.618-21.586c14.825-16.502-15.344-49.173-27.459-59.73-22.472-19.581-51.321-32.434-62.981-19.123-.042.048-.085.101-.127.151-.047.052-5.337 7.616-5.337 7.616-5.774-14.762-23.9-21.442-37.833-13.825-11.509 6.294-16.841 22.723-11.644 35.875 4.807 12.165 8.734 24.852 8.125 37.589l-18.703 26.972c-1.743 2.513-1.317 5.936.989 7.945l62.025 54.047c2.27 1.976 5.751 1.941 7.98-.087l12.103-11.017 76.968-11.751c4.362 5.414 11.097 9.069 18.184 8.128 13.204-1.772 19.038-16.595 17.45-28.388zm-116.633-106.684c7.686 0 23.378 5.766 41.55 21.601 5.495 4.788 33.122 34.844 26.315 42.769-3.315 3.86-22.652.145-46.071-20.264-5.495-4.788-33.911-35.171-26.315-42.768.806-.806 2.301-1.338 4.521-1.338zm-57.328 18.835c-2.979-7.54-.005-17.516 6.241-20.932 7.877-4.307 18.052-.34 21.063 8.07l2.622 7.325-22.037 31.781c-1.812-10.798-5.432-20.028-7.889-26.244zm45.13 118.403-53.946-47.007 51.369-74.083c4.509 11.497 14.749 24.864 28.687 37.01 12.905 11.245 27.91 20.266 40.558 23.392zm32.255-13.133 21.375-19.458 33.15 3.622c.001 2.496.303 4.954.906 7.373zm82.906-5.116c-.796 1.401-2.554 3.807-5.374 4.185-4.874.658-9.848-5.064-10.848-12.485-.669-4.966.97-14.94 7.918-14.94 4.623 0 9.133 5.503 10.081 12.536.524 3.894-.124 7.795-1.777 10.704z" fill="#333"/></g><g><g><g><g><g><path d="m312.31 367.516c7.682 13.559 6.631 36.211 15.399 53.143 16.795 32.432 45.54 14.659 45.54 14.659 5.598-33.773-17.439-57.73-60.939-67.802z" fill="#6db33f"/></g><g><path d="m339.815 415.614c-6.911-13.345-7.725-30.239-11.519-43.438-4.97-1.783-10.299-3.343-15.987-4.66 7.682 13.559 6.631 36.211 15.399 53.143 16.795 32.432 45.54 14.659 45.54 14.659.04-.239.063-.474.1-.712-9.853 1.763-23.728-.058-33.533-18.992z" fill="#649c40"/></g></g></g><g><g><g><path d="m452.393 358.957c-11.477 10.548-17.439 32.428-30.987 45.853-25.951 25.714-47.845-.018-47.845-.018 5.051-33.86 34.338-49.593 78.832-45.835z" fill="#6db33f"/></g><g><path d="m433.28 358.592c-6.612 10.944-12.397 24.631-21.962 34.109-14.743 14.609-28.175 12.611-37.029 8.162-.276 1.285-.528 2.587-.728 3.928 0 0 21.895 25.732 47.845.019 13.548-13.425 19.51-35.305 30.987-45.853-6.732-.569-13.109-.683-19.113-.365z" fill="#649c40"/></g></g></g><g><g><g><g><path d="m338.233 210.349c22.615 9.595 38.9 39.412 38.9 39.412s-32.772 9.005-55.387-.59-38.9-39.412-38.9-39.412 32.772-9.005 55.387.59z" fill="#ffc107"/></g><g><path d="m333.152 239.182c-15.626-6.627-28.218-22.921-34.504-32.35-9.238 1.139-15.773 2.935-15.773 2.935s16.262 29.819 38.864 39.404c22.601 9.585 55.367.559 55.367.559s-1.553-2.845-4.36-7.054c-11.459 1.412-27.08 1.813-39.594-3.494z" fill="#d9a813"/></g></g><g><g><path d="m374.527 196.331c9.205 22.763-.376 55.35-.376 55.35s-29.55-16.791-38.755-39.554.376-55.35.376-55.35 29.55 16.791 38.755 39.554z" fill="#ffc107"/></g><g><path d="m350.528 213.136c-6.364-15.738-3.749-36.165-1.528-47.278-7.337-5.728-13.228-9.081-13.228-9.081s-9.582 32.587-.376 55.35c9.205 22.763 38.755 39.554 38.755 39.554s.913-3.11 1.904-8.072c-9.101-7.105-20.43-17.87-25.527-30.473z" fill="#d9a813"/></g></g><g><g><path d="m409.401 213.789c-9.597 22.597-39.432 38.864-39.432 38.864s-9.018-32.751.579-55.348 39.432-38.864 39.432-38.864 9.017 32.751-.579 55.348z" fill="#ffc107"/></g><g><path d="m380.571 208.729c6.626-15.629 22.916-28.224 32.343-34.512-1.139-9.24-2.934-15.777-2.934-15.777s-29.813 16.266-39.396 38.872-.559 55.379-.559 55.379 2.845-1.554 7.053-4.361c-1.413-11.46-1.813-27.084 3.493-39.601z" fill="#d9a813"/></g></g><g><g><path d="m422.426 250.06c-22.777 9.194-55.389-.388-55.389-.388s16.797-29.526 39.574-38.72 55.389.388 55.389.388-16.797 29.526-39.574 38.72z" fill="#ffc107"/></g><g><path d="m405.653 226.1c15.734-6.366 36.157-3.75 47.268-1.529 5.727-7.339 9.079-13.231 9.079-13.231s-32.58-9.584-55.338-.376c-22.758 9.207-39.546 38.764-39.546 38.764s3.11.913 8.07 1.905c7.104-9.104 17.867-20.436 30.467-25.533z" fill="#d9a813"/></g></g><g><g><path d="m405.973 284.905c-22.615-9.595-38.9-39.412-38.9-39.412s32.772-9.005 55.387.59 38.9 39.412 38.9 39.412-32.772 9.005-55.387-.59z" fill="#ffc107"/></g><g><path d="m411.083 256.08c15.626 6.627 28.218 22.921 34.504 32.35 9.238-1.139 15.773-2.935 15.773-2.935s-16.262-29.819-38.864-39.404c-22.601-9.585-55.367-.559-55.367-.559s1.553 2.845 4.36 7.054c11.459-1.412 27.08-1.813 39.594 3.494z" fill="#d9a813"/></g></g><g><g><path d="m369.68 297.914c-9.205-22.763.376-55.35.376-55.35s29.55 16.791 38.755 39.554-.376 55.35-.376 55.35-29.55-16.791-38.755-39.554z" fill="#ffc107"/></g><g><path d="m393.678 281.109c6.364 15.738 3.749 36.165 1.528 47.278 7.337 5.728 13.228 9.081 13.228 9.081s9.582-32.587.376-55.35c-9.205-22.763-38.755-39.554-38.755-39.554s-.913 3.11-1.904 8.072c9.102 7.105 20.431 17.87 25.527 30.473z" fill="#d9a813"/></g></g><g><g><path d="m334.806 281.465c9.597-22.597 39.432-38.864 39.432-38.864s9.018 32.751-.579 55.348-39.432 38.864-39.432 38.864-9.018-32.751.579-55.348z" fill="#ffc107"/></g><g><path d="m363.636 286.525c-6.626 15.629-22.916 28.224-32.343 34.512 1.139 9.24 2.934 15.777 2.934 15.777s29.813-16.266 39.396-38.872.559-55.379.559-55.379-2.845 1.554-7.053 4.361c1.413 11.46 1.813 27.084-3.493 39.601z" fill="#d9a813"/></g></g><g><g><path d="m321.746 249.171c-1.414-.6-2.804-1.279-4.166-2.025-20.612 10.82-35.373 36.768-35.373 36.768s32.612 9.582 55.389.388c16.979-6.854 30.633-25.003 36.485-33.8-8.644 1.939-33.873 6.502-52.335-1.331z" fill="#ffc107"/></g><g><path d="m338.553 269.154c-15.734 6.366-36.157 3.75-47.268 1.529-5.727 7.339-9.079 13.231-9.079 13.231s32.58 9.584 55.338.376c22.758-9.207 39.546-38.764 39.546-38.764s-3.11-.913-8.07-1.905c-7.103 9.104-17.866 20.436-30.467 25.533z" fill="#d9a813"/></g></g></g><g><g><ellipse cx="372.103" cy="247.627" fill="#fff" rx="32.507" ry="32.467"/></g></g></g></g><g><g><g><g><g><path d="m178.436 259.91c17.25 7.319 29.672 30.063 29.672 30.063s-24.998 6.868-42.248-.45-29.672-30.063-29.672-30.063 24.998-6.869 42.248.45z" fill="#ffc107"/></g><g><path d="m174.393 280.954c-11.443-4.853-20.75-16.5-25.719-23.788-7.285.864-12.485 2.293-12.485 2.293s12.404 22.745 29.644 30.056 42.232.426 42.232.426-1.408-2.577-3.925-6.269c-8.697 1.033-20.366 1.26-29.747-2.718z" fill="#d9a813"/></g></g><g><g><path d="m206.12 249.987c7.022 17.363-.287 42.219-.287 42.219s-22.54-12.808-29.561-30.171.287-42.219.287-42.219 22.539 12.808 29.561 30.171z" fill="#ffc107"/></g><g><path d="m188.377 262.036c-4.661-11.525-3.008-26.343-1.37-35.01-5.762-4.541-10.45-7.209-10.45-7.209s-7.309 24.856-.287 42.219 29.561 30.171 29.561 30.171.826-2.818 1.656-7.209c-6.877-5.421-15.289-13.514-19.11-22.962z" fill="#d9a813"/></g></g><g><g><path d="m232.72 262.534c-7.32 17.236-30.077 29.644-30.077 29.644s-6.879-24.982.441-42.218 30.077-29.644 30.077-29.644 6.879 24.981-.441 42.218z" fill="#ffc107"/></g><g><path d="m211.672 258.529c4.852-11.446 16.497-20.755 23.782-25.725-.864-7.287-2.293-12.488-2.293-12.488s-22.74 12.407-30.05 29.651c-7.31 17.243-.426 42.241-.426 42.241s2.576-1.408 6.268-3.926c-1.031-8.698-1.259-20.37 2.719-29.753z" fill="#d9a813"/></g></g><g><g><path d="m242.656 290.2c-17.374 7.013-42.249-.296-42.249-.296s12.812-22.521 30.186-29.534 42.249.296 42.249.296-12.813 22.521-30.186 29.534z" fill="#ffc107"/></g><g><path d="m230.631 272.488c11.522-4.662 26.337-3.009 35.003-1.37 4.54-5.764 7.207-10.452 7.207-10.452s-24.851-7.31-42.21-.287-30.164 29.568-30.164 29.568 2.817.827 7.207 1.657c5.42-6.881 13.511-15.295 22.957-19.116z" fill="#d9a813"/></g></g><g><g><path d="m230.106 316.779c-17.25-7.319-29.672-30.063-29.672-30.063s24.998-6.868 42.248.45 29.672 30.063 29.672 30.063-24.998 6.869-42.248-.45z" fill="#ffc107"/></g><g><path d="m234.149 295.735c11.443 4.853 20.75 16.5 25.719 23.788 7.285-.864 12.485-2.293 12.485-2.293s-12.404-22.745-29.644-30.056-42.232-.426-42.232-.426 1.408 2.577 3.925 6.269c8.696-1.033 20.366-1.26 29.747 2.718z" fill="#d9a813"/></g></g><g><g><path d="m202.422 326.702c-7.022-17.363.287-42.219.287-42.219s22.54 12.808 29.561 30.171c7.022 17.363-.287 42.219-.287 42.219s-22.539-12.808-29.561-30.171z" fill="#ffc107"/></g><g><path d="m220.164 314.654c4.661 11.525 3.008 26.343 1.37 35.01 5.762 4.541 10.45 7.209 10.45 7.209s7.309-24.856.287-42.219-29.561-30.171-29.561-30.171-.826 2.818-1.656 7.209c6.877 5.421 15.29 13.513 19.11 22.962z" fill="#d9a813"/></g></g><g><g><path d="m175.822 314.155c7.32-17.236 30.077-29.644 30.077-29.644s6.879 24.982-.441 42.218-30.077 29.644-30.077 29.644-6.88-24.981.441-42.218z" fill="#ffc107"/></g><g><path d="m196.87 318.16c-4.852 11.446-16.497 20.755-23.782 25.725.864 7.287 2.293 12.488 2.293 12.488s22.74-12.407 30.05-29.651c7.31-17.243.426-42.241.426-42.241s-2.576 1.408-6.268 3.926c1.031 8.698 1.258 20.37-2.719 29.753z" fill="#d9a813"/></g></g><g><g><path d="m165.86 289.522c-1.079-.458-2.139-.976-3.178-1.545-15.722 8.253-26.982 28.046-26.982 28.046s24.875 7.309 42.249.296c12.951-5.228 23.366-19.072 27.83-25.782-6.593 1.48-25.837 4.96-39.919-1.015z" fill="#ffc107"/></g><g><path d="m177.91 304.202c-11.522 4.662-26.337 3.009-35.003 1.37-4.54 5.764-7.207 10.452-7.207 10.452s24.851 7.31 42.21.287 30.164-29.568 30.164-29.568-2.817-.827-7.207-1.657c-5.42 6.88-13.511 15.294-22.957 19.116z" fill="#d9a813"/></g></g></g><g><g><ellipse cx="204.271" cy="288.345" fill="#fff" rx="24.795" ry="24.765"/></g></g></g><g><g><g><path d="m265.514 377.265c-8.755 8.045-13.302 24.735-23.636 34.975-19.794 19.614-36.495-.014-36.495-.014 3.853-25.828 26.192-37.828 60.131-34.961z" fill="#6db33f"/></g></g><g><path d="m247.91 377.197c-4.787 8.156-9.131 18.026-16.12 24.952-10.009 9.917-19.225 9.8-25.893 7.262-.194.921-.37 1.855-.514 2.814 0 0 16.701 19.628 36.495.014 10.334-10.24 14.882-26.93 23.636-34.975-6.281-.53-12.162-.548-17.604-.067z" fill="#649c40"/></g></g><g><g><g><path d="m158.662 383.793c5.859 10.342 5.058 27.621 11.746 40.536 12.811 24.738 34.737 11.181 34.737 11.181 4.27-25.761-13.302-44.034-46.483-51.717z" fill="#6db33f"/></g></g><g><path d="m180.497 414.239c-4.08-7.878-5.375-17.375-7.093-25.936-4.496-1.766-9.415-3.276-14.742-4.509 5.859 10.342 5.058 27.621 11.746 40.536 12.811 24.738 34.737 11.182 34.737 11.182.382-2.307.582-4.552.619-6.737-7.495 1.25-17.89-.289-25.267-14.536z" fill="#649c40"/></g></g></g><g><g><g><g><g><path d="m42.839 296.389c14.87 6.309 25.578 25.915 25.578 25.915s-21.549 5.921-36.419-.388-25.578-25.915-25.578-25.915 21.549-5.92 36.419.388z" fill="#ffc107"/></g><g><path d="m39.109 314.776c-9.971-4.229-18.058-14.439-22.306-20.706-6.079.749-10.382 1.931-10.382 1.931s10.693 19.607 25.554 25.91c14.861 6.302 36.406.368 36.406.368s-1.165-2.13-3.248-5.204c-7.534.927-17.8 1.189-26.024-2.299z" fill="#d9a813"/></g></g><g><g><path d="m66.704 287.836c6.053 14.967-.247 36.394-.247 36.394s-19.43-11.041-25.483-26.008.247-36.394.247-36.394 19.43 11.04 25.483 26.008z" fill="#ffc107"/></g><g><path d="m51.062 298.222c-4.061-10.042-2.562-22.982-1.135-30.417-4.828-3.77-8.706-5.977-8.706-5.977s-6.3 21.427-.247 36.394 25.483 26.008 25.483 26.008.683-2.33 1.382-5.977c-5.984-4.672-13.427-11.748-16.777-20.031z" fill="#d9a813"/></g></g><g><g><path d="m89.634 298.651c-6.31 14.858-25.928 25.554-25.928 25.554s-5.93-21.535.381-36.393c6.31-14.858 25.928-25.554 25.928-25.554s5.929 21.535-.381 36.393z" fill="#ffc107"/></g><g><path d="m71.244 294.953c4.228-9.973 14.436-18.062 20.701-22.311-.749-6.081-1.931-10.384-1.931-10.384s-19.603 10.695-25.904 25.56c-6.301 14.864-.367 36.414-.367 36.414s2.13-1.165 5.203-3.249c-.927-7.535-1.189-17.804 2.298-26.03z" fill="#d9a813"/></g></g><g><g><path d="m98.199 322.501c-14.977 6.045-36.42-.255-36.42-.255s11.044-19.414 26.021-25.459 36.42.255 36.42.255-11.044 19.413-26.021 25.459z" fill="#ffc107"/></g><g><path d="m87.834 306.885c10.04-4.062 22.977-2.562 30.411-1.135 3.769-4.829 5.976-8.708 5.976-8.708s-21.422-6.301-36.387-.247c-14.964 6.054-26.003 25.488-26.003 25.488s2.33.683 5.976 1.383c4.671-5.986 11.745-13.431 20.027-16.781z" fill="#d9a813"/></g></g><g><g><path d="m87.381 345.413c-14.87-6.309-25.578-25.915-25.578-25.915s21.549-5.921 36.419.388 25.578 25.915 25.578 25.915-21.549 5.921-36.419-.388z" fill="#ffc107"/></g><g><path d="m91.111 327.026c9.971 4.229 18.058 14.439 22.306 20.706 6.079-.749 10.382-1.931 10.382-1.931s-10.693-19.607-25.554-25.91c-14.861-6.302-36.406-.368-36.406-.368s1.165 2.13 3.248 5.204c7.534-.927 17.8-1.188 26.024 2.299z" fill="#d9a813"/></g></g><g><g><path d="m63.516 353.966c-6.053-14.967.247-36.394.247-36.394s19.43 11.041 25.483 26.008-.247 36.394-.247 36.394-19.43-11.04-25.483-26.008z" fill="#ffc107"/></g><g><path d="m79.158 343.58c4.061 10.042 2.562 22.982 1.135 30.417 4.828 3.77 8.706 5.977 8.706 5.977s6.3-21.427.247-36.394-25.483-26.008-25.483-26.008-.682 2.33-1.382 5.977c5.984 4.672 13.427 11.748 16.777 20.031z" fill="#d9a813"/></g></g><g><g><path d="m40.586 343.151c6.31-14.858 25.928-25.554 25.928-25.554s5.93 21.535-.381 36.393-25.928 25.554-25.928 25.554-5.929-21.535.381-36.393z" fill="#ffc107"/></g><g><path d="m58.976 346.849c-4.228 9.973-14.436 18.062-20.701 22.311.749 6.081 1.931 10.384 1.931 10.384s19.603-10.695 25.904-25.56c6.301-14.864.367-36.414.367-36.414s-2.13 1.165-5.203 3.249c.927 7.536 1.189 17.804-2.298 26.03z" fill="#d9a813"/></g></g><g><g><path d="m31.999 321.916c-.93-.395-1.844-.841-2.739-1.332-13.554 7.115-23.26 24.177-23.26 24.177s21.443 6.3 36.42.255c11.164-4.507 20.142-16.441 23.99-22.225-5.683 1.276-22.272 4.276-34.411-.875z" fill="#ffc107"/></g><g><path d="m42.387 334.918c-10.04 4.062-22.977 2.562-30.411 1.135-3.77 4.829-5.976 8.708-5.976 8.708s21.422 6.301 36.387.247c14.964-6.054 26.003-25.488 26.003-25.488s-2.33-.683-5.976-1.383c-4.672 5.985-11.746 13.43-20.027 16.781z" fill="#d9a813"/></g></g></g><g><g><ellipse cx="65.11" cy="320.901" fill="#fff" rx="21.374" ry="21.348"/></g></g></g><g><g><g><path d="m117.903 394.104c-7.547 6.935-11.467 21.322-20.375 30.15-17.063 16.908-31.46-.012-31.46-.012 3.322-22.264 22.579-32.609 51.835-30.138z" fill="#6db33f"/></g></g><g><g><path d="m117.903 394.104c-7.547 6.935-11.467 21.322-20.375 30.15-17.063 16.908-31.46-.012-31.46-.012 3.322-22.264 22.579-32.609 51.835-30.138z" fill="#6db33f"/></g></g><g><path d="m102.716 394.047c-4.276 7.146-8.062 15.986-14.267 22.134-8.509 8.431-16.354 8.449-22.082 6.35-.108.564-.212 1.13-.298 1.71 0 0 14.396 16.92 31.46.012 8.909-8.827 12.828-23.214 20.375-30.15-5.42-.456-10.493-.472-15.188-.056z" fill="#649c40"/></g></g><g><g><g><path d="m25.794 399.732c5.051 8.915 4.36 23.81 10.126 34.943 11.043 21.325 29.944 9.639 29.944 9.639 3.68-22.207-11.467-37.959-40.07-44.582z" fill="#6db33f"/></g></g><g><g><path d="m25.794 399.732c5.051 8.915 4.36 23.81 10.126 34.943 11.043 21.325 29.944 9.639 29.944 9.639 3.68-22.207-11.467-37.959-40.07-44.582z" fill="#6db33f"/></g></g><g><path d="m46.008 429.631c-4.066-7.852-4.926-17.567-6.849-25.744-4.053-1.637-8.51-3.03-13.365-4.154 5.051 8.915 4.36 23.81 10.126 34.943 11.043 21.325 29.944 9.638 29.944 9.638.108-.652.197-1.297.272-1.938-6.274.569-14.296-1.483-20.128-12.745z" fill="#649c40"/></g></g></g><path d="m437.693 248.172c17.407-12.81 28.994-32.933 29.549-33.909 1.878-3.3.101-7.663-3.523-8.728-1.147-.336-23.422-6.751-44.837-3.882 3.243-21.361-2.799-43.78-3.096-44.861-1.004-3.642-5.327-5.492-8.655-3.676-1.05.572-21.325 11.785-34.434 28.951-12.821-17.408-32.973-28.999-33.949-29.554-3.298-1.873-7.653-.098-8.719 3.525-.337 1.146-6.751 23.404-3.877 44.808-21.375-3.249-43.806 2.782-44.887 3.079-3.646 1.003-5.496 5.334-3.676 8.667.572 1.049 11.788 21.31 28.956 34.415-17.405 12.81-28.991 32.931-29.546 33.907-1.878 3.301-.101 7.664 3.524 8.728 14.257 4.186 30.106 5.838 44.835 3.865-3.247 21.366 2.801 43.797 3.099 44.878 1.004 3.644 5.321 5.495 8.655 3.676.96-.524 18.017-9.957 30.953-24.704v73.905c-11.039-13.628-29.452-23.837-54.392-29.611-4.975-1.152-9.091 4.361-6.572 8.808 3.27 5.772 4.841 14.078 6.505 22.871 1.921 10.155 3.907 20.657 8.788 30.082 9.033 17.445 26.183 26.984 45.67 20.685v11.898h-156.322c.001-.045.007-.09.007-.136v-31.663c12.302 5.78 25.084 1.481 34.352-7.702 10.069-9.977 14.022-25.9 23.476-34.825 3.722-3.513 1.546-9.971-3.554-10.402-24.208-2.053-42.826 3.131-54.274 14.557v-36.662c8.36 7.784 16.724 12.598 17.273 12.909 3.316 1.884 7.644.131 8.718-3.525.251-.856 4.857-16.861 3.209-32.919 10.845 1.305 22.455.259 32.999-2.637 3.655-1.005 5.513-5.304 3.676-8.667-.428-.783-8.492-15.36-21.017-25.551 12.703-9.971 21.04-24.448 21.454-25.175 1.894-3.329.113-7.66-3.523-8.728-.856-.252-16.876-4.858-32.944-3.211 1.927-16.034-2.425-32.173-2.647-32.981-1.006-3.65-5.297-5.51-8.655-3.676-.784.427-15.376 8.486-25.572 21.008-9.981-12.702-24.476-21.043-25.205-21.456-3.326-1.889-7.65-.11-8.718 3.525-.252.856-4.857 16.86-3.208 32.918-16.043-1.931-32.192 2.415-33 2.638-3.654 1.005-5.513 5.304-3.676 8.667.427.783 8.492 15.362 21.017 25.552-12.702 9.972-21.041 24.447-21.455 25.175-1.893 3.329-.112 7.66 3.524 8.728 10.485 3.086 22.083 4.331 32.944 3.21-1.927 16.034 2.425 32.174 2.647 32.982 1.012 3.671 5.309 5.501 8.655 3.676.684-.373 11.888-6.565 21.506-16.459v52.908c-8.772-9.168-22.184-16.077-39.744-20.143-4.985-1.155-9.094 4.355-6.572 8.808 6.891 12.164 5.122 27.757 11.639 40.344 6.832 13.195 19.721 20.975 34.677 17.015v11.761c0 .046.006.09.007.136h-127.392s.041-18.924 0-19.947c11.305 2.112 20.356 1.393 29.367-7.538 8.674-8.594 11.36-21.861 20.215-29.999 3.768-3.464 1.546-9.971-3.554-10.402-15.808-1.338-33.717.486-46.028 11.533v-24.442c6.796 6.037 13.206 9.723 13.653 9.977 3.295 1.873 7.648.114 8.718-3.526.214-.728 4.035-14.009 2.886-27.681 9.149.942 18.87.034 27.751-2.404 3.646-1.003 5.496-5.334 3.676-8.666-.363-.666-7.054-12.756-17.536-21.612 10.635-8.672 17.554-20.691 17.906-21.31 1.877-3.301.101-7.663-3.524-8.728-.728-.215-14.024-4.038-27.706-2.889 1.386-13.653-2.221-27.049-2.41-27.735-1.004-3.643-5.327-5.491-8.655-3.676-.666.363-12.77 7.052-21.63 17.531-8.68-10.637-20.716-17.558-21.336-17.91-3.298-1.873-7.653-.098-8.719 3.525-.214.728-4.036 14.011-2.886 27.684-13.66-1.389-27.064 2.213-27.751 2.402-3.646 1.003-5.496 5.334-3.676 8.667.363.665 7.059 12.752 17.542 21.606-10.639 8.672-17.56 20.696-17.913 21.315-1.877 3.301-.101 7.663 3.524 8.728 8.838 2.604 18.534 3.653 27.701 2.884-1.386 13.655 2.225 27.054 2.414 27.74 1.004 3.644 5.321 5.495 8.655 3.676.563-.307 9.281-5.129 17.315-12.932v38.155c-7.665-7.295-18.863-12.82-33.246-16.15-4.975-1.152-9.091 4.36-6.572 8.808 5.946 10.495 4.389 23.877 10.019 34.75 4.205 8.119 9.956 13.238 17.096 15.211 4.141 1.146 8.528 1.112 12.703.163v3.191h-38.367c-3.313 0-5.999 2.688-5.999 6.002 0 3.315 2.686 6.002 5.999 6.002h416.062c3.313 0 5.999-2.688 5.999-6.002 0-3.315-2.686-6.002-5.999-6.002h-57.998v-38.554c15.949 8.942 33.136 3.962 45.589-8.378 7.542-7.473 12.659-16.857 17.608-25.933 4.285-7.858 8.333-15.28 13.22-19.771 3.76-3.457 1.54-9.971-3.554-10.402-33.482-2.83-58.63 5.043-72.863 22.073v-52.053c11.714 11.803 24.654 19.245 25.431 19.686 3.295 1.875 7.648.114 8.718-3.525.337-1.146 6.751-23.404 3.878-44.807 14.677 2.242 30.573.851 44.887-3.08 3.646-1.003 5.496-5.334 3.676-8.667-.571-1.045-11.789-21.305-28.959-34.41zm-184.068 134.712c-5.103 8.407-8.881 18.059-15.968 25.081-7.552 7.483-17.275 9.31-25.793 2.171 4.824-21.505 24.948-26.782 41.761-27.252zm-68.157-94.571c0-10.348 8.433-18.767 18.799-18.767s18.799 8.419 18.799 18.767-8.433 18.767-18.799 18.767-18.799-8.419-18.799-18.767zm42.544 58.725c-6.732-4.912-12.67-10.553-17.247-17.524 1.687-3.835 2.741-7.913 3.353-12.053 3.684-1.247 7.058-3.168 9.971-5.623 6.534 10.368 5.942 23.568 3.923 35.2zm34.59-33.971c-6.571 1.023-16.071 1.817-24.526-.072-1.53-3.952-3.696-7.634-6.218-11.03 1.674-3.364 2.747-7.074 3.085-10.993 11.963 2.723 20.844 12.427 27.659 22.095zm.424-48.464c-3.925 5.37-10.087 12.64-17.407 17.276-3.868-1.725-7.996-2.792-12.179-3.411-1.248-3.681-3.172-7.053-5.629-9.963 10.378-6.52 23.581-5.921 35.215-3.902zm-33.995-34.584c1.025 6.564 1.824 16.055-.064 24.505-3.956 1.505-7.653 3.702-11.044 6.218-3.374-1.675-7.096-2.747-11.027-3.081 2.718-11.956 12.48-20.85 22.135-27.642zm-48.509-.432c5.375 3.921 12.657 10.084 17.302 17.403-1.72 3.87-2.79 7.991-3.408 12.175-3.685 1.247-7.059 3.168-9.972 5.623-6.531-10.369-5.941-23.567-3.922-35.201zm-34.59 33.971c6.572-1.021 16.072-1.815 24.526.072 1.521 3.952 3.699 7.638 6.219 11.031-1.677 3.369-2.751 7.086-3.086 11.012-11.954-2.729-20.85-12.456-27.659-22.115zm-.412 48.468c3.936-5.379 10.111-12.651 17.406-17.274 3.87 1.717 7.987 2.787 12.169 3.406 1.247 3.679 3.169 7.048 5.624 9.958-10.366 6.529-23.572 5.924-35.199 3.91zm33.983 34.582c-1.025-6.564-1.823-16.057.064-24.506 3.954-1.504 7.646-3.706 11.033-6.223 3.377 1.678 7.104 2.753 11.039 3.087-2.729 11.957-12.475 20.845-22.136 27.642zm20.106 84.931c-10.361 4.224-19.005-.56-23.882-9.979-4.586-8.857-5.217-19.209-7.49-28.772 14.784 5.224 31.018 15.31 31.513 34.436 0 1.442-.009 2.878-.141 4.315zm-117.843-24.137c5.813-4.546 14.126-7.111 24.391-7.585-3.984 6.821-7.177 14.526-12.868 20.165-6.048 5.993-13.732 7.727-20.729 2.145 1.482-6.155 4.57-11.1 9.206-14.725zm-32.055-86.527c0-8.463 6.899-15.349 15.378-15.349s15.378 6.886 15.378 15.349c0 8.464-6.899 15.35-15.378 15.35s-15.378-6.886-15.378-15.35zm35.255 49.143c-4.338-3.276-9.758-8.037-13.385-13.579.017-.041.035-.082.052-.122 1.228-2.892 2.123-6.142 2.684-9.691 2.785-.999 5.358-2.44 7.644-4.233 4.838 8.215 4.438 18.515 3.005 27.625zm9.871-28.586c-1.27-3.162-3-6.117-5.002-8.869 1.23-2.59 2.06-5.403 2.421-8.36 9.224 2.396 16.217 9.924 21.653 17.382-5.388.747-12.588 1.206-19.072-.153zm19.422-40.404c-3.278 4.334-8.039 9.743-13.58 13.362-.044-.019-.088-.037-.131-.056-2.889-1.227-6.138-2.12-9.687-2.682-1-2.781-2.442-5.352-4.236-7.635 8.22-4.829 18.525-4.42 27.634-2.989zm-28.445-28.944c.763 5.633 1.135 12.803-.159 19.061-.039.016-.08.029-.119.044-2.916 1.178-5.849 2.844-8.757 4.958-2.594-1.229-5.411-2.058-8.372-2.417 2.376-9.228 9.957-16.227 17.407-21.646zm-40.601-.359c4.525 3.445 9.866 8.251 13.381 13.591-1.332 3.137-2.202 6.446-2.733 9.809-2.783.999-5.356 2.438-7.641 4.231-4.845-8.215-4.441-18.521-3.007-27.631zm-9.87 28.599c1.263 3.161 3.001 6.115 5 8.864-1.23 2.59-2.06 5.404-2.421 8.361-9.227-2.397-16.22-9.929-21.658-17.389 5.641-.761 12.816-1.131 19.079.164zm-19.424 40.398c3.278-4.334 8.04-9.743 13.58-13.362.044.019.089.038.133.057 2.892 1.226 6.14 2.12 9.686 2.681.999 2.777 2.437 5.344 4.228 7.625-8.213 4.843-18.519 4.43-27.627 2.999zm28.445 28.944c-.763-5.634-1.135-12.805.159-19.063 3.16-1.285 6.11-2.997 8.867-5.003 2.6 1.233 5.425 2.064 8.395 2.423-2.401 9.223-9.966 16.222-17.421 21.643zm15.927 70.638c-8.382 3.178-15.154-.834-19.069-8.395-3.677-7.102-4.354-15.418-6.045-23.119 12.137 4.571 24.878 13.073 25.191 28.624.015.962-.005 1.93-.077 2.89zm392.077-225.101c-5.188 7.438-14.519 19.156-25.873 26.06-5.525-2.587-11.505-4.082-17.536-4.883-1.748-5.723-4.801-10.879-8.806-15.132 15.241-10.442 34.839-9.454 52.215-6.045zm-80.248 58.855c-14.619 0-26.512-11.875-26.512-26.47s11.893-26.47 26.512-26.47 26.512 11.875 26.512 26.47-11.893 26.47-26.512 26.47zm33.818-106.085c1.597 8.929 3.288 23.821.141 36.733-5.74 2.079-11.018 5.232-15.856 8.935-5.074-2.712-10.823-4.314-16.924-4.498 3.383-18.14 17.955-31.311 32.639-41.17zm-66.248-.587c7.443 5.184 19.179 14.514 26.094 25.866-2.589 5.521-4.081 11.502-4.881 17.531-5.722 1.744-10.878 4.789-15.133 8.785-10.467-15.224-9.489-34.804-6.08-52.182zm-47.236 46.403c8.951-1.59 23.87-3.274 36.758-.136 2.08 5.735 5.235 11.007 8.936 15.838-2.714 5.065-4.32 10.805-4.508 16.897-18.13-3.376-31.31-17.919-41.186-32.599zm-.581 66.184c5.188-7.438 14.519-19.156 25.873-26.06 5.523 2.588 11.504 4.077 17.533 4.876 1.747 5.723 4.798 10.88 8.803 15.133-15.241 10.449-34.829 9.458-52.209 6.051zm46.438 47.225c-1.594-8.945-3.283-23.865-.144-36.745 5.744-2.084 11.006-5.209 15.85-8.918 5.074 2.712 10.824 4.314 16.925 4.499-3.377 18.137-17.955 31.308-32.631 41.164zm11.337 106.201c-6.637-1.835-12.221-7.053-16.6-15.509-4.072-7.864-5.892-17.487-7.653-26.793-.963-5.088-1.897-10.029-3.169-14.655 20.728 6.67 45.134 20.371 45.837 47.881-14.764-12.138-21.679-27.801-21.789-28.053-1.304-3.043-4.824-4.453-7.87-3.154-3.047 1.302-4.462 4.829-3.16 7.877.373.874 8.116 18.639 25.273 32.673-3.263.624-7.049.789-10.869-.267zm90.54-68.988h.054c-2.63 4.01-5.037 8.424-7.515 12.969-4.536 8.317-9.225 16.917-15.519 23.154-8.543 8.466-19.78 12.721-30.993 6.596 20.643-8.094 33.472-22.626 34.096-23.344 2.175-2.501 1.911-6.293-.589-8.468-2.501-2.175-6.289-1.912-8.464.59-.131.15-11.446 12.969-29.351 20.016 9.114-25.944 36.512-31.513 58.281-31.513zm-35.637-36.62c-7.034-4.899-17.897-13.504-24.907-24.016-.274-.699-.676-1.332-1.176-1.874 2.582-5.515 4.071-11.485 4.87-17.506 5.722-1.745 10.879-4.79 15.133-8.786 10.466 15.221 9.488 34.803 6.08 52.182zm10.478-46.268c-2.08-5.735-5.235-11.007-8.936-15.838 2.715-5.066 4.32-10.807 4.508-16.9 18.127 3.373 31.312 17.922 41.187 32.602-8.953 1.59-23.872 3.272-36.759.136z" fill="#333"/></g></g><g/><g/><g/><g/><g/><g/><g/><g/><g/><g/><g/><g/><g/><g/><g/></svg>