<svg id="icons" height="512" viewBox="0 0 340 340" width="512" xmlns="http://www.w3.org/2000/svg"><path d="m265.91 76.437-174.964 139.41c-39.878 26.208-63 13.334-74.393.875a9.194 9.194 0 0 1 4.812-15.135c18.444-4.064 36.239-15.469 48.413-24.8a142.268 142.268 0 0 0 21.768-20.647c76.134-89.431 144.571-109.496 144.571-109.496l31.086 10.4z" fill="#719b56"/><path d="m293.279 21c-5.423-4.17-17.343-11.732-26.979-3.063-9.115 8.084-31.257 25.376-52.35 23.8a1.373 1.373 0 0 0 -1.441 1.546c.406 3.581 2.987 11.651 17.945 12.156 29.488 1 47.781 14.275 47.781 14.275s-19.166-16.694 15.044-48.714z" fill="#719b56"/><path d="m299.111 77.115c-40.411 109.979-186.785 201.066-228.111 233.699 0 0-.279-56.68 90.465-144.073s135.412-104.141 135.412-104.141z" fill="#719b56"/><path d="m251.02 132.216q-.173.172-.348.339s-14.479 9.239-18.408-10.406 13.874-20.38 13.874-20.38c11.402 5.531 14.053 21.604 4.882 30.447z" fill="#ffe5a4"/><path d="m250.66 132.542a13.373 13.373 0 0 1 -12.569-3.379c-8.4-7.629 1.9-20.836 8.041-27.383-19.256-9.366-37.062 14.814-22.02 30.436a19.017 19.017 0 0 0 26.548.326z" fill="#edb87f"/><path d="m210.887 124.376c15.464-1.263 26.31 15.982 18.6 29.357 0 0-10.968 10.989-23.918-2.969s5.318-26.388 5.318-26.388z" fill="#ffe5a4"/><path d="m226.215 158.04a19.711 19.711 0 0 0 3.25-4.317c-4.569 2.251-11.195 3.307-17.759-3.491-8.528-8.833-4.6-19.478-.818-25.838-16.623.937-24.6 21.856-12.6 33.646a19.749 19.749 0 0 0 27.927 0z" fill="#edb87f"/><path d="m177.778 149.31c18.771-6.8 35.9 13.813 25.753 31.033-20.931 16.757-43.68-14.855-25.753-31.033z" fill="#ffe5a4"/><path d="m203.531 180.343c-5.722 2.423-12.836 2.881-19.789-3.509-10.283-9.451-8.375-20.92-5.962-27.52-14.428 4.886-18.957 24.686-7.835 35.276 9.607 9.894 26.739 7.666 33.586-4.247z" fill="#edb87f"/><path d="m150.964 175.6c18.969-5.058 35.2 15.146 26.214 32.576 0 0-11.038 12.192-26.744-2.65s.53-29.926.53-29.926z" fill="#ffe5a4"/><path d="m177.174 208.176c-6.28 2.513-15 3.487-22.852-4.517-9.334-9.51-6.236-21.462-3.356-28.051-16.771 4.024-22.927 26.305-10.387 38.348 10.613 11.004 29.892 7.879 36.595-5.78z" fill="#edb87f"/><path d="m123.685 201.777c15.826-3.781 30.242 11.542 25.545 27.091 0 0-10.264 18.339-26.083 2.519s.538-29.61.538-29.61z" fill="#ffe5a4"/><path d="m143.757 238.113a21.5 21.5 0 0 0 5.47-9.246c-5.457 4.585-13.238 8.059-20.83.756-8.915-8.577-7.1-20.5-4.71-27.84-16.289 3.432-22.515 24.643-10.475 36.33a21.6 21.6 0 0 0 30.545 0z" fill="#edb87f"/><path d="m116.786 261.7a17.737 17.737 0 0 1 -25.086 0c-16.005-17.235 7.858-41.089 25.086-25.086a17.737 17.737 0 0 1 0 25.086z" fill="#edb87f"/><path d="m279.953 87.057c-36.631 31.58-165.612 99-196.32 212.335a21.36 21.36 0 0 1 -5.048 9.678 54.621 54.621 0 0 0 -9.362 14.044 4.96 4.96 0 0 1 -9.238-.43c-30.494-84.472 90.15-195.328 190.715-245.979 15.935-1.972 28.145-.675 29.253 10.352z" fill="#a9db89"/><path d="m250.694 76.7c11.1 11.172 23.358 11.19 29.256 10.35 14.386-13.016 21.485-24.79 21.485-24.79l-37.75 5.86a121.888 121.888 0 0 1 -12.991 8.58z" fill="#719b56"/><path d="m308.949 25.168 11.606 6.956a10.81 10.81 0 0 1 4.043 14.2 51.679 51.679 0 0 1 -7.03 10.022c-9.493 10.82-14.958 27.132-10.742 41.294a1.37 1.37 0 0 1 -2.043 1.552c-5.848-3.72-17.085-13.266-11.931-29.457 0 0-20.144 14.282-39.659-3.028a1.379 1.379 0 0 1 .606-2.365c8.555-2.059 36.801-10.764 55.15-39.174z" fill="#a9db89"/><g fill="#fffaee"><path d="m199.058 172.5c-6.8 6.39-16.368-3.182-9.978-9.978 6.798-6.393 16.368 3.178 9.978 9.978z"/><path d="m171.338 200.216c-6.8 6.391-16.367-3.182-9.977-9.977 6.798-6.391 16.367 3.182 9.977 9.977z"/><path d="m225.8 147.528c-5.324 5.06-12.933-2.552-7.873-7.874 5.318-5.06 12.928 2.552 7.873 7.874z"/><path d="m250.482 124.761c-4.106 3.9-9.975-1.968-6.072-6.073 4.106-3.903 9.975 1.968 6.072 6.073z"/><path d="m142.645 223.3c-4.106 3.9-9.975-1.968-6.072-6.073 4.106-3.907 9.975 1.964 6.072 6.073z"/></g><path d="m20.62 198.205c-9.237 1.7-13.2 14.138-6.621 20.853 10.268 10.695 26.857 21.65 56.421 11.289-17.149 28.394-24.708 75.826-11.682 96.733 3.9 4.116 11.452 2.779 13.64-2.54 4.195-10 10.48-12.743 13.751-21.393 37.686-25.327 167.232-115.767 208.94-207.63 3.35 3.7 12.2 11.5 15.386 7.954a3.464 3.464 0 0 0 .765-3.818c-6.031-14.3.412-31.294 8.95-41.026a55.438 55.438 0 0 0 7.5-10.7 14.283 14.283 0 0 0 -5.33-18.773l-11.611-6.954a3.462 3.462 0 0 0 -4.688 1.091 86.934 86.934 0 0 1 -29.117 27.731c1.5-6.652 6.294-15.864 18.721-27.495a3.487 3.487 0 0 0 -.165-5.2c-6.829-5.427-20.445-12.864-31.48-2.979-8.63 7.653-30.888 25.2-51.138 22.807a3.462 3.462 0 0 0 -2.58.744c-2.291 1.624-1.832 8.359 2.849 13.593-26.2 12.847-73.588 41.928-124.22 101.4a139.056 139.056 0 0 1 -21.239 20.145c-11.525 8.835-29.042 20.2-47.052 24.168zm43.985 124.395a1.42 1.42 0 0 1 -1.341-1.03c-20.946-63.163 38.48-133.891 94-179.012a481.694 481.694 0 0 1 84.845-57.108c6.955-3.7 12.834-7.128 17.528-10.212a34.185 34.185 0 0 0 25.71 1.707 136.356 136.356 0 0 1 -22.732 19.331c-58.7 35.713-169.8 127.161-182.353 202.35a17.957 17.957 0 0 1 -4.232 8.108 58.254 58.254 0 0 0 -9.96 14.953 1.454 1.454 0 0 1 -1.465.913zm58.86-82.334a20.351 20.351 0 0 0 -4.878-6.7 315.224 315.224 0 0 1 20.313-25.566c16.537 11.945 4.178 37.618-15.435 32.268zm-22.753 22.714a223.2 223.2 0 0 1 13.89-23.629c9.779 10.312-.202 27.168-13.89 23.629zm52.088-46.192a25.031 25.031 0 0 0 -9.252-13.973q10.155-11.139 21.991-22.4c20.031 10.529 9.43 40.644-12.739 36.373zm27.986-29.916a26.431 26.431 0 0 0 -9.942-11.41q11.331-10.455 24.118-21.012c16.628 11.275 5.362 36.969-14.18 32.422zm27.234-27.07a24.684 24.684 0 0 0 -7.524-9.876q10.932-8.827 22.89-17.722c12.279 11.483.805 32.005-15.37 27.596zm24.954-26.175a23.069 23.069 0 0 0 -3.947-5.584q10.9-7.974 22.6-16c5.932 11.921-5.867 25.728-18.657 21.584zm9.786 27.773c-58.268 68.253-140.995 121.673-153.77 131.162a163.5 163.5 0 0 1 8.674-23.262c13.98 4.84 29.022-7 27.7-21.6 14.112 2.072 27.913-9.639 28.143-23.785 16.871 2.432 31.993-13.131 29.377-29.7 15.191 1.623 28.671-12.1 26.964-27.047 14.56 1.862 27.574-11.719 25.409-26.029 17.622 2.116 30.8-17.55 22.118-33 11.3-7.387 22.006-14.939 31.351-24.744a25.9 25.9 0 0 0 1.882 5.4c-7.184 15.397-21.251 40.231-47.852 72.605zm67.23-131.571 8.765 5.252c14.762 11-21.037 22.762-16.476 57.946-4.735-4.3-9.516-11.6-6.128-22.245a3.486 3.486 0 0 0 -5.293-3.881c-.712.5-16.112 10.981-32.184-.27 11.409-3.372 34.598-12.822 51.316-36.802zm-93.414 15.471c21.6.022 43.3-17.035 52.017-24.768 5.875-5.482 13.745-2.708 19.256.906-11.882 11.9-18.054 23.165-18.4 33.554-2.565 1.218-4.977 2.227-7.165 3.052a103.519 103.519 0 0 0 -31.711-6.061c-7.04-.426-11.65-1.842-13.997-6.683zm-151.499 139.215c-5.173 6.312-10.507 12.55-15.226 17.535-3.064 3.343 1.834 8.021 5.028 4.76 15.884-16.777 37.749-46.31 39.374-48.51 52.309-61.417 100.9-89.788 125.6-101.354a31.609 31.609 0 0 0 10.485 1.954 97.657 97.657 0 0 1 19.813 2.7 3.482 3.482 0 0 0 -1.341 5.723 45.679 45.679 0 0 0 4.348 3.841c-67.176 35.622-136.779 86.687-176.872 149.136-29.5 14.488-47.368 4.809-57.178-5.914a5.731 5.731 0 0 1 3-9.417c15.93-3.511 31.292-12.283 42.969-20.454z" fill="#2b2b2b"/></svg>