<svg id="Layer_1" enable-background="new 0 0 512.01 512.01" height="512" viewBox="0 0 512.01 512.01" width="512" xmlns="http://www.w3.org/2000/svg"><g><g><g><path d="m213.562 75.482c-11.576-18.88-28.245-32.111-37.206-39.225-58.462-46.412-134.597-37.304-164.619-31.235-3.133.634-5.588 3.071-6.244 6.199-6.193 29.528-15.487 104.41 31.865 161.889 12.128 14.721 40.253 48.862 82.93 48.861 6.166 0 12.243-.731 18.09-2.07 7.224-1.654 8.476-11.401 1.955-14.861l62.668-118.314c2.417 1.277 5.423 1.291 7.922-.242 3.768-2.309 4.949-7.235 2.639-11.002z" fill="#92e200"/></g></g><g><g><path d="m138.383 219.904c-5.902 1.346-11.984 2.069-18.09 2.069-42.68 0-70.81-34.14-82.93-48.859-47.36-57.48-38.06-132.36-31.87-161.891.66-3.13 3.11-5.57 6.24-6.2 10.88-2.2 27.82-4.8 47.78-5-5.54 34.35-8.51 99.7 33.85 151.12 8.99 10.92 26.78 32.511 52.78 42.94l-5.81 10.96c6.535 3.466 5.25 13.203-1.95 14.861z" fill="#6bc800"/></g></g><g><g><path d="m383.885 103.907c-.636-15.545-2.562-31.087-5.723-46.192-.655-3.131-3.112-5.57-6.247-6.203-34.928-7.048-123.489-17.628-191.348 36.246-17.699 14.047-59.147 46.941-57.712 96.864 1.153 40.293 30.47 69.059 40.107 78.515 9.619 9.44 38.892 38.166 79.769 39.305 14.185.385 28.2-2.564 41.737-8.777.748-.343-1.546 1.099 27.899-17.953.281-.182.55-.381.806-.597 12.689-10.68 22.229-22.256 27.929-29.172 25.942-31.741 38.685-68.684 42.102-108.891.038-.471.696-32.795.681-33.145z" fill="#6bc800"/></g></g><g><g><g><path d="m146.76 141.485c-2.705 0-5.343-1.371-6.848-3.853-16.69-27.521-43.204-42.489-62.507-50.199-4.103-1.64-6.101-6.294-4.462-10.397 1.639-4.104 6.294-6.101 10.396-4.462 21.571 8.616 51.269 25.458 70.253 56.762 3.268 5.388-.706 12.149-6.832 12.149z" fill="#6bc800"/></g></g></g><g><g><path d="m383.552 97.513c-42.81-4.31-109.08-1.84-162.5 40.57-17.7 14.05-59.15 46.939-57.72 96.86.4 13.85 4.12 26.34 9.24 37.149-4.17-3.62-7.41-6.8-9.61-8.96-9.64-9.45-38.95-38.22-40.11-78.51-1.43-49.92 40.02-82.82 57.72-96.87 67.85-53.87 156.42-43.29 191.34-36.24 3.14.63 5.59 3.07 6.25 6.2 2.731 13.042 4.541 26.402 5.39 39.801z" fill="#57a000"/></g></g><g><g><path d="m354.759 332.345c-3.746-1.777-8.605-.527-10.778 4.061l-14.711-6.34c1.697-3.938-.006-8.54-3.911-10.391-3.994-1.89-8.763-.189-10.656 3.801l-73.132 154.246c-5.679 12.003-.559 26.296 11.409 31.958 11.975 5.686 26.278.603 31.97-11.4l73.61-155.279c1.894-3.992.191-8.763-3.801-10.656z" fill="#fcbe00"/></g></g><g><g><path d="m358.562 343.004-73.61 155.28c-2.75 5.79-7.59 10.17-13.63 12.319-12.189 4.359-25.48-1.76-30.26-13.5 8.596-.239 16.95-5.172 21.01-13.72l71.75-151.36 10.16 4.381c2.061-4.479 6.941-5.874 10.78-4.061 3.991 1.891 5.691 6.661 3.8 10.661z" fill="#ff9e00"/></g></g><g><g><g><path d="m383.643 95.973c-70.58 0-128 57.42-128 128s57.42 128 128 128 128-57.42 128-128-57.42-128-128-128zm0 208c-44.11 0-80-35.89-80-80 0-44.109 35.89-80 80-80s80 35.891 80 80c0 44.111-35.89 80-80 80z" fill="#ffdd46"/></g></g></g><g><g><path d="m382.513 143.994c-4.51 39.79-18.4 74.02-41.33 101.85-5.962 7.489-14.553 17.089-22.66 24.55-9.37-13.1-14.88-29.13-14.88-46.42 0-43.73 35.28-79.381 78.87-79.98z" fill="#92e200"/></g></g><g><g><g><path d="m144.373 416.004c-4.418 0-8-3.582-8-8 0-24.474-5.284-74.484 15.966-133.717 20.318-56.635 61.037-93.153 80.605-110.703l2.076-1.864c3.284-2.955 8.342-2.69 11.298.594s2.69 8.343-.594 11.299l-2.098 1.883c-18.591 16.674-57.276 51.367-76.228 104.194-20.071 55.944-15.027 104.293-15.027 128.314.002 4.418-3.58 8-7.998 8z" fill="#57a000"/></g></g></g><g><g><g><path d="m99.215 244.13c-32.034-26.388-73.527-21.271-89.879-17.847-3.13.655-5.569 3.112-6.202 6.247-3.351 16.603-8.355 58.73 17.472 91.269 6.149 7.746 22.313 28.106 46.661 28.106 15.975 0 29.136-8.415 40.211-19.696 4.623-4.71 18.692-19.042 19.256-39.486.699-25.352-19.801-42.237-27.519-48.593z" fill="#6bc800"/></g></g><g><g><path d="m116.102 322.143c-3.41 4.75-6.77 8.19-8.63 10.07-11.152 11.368-24.313 19.69-40.21 19.69-24.34 0-40.51-20.36-46.66-28.11-25.82-32.53-20.82-74.66-17.47-91.26.63-3.141 3.07-5.601 6.2-6.25 4.26-.891 10.22-1.9 17.27-2.44-1.89 20.391-.36 51.311 19.62 76.49 12.624 15.908 27.627 28.562 47.92 28.09 8.481-.24 15.881-2.91 21.96-6.28z" fill="#57a000"/></g></g><g><g><g><path d="m144.367 416.004c-4.268 0-7.812-3.37-7.987-7.675-1.879-46.099-28.604-83.463-67.898-105.335-3.86-2.149-5.248-7.021-3.099-10.881 2.148-3.861 7.021-5.248 10.881-3.1 44.435 24.737 74.003 67.15 76.102 118.665.185 4.531-3.435 8.326-7.999 8.326z" fill="#57a000"/></g></g></g></g><g><g><g><path d="m439.643 108.884-20.58 43.37c26.4 13.09 44.58 40.32 44.58 71.72 0 44.11-35.89 80-80 80-11.82 0-23.04-2.58-33.15-7.2l-20.58 43.37c16.35 7.591 34.55 11.83 53.73 11.83 70.58 0 128-57.42 128-128 0-50.51-29.41-94.28-72-115.09z" fill="#ffdd46"/></g></g></g><g><g><path d="m511.643 223.973c0 70.58-57.42 128-128 128-19.18 0-37.38-4.239-53.73-11.83l20.58-43.37c10.11 4.62 21.33 7.2 33.15 7.2 44.11 0 80-35.89 80-80 0-31.399-18.18-58.63-44.58-71.72l20.58-43.37c42.59 20.811 72 64.581 72 115.09z" fill="#fcbe00"/></g></g></g><g><path d="m383.435 95.974c-.891-12.888-2.649-25.725-5.272-38.259-.655-3.131-3.112-5.57-6.247-6.203-30.159-6.085-100.306-14.797-162.585 17.62-11.123-15.517-25.055-26.588-32.974-32.874-58.463-46.413-134.598-37.305-164.62-31.236-3.133.634-5.588 3.071-6.244 6.199-6.193 29.528-15.487 104.41 31.865 161.889 12.128 14.721 40.253 48.862 82.93 48.861 3.525 0 7.188-.233 11.497-.859 7.941 17.095 19.389 30.064 26.818 37.674-11.106 24.662-19.333 55.926-21.883 90.573-5.786-10.896-12.682-20.261-19.902-28.236 4.859-7.036 9.592-16.718 9.914-28.4.699-25.352-19.801-42.236-27.519-48.593-32.034-26.388-73.527-21.271-89.879-17.847-3.13.655-5.569 3.112-6.202 6.247-3.351 16.603-8.355 58.73 17.472 91.269 6.149 7.746 22.313 28.106 46.661 28.106 15.193 0 28.318-7.778 39.054-18.526 19.214 21.91 28.951 47.788 30.059 74.95.18 4.309 3.761 7.675 7.987 7.675 4.208 0 7.643-3.258 7.972-7.339 1.011-12.26-7.468-75.493 18.576-138.029 30.935 27.6 68.453 40.398 107.193 25.686 9.028 13.127 20.435 24.495 33.6 33.472l-70.137 147.93c-5.679 12.003-.559 26.296 11.409 31.958 11.975 5.686 26.278.603 31.97-11.4l70.812-149.375c80.08 17.857 155.878-43.383 155.878-124.934.002-69.653-56.428-127.999-128.203-127.999zm-278.202 213.657c-10.685-9.529-21.16-16.27-28.97-20.617-3.86-2.148-8.732-.762-10.881 3.1-2.149 3.86-.762 8.731 3.099 10.881 7.157 3.984 16.809 10.194 26.593 19.003-7.658 7.68-16.98 13.908-27.783 13.908-16.646-.001-28.883-15.415-34.156-22.057-19.362-24.394-17.871-56.131-15.259-72.877 16.4-2.641 47.356-4.105 71.166 15.508 6.637 5.467 22.181 18.27 21.697 35.802-.184 6.688-2.598 12.576-5.506 17.349zm20.84-103.942c-2.333.215-3.951.281-5.721.281-35.189 0-59.968-30.075-70.645-43.034-40.423-49.069-35.111-113.135-29.579-143.221 30.663-5.45 96.138-10.733 146.287 29.08 7.034 5.583 19.269 15.311 28.982 28.393-5.03 3.215-9.984 6.723-14.83 10.57-8.268 6.562-21.719 17.239-33.56 31.842-18.795-25.138-44.453-39.35-63.668-47.025-4.103-1.639-8.758.358-10.396 4.462-1.639 4.104.359 8.758 4.462 10.397 18.291 7.306 43.052 21.137 59.799 45.984-14.423 23.603-17.749 48.392-11.131 72.271zm51.936 49.744c20.363-39.339 50.041-65.968 65.618-79.938l2.098-1.883c3.284-2.956 3.55-8.015.594-11.299s-8.014-3.549-11.298-.594l-2.076 1.864c-15.766 14.14-45.255 40.602-66.748 79.967-15.322-16.715-26.701-36.815-27.347-59.387-1.205-41.914 35.845-71.317 51.667-83.875 47.64-37.825 113.131-44.926 173.02-34.091 1.905 10.13 3.215 20.441 3.934 30.791-62.974 7.974-111.83 61.88-111.83 126.982 0 21.009 5.089 40.851 14.097 58.36-27.089 9.21-58.882 4.238-91.729-26.897zm92.485 235.992c-1.891 3.987-6.639 5.705-10.66 3.798-4.018-1.901-5.68-6.681-3.802-10.651l69.493-146.57c4.73 2.42 9.631 4.551 14.677 6.377zm113.146-155.454c-61.757 0-112-50.243-112-112 0-59.243 46.239-107.882 104.521-111.744 69.025-3.451 119.479 50.307 119.479 111.744 0 61.757-50.243 112-112 112z"/><path d="m383.64 127.971c-52.935 0-96 43.065-96 96 0 17.697 4.819 34.288 13.206 48.538.186.38.402.749.653 1.104 16.843 27.767 47.362 46.358 82.141 46.358 52.935 0 96-43.065 96-96s-43.065-96-96-96zm-73.25 128.111c-20.243-45.996 6.792-99.181 55.742-110.157-4.392 33.566-16.253 64.245-37.376 89.842-4.387 5.323-10.507 12.74-18.366 20.315zm73.25 47.889c-26.819 0-50.579-13.278-65.102-33.592 10.03-9.237 17.7-18.535 22.565-24.438 24.078-29.46 37.06-63.679 41.406-101.942 45.087-.582 81.131 35.862 81.131 79.972 0 44.113-35.888 80-80 80z"/></g></svg>