<svg id="svg8" height="512" viewBox="0 0 16.933333 16.933333" width="512" xmlns="http://www.w3.org/2000/svg" xmlns:svg="http://www.w3.org/2000/svg"><g id="layer2"><path id="path5477" d="m.793725 11.1125s7.672939-4.04004 7.672942-4.04007l7.672941 4.30465c-.000025 0-7.672941 4.7625-7.672941 4.7625z" fill="#b4d305"/><path id="path5479" d="m8.4666666 7.0724365c-.0000003.0000026-.5720207.3009016-.6826457.3591512l7.0326451 3.9454953c-.000022 0-5.8644181 3.640091-6.9933711 4.34082l.6433717.42168s7.6728914-4.7625 7.6729164-4.7625z" fill="#94ac04"/><path id="path5482" d="m12.217225 9.1174895.747358.4075103-7.7359278 4.4931322-.6559009-.429726z" fill="#94ac04"/><path id="path5484" d="m8.4666666 7.0724365c-.000003.0000299-7.67291661 4.0400635-7.67291661 4.0400635l7.67291661 5.027083s.3666852-.22774.4077271-.253214l-7.2868937-4.773869s6.5300806-3.4383073 7.2636392-3.8245728z" fill="#f8f8f8"/><path id="path5486" d="m4.7625.79375c-2.1918801.00000011-3.96874989 1.7768699-3.96875 3.96875.00097378 1.7223935 1.1127966 3.2475487 2.752287 3.77548l1.216463 2.8391 1.218014-2.84272c1.6376084-.5280661 2.74841-2.0512178 2.750736-3.77186-.0000001-2.1918801-1.7768699-3.96874989-3.96875-3.96875z" fill="#f55"/><path id="path5488" d="m12.435416 3.96875c-1.461252.0000001-2.645832 1.1938322-2.645834 2.6665.0006492 1.1572328.741864 2.181946 1.834858 2.53665l.810976 1.90753.812009-1.90996c1.09174-.3547944 1.832275-1.3781628 1.833825-2.53422-.000002-1.4726678-1.184582-2.6664999-2.645834-2.6665z" fill="#ffc6a0"/><path id="path5490" d="m12.435417 3.96875c-.131375.00119-.262479.01225-.392225.033073 1.290269.1996501 2.243237 1.3178453 2.244308 2.6334309-.0016 1.1561008-.742192 2.1794796-1.833997 2.5342122l-.414961.976168.396875.933793.811836-1.909961c1.091805-.3547326 1.83242-1.3781114 1.833997-2.5342122 0-1.4726689-1.18458-2.6665032-2.645833-2.6665038z" fill="#ffaf7a"/><path id="path5492" d="m12.435417 3.96875c-1.461254.0000002-2.6458339 1.1938346-2.6458338 2.6665038.0006103 1.1573332.7419178 2.1821366 1.8350298 2.5367962l.810804 1.907377.264583-.622701-.54622-1.284676c-1.093113-.3546595-1.83442-1.379463-1.83503-2.5367962.000308-1.3653723 1.023948-2.509913 2.371431-2.6515176-.08463-.00912-.169653-.014124-.254764-.014986z" fill="#f8f8f8"/><path id="path5494" d="m4.7624999.79374999c-.1377518.00024529-.2753975.00766228-.412378.02222087 2.0332299.19628814 3.5853938 1.90384724 3.587378 3.94652904-.0023249 1.7206433-1.1131269 3.2437965-2.7507364 3.7718627l-.8211386 1.9166794.396875.926041 1.2180136-2.8427204c1.6376095-.5280662 2.7484115-2.0512194 2.7507364-3.7718627-.0000002-2.19188-1.77687-3.9687498-3.96875-3.96874991z" fill="#ff2929"/><path id="circle5496" d="m7.4083338 4.7624931c0 1.4612538-1.1845802 2.645834-2.645834 2.645834s-2.645834-1.1845802-2.645834-2.645834c.0000001-1.4612537 1.1845803-2.6458339 2.645834-2.6458339s2.6458339 1.1845802 2.645834 2.6458339z" fill="#e4eff8"/><path id="path5498" d="m4.7624999.79374999c-2.19188.00000016-3.96874975 1.77686991-3.96874991 3.96874991.00097371 1.7223935 1.11279641 3.2475487 2.75228681 3.7754801l1.2164631 2.839103.2645834-.617533-.9518798-2.22157c-1.6394904-.5279314-2.7513132-2.0530866-2.7522869-3.7754801.0023587-2.0992357 1.6390736-3.83356009 3.7346557-3.95738108-.0981824-.00744866-.196608-.0112409-.2950724-.01136883z" fill="#f8f8f8"/><path id="path5501" d="m4.7624999 2.1166666c-1.4612532.0000004-2.6458329 1.1845801-2.6458333 2.6458333.00126.831613.3934365 1.6142442 1.0588501 2.1130493-.3429305-.4569288-.5287525-1.012582-.5296834-1.5838826.0000004-1.4612532 1.1845801-2.6458329 2.6458333-2.6458333.5727155.00115 1.129594.188111 1.5869832.532784-.4988109-.6674541-1.2828995-1.0609345-2.1161499-1.0619507z" fill="#c4dcf0"/><path id="path5503" d="m5.241121 3.1251c.412902-.41368 1.014687-.5753 1.579146-.42313.150792.56568-.01063 1.16795-.423175 1.58128-.412902.41369-1.014687.57531-1.579146.42313-.150793-.56567.01062-1.16795.423175-1.58128z" fill="#b4d305"/><path id="path5505" d="m6.393408 2.6458333c-.1333982.0002032-.2654049.017918-.3937744.050126.010107.00251.020405.00348.030489.0062.1507922.5656819-.0106862 1.1679707-.4232298 1.5813006-.2128716.213278-.4763283.3580916-.7586099.4289145.5555927.1384368 1.1432344-.0226325 1.5487425-.4289145.4125452-.4133299.574022-1.0156187.4232301-1.5812987-.1411147-.0380431-.2846014-.0565446-.4268475-.0563279z" fill="#94ac04"/><path id="path5507" d="m6.393408 2.6458333c-.4267377.0006615-.8427077.1687806-1.1523842.4790406-.412555.4133299-.5740231 1.0156287-.4232302 1.5812986.2287278.0616659.4634294.0698352.6893637.0325562-.05358-.0088133-.1070893-.0182377-.160197-.0325562-.1507929-.5656699.0106759-1.1679687.4232301-1.5812986.2454693-.2459318.558415-.3999609.8898681-.4547526-.0888233-.0146156-.1779042-.0244232-.2666505-.024288z" fill="#f8f8f8"/><path id="path5509" d="m4.283973 3.1251c-.412901-.41368-1.014686-.5753-1.579145-.42313-.150793.56568.01063 1.16795.423175 1.58128.412901.41369 1.014686.57531 1.579145.42313.150792-.56567-.01063-1.16795-.423175-1.58128z" fill="#b4d305"/><path id="path5512" d="m3.1315919 2.6458333c-.1325883-.000202-.2660949.017661-.3979087.050643.2815005.071017.5441905.2156444.7565429.4283978.412545.4133299.574022 1.0156287.4232302 1.5812986-.00956.00257-.01936.00329-.028939.00568.2658522.067069.5485278.06823.8226888-.00568.150792-.5656701-.0106864-1.1679689-.42323-1.5812988-.3096757-.31026-.7256465-.4783905-1.1523842-.4790406z" fill="#94ac04"/><path id="path5514" d="m3.1315919 2.6458333c-.1422461-.0002167-.2857328.0182854-.4268475.0563274-.150793.56568.0106838 1.1679687.4232301 1.5812987.3740772.3747921.9031026.5396555 1.4190348.4547526-.3314531-.0547905-.6443996-.2088147-.8898681-.4547526-.4125452-.41333-.5740231-1.0156187-.4232302-1.5812987.0530744-.0143087.1066507-.0232278.160197-.0320394-.0866978-.014332-.1740379-.0241533-.2625161-.024288z" fill="#f8f8f8"/><path id="path5516" d="m6.8667642 3.1620809c.1814605.3753178.2761279.786662.2769857 1.203544-.0000001 1.534316-1.243809 2.7781249-2.778125 2.778125-.4161839-.0011675-.8267878-.0958272-1.2014771-.2769857.4593852.3501532 1.0207359.5403554 1.5983521.541569 1.4612532-.0000004 2.6458329-1.1845801 2.6458333-2.6458333-.0007623-.5783241-.1909882-1.1404707-.541569-1.600419z" fill="#f8f8f8"/><path id="path5518" d="m4.7624999 5.8208333c-.7144782.00136-1.4034928.265491-1.935799.7420737.49991.5383393 1.2011436.8445908 1.935799.8454262.7347106-.0013792 1.4357656-.3081961 1.9352824-.8469767-.5324022-.4759018-1.2211861-.7394604-1.9352824-.7405232z" fill="#ffc6a0"/><path id="path5521" d="m4.7624999 5.8208333c-.1765441.0010622-.3526253.0181859-.526066.0511595.7439305.1392263 1.4043664.5627729 1.8412312 1.1808066.2301702-.1318057.4392129-.2974721.6201172-.4914429-.5324022-.4759018-1.2211861-.7394604-1.9352824-.7405232z" fill="#ffaf7a"/><path id="path5523" d="m4.7624999 5.8208333c-.7144782.0013626-1.4034928.265491-1.935799.7420737.1266948.1358321.2673412.257945.4196125.3643188.5444405-.5388297 1.2793554-.8412998 2.0453532-.8418092.3487565.0012148.6944555.0651035 1.0206096.1886191-.4635081-.2942132-1.0007794-.4513279-1.5497763-.4532024z" fill="#f8f8f8"/><path id="ellipse5525" d="m13.768151 6.6352501c0 .7420424-.596686 1.3435866-1.332736 1.3435864-.736049-.0000004-1.332735-.6015444-1.332735-1.3435864s.596686-1.3435861 1.332735-1.3435865c.73605-.0000002 1.332736.6015441 1.332736 1.3435865z" fill="#e4eff8"/><path id="path5527" d="m12.435417 5.2916666c-.73605-.0000002-1.332736.6015445-1.332736 1.3435872.000666.6042502.401363 1.1337196.979269 1.2939779-.114433-.1885777-.175217-.405252-.1757-.6263185-.000188-.6656837.534968-1.2054678 1.195276-1.205611.217607.0005262.430945.060918.617016.1746663-.161495-.579714-.685846-.9803156-1.283125-.9803019z" fill="#c4dcf0"/><path id="path8869" d="m.52916818 4.7625088c.0025 1.84379 1.16287502 3.3952198 2.81693592 3.9826401l.260971.6092495c-1.5288009.7955506-2.93527792 1.5223606-2.93527792 1.5223606-.175662.0903-.194366.34586-.02326.45733l7.67409882 5.02699c.0857.056.1959811.0577.283192.004l7.673582-4.76393c.170592-.1062.165187-.35598-.0098-.45474l-2.887218-1.6195106.0615-.14469c1.118352-.4212196 1.900563-1.4926196 1.902246-2.7475897-.000002-1.6143499-1.299217-2.93024-2.910473-2.9305199-1.611255.000291-2.9099532 1.31617-2.9099561 2.9305199.0003704.27398.03993.5384901.110073.7901199l-1.0397501-.5828998c-.03691-.0201-.06966-.0306-.09922-.0336-.010811-.00101-.020349.00101-.03049.00201.3360578-.6057.5291809-1.30206.530189-2.0479-.0000006-2.33546-1.8953608-4.23270004-4.2339296-4.23317504-2.338569.000645-4.23341302 1.89788504-4.23341302 4.23333504zm7.93765302-.00103c-.0022 1.60695-1.038906 3.0285099-2.568368 3.5216898-.07188.023699-.1302171.0768-.1601999.14624l-.9746372 2.2757904-.00101-.003-.00101.003-.974643-2.2757904c-.02996-.0695-.0883-.1225598-.1601798-.14624-1.5294621-.4931799-2.5656821-1.9147398-2.5678521-3.5216898 0-2.0485 1.659406-3.7019901 3.703692-3.7025501 2.044285.000561 3.704208 1.6540501 3.704208 3.7025501zm-5.3791072-2.37707c-.150424.004-.301938.0228-.451144.063-.09157.0244-.162655.096-.187072.18758-.03973.14905-.05838.30016-.0615.45061-.841676 1.19122-.672453 2.8356001.412903 3.82658 1.112328 1.0155999 2.822461 1.0128599 3.9316179-.006 1.079972-.9922502 1.2445449-2.6328401.4051511-3.82088-.0032-.15029-.02181-.30122-.0615-.4501-.02442-.0916-.09602-.16316-.187589-.18758-.1504069-.0405-.302623-.0602-.4542441-.0636-.495585-.34817-1.0733349-.52646-1.6531578-.530255-.592776-.00406-1.1859941.173385-1.6934651.530645zm2.5420062.16122c-.2109182.0934-.4071234.22334-.5751732.3917-.1147051.11492-.2116219.2431199-.291977.37982-.08033-.1366101-.1773391-.26496-.291978-.37982-.1678821-.16819-.3639801-.29778-.574653-.39118.2835539-.11122.583184-.16717.8826526-.16536.2891798.002.5776106.0578.8511286.16484zm.967918.37935c.063527.4882299-.1092409.89107-.3886199 1.17097-.279436.2799599-.6976661.4570799-1.1689429.38705-.06017-.47899.1082219-.8905801.3875809-1.17045.2445861-.2450401.590518-.4097301.993759-.401545.057613.000975.116393.00497.1762229.013975zm-2.5001539.3874903c.2793529.2798699.4510979.6997998.386547 1.17148-.4660187.0664999-.8899388-.1080301-1.1694658-.3880805-.2793613-.2798799-.4496443-.7099498-.3865543-1.1699398.05931-.008.117864-.0128.1751935-.013925.4012666-.00802.7496935.155425.9942796.4004653zm2.8810139.5766996c.3017258.7638601.187701 1.6389101-.313165 2.3031799-.488365-.3665098-1.0572801-.5732698-1.6376581-.6216599v-.5586101c.569737.0657 1.144325-.1285898 1.5565241-.54156.169585-.1698998.3008328-.3679999.394299-.5813499zm-4.037041.5813592c.412224.413.986762.6072902 1.5565239.54156v.55758c-.5817349.048501-1.1513809.257161-1.6397249.6237208-.500377-.66412-.612873-1.53934-.310581-2.3037003.09345.2131195.224365.4111096.393782.5808395zm9.4941768-.2382398c1.3055.000291 2.380778 1.0718098 2.38078 2.4023999-.0014 1.04326-.667082 1.9635801-1.650061 2.28302-.073.023601-.132308.0782-.162267.14883l-.568452 1.33529-.567934-1.33529c-.02996-.0706-.08927-.12519-.162268-.14883-.982979-.3194399-1.64866-1.23976-1.65006-2.28302.000002-1.3305901 1.074763-2.4021099 2.380262-2.4023999zm0 .7952898c-.878803 0-1.588047.7138699-1.588047 1.5874701 0 .8735999.707178 1.58696 1.588047 1.58696.88087 0 1.588047-.7133601 1.588048-1.58696 0-.8736002-.709245-1.5874701-1.588048-1.5874701zm0 .5291601c.581446 0 1.058871.47069 1.058871 1.05831 0 .5876301-.479492 1.0577999-1.058871 1.0577999-.579378 0-1.058353-.4701698-1.058353-1.0577999 0-.58762.476908-1.05831 1.058353-1.05831zm-7.9376529.54259v.2501098c0 .3531201.529694.3531201.529694 0v-.2495899c.447508.0459.8857159.20559 1.269198.48006-.887186.74994-2.181892.75086-3.06964.0005292.3834342-.2747.8222419-.4353399 1.270748-.4811091zm3.9786461 1.2815498 1.5270678.8567801c.327514.50135.804334.8959601 1.372035 1.1223895l-2.9078888 1.6655106-2.60971-1.5316706.3209168-.7487695c.5743922-.20399 1.0875902-.5264499 1.5151822-.9348099.2665019-.1419202.535295-.2904001.782397-.4294302zm3.1414698 2.4504606.57362 1.3523396c.04522.10819.144407.16208.243917.16226.09951-.00018.199213-.0541.244435-.16226l.494553-1.166829 2.444859 1.371469c-.299503.18589-1.697459 1.05296-3.175578 1.96987l-3.4489517-2.02361zm-7.8017408.01.702813 1.6391396c.04585.10684.1447411.1602.243401.1602.09866 0 .1975499-.0534.2434-.1602l.6423509-1.4970406 2.2913771 1.3446006-3.3791871 1.93525-3.2422419-2.12438c.286099-.14806 1.24671-.64619 2.498087-1.2975806zm4.6499348 1.7962406 3.469623 2.03601c-1.615724 1.002269-3.3400909 2.071939-3.4670388 2.150739l-3.4101931-2.23445z" fill="#333" font-variant-ligatures="normal" font-variant-position="normal" font-variant-caps="normal" font-variant-numeric="normal" font-variant-alternates="normal" font-feature-settings="normal" text-indent="0" text-align="start" text-decoration-line="none" text-decoration-style="solid" text-decoration-color="#000000" text-transform="none" text-orientation="mixed" white-space="normal" shape-padding="0" isolation="auto" mix-blend-mode="normal" solid-color="#000000" solid-opacity="1" vector-effect="none"/></g></svg>