<svg id="icons" height="512" viewBox="0 0 340 340" width="512" xmlns="http://www.w3.org/2000/svg"><path d="m112.739 328.369a7.852 7.852 0 0 0 7.851-8.362c-3.249-33.7 13.7-84.6 61.8-85.412 22.739-.338 61.573-6.244 76.519-40.682a61.081 61.081 0 0 1 21.266-25.866c14.3-9.921 32.944-28.453 34.183-58.126a66.535 66.535 0 0 1 1.341-10.7c3.281-15.861 7.819-60.148-50.447-38.568l-159.332 193.583s-6.333 38.456-.91 67.754a7.843 7.843 0 0 0 7.729 6.379z" fill="#3e6a51"/><path d="m231.148 137.225a3.486 3.486 0 0 1 -2.5-5.858c22.763-23.748 41.385-38.961 58.605-47.876 4.053-2.016 7.206 3.974 3.183 6.149-16.523 8.555-34.569 23.337-56.789 46.519a3.455 3.455 0 0 1 -2.499 1.066z" fill="#224730"/><path d="m199.658 202.864a61.8 61.8 0 0 1 -11.828-1.171 3.462 3.462 0 0 1 1.323-6.8c25.116 4.891 39.388-9.237 39.529-9.38a3.462 3.462 0 0 1 4.932 4.861c-.583.594-12.597 12.49-33.956 12.49z" fill="#224730"/><path d="m133.418 89.07c-16.6-112.591-115.279-93.924-110.2 0 5.3 28.75 26.949 34.507 22.735 69.382-2.089 15.473-.543 36.388 15.9 54.521a59.432 59.432 0 0 1 14.556 28.244 86.377 86.377 0 0 1 -8.98 59.194 12.443 12.443 0 0 0 9.014 18.268c1.616.236 4.323.4 6.294.455l33.48-112.344z" fill="#3e6a51"/><path d="m89.645 83.821a18.165 18.165 0 0 1 1.18-15.442c3.867-7.5 6.578-22.567-1.537-19.261a3.4 3.4 0 0 0 -1.809 3.488c.3 2.236.131 6.378-2.833 12.644a22.724 22.724 0 0 0 -2.1 5.078 119.72 119.72 0 0 0 -11.429-16.512c-3.034-3.387-8.156 1.041-5.233 4.533.254.294 19.037 22.371 27.461 57.107-13.229-8.743-26.256-1.748-33.017-18.206a3.462 3.462 0 0 0 -6.623 2.018 26.272 26.272 0 0 0 21.445 17.309c12.676 1.859 19.981 5.435 21.535 18.474a137.258 137.258 0 0 1 .514 20.113 3.463 3.463 0 1 0 6.917.334 152.04 152.04 0 0 0 -14.471-71.677z" fill="#224730"/><path d="m88.151 326.407a8.048 8.048 0 0 0 9.748-6.465c2.423-13.954 8.789-42.9 23.04-68.875a71.584 71.584 0 0 1 37.711-32.39c22.187-8.34 56.535-26.584 65.795-61.575a57.8 57.8 0 0 1 14.292-25.34c16.206-16.8 42.1-50.151 34.066-85.273a35.357 35.357 0 0 0 -40.089-26.862c-40.466 6.477-117 28.1-117.01 99.013a14.289 14.289 0 0 1 -5.539 11.174c-11.43 9-34.142 34.538-14.7 85.966a47.641 47.641 0 0 1 2.138 25.772c-3.167 16.611-8.847 45.505-15.5 75.247a8.055 8.055 0 0 0 6.048 9.608z" fill="#80b297"/><path d="m238.242 84.573a3.48 3.48 0 0 0 -4.507 1.877c-.2.477-5.185 11.729-27.4 16.32a89.988 89.988 0 0 0 -22.091 7.812c35.695-38.5 45.085-60.983 45.473-61.938a3.462 3.462 0 0 0 -6.412-2.614c-.059.144-3.973 9.426-16.04 26.031a71.188 71.188 0 0 0 -.231-7.834c-.526-6.52.4-9.732 1-11.066 1.789-4.161-4.375-6.971-6.317-2.834-4.92 12.286 3.353 25.7-6.972 37.817-5.036 6.083-10.884 12.753-17.659 19.971-11.7 12.526-22.078 26.769-31.7 41.741a47.064 47.064 0 0 0 -1.454-14.736c-4.026-14.845-2.168-21.021-2.088-21.273a3.463 3.463 0 0 0 -6.473-2.458c-.305.78-2.846 8.124 1.878 25.543 4.151 15.579-3.187 31.392-3.322 31.837-8.28 14.462-15.986 29.523-22.76 44.408-8.5 18.612-26.372 57.025-31.393 73-1.277 4.3 5.124 6.446 6.606 2.075 5.06-16.1 23.028-54.7 31.642-73.458 2.036-3.642 12.535-20.457 34.363-23.7 27.258-4.046 30.889-22.175 31.03-22.945a3.462 3.462 0 0 0 -6.8-1.282c-.117.574-3.117 14.094-25.243 17.377a53.012 53.012 0 0 0 -22.947 9.138c11.692-22.794 25.174-45.072 39.313-63.462 1.844-1.673 17.957-15.82 40-20.376 26.176-5.41 32.179-19.9 32.422-20.52a3.445 3.445 0 0 0 -1.918-4.451z" fill="#3e6a51"/><path d="m147.616 100.24c3.4-3.144-1.19-8.281-4.7-5.255-3.396 3.145 1.195 8.282 4.7 5.255z" fill="#3e6a51"/><path d="m33.1 119.579a53.715 53.715 0 0 1 9.421 38.409c-2.081 15.415-.862 37.87 16.761 57.31a56.066 56.066 0 0 1 13.726 26.591 83.281 83.281 0 0 1 -8.618 56.855c-6.016 10.878 2.453 23.982 14.747 23.677 3.83 10.918 19.974 9.769 22.133-1.727.536 10.069 12.685 15.007 19.76 7.534a11.3 11.3 0 0 0 3.01-8.458c-.855-12.475-.219-36.522 13.661-57.41a54.612 54.612 0 0 1 44.735-24.3c22.962-.341 63.842-6.35 79.645-42.764a57.624 57.624 0 0 1 20.063-24.4c15.565-10.8 34.387-30.118 35.669-60.826a63.313 63.313 0 0 1 1.272-10.141c6.351-28.34-2.749-56.442-41.672-46.631-1.135-22.975-22.161-41-45.258-37.084-29.28 4.023-78.649 19.357-101.041 48.186-7-22.121-22.1-53.4-51.88-56.023-15.38-1.357-29.118 3.983-39.727 15.444-16.268 17.575-22.791 47.267-19.7 65.822 1.62 9.711 6.093 19.784 13.293 29.936zm244.656-59.237c34.9-9.5 39.529 14.34 34.553 38.181a70.023 70.023 0 0 0 -1.41 11.254c-1.164 27.867-18.424 45.522-32.7 55.425a64.553 64.553 0 0 0 -22.468 27.333c-14.255 32.846-52.1 38.281-73.4 38.6-50.012.566-68.807 53.818-65.2 89.111a4.306 4.306 0 0 1 -1.164 3.259c-2.272 2.609-7.045 1.31-7.559-2.143a149.15 149.15 0 0 1 -2.132-23.289c7.764-28.364 20.98-65.289 53.593-76.154 21.15-7.954 58.1-26.833 67.918-63.93a54.477 54.477 0 0 1 13.436-23.821c14.428-14.956 36.354-42.795 36.533-73.826zm-119.236-10.933c24.025-15.747 53.9-23.028 74.734-26.362a31.929 31.929 0 0 1 36.175 24.221c7.67 33.536-17.5 65.827-33.184 82.091a61.4 61.4 0 0 0 -15.145 26.857c-9.023 34.092-43.759 51.735-63.662 59.218-43.083 13.7-57.479 74.189-62.948 103.916a4.545 4.545 0 0 1 -1.984 3.038c-3.261 2.285-8.023-.9-7.016-4.833 6.47-28.937 12.01-56.946 15.518-75.347a51.111 51.111 0 0 0 -2.3-27.659c-14.576-35.214-6.788-71.013 18.823-85.537a3.463 3.463 0 0 0 1.889-3.333c-2.268-32.119 10.888-57.779 39.1-76.27zm-113.932-20.888c9.23-9.971 20.676-14.43 34.037-13.251 28.015 2.472 41.614 35.752 47.338 56.066-10.047 15.1-14.6 32.7-13.585 52.668-25.169 17.814-36.841 46.308-20.151 92.996a44.185 44.185 0 0 1 1.978 23.915c-2.846 14.927-8.609 44.38-15.343 74.545-6.91.248-11.854-7.292-8.4-13.379a90.125 90.125 0 0 0 9.342-61.533c-7.77-35.471-35.682-34.308-30.417-81.631 4.531-35.761-17.687-43.017-22.749-70.417-2.756-16.541 3.322-44.177 17.95-59.979z" fill="#2b2b2b"/></svg>