<svg id="filled_outline" height="512" viewBox="0 0 340 340" width="512" xmlns="http://www.w3.org/2000/svg" data-name="filled outline"><path d="m83.224 174.055s-43.966-3.111-63.719 34.377a71.365 71.365 0 0 0 -1.6 63.175c7.245 15.593 21.625 31.829 50.179 34.448a62.256 62.256 0 0 0 64.175-41.192l6.071-17.012a53.79 53.79 0 0 0 -32.494-68.75 91.9 91.9 0 0 0 -22.612-5.046z" fill="#e24d4d"/><path d="m237.223 123.426c-12.827 4.29-38.917 16.764-39.528 47.381a56.385 56.385 0 0 0 7.548 28.752c9.473 16.743 32.066 45.24 73.065 36.5 17.476-3.723 33-13.748 42.755-28.907 9.51-14.777 11.143-39.8-.855-65.47a54.409 54.409 0 0 0 -26.568-26.834c-11.866-5.36-28.3-7.474-47.526 4.345a43.205 43.205 0 0 1 -8.891 4.233z" fill="#e24d4d"/><path d="m174.563 185.7c-15.11-2.411-52.706-4.627-70.847 28.212a62.822 62.822 0 0 0 -7.47 33.7c1.163 22.264 10.164 63.519 59.429 75.781 21 5.227 43.311 2.913 62.16-7.717 21.131-11.917 42.923-36.548 39.731-87.408 0 0-4.169-56.349-69.688-42.86a37.107 37.107 0 0 1 -13.315.292z" fill="#ff6e6e"/><path d="m247.039 132.734s14.7-7.486 30.263-.133a1.412 1.412 0 0 0 1.713-2.166c-4.274-5.229-12.81-12.207-26.646-9.3z" fill="#c43b3b"/><path d="m156.213 86.437a89.927 89.927 0 0 0 24.763 5.278 56.612 56.612 0 0 1 24.1 6.83c8.179 4.584 17.358 12 22.767 23.626 0 0-15.611.633-25.1-6.251a2.009 2.009 0 0 0 -3.153 2.08c2.439 10.06 11.137 28.063 41.987 18.766 0 0 35.458-10.951 26.744-40.815a2.015 2.015 0 0 0 -3.652-.509c-2.034 3.3-5.466 7.746-9.927 9.389 0 0-8.872 4.459-12.593 12.187 0 0-10.921-32.426-49.723-38.822a38.555 38.555 0 0 0 -3.9-.411c-6.731-.421-30.8-2.705-35.961-14z" fill="#8eb260"/><path d="m119.891 14.706a8.439 8.439 0 0 1 10.091 2.247c9.358 11.281 30.4 42.378 33.145 96.5 0 0 25.47 21.816 22.276 65.458 0 0 18.254-.021 26.467-13.515a2.008 2.008 0 0 1 3.71 1.033c.072 8.563-2.5 21.813-17.805 27.573a22.931 22.931 0 0 1 -10.3 1.315 104.619 104.619 0 0 0 -18.535-.378 23.366 23.366 0 0 1 -14.427-3.043c-6.947-4.192-14.9-12.624-13.754-29.079a2.012 2.012 0 0 1 3.646-1.015c4.377 6.231 13.625 16.634 27.47 18.355 0 0 1.137-21.311-7.1-39.159a24.009 24.009 0 0 0 -24.843-13.584c-16.983 2.181-42.7 11.076-45.991 44.648 0 0 14.438-1.06 22.34-11.235a2.009 2.009 0 0 1 3.575 1.433c-.977 9.669-6.135 24.536-28.754 23.574 0 0-47.668 7.782-38.842-32.144a2.014 2.014 0 0 1 3.75-.521c3.066 5.981 9.767 14.764 22.42 13.793 0 0 4.511-55.638 68.984-57.446 0 0 .736-36.969-30.881-82.387a8.427 8.427 0 0 1 3.358-12.423z" fill="#abd37d"/><g fill="#24242b"><path d="m295.287 111.207a52.983 52.983 0 0 0 -11.4-3.688 4 4 0 1 0 -1.568 7.843 45.107 45.107 0 0 1 9.672 3.136 50.428 50.428 0 0 1 24.591 24.882c10.417 22.293 10.854 46.478 1.115 61.612-8.941 13.893-23.227 23.538-40.226 27.16a4 4 0 0 0 .83 7.914 4.075 4.075 0 0 0 .838-.089c19.1-4.07 35.182-14.956 45.284-30.655 11.193-17.391 10.959-44.6-.593-69.329a58.43 58.43 0 0 0 -28.543-28.786z"/><path d="m227.5 182.558a4 4 0 1 0 -2.623 7.558c26.112 9.063 28.609 37.26 28.7 38.4 2.474 39.432-10.564 68.366-37.7 83.672-17.5 9.87-38.536 12.47-59.229 7.32-46.4-11.55-55.253-50.136-56.4-72.11a58.777 58.777 0 0 1 6.975-31.556 49.893 49.893 0 0 1 27.506-23.442 4 4 0 1 0 -2.709-7.527 57.674 57.674 0 0 0 -31.806 27.1 66.768 66.768 0 0 0 -7.962 35.842c.59 11.3 3.188 28.009 12.217 43.452 10.669 18.248 27.573 30.361 50.24 36a94.22 94.22 0 0 0 22.75 2.823 85.925 85.925 0 0 0 42.341-10.93c20.919-11.8 45.146-37.185 41.757-91.186-.105-1.408-2.911-34.605-34.057-45.416z"/><path d="m33 234.869c-1.693 9.168-.5 22.983 7.923 34.258a4 4 0 0 0 6.409-4.789 37.076 37.076 0 0 1 -6.465-28.016 4 4 0 0 0 -7.867-1.453z"/><path d="m40.745 221.4a4 4 0 0 0 5.492-1.354c.62-1.024 1.045-1.588 1.062-1.61a4 4 0 0 0 -6.33-4.891 26.03 26.03 0 0 0 -1.577 2.362 4 4 0 0 0 1.353 5.493z"/><path d="m124.623 241a61.151 61.151 0 0 0 9.562 38.352 4 4 0 1 0 6.778-4.248 53.326 53.326 0 0 1 -8.368-33.43 4 4 0 0 0 -7.972-.674z"/><path d="m133.149 227.455a4 4 0 0 0 3.614-2.279c.087-.182.141-.29.157-.32a4 4 0 0 0 -7.086-3.713s-.107.2-.292.59a4 4 0 0 0 3.607 5.722z"/><path d="m282.85 135.625a4 4 0 0 0 2.42-7.186 29.224 29.224 0 0 0 -16.766-6.291 32.281 32.281 0 0 0 2.321-4.107c3.963-8.43 3.84-17.858-.365-28.022a4 4 0 0 0 -3.656-2.467 4.05 4.05 0 0 0 -3.707 2.395c-1.1 2.5-4.989 9.383-9.737 11.133a3.989 3.989 0 0 0 -.413.179 38.694 38.694 0 0 0 -10.065 7.741c-5.625-10.456-19.862-29.815-49.806-34.751a42.359 42.359 0 0 0 -4.3-.456c-10.391-.651-23.384-3.135-29.612-8.135-8.024-26.927-19.885-43.764-26.104-51.258a12.44 12.44 0 0 0 -19.811 15.012c24.733 35.531 29.192 65.983 29.992 76.29-32.38 2.093-49.3 17.872-57.851 31.033a73 73 0 0 0 -10.427 26.228c-12.921-1.117-17.076-15.5-17.256-16.144a4 4 0 0 0 -7.67-.173c-3.866 12.06-3.8 21.895.163 29.3a65.837 65.837 0 0 0 -34.234 30.627 75.612 75.612 0 0 0 -1.685 66.724c7.05 15.174 22.043 33.866 53.438 36.746q2.975.273 5.959.273a65.933 65.933 0 0 0 26.206-5.436 4 4 0 1 0 -3.186-7.338 57.8 57.8 0 0 1 -28.249 4.534c-22.162-2.033-37.946-12.849-46.913-32.15a67.568 67.568 0 0 1 1.508-59.626c6.957-13.2 17.86-22.546 32.41-27.813 5.109 4.405 12.464 7.068 21.652 7.771a4 4 0 0 0 .61-7.977c-6.622-.506-15.417-2.45-19.708-8.829-2.338-3.477-3.234-8.068-2.687-13.715 4.688 6.38 12.307 12.062 23.414 11.214a4 4 0 0 0 3.681-3.665 63.082 63.082 0 0 1 9.684-26.192c11.433-17.592 30.082-26.872 55.428-27.583a4 4 0 0 0 3.887-3.919c.031-1.563.393-38.8-31.6-84.752a4.3 4.3 0 0 1 -.63-3.63 4.448 4.448 0 0 1 7.718-1.7c8.791 10.6 29.531 40.985 32.229 94.146a4 4 0 0 0 1.393 2.835c.239.206 23.9 20.978 20.889 62.128a4 4 0 0 0 3.989 4.292c6.554-.006 17.827-2.405 25.664-10.168a24.239 24.239 0 0 1 -3.278 8.638c-3.308 5.214-8.836 8.689-16.439 10.335-3.438-.425-18.413-2.087-27.235-.055-3.563-.873-17.824-5.438-19.322-22.841 5.534 6.4 14.4 13.793 26.589 15.307a4 4 0 0 0 4.488-3.757c.048-.91 1.09-22.513-7.469-41.048a28.2 28.2 0 0 0 -28.983-15.875c-16.92 2.173-45.846 11.328-49.463 48.225a4 4 0 0 0 4.273 4.38c.653-.048 11.6-.954 20.339-7.853a20.147 20.147 0 0 1 -4.17 7.405c-4.109 4.5-10.551 6.586-19.13 6.234a4 4 0 0 0 -.34 7.992c11.085.476 19.642-2.514 25.422-8.881 9.651-10.626 7.551-26.576 7.451-27.249a4 4 0 0 0 -7.739-.76c-3.113 8.949-11.78 12.668-17.38 14.168 4.868-25.56 25.083-33.587 41.758-35.728a20.109 20.109 0 0 1 20.7 11.293c5.47 11.847 6.577 25.544 6.755 32.573-14.729-4.379-22.761-19.8-22.845-19.96a4 4 0 0 0 -7.507 1.1c-2.141 11.967-.45 22 5.027 29.811a32.819 32.819 0 0 0 11.457 10.017 28.924 28.924 0 0 0 -5.326 4.193 4 4 0 0 0 5.724 5.59c3.734-3.825 10.029-6.092 10.9-6.4 6.518-1.8 20.237-.577 25.361.09a39.531 39.531 0 0 1 12.322 6.638 4 4 0 0 0 4.993-6.251 47.385 47.385 0 0 0 -5.492-3.767 29.251 29.251 0 0 0 12.039-10.645c7.831-12.345 4.23-27.414 4.073-28.049a4 4 0 0 0 -3.852-3.04h-.031a4 4 0 0 0 -3.867 2.98c-3.27 12.416-14.87 15.947-21.235 16.955 1.114-36.955-17.4-57.78-22.6-62.883a206.945 206.945 0 0 0 -5.02-35.23c9.3 3.869 20.727 5.038 26.267 5.384a34.524 34.524 0 0 1 3.494.365c35.834 5.907 46.164 34.929 46.583 36.152a4 4 0 0 0 7.395.459c2.825-5.866 9.547-9.681 10.636-10.269a22.52 22.52 0 0 0 9.026-7.119 22.948 22.948 0 0 1 -1.816 13.233 31.156 31.156 0 0 1 -10.424 11.779l-.021.015a51.735 51.735 0 0 1 -12.731 6.538c-12.135 3.659-21.572 3.17-28.042-1.458a22.1 22.1 0 0 1 -7.327-9.614c10.087 4.743 22.253 4.329 22.949 4.3a4 4 0 0 0 3.464-5.684c-4.9-10.529-13.12-19.084-24.438-25.428a60.222 60.222 0 0 0 -25.794-7.332c-1.913-.124-3.889-.328-5.874-.608a4 4 0 1 0 -1.115 7.922c2.183.308 4.362.532 6.472.668a52.32 52.32 0 0 1 22.4 6.328 50.9 50.9 0 0 1 17.7 15.816c-6.567-.754-15.062-2.935-18.924-8.315a4 4 0 0 0 -7.247 2.455c.021.68.645 16.46 12.356 25.45a48.3 48.3 0 0 0 -11.848 21.772 4 4 0 1 0 7.773 1.889 40.8 40.8 0 0 1 11.382-19.673 33.675 33.675 0 0 0 11.606 1.929 48.245 48.245 0 0 0 6.531-.474 23.635 23.635 0 0 0 -.392 12.2 4 4 0 1 0 7.795-1.8 16.23 16.23 0 0 1 2.279-12.519c.21-.061.416-.115.627-.179a58.239 58.239 0 0 0 15.284-7.84c1.571-1.006 11.153-6.465 22.395 2.062a3.982 3.982 0 0 0 2.414.826z"/></g></svg>