<svg id="icons" height="512" viewBox="0 0 340 340" width="512" xmlns="http://www.w3.org/2000/svg"><g fill="#719b56"><path d="m165.661 229.521c8.4-2.693 9.414-4.163 28.839-.091 29.842 6.255 31.747-14.486 31.747-14.486a27.878 27.878 0 0 0 19.529-3.08c18.335-10.785 5-28 5-28-33.629-25.016-79.563 21.085-85.115 45.657z"/><path d="m192.12 85.326s-24.874-5.651-29.206 17.9c-.837 4.551 1.245 9.037 4.718 12.623a5.739 5.739 0 0 1 -.086 8.2c-3.8 3.562-5.968 9.542-1.425 20.817 10.54 26.156-.352 42.851-.352 42.851s18.5-8.091 39.053-32c14.704-27.605 10.993-51.185-12.702-70.391z"/><path d="m204.72 156s4-18.564-4.427-30.4c-16.847-23.666-11.384-38.736-3.538-47.334a27.017 27.017 0 0 0 6.43-25.064c-2.012-7.575-2.044-15.425 1.713-22.655 13.588-26.147 42.946-15.958 42.946-15.958s30.556 11.654 18.356 39.218a31.122 31.122 0 0 0 -1.752 20.582c2.052 7.733 1.576 18.847-11.455 29.086a26.475 26.475 0 0 0 -10.014 16.967c-.916 6.493-5.43 15.13-20.373 22.716-.001 0-7.765 3.683-17.886 12.842z"/><path d="m313.949 122.447c-8.846-6.844-24.038-10.686-44.167 13.906 0 0-9.987-9.211-24.417 9.485a131.522 131.522 0 0 1 -22.644 22.648l-22.108 17.488s15.583-9.908 41.754.237a19.2 19.2 0 0 0 23.819-8.316s16.572 12.487 28.779-8.761a15.581 15.581 0 0 1 9.572-7.151c16.673-3.591 25.383-26.641 9.412-39.536z"/></g><path d="m112.117 235.294c-11.426-10.074-24.547-10.153-40.934 9.62-9.844 27.789.322 48.823 24.235 65.217 18.533 12.831 38.856 9.719 50.659-5.341 6.592-8.833 7.886-17.867 5.063-27.478z" fill="#ffeec8"/><path d="m114.918 232.49c-5.966-7.549-13.831-13.14-23.688-13.517-15.46-1.08-30.1 12.34-31.418 27.789a21.137 21.137 0 0 1 .636 11.17c1.489 5.614 3.326 10.008 6.122 16.7 3.621 8.4 4.073 15.563 3.083 21.373a4.475 4.475 0 0 0 4.235 5.2c4.514.234 11.652 2.082 21.53 8.92-18.821-16.645-33.106-37.8-16.6-62.5 17.748-26.554 36.1-15.135 36.1-15.135z" fill="#eab198"/><path d="m145.7 294.972c9.5-8.473 6.817-20-.83-28.631l-32.909-37.189a29.425 29.425 0 0 0 -23.361-10.169c-.562.247-10.353 4.374-7.244 15.93 3.67 13.639 16.662 38.634 42.361 57.152 5.911 4.191 15.664 7.645 21.983 2.907z" fill="#f980a0"/><path d="m91.454 287.744a3.462 3.462 0 0 0 .3-4.887l-31.941-36.1a32.775 32.775 0 0 0 .638 11.169l26.117 29.515a3.463 3.463 0 0 0 4.886.303z" fill="#eab198"/><path d="m81.356 234.912a64.763 64.763 0 0 0 2.176 6.537c16.138-18.432 31.386-8.959 31.386-8.959-6.544-8.33-15.421-14.1-26.318-13.507-.562.247-10.353 4.374-7.244 15.929z" fill="#b2446b"/><path d="m97.434 298.235c.393-4.615 7.267-4.147 7.03.478-.393 4.615-7.264 4.147-7.03-.478z" fill="#eab198"/><path d="m267.793 73.5a27.782 27.782 0 0 1 1.572-18.292c10.866-23.076-8.155-39.379-20.387-43.89-.321-.112-32.355-10.839-47.153 17.639-3.8 7.323-4.472 15.781-1.985 25.141a23.456 23.456 0 0 1 -5.64 21.842 34.656 34.656 0 0 0 -4.15 5.56c-12.9-1.531-27.248 3.208-30.539 21.1-.981 5.332 1.028 10.905 5.636 15.659a2.248 2.248 0 0 1 .032 3.271c-3.294 3.09-10.085 11.725-2.023 25.126 10.023 16.661 1.638 35.3-.1 38.789a214.156 214.156 0 0 1 -26.7 29.791 55.264 55.264 0 0 0 2.911-29.773 3.462 3.462 0 0 0 -6.761 1.537 48.975 48.975 0 0 1 -14.594 43.654c-24.115-33-71.883-6.877-59.952 31.221 4.084 12.6 12.216 24.763 7.091 38.116a19.483 19.483 0 0 0 -1.872 1.938c-13.508 10.724-26.986 1.306-44.573 15.88a3.462 3.462 0 0 0 4.342 5.394c13.063-10.832 22.338-5.923 35.117-10.619a28.032 28.032 0 0 0 -.543 3.9 18.106 18.106 0 0 1 -2.651 8.268c-2.582 3.745 2.928 7.684 5.636 4.024a24.821 24.821 0 0 0 3.923-11.816 18.289 18.289 0 0 1 3.61-10.072 22.365 22.365 0 0 0 2.018-1.935c1.823-.495 9.445-1.628 23.389 8.025 35.542 26.471 82.124-13.657 54.019-48.931l-4.2-4.74a57.246 57.246 0 0 1 29.141-9.917c4.543-.112 4.5-6.876-.051-6.924a63.071 63.071 0 0 0 -23.723 5.781 211.46 211.46 0 0 1 18.68-15.608c8.458-2.574 18.5-2.785 28.363-.573 16.172 3.829 29.776.225 33.454-13.243 16.738 1.973 35.2-11.978 28.46-29.227a21.733 21.733 0 0 0 9.611-7.093c11.135 5.805 23.805 1.315 30.76-11.645a12.061 12.061 0 0 1 7.469-5.531c46.37-15.944 5.149-83.119-36.4-33.46-9.9-3.811-18.292 1.612-26.412 11.855a128.4 128.4 0 0 1 -22.051 22.048c-9.6 7.644-27.988 22.039-37.361 29.085a318.059 318.059 0 0 0 24.111-36.532c9.42-8.467 16.7-12 16.849-12.078 16.615-8.435 21.262-18.425 22.234-25.32a22.853 22.853 0 0 1 8.726-14.727c14.599-11.468 14.946-24.111 12.667-32.698zm-90.769 103.878c15.786-25.675 17.157-43.67 17.232-44.911a3.462 3.462 0 0 0 -6.911-.43c-.017.257-1.147 14.1-12.423 34.81a41.721 41.721 0 0 0 -5.834-23.758c-4.014-6.672-3.736-12.226.826-16.507a9.255 9.255 0 0 0 .205-13.138c-1.742-1.8-4.562-5.445-3.8-9.588 2.607-14.176 13.6-16.035 20.737-15.668-2.941 9.574-1.606 22.538 10.417 39.427 6.4 9 4.657 22.941 4.035 26.7a115.733 115.733 0 0 1 -24.484 23.063zm67 31.5c-4.97 2.922-10.742 3.816-17.159 2.657a3.483 3.483 0 0 0 -4.078 3.369c-.64 10.664-12.3 13.692-25.587 10.4a68.679 68.679 0 0 0 -16.911-1.652c24.473-15.773 45-22.781 45.319-22.888 4.284-1.513 2.15-7.937-2.194-6.567-1.392.464-23.778 8.092-49.9 25.514a83.159 83.159 0 0 1 16.868-21.3c6.786-4.491 13.378-8.582 19.721-12.3 6.559-1.485 17.146-2.05 31.013 3.325a23.476 23.476 0 0 0 9.639 1.567c2.962 7.497.704 13.497-6.734 17.877zm18.152-71.287c5.631-.27 4.417 2.169 7.85 2.214a3.464 3.464 0 0 0 2.438-1.261c14.572-17.8 27.818-22.3 39.369-13.361 13.532 10.891 5.972 30.466-8.191 33.454-13.1 3.139-11.978 16.573-23.635 19.171-6.233 1.309-11.694-2.65-11.735-2.68-3.515-2.209-4.975.993-6.736 3.385a15.556 15.556 0 0 1 -17.915 4.467 69 69 0 0 0 -19.66-4.641c36.558-19.582 61.906-25.914 62.279-26 4.4-1.143 2.817-7.723-1.628-6.731-1.437.348-23.258 5.779-55.6 22.187a132.5 132.5 0 0 0 19.1-19.84c4.879-6.331 9.743-9.914 14.061-10.362zm-93.146 75.893a63.511 63.511 0 0 0 -6.377 13.922 213.338 213.338 0 0 0 -26.668 23.667l-3.706-4.189c8.778-6.97 25.468-24.036 36.751-33.4zm16.747-33.884a298.1 298.1 0 0 1 -27.861 34.34c-9.761 9.479-23.717 22.2-30.226 27.76l-5.023-5.676c20.4-15.972 35-31.527 45.436-45.524a88.265 88.265 0 0 0 17.674-10.9zm-52.457 78.91c8.021 9.171 17.081 16.769 15.633 30.177-3.15 24.14-31.15 33.822-51.564 18.6-11.246-7.785-19.4-9.577-24.539-9.574 3.169-13.751-4.072-25.372-8.314-38.007-6.284-17.855 7.732-38.421 26.648-37.267a26.358 26.358 0 0 1 18.187 9.01zm106.229-138.552c-1.065 7.55-7.465 14.5-18.428 20.072a55.826 55.826 0 0 0 -5.866 3.417 335.042 335.042 0 0 0 17.892-42.907c11.354-33.711 13.435-57.322 13.517-58.311.306-4.519-6.435-5.123-6.9-.58-.02.235-2.124 23.932-13.253 56.9a328.029 328.029 0 0 1 -17.61 42.127c-.534-5.652-2.094-11.883-5.789-17.073-12.514-17.578-13.793-32.043-3.8-42.991a30.352 30.352 0 0 0 7.219-28.288c-2.03-7.639-1.546-14.426 1.438-20.17 11.853-22.811 36.97-14.882 38.682-14.309.871.351 13.134 5.447 17.452 15.865 6 15.152-8.288 22.457-3 41.571 2.539 9.567-.91 18.138-10.248 25.476a29.752 29.752 0 0 0 -11.306 19.201z" fill="#2b2b2b"/></svg>